%
M48
M72
T01C0.0120
T02C0.0160
T03C0.0200
T04C0.0236
T05C0.0315
T06C0.0320
T07C0.0354
T08C0.0394
T09C0.0400
T10C0.0670
T11C0.1181
T12C0.1772
%
T01
X12048Y19161
X12048Y61090
X36457Y19161
X12048Y19752
X12048Y20342
X12048Y20362
X12048Y20933
X12048Y21523
X12048Y22114
X12048Y22704
X12048Y23295
X12048Y23885
X12048Y24476
X12048Y25067
X12048Y25657
X12048Y26248
X12048Y26838
X12048Y27429
X12048Y28019
X12048Y28610
X12048Y29200
X12048Y29791
X12048Y30381
X12048Y30972
X12048Y31563
X12048Y32153
X12048Y32744
X12048Y33334
X12048Y33925
X12048Y34515
X12048Y35106
X12048Y35696
X12048Y36287
X12048Y36878
X12048Y37468
X12048Y38059
X12048Y38649
X12048Y39240
X12048Y39830
X12048Y40421
X12048Y41011
X12048Y41602
X12048Y42193
X12048Y42783
X12048Y43374
X12048Y43964
X12048Y44555
X12048Y45145
X12048Y45736
X12048Y46326
X12048Y46917
X12048Y47507
X12048Y48098
X12048Y48689
X12048Y49279
X12048Y49870
X12048Y50460
X12048Y51051
X12048Y51641
X12048Y52232
X12048Y52822
X12048Y53413
X12048Y54004
X12048Y54594
X12048Y55185
X12048Y55775
X12048Y56366
X12048Y56956
X12048Y57547
X12048Y58137
X12048Y58728
X12048Y59319
X12048Y59909
X12048Y60500
X13465Y59870
X13032Y58964
X13032Y58059
X13465Y58059
X14567Y58452
X18898Y60145
X19213Y60145
X19528Y60145
X19843Y60145
X20355Y60145
X20748Y60145
X21693Y59830
X21693Y59515
X22008Y59515
X22008Y59830
X25079Y59456
X25355Y60401
X25689Y60421
X26457Y59082
X26260Y57035
X28360Y54096
X31063Y55500
X30709Y57507
X29370Y57862
X31890Y60657
X32166Y60972
X36457Y61090
X36457Y60500
X36457Y59909
X36457Y59319
X36457Y58728
X36457Y58137
X36457Y57547
X36457Y56956
X36457Y56366
X36457Y55775
X36457Y55185
X36457Y54594
X36457Y54004
X36457Y53413
X36457Y52822
X36457Y52232
X36457Y51641
X36457Y51051
X36457Y50460
X36457Y49870
X36457Y49279
X36457Y48689
X36457Y48098
X36457Y47507
X36457Y46917
X36457Y46326
X36457Y45736
X36457Y45145
X36457Y44555
X36457Y43964
X36457Y43374
X36457Y42783
X36457Y42193
X36457Y41602
X36457Y41011
X36457Y40421
X36457Y39830
X36457Y39240
X36457Y38649
X36457Y38059
X36457Y37468
X36457Y36878
X36457Y36287
X36457Y35696
X36457Y35106
X36457Y34515
X36457Y33925
X36457Y33334
X36457Y32744
X36457Y32153
X36457Y31563
X36457Y30972
X36457Y30381
X36457Y29791
X36457Y29200
X36457Y28610
X36457Y28019
X36457Y27429
X36457Y26838
X36457Y26248
X36457Y25657
X36457Y25067
X36457Y24476
X36457Y23885
X36457Y23295
X36457Y22704
X36457Y22114
X36457Y21523
X36457Y20933
X36457Y20362
X36457Y20342
X36457Y19752
X35670Y20460
X35670Y20815
X35670Y21169
X35670Y21523
X35079Y23098
X34646Y23728
X33465Y21996
X33071Y21996
X32677Y21996
X32284Y21326
X31614Y21287
X31260Y21287
X30906Y21287
X30906Y20933
X31260Y20933
X31614Y20933
X31614Y20578
X31260Y20578
X30906Y20578
X30551Y21130
X29292Y21169
X28859Y21130
X28859Y21484
X28544Y22271
X28544Y22586
X28189Y22586
X28189Y22271
X27835Y22271
X27835Y22586
X26733Y21720
X26614Y21366
X26733Y21011
X26181Y21366
X25394Y20460
X25394Y20106
X25040Y20106
X25040Y20460
X24075Y20401
X23721Y20401
X23878Y20716
X23524Y20716
X23366Y20401
X23366Y21031
X23681Y21031
X22894Y21622
X23229Y23137
X23504Y23413
X23622Y23846
X22796Y23807
X22796Y24200
X22953Y25539
X23524Y25598
X23524Y25204
X23524Y25992
X23898Y27586
X23465Y29122
X25512Y28846
X25906Y29437
X26929Y30736
X26910Y27960
X26516Y27960
X26614Y27468
X27382Y27960
X27855Y27960
X28248Y27960
X28229Y27468
X27776Y26897
X27776Y26543
X27382Y26543
X27382Y26897
X30000Y25224
X30709Y26444
X31890Y26484
X33701Y20933
X33701Y20578
X34016Y20145
X34410Y20145
X35079Y20027
X33583Y19870
X29095Y17704
X28307Y16346
X27914Y16346
X27520Y16346
X27126Y16346
X26733Y16346
X27992Y19752
X28189Y20263
X28189Y20618
X25433Y22389
X24843Y23925
X25000Y24830
X21969Y26169
X21693Y26602
X21299Y27153
X21024Y27901
X20315Y26326
X20079Y26051
X20276Y25736
X20906Y25972
X18110Y29122
X16890Y30775
X16575Y31130
X16024Y31799
X14213Y32822
X14607Y33846
X13662Y34378
X17914Y36130
X19843Y34004
X21359Y31307
X21713Y31307
X22067Y31307
X21654Y30696
X17756Y24240
X17441Y23885
X17205Y22389
X17126Y22035
X16221Y21563
X15433Y20067
X15788Y19791
X15433Y19515
X15788Y19240
X17087Y16090
X17402Y15578
X17402Y15224
X17756Y15224
X17756Y15578
X17402Y14870
X15906Y11681
X16201Y11385
X15906Y11090
X16201Y10795
X16496Y11090
X16792Y10795
X16496Y10500
X16201Y10204
X15906Y9909
X16496Y9909
X16792Y10204
X17087Y10460
X17087Y9909
X17481Y9456
X17481Y8866
X17481Y8275
X17481Y7685
X17284Y7291
X16890Y7685
X16496Y7291
X16103Y7685
X15709Y7291
X15315Y7685
X14922Y7291
X14646Y9850
X14646Y10204
X14646Y10559
X14646Y10913
X14646Y11267
X14646Y11622
X15414Y11681
X15414Y10795
X15414Y10500
X15906Y10500
X19095Y10342
X20197Y10027
X20433Y10263
X20670Y10539
X20906Y10815
X21536Y10106
X21614Y9673
X20512Y11838
X20906Y12074
X22008Y13807
X21693Y14004
X21929Y14319
X22481Y13334
X23386Y14909
X20945Y14200
X21614Y18492
X22205Y19988
X22166Y20775
X21654Y20657
X21418Y20381
X21181Y20657
X20551Y20303
X23583Y19200
X27323Y12074
X29429Y9378
X29193Y9063
X29666Y9063
X30453Y9063
X30729Y9378
X31044Y9063
X31044Y8511
X30945Y7921
X31299Y7921
X31299Y7527
X30945Y7527
X30591Y7527
X16614Y23610
X16457Y27114
X15709Y28098
X26260Y43964
X26260Y46602
X31063Y52665
X18622Y61996
X18622Y62311
X18622Y62626
X18622Y62941
X18622Y63256
X17244Y65854
X17244Y66208
X16851Y66326
X16851Y65972
X16496Y66326
X16496Y66681
X16496Y67035
X16496Y67389
X16851Y67389
X16851Y67035
X16851Y66681
X16969Y67783
X17362Y67783
X17756Y68098
X18150Y68098
X19016Y67862
X19016Y67507
X19016Y67153
X19370Y67153
X19370Y67507
X21536Y67311
X21851Y67311
X22166Y67311
X22481Y67311
X22796Y67311
X24292Y67311
X24607Y67311
X24607Y67626
X24292Y67626
X26024Y68767
X28977Y68767
X29567Y68767
X30158Y68767
X30748Y68767
X31044Y68275
X31339Y68767
X31634Y68275
X31929Y68767
X32225Y68275
X32520Y68767
X32815Y68275
X33110Y68767
X33406Y68275
X33701Y68767
X15985Y68767
X15689Y68275
X15394Y68767
X15099Y68275
X14803Y68767
T02
X27559Y36326
X32126Y31208
X27992Y60185
X28504Y60185
X32284Y59830
X32284Y59437
X32284Y59043
X32284Y58649
X33701Y59830
T03
X29055Y59673
X29555Y59673
X30055Y59673
T04
X19081Y8507
X19081Y8007
X19081Y7507
X19081Y7007
X19081Y6507
X19581Y6507
X19581Y7007
X19581Y7507
X19581Y8007
X19581Y8507
X29203Y6956
X31112Y6956
X28544Y25067
X25906Y25067
X29449Y33610
X19660Y32169
X19660Y31669
X19660Y31169
X19660Y30669
X19660Y30169
X19160Y30169
X19160Y30669
X19160Y31169
X19160Y31669
X19160Y32169
X15906Y59555
T05
X24607Y18295
X24016Y14633
X28740Y10815
X18583Y64122
X20355Y67232
T06
X17975Y19473
X18541Y18908
X17788Y26299
X18354Y26865
X14849Y35933
X14049Y35933
X29764Y23098
X29764Y22311
X18196Y11011
X17396Y11011
T07
X29941Y15736
X32500Y15736
T08
X28740Y5775
X31575Y5775
T09
X14107Y26413
X14107Y27413
X15107Y27413
X15107Y26413
X15107Y28413
X15107Y29413
X15107Y30413
X14107Y30413
X14107Y29413
X14107Y28413
X14607Y40815
X15607Y40815
X16607Y40815
X17607Y40815
X18607Y40815
X30807Y35244
X30256Y33925
X30807Y32606
X33445Y35244
X33996Y33925
X33445Y32606
T10
X22948Y11974
X24248Y9774
X25548Y11974
T11
X32126Y33925
T12
X23268Y54496
M30
