G75*
%MOIN*%
%OFA0B0*%
%FSLAX24Y24*%
%IPPOS*%
%LPD*%
%AMOC8*
5,1,8,0,0,1.08239X$1,22.5*
%
%ADD10C,0.0000*%
%ADD11C,0.1812*%
%ADD12C,0.0098*%
%ADD13R,0.0591X0.0670*%
%ADD14C,0.0145*%
%ADD15R,0.0490X0.0740*%
%ADD16R,0.0440X0.0440*%
%ADD17R,0.0740X0.0490*%
%ADD18R,0.0910X0.0280*%
%ADD19R,0.0355X0.0355*%
%ADD20R,0.0355X0.0394*%
%ADD21R,0.0257X0.0512*%
%ADD22R,0.0512X0.0257*%
%ADD23R,0.0476X0.0476*%
%ADD24C,0.0476*%
%ADD25C,0.1045*%
%ADD26R,0.0276X0.0434*%
%ADD27R,0.0158X0.0237*%
%ADD28C,0.0780*%
%ADD29OC8,0.0780*%
%ADD30C,0.0640*%
%ADD31C,0.1221*%
%ADD32R,0.1103X0.1044*%
%ADD33R,0.0512X0.0355*%
%ADD34R,0.0157X0.0375*%
%ADD35R,0.0985X0.0690*%
%ADD36R,0.0316X0.0150*%
%ADD37R,0.0473X0.0434*%
%ADD38R,0.0434X0.0473*%
%ADD39R,0.0749X0.0670*%
%ADD40R,0.0552X0.0552*%
%ADD41R,0.0560X0.0560*%
%ADD42C,0.0560*%
%ADD43R,0.0631X0.0434*%
%ADD44R,0.0434X0.0631*%
%ADD45R,0.1064X0.0394*%
%ADD46R,0.0197X0.0316*%
%ADD47R,0.0335X0.0650*%
%ADD48R,0.0650X0.0335*%
%ADD49R,0.0453X0.0453*%
%ADD50C,0.0440*%
%ADD51R,0.0178X0.0276*%
%ADD52R,0.0512X0.0316*%
%ADD53C,0.0340*%
%ADD54R,0.0512X0.0434*%
%ADD55R,0.0394X0.0316*%
%ADD56C,0.0634*%
%ADD57R,0.0197X0.0571*%
%ADD58C,0.0002*%
%ADD59R,0.0394X0.0355*%
%ADD60R,0.0355X0.0512*%
%ADD61R,0.0434X0.0749*%
%ADD62R,0.0749X0.0434*%
%ADD63C,0.0740*%
%ADD64R,0.0560X0.0560*%
%ADD65C,0.0063*%
%ADD66C,0.0181*%
%ADD67C,0.0068*%
%ADD68R,0.0473X0.0788*%
%ADD69C,0.0055*%
%ADD70C,0.0189*%
%ADD71C,0.0170*%
%ADD72C,0.0220*%
D10*
X012441Y018570D02*
X013229Y018570D01*
X013295Y018568D01*
X013361Y018563D01*
X013427Y018553D01*
X013492Y018540D01*
X013556Y018524D01*
X013619Y018504D01*
X013681Y018480D01*
X013741Y018453D01*
X013800Y018423D01*
X013857Y018389D01*
X013912Y018352D01*
X013965Y018312D01*
X014016Y018270D01*
X014064Y018224D01*
X014110Y018176D01*
X014152Y018125D01*
X014192Y018072D01*
X014229Y018017D01*
X014263Y017960D01*
X014293Y017901D01*
X014320Y017841D01*
X014344Y017779D01*
X014364Y017716D01*
X014380Y017652D01*
X014393Y017587D01*
X014403Y017521D01*
X014408Y017455D01*
X014410Y017389D01*
X014410Y007153D01*
X014409Y007153D02*
X014411Y007067D01*
X014416Y006981D01*
X014426Y006896D01*
X014439Y006811D01*
X014456Y006727D01*
X014476Y006643D01*
X014500Y006561D01*
X014528Y006480D01*
X014559Y006399D01*
X014593Y006321D01*
X014631Y006244D01*
X014673Y006169D01*
X014717Y006095D01*
X014765Y006024D01*
X014816Y005954D01*
X014870Y005887D01*
X014926Y005823D01*
X014986Y005761D01*
X015048Y005701D01*
X015112Y005645D01*
X015179Y005591D01*
X015249Y005540D01*
X015320Y005492D01*
X015393Y005448D01*
X015469Y005406D01*
X015546Y005368D01*
X015624Y005334D01*
X015705Y005303D01*
X015786Y005275D01*
X015868Y005251D01*
X015952Y005231D01*
X016036Y005214D01*
X016121Y005201D01*
X016206Y005191D01*
X016292Y005186D01*
X016378Y005184D01*
X016378Y005185D02*
X032126Y005185D01*
X032126Y005184D02*
X032212Y005186D01*
X032298Y005191D01*
X032383Y005201D01*
X032468Y005214D01*
X032552Y005231D01*
X032636Y005251D01*
X032718Y005275D01*
X032799Y005303D01*
X032880Y005334D01*
X032958Y005368D01*
X033035Y005406D01*
X033111Y005448D01*
X033184Y005492D01*
X033255Y005540D01*
X033325Y005591D01*
X033392Y005645D01*
X033456Y005701D01*
X033518Y005761D01*
X033578Y005823D01*
X033634Y005887D01*
X033688Y005954D01*
X033739Y006024D01*
X033787Y006095D01*
X033831Y006168D01*
X033873Y006244D01*
X033911Y006321D01*
X033945Y006399D01*
X033976Y006480D01*
X034004Y006561D01*
X034028Y006643D01*
X034048Y006727D01*
X034065Y006811D01*
X034078Y006896D01*
X034088Y006981D01*
X034093Y007067D01*
X034095Y007153D01*
X034095Y017389D01*
X034097Y017455D01*
X034102Y017521D01*
X034112Y017587D01*
X034125Y017652D01*
X034141Y017716D01*
X034161Y017779D01*
X034185Y017841D01*
X034212Y017901D01*
X034242Y017960D01*
X034276Y018017D01*
X034313Y018072D01*
X034353Y018125D01*
X034395Y018176D01*
X034441Y018224D01*
X034489Y018270D01*
X034540Y018312D01*
X034593Y018352D01*
X034648Y018389D01*
X034705Y018423D01*
X034764Y018453D01*
X034824Y018480D01*
X034886Y018504D01*
X034949Y018524D01*
X035013Y018540D01*
X035078Y018553D01*
X035144Y018563D01*
X035210Y018568D01*
X035276Y018570D01*
X036063Y018570D01*
X036063Y018571D02*
X036117Y018573D01*
X036170Y018578D01*
X036223Y018587D01*
X036275Y018600D01*
X036327Y018616D01*
X036377Y018636D01*
X036425Y018659D01*
X036472Y018686D01*
X036517Y018715D01*
X036560Y018748D01*
X036600Y018783D01*
X036638Y018821D01*
X036673Y018861D01*
X036706Y018904D01*
X036735Y018949D01*
X036762Y018996D01*
X036785Y019044D01*
X036805Y019094D01*
X036821Y019146D01*
X036834Y019198D01*
X036843Y019251D01*
X036848Y019304D01*
X036850Y019358D01*
X036851Y019358D02*
X036851Y061090D01*
X036850Y061090D02*
X036848Y061144D01*
X036843Y061197D01*
X036834Y061250D01*
X036821Y061302D01*
X036805Y061354D01*
X036785Y061404D01*
X036762Y061452D01*
X036735Y061499D01*
X036706Y061544D01*
X036673Y061587D01*
X036638Y061627D01*
X036600Y061665D01*
X036560Y061700D01*
X036517Y061733D01*
X036472Y061762D01*
X036425Y061789D01*
X036377Y061812D01*
X036327Y061832D01*
X036275Y061848D01*
X036223Y061861D01*
X036170Y061870D01*
X036117Y061875D01*
X036063Y061877D01*
X036063Y061878D02*
X035276Y061878D01*
X035210Y061880D01*
X035144Y061885D01*
X035078Y061895D01*
X035013Y061908D01*
X034949Y061924D01*
X034886Y061944D01*
X034824Y061968D01*
X034764Y061995D01*
X034705Y062025D01*
X034648Y062059D01*
X034593Y062096D01*
X034540Y062136D01*
X034489Y062178D01*
X034441Y062224D01*
X034395Y062272D01*
X034353Y062323D01*
X034313Y062376D01*
X034276Y062431D01*
X034242Y062488D01*
X034212Y062547D01*
X034185Y062607D01*
X034161Y062669D01*
X034141Y062732D01*
X034125Y062796D01*
X034112Y062861D01*
X034102Y062927D01*
X034097Y062993D01*
X034095Y063059D01*
X034095Y073295D01*
X034093Y073381D01*
X034088Y073467D01*
X034078Y073552D01*
X034065Y073637D01*
X034048Y073721D01*
X034028Y073805D01*
X034004Y073887D01*
X033976Y073968D01*
X033945Y074049D01*
X033911Y074127D01*
X033873Y074204D01*
X033831Y074280D01*
X033787Y074353D01*
X033739Y074424D01*
X033688Y074494D01*
X033634Y074561D01*
X033578Y074625D01*
X033518Y074687D01*
X033456Y074747D01*
X033392Y074803D01*
X033325Y074857D01*
X033255Y074908D01*
X033184Y074956D01*
X033111Y075000D01*
X033035Y075042D01*
X032958Y075080D01*
X032880Y075114D01*
X032799Y075145D01*
X032718Y075173D01*
X032636Y075197D01*
X032552Y075217D01*
X032468Y075234D01*
X032383Y075247D01*
X032298Y075257D01*
X032212Y075262D01*
X032126Y075264D01*
X032126Y075263D02*
X016378Y075263D01*
X016378Y075264D02*
X016292Y075262D01*
X016206Y075257D01*
X016121Y075247D01*
X016036Y075234D01*
X015952Y075217D01*
X015868Y075197D01*
X015786Y075173D01*
X015705Y075145D01*
X015624Y075114D01*
X015546Y075080D01*
X015469Y075042D01*
X015394Y075000D01*
X015320Y074956D01*
X015249Y074908D01*
X015179Y074857D01*
X015112Y074803D01*
X015048Y074747D01*
X014986Y074687D01*
X014926Y074625D01*
X014870Y074561D01*
X014816Y074494D01*
X014765Y074424D01*
X014717Y074353D01*
X014673Y074280D01*
X014631Y074204D01*
X014593Y074127D01*
X014559Y074049D01*
X014528Y073968D01*
X014500Y073887D01*
X014476Y073805D01*
X014456Y073721D01*
X014439Y073637D01*
X014426Y073552D01*
X014416Y073467D01*
X014411Y073381D01*
X014409Y073295D01*
X014410Y073295D02*
X014410Y063059D01*
X014408Y062993D01*
X014403Y062927D01*
X014393Y062861D01*
X014380Y062796D01*
X014364Y062732D01*
X014344Y062669D01*
X014320Y062607D01*
X014293Y062547D01*
X014263Y062488D01*
X014229Y062431D01*
X014192Y062376D01*
X014152Y062323D01*
X014110Y062272D01*
X014064Y062224D01*
X014016Y062178D01*
X013965Y062136D01*
X013912Y062096D01*
X013857Y062059D01*
X013800Y062025D01*
X013741Y061995D01*
X013681Y061968D01*
X013619Y061944D01*
X013556Y061924D01*
X013492Y061908D01*
X013427Y061895D01*
X013361Y061885D01*
X013295Y061880D01*
X013229Y061878D01*
X012441Y061878D01*
X012441Y061877D02*
X012387Y061875D01*
X012334Y061870D01*
X012281Y061861D01*
X012229Y061848D01*
X012177Y061832D01*
X012127Y061812D01*
X012079Y061789D01*
X012032Y061762D01*
X011987Y061733D01*
X011944Y061700D01*
X011904Y061665D01*
X011866Y061627D01*
X011831Y061587D01*
X011798Y061544D01*
X011769Y061499D01*
X011742Y061452D01*
X011719Y061404D01*
X011699Y061354D01*
X011683Y061302D01*
X011670Y061250D01*
X011661Y061197D01*
X011656Y061144D01*
X011654Y061090D01*
X011654Y019358D01*
X011656Y019304D01*
X011661Y019251D01*
X011670Y019198D01*
X011683Y019146D01*
X011699Y019094D01*
X011719Y019044D01*
X011742Y018996D01*
X011769Y018949D01*
X011798Y018904D01*
X011831Y018861D01*
X011866Y018821D01*
X011904Y018783D01*
X011944Y018748D01*
X011987Y018715D01*
X012032Y018686D01*
X012079Y018659D01*
X012127Y018636D01*
X012177Y018616D01*
X012229Y018600D01*
X012281Y018587D01*
X012334Y018578D01*
X012387Y018573D01*
X012441Y018571D01*
X031535Y033925D02*
X031537Y033973D01*
X031543Y034021D01*
X031553Y034068D01*
X031566Y034114D01*
X031584Y034159D01*
X031604Y034203D01*
X031629Y034245D01*
X031657Y034284D01*
X031687Y034321D01*
X031721Y034355D01*
X031758Y034387D01*
X031796Y034416D01*
X031837Y034441D01*
X031880Y034463D01*
X031925Y034481D01*
X031971Y034495D01*
X032018Y034506D01*
X032066Y034513D01*
X032114Y034516D01*
X032162Y034515D01*
X032210Y034510D01*
X032258Y034501D01*
X032304Y034489D01*
X032349Y034472D01*
X032393Y034452D01*
X032435Y034429D01*
X032475Y034402D01*
X032513Y034372D01*
X032548Y034339D01*
X032580Y034303D01*
X032610Y034265D01*
X032636Y034224D01*
X032658Y034181D01*
X032678Y034137D01*
X032693Y034092D01*
X032705Y034045D01*
X032713Y033997D01*
X032717Y033949D01*
X032717Y033901D01*
X032713Y033853D01*
X032705Y033805D01*
X032693Y033758D01*
X032678Y033713D01*
X032658Y033669D01*
X032636Y033626D01*
X032610Y033585D01*
X032580Y033547D01*
X032548Y033511D01*
X032513Y033478D01*
X032475Y033448D01*
X032435Y033421D01*
X032393Y033398D01*
X032349Y033378D01*
X032304Y033361D01*
X032258Y033349D01*
X032210Y033340D01*
X032162Y033335D01*
X032114Y033334D01*
X032066Y033337D01*
X032018Y033344D01*
X031971Y033355D01*
X031925Y033369D01*
X031880Y033387D01*
X031837Y033409D01*
X031796Y033434D01*
X031758Y033463D01*
X031721Y033495D01*
X031687Y033529D01*
X031657Y033566D01*
X031629Y033605D01*
X031604Y033647D01*
X031584Y033691D01*
X031566Y033736D01*
X031553Y033782D01*
X031543Y033829D01*
X031537Y033877D01*
X031535Y033925D01*
X022382Y054496D02*
X022384Y054555D01*
X022390Y054614D01*
X022400Y054672D01*
X022413Y054730D01*
X022431Y054787D01*
X022452Y054842D01*
X022477Y054896D01*
X022506Y054948D01*
X022538Y054997D01*
X022573Y055045D01*
X022611Y055090D01*
X022652Y055133D01*
X022696Y055173D01*
X022742Y055209D01*
X022791Y055243D01*
X022842Y055273D01*
X022895Y055300D01*
X022950Y055323D01*
X023005Y055342D01*
X023063Y055358D01*
X023121Y055370D01*
X023179Y055378D01*
X023238Y055382D01*
X023298Y055382D01*
X023357Y055378D01*
X023415Y055370D01*
X023473Y055358D01*
X023531Y055342D01*
X023586Y055323D01*
X023641Y055300D01*
X023694Y055273D01*
X023745Y055243D01*
X023794Y055209D01*
X023840Y055173D01*
X023884Y055133D01*
X023925Y055090D01*
X023963Y055045D01*
X023998Y054997D01*
X024030Y054948D01*
X024059Y054896D01*
X024084Y054842D01*
X024105Y054787D01*
X024123Y054730D01*
X024136Y054672D01*
X024146Y054614D01*
X024152Y054555D01*
X024154Y054496D01*
X024152Y054437D01*
X024146Y054378D01*
X024136Y054320D01*
X024123Y054262D01*
X024105Y054205D01*
X024084Y054150D01*
X024059Y054096D01*
X024030Y054044D01*
X023998Y053995D01*
X023963Y053947D01*
X023925Y053902D01*
X023884Y053859D01*
X023840Y053819D01*
X023794Y053783D01*
X023745Y053749D01*
X023694Y053719D01*
X023641Y053692D01*
X023586Y053669D01*
X023531Y053650D01*
X023473Y053634D01*
X023415Y053622D01*
X023357Y053614D01*
X023298Y053610D01*
X023238Y053610D01*
X023179Y053614D01*
X023121Y053622D01*
X023063Y053634D01*
X023005Y053650D01*
X022950Y053669D01*
X022895Y053692D01*
X022842Y053719D01*
X022791Y053749D01*
X022742Y053783D01*
X022696Y053819D01*
X022652Y053859D01*
X022611Y053902D01*
X022573Y053947D01*
X022538Y053995D01*
X022506Y054044D01*
X022477Y054096D01*
X022452Y054150D01*
X022431Y054205D01*
X022413Y054262D01*
X022400Y054320D01*
X022390Y054378D01*
X022384Y054437D01*
X022382Y054496D01*
D11*
X023268Y054496D03*
D12*
X018793Y065173D02*
X018501Y065173D01*
X018793Y065173D02*
X018793Y064881D01*
X018501Y064881D01*
X018501Y065173D01*
X018501Y064978D02*
X018793Y064978D01*
X018793Y065075D02*
X018501Y065075D01*
X018501Y065172D02*
X018793Y065172D01*
X018793Y065472D02*
X018501Y065472D01*
X018501Y065764D01*
X018793Y065764D01*
X018793Y065472D01*
X018793Y065569D02*
X018501Y065569D01*
X018501Y065666D02*
X018793Y065666D01*
X018793Y065763D02*
X018501Y065763D01*
X018193Y065472D02*
X017901Y065472D01*
X017901Y065764D01*
X018193Y065764D01*
X018193Y065472D01*
X018193Y065569D02*
X017901Y065569D01*
X017901Y065666D02*
X018193Y065666D01*
X018193Y065763D02*
X017901Y065763D01*
X017901Y065173D02*
X018193Y065173D01*
X018193Y064881D01*
X017901Y064881D01*
X017901Y065173D01*
X017901Y064978D02*
X018193Y064978D01*
X018193Y065075D02*
X017901Y065075D01*
X017901Y065172D02*
X018193Y065172D01*
X019480Y067829D02*
X019480Y068121D01*
X019772Y068121D01*
X019772Y067829D01*
X019480Y067829D01*
X019480Y067926D02*
X019772Y067926D01*
X019772Y068023D02*
X019480Y068023D01*
X019480Y068120D02*
X019772Y068120D01*
X019480Y068429D02*
X019480Y068721D01*
X019772Y068721D01*
X019772Y068429D01*
X019480Y068429D01*
X019480Y068526D02*
X019772Y068526D01*
X019772Y068623D02*
X019480Y068623D01*
X019480Y068720D02*
X019772Y068720D01*
X020066Y068424D02*
X020358Y068424D01*
X020066Y068424D02*
X020066Y068716D01*
X020358Y068716D01*
X020358Y068424D01*
X020358Y068521D02*
X020066Y068521D01*
X020066Y068618D02*
X020358Y068618D01*
X020358Y068715D02*
X020066Y068715D01*
X020666Y068424D02*
X020958Y068424D01*
X020666Y068424D02*
X020666Y068716D01*
X020958Y068716D01*
X020958Y068424D01*
X020958Y068521D02*
X020666Y068521D01*
X020666Y068618D02*
X020958Y068618D01*
X020958Y068715D02*
X020666Y068715D01*
X021252Y068721D02*
X021252Y068429D01*
X021252Y068721D02*
X021544Y068721D01*
X021544Y068429D01*
X021252Y068429D01*
X021252Y068526D02*
X021544Y068526D01*
X021544Y068623D02*
X021252Y068623D01*
X021252Y068720D02*
X021544Y068720D01*
X021838Y068424D02*
X022130Y068424D01*
X021838Y068424D02*
X021838Y068716D01*
X022130Y068716D01*
X022130Y068424D01*
X022130Y068521D02*
X021838Y068521D01*
X021838Y068618D02*
X022130Y068618D01*
X022130Y068715D02*
X021838Y068715D01*
X022438Y068424D02*
X022730Y068424D01*
X022438Y068424D02*
X022438Y068716D01*
X022730Y068716D01*
X022730Y068424D01*
X022730Y068521D02*
X022438Y068521D01*
X022438Y068618D02*
X022730Y068618D01*
X022730Y068715D02*
X022438Y068715D01*
X023024Y068721D02*
X023024Y068429D01*
X023024Y068721D02*
X023316Y068721D01*
X023316Y068429D01*
X023024Y068429D01*
X023024Y068526D02*
X023316Y068526D01*
X023316Y068623D02*
X023024Y068623D01*
X023024Y068720D02*
X023316Y068720D01*
X023024Y068121D02*
X023024Y067829D01*
X023024Y068121D02*
X023316Y068121D01*
X023316Y067829D01*
X023024Y067829D01*
X023024Y067926D02*
X023316Y067926D01*
X023316Y068023D02*
X023024Y068023D01*
X023024Y068120D02*
X023316Y068120D01*
X021252Y068121D02*
X021252Y067829D01*
X021252Y068121D02*
X021544Y068121D01*
X021544Y067829D01*
X021252Y067829D01*
X021252Y067926D02*
X021544Y067926D01*
X021544Y068023D02*
X021252Y068023D01*
X021252Y068120D02*
X021544Y068120D01*
X025481Y068636D02*
X025481Y068928D01*
X025481Y068636D02*
X025189Y068636D01*
X025189Y068928D01*
X025481Y068928D01*
X025481Y068733D02*
X025189Y068733D01*
X025189Y068830D02*
X025481Y068830D01*
X025481Y068927D02*
X025189Y068927D01*
X025481Y069236D02*
X025481Y069528D01*
X025481Y069236D02*
X025189Y069236D01*
X025189Y069528D01*
X025481Y069528D01*
X025481Y069333D02*
X025189Y069333D01*
X025189Y069430D02*
X025481Y069430D01*
X025481Y069527D02*
X025189Y069527D01*
X035422Y030434D02*
X035422Y030142D01*
X035130Y030142D01*
X035130Y030434D01*
X035422Y030434D01*
X035422Y030239D02*
X035130Y030239D01*
X035130Y030336D02*
X035422Y030336D01*
X035422Y030433D02*
X035130Y030433D01*
X035422Y029834D02*
X035422Y029542D01*
X035130Y029542D01*
X035130Y029834D01*
X035422Y029834D01*
X035422Y029639D02*
X035130Y029639D01*
X035130Y029736D02*
X035422Y029736D01*
X035422Y029833D02*
X035130Y029833D01*
X027925Y021890D02*
X027925Y021598D01*
X027925Y021890D02*
X028217Y021890D01*
X028217Y021598D01*
X027925Y021598D01*
X027925Y021695D02*
X028217Y021695D01*
X028217Y021792D02*
X027925Y021792D01*
X027925Y021889D02*
X028217Y021889D01*
X027925Y021290D02*
X027925Y020998D01*
X027925Y021290D02*
X028217Y021290D01*
X028217Y020998D01*
X027925Y020998D01*
X027925Y021095D02*
X028217Y021095D01*
X028217Y021192D02*
X027925Y021192D01*
X027925Y021289D02*
X028217Y021289D01*
X025287Y021290D02*
X025287Y020998D01*
X025287Y021290D02*
X025579Y021290D01*
X025579Y020998D01*
X025287Y020998D01*
X025287Y021095D02*
X025579Y021095D01*
X025579Y021192D02*
X025287Y021192D01*
X025287Y021289D02*
X025579Y021289D01*
X025287Y021598D02*
X025287Y021890D01*
X025579Y021890D01*
X025579Y021598D01*
X025287Y021598D01*
X025287Y021695D02*
X025579Y021695D01*
X025579Y021792D02*
X025287Y021792D01*
X025287Y021889D02*
X025579Y021889D01*
X026208Y026653D02*
X026500Y026653D01*
X026208Y026653D02*
X026208Y026945D01*
X026500Y026945D01*
X026500Y026653D01*
X026500Y026750D02*
X026208Y026750D01*
X026208Y026847D02*
X026500Y026847D01*
X026500Y026944D02*
X026208Y026944D01*
X026808Y026653D02*
X027100Y026653D01*
X026808Y026653D02*
X026808Y026945D01*
X027100Y026945D01*
X027100Y026653D01*
X027100Y026750D02*
X026808Y026750D01*
X026808Y026847D02*
X027100Y026847D01*
X027100Y026944D02*
X026808Y026944D01*
D13*
X026929Y029437D03*
X028032Y029437D03*
D14*
X026311Y031805D02*
X026165Y031805D01*
X026165Y031951D01*
X026311Y031951D01*
X026311Y031805D01*
X026311Y031949D02*
X026165Y031949D01*
X025961Y031805D02*
X025815Y031805D01*
X025815Y031951D01*
X025961Y031951D01*
X025961Y031805D01*
X025961Y031949D02*
X025815Y031949D01*
X025815Y032316D02*
X025961Y032316D01*
X025815Y032316D02*
X025815Y032462D01*
X025961Y032462D01*
X025961Y032316D01*
X025961Y032460D02*
X025815Y032460D01*
X025815Y032789D02*
X025961Y032789D01*
X025815Y032789D02*
X025815Y032935D01*
X025961Y032935D01*
X025961Y032789D01*
X025961Y032933D02*
X025815Y032933D01*
X026165Y032789D02*
X026311Y032789D01*
X026165Y032789D02*
X026165Y032935D01*
X026311Y032935D01*
X026311Y032789D01*
X026311Y032933D02*
X026165Y032933D01*
X026165Y032316D02*
X026311Y032316D01*
X026165Y032316D02*
X026165Y032462D01*
X026311Y032462D01*
X026311Y032316D01*
X026311Y032460D02*
X026165Y032460D01*
X025439Y028267D02*
X025439Y028121D01*
X025439Y028267D02*
X025585Y028267D01*
X025585Y028121D01*
X025439Y028121D01*
X025439Y028265D02*
X025585Y028265D01*
X025439Y027917D02*
X025439Y027771D01*
X025439Y027917D02*
X025585Y027917D01*
X025585Y027771D01*
X025439Y027771D01*
X025439Y027915D02*
X025585Y027915D01*
X028498Y026141D02*
X028498Y025995D01*
X028352Y025995D01*
X028352Y026141D01*
X028498Y026141D01*
X028498Y026139D02*
X028352Y026139D01*
X028498Y025791D02*
X028498Y025645D01*
X028352Y025645D01*
X028352Y025791D01*
X028498Y025791D01*
X028498Y025789D02*
X028352Y025789D01*
X029967Y027496D02*
X029967Y027642D01*
X030113Y027642D01*
X030113Y027496D01*
X029967Y027496D01*
X029967Y027640D02*
X030113Y027640D01*
X029967Y027846D02*
X029967Y027992D01*
X030113Y027992D01*
X030113Y027846D01*
X029967Y027846D01*
X029967Y027990D02*
X030113Y027990D01*
X030360Y029543D02*
X030360Y029689D01*
X030506Y029689D01*
X030506Y029543D01*
X030360Y029543D01*
X030360Y029687D02*
X030506Y029687D01*
X030360Y029893D02*
X030360Y030039D01*
X030506Y030039D01*
X030506Y029893D01*
X030360Y029893D01*
X030360Y030037D02*
X030506Y030037D01*
X032239Y028543D02*
X032239Y028397D01*
X032093Y028397D01*
X032093Y028543D01*
X032239Y028543D01*
X032239Y028541D02*
X032093Y028541D01*
X032239Y028193D02*
X032239Y028047D01*
X032093Y028047D01*
X032093Y028193D01*
X032239Y028193D01*
X032239Y028191D02*
X032093Y028191D01*
X031154Y026017D02*
X031008Y026017D01*
X031008Y026163D01*
X031154Y026163D01*
X031154Y026017D01*
X031154Y026161D02*
X031008Y026161D01*
X030804Y026017D02*
X030658Y026017D01*
X030658Y026163D01*
X030804Y026163D01*
X030804Y026017D01*
X030804Y026161D02*
X030658Y026161D01*
X030658Y025730D02*
X030804Y025730D01*
X030804Y025584D01*
X030658Y025584D01*
X030658Y025730D01*
X030658Y025728D02*
X030804Y025728D01*
X031008Y025730D02*
X031154Y025730D01*
X031154Y025584D01*
X031008Y025584D01*
X031008Y025730D01*
X031008Y025728D02*
X031154Y025728D01*
X031445Y025730D02*
X031591Y025730D01*
X031591Y025584D01*
X031445Y025584D01*
X031445Y025730D01*
X031445Y025728D02*
X031591Y025728D01*
X031795Y025730D02*
X031941Y025730D01*
X031941Y025584D01*
X031795Y025584D01*
X031795Y025730D01*
X031795Y025728D02*
X031941Y025728D01*
X031941Y025151D02*
X031795Y025151D01*
X031795Y025297D01*
X031941Y025297D01*
X031941Y025151D01*
X031941Y025295D02*
X031795Y025295D01*
X031591Y025151D02*
X031445Y025151D01*
X031445Y025297D01*
X031591Y025297D01*
X031591Y025151D01*
X031591Y025295D02*
X031445Y025295D01*
X029382Y020623D02*
X029236Y020623D01*
X029236Y020769D01*
X029382Y020769D01*
X029382Y020623D01*
X029382Y020767D02*
X029236Y020767D01*
X029032Y020623D02*
X028886Y020623D01*
X028886Y020769D01*
X029032Y020769D01*
X029032Y020623D01*
X029032Y020767D02*
X028886Y020767D01*
X028886Y020336D02*
X029032Y020336D01*
X029032Y020190D01*
X028886Y020190D01*
X028886Y020336D01*
X028886Y020334D02*
X029032Y020334D01*
X029236Y020336D02*
X029382Y020336D01*
X029382Y020190D01*
X029236Y020190D01*
X029236Y020336D01*
X029236Y020334D02*
X029382Y020334D01*
X029382Y019757D02*
X029236Y019757D01*
X029236Y019903D01*
X029382Y019903D01*
X029382Y019757D01*
X029382Y019901D02*
X029236Y019901D01*
X029032Y019757D02*
X028886Y019757D01*
X028886Y019903D01*
X029032Y019903D01*
X029032Y019757D01*
X029032Y019901D02*
X028886Y019901D01*
X027650Y019825D02*
X027504Y019825D01*
X027650Y019825D02*
X027650Y019679D01*
X027504Y019679D01*
X027504Y019825D01*
X027504Y019823D02*
X027650Y019823D01*
X027300Y019825D02*
X027154Y019825D01*
X027300Y019825D02*
X027300Y019679D01*
X027154Y019679D01*
X027154Y019825D01*
X027154Y019823D02*
X027300Y019823D01*
X026148Y020055D02*
X026148Y020201D01*
X026294Y020201D01*
X026294Y020055D01*
X026148Y020055D01*
X026148Y020199D02*
X026294Y020199D01*
X026148Y020405D02*
X026148Y020551D01*
X026294Y020551D01*
X026294Y020405D01*
X026148Y020405D01*
X026148Y020549D02*
X026294Y020549D01*
X023490Y018858D02*
X023490Y018712D01*
X023490Y018858D02*
X023636Y018858D01*
X023636Y018712D01*
X023490Y018712D01*
X023490Y018856D02*
X023636Y018856D01*
X023490Y018508D02*
X023490Y018362D01*
X023490Y018508D02*
X023636Y018508D01*
X023636Y018362D01*
X023490Y018362D01*
X023490Y018506D02*
X023636Y018506D01*
X021215Y016968D02*
X021215Y016822D01*
X021069Y016822D01*
X021069Y016968D01*
X021215Y016968D01*
X021215Y016966D02*
X021069Y016966D01*
X021215Y016618D02*
X021215Y016472D01*
X021069Y016472D01*
X021069Y016618D01*
X021215Y016618D01*
X021215Y016616D02*
X021069Y016616D01*
X020715Y015590D02*
X020715Y015444D01*
X020715Y015590D02*
X020861Y015590D01*
X020861Y015444D01*
X020715Y015444D01*
X020715Y015588D02*
X020861Y015588D01*
X020715Y015240D02*
X020715Y015094D01*
X020715Y015240D02*
X020861Y015240D01*
X020861Y015094D01*
X020715Y015094D01*
X020715Y015238D02*
X020861Y015238D01*
X021896Y015196D02*
X021896Y015050D01*
X021896Y015196D02*
X022042Y015196D01*
X022042Y015050D01*
X021896Y015050D01*
X021896Y015194D02*
X022042Y015194D01*
X021896Y014846D02*
X021896Y014700D01*
X021896Y014846D02*
X022042Y014846D01*
X022042Y014700D01*
X021896Y014700D01*
X021896Y014844D02*
X022042Y014844D01*
X021845Y013385D02*
X021845Y013239D01*
X021699Y013239D01*
X021699Y013385D01*
X021845Y013385D01*
X021845Y013383D02*
X021699Y013383D01*
X021305Y013385D02*
X021305Y013239D01*
X021305Y013385D02*
X021451Y013385D01*
X021451Y013239D01*
X021305Y013239D01*
X021305Y013383D02*
X021451Y013383D01*
X021305Y013035D02*
X021305Y012889D01*
X021305Y013035D02*
X021451Y013035D01*
X021451Y012889D01*
X021305Y012889D01*
X021305Y013033D02*
X021451Y013033D01*
X021845Y013035D02*
X021845Y012889D01*
X021699Y012889D01*
X021699Y013035D01*
X021845Y013035D01*
X021845Y013033D02*
X021699Y013033D01*
X020642Y011281D02*
X020496Y011281D01*
X020642Y011281D02*
X020642Y011135D01*
X020496Y011135D01*
X020496Y011281D01*
X020496Y011279D02*
X020642Y011279D01*
X020292Y011281D02*
X020146Y011281D01*
X020292Y011281D02*
X020292Y011135D01*
X020146Y011135D01*
X020146Y011281D01*
X020146Y011279D02*
X020292Y011279D01*
X018982Y011338D02*
X018982Y011192D01*
X018982Y011338D02*
X019128Y011338D01*
X019128Y011192D01*
X018982Y011192D01*
X018982Y011336D02*
X019128Y011336D01*
X018982Y010988D02*
X018982Y010842D01*
X018982Y010988D02*
X019128Y010988D01*
X019128Y010842D01*
X018982Y010842D01*
X018982Y010986D02*
X019128Y010986D01*
X019140Y010000D02*
X019140Y009854D01*
X019140Y010000D02*
X019286Y010000D01*
X019286Y009854D01*
X019140Y009854D01*
X019140Y009998D02*
X019286Y009998D01*
X019140Y009650D02*
X019140Y009504D01*
X019140Y009650D02*
X019286Y009650D01*
X019286Y009504D01*
X019140Y009504D01*
X019140Y009648D02*
X019286Y009648D01*
X018853Y009650D02*
X018853Y009504D01*
X018707Y009504D01*
X018707Y009650D01*
X018853Y009650D01*
X018853Y009648D02*
X018707Y009648D01*
X018853Y009854D02*
X018853Y010000D01*
X018853Y009854D02*
X018707Y009854D01*
X018707Y010000D01*
X018853Y010000D01*
X018853Y009998D02*
X018707Y009998D01*
X017138Y014285D02*
X016992Y014285D01*
X016992Y014431D01*
X017138Y014431D01*
X017138Y014285D01*
X017138Y014429D02*
X016992Y014429D01*
X016788Y014285D02*
X016642Y014285D01*
X016642Y014431D01*
X016788Y014431D01*
X016788Y014285D01*
X016788Y014429D02*
X016642Y014429D01*
X018335Y015612D02*
X018481Y015612D01*
X018481Y015466D01*
X018335Y015466D01*
X018335Y015612D01*
X018335Y015610D02*
X018481Y015610D01*
X018685Y015612D02*
X018831Y015612D01*
X018831Y015466D01*
X018685Y015466D01*
X018685Y015612D01*
X018685Y015610D02*
X018831Y015610D01*
X018882Y016714D02*
X019028Y016714D01*
X019028Y016568D01*
X018882Y016568D01*
X018882Y016714D01*
X018882Y016712D02*
X019028Y016712D01*
X018678Y016714D02*
X018532Y016714D01*
X018678Y016714D02*
X018678Y016568D01*
X018532Y016568D01*
X018532Y016714D01*
X018532Y016712D02*
X018678Y016712D01*
X019207Y017535D02*
X019207Y017681D01*
X019207Y017535D02*
X019061Y017535D01*
X019061Y017681D01*
X019207Y017681D01*
X019207Y017679D02*
X019061Y017679D01*
X019207Y017885D02*
X019207Y018031D01*
X019207Y017885D02*
X019061Y017885D01*
X019061Y018031D01*
X019207Y018031D01*
X019207Y018029D02*
X019061Y018029D01*
X020546Y019682D02*
X020649Y019785D01*
X020546Y019682D02*
X020443Y019785D01*
X020546Y019888D01*
X020649Y019785D01*
X020608Y019826D02*
X020484Y019826D01*
X020793Y019930D02*
X020896Y020033D01*
X020793Y019930D02*
X020690Y020033D01*
X020793Y020136D01*
X020896Y020033D01*
X020855Y020074D02*
X020731Y020074D01*
X022884Y021951D02*
X022987Y022054D01*
X023090Y021951D01*
X022987Y021848D01*
X022884Y021951D01*
X022925Y021992D02*
X023049Y021992D01*
X023131Y022198D02*
X023234Y022301D01*
X023337Y022198D01*
X023234Y022095D01*
X023131Y022198D01*
X023172Y022239D02*
X023296Y022239D01*
X021781Y024707D02*
X021884Y024810D01*
X021987Y024707D01*
X021884Y024604D01*
X021781Y024707D01*
X021822Y024748D02*
X021946Y024748D01*
X022029Y024954D02*
X022132Y025057D01*
X022235Y024954D01*
X022132Y024851D01*
X022029Y024954D01*
X022070Y024995D02*
X022194Y024995D01*
X021817Y025372D02*
X021714Y025269D01*
X021817Y025372D02*
X021920Y025269D01*
X021817Y025166D01*
X021714Y025269D01*
X021755Y025310D02*
X021879Y025310D01*
X021569Y025125D02*
X021466Y025022D01*
X021569Y025125D02*
X021672Y025022D01*
X021569Y024919D01*
X021466Y025022D01*
X021507Y025063D02*
X021631Y025063D01*
X020360Y027202D02*
X020257Y027305D01*
X020360Y027408D01*
X020463Y027305D01*
X020360Y027202D01*
X020422Y027346D02*
X020298Y027346D01*
X020113Y027449D02*
X020010Y027552D01*
X020113Y027655D01*
X020216Y027552D01*
X020113Y027449D01*
X020175Y027593D02*
X020051Y027593D01*
X018656Y026081D02*
X018759Y025978D01*
X018656Y025875D01*
X018553Y025978D01*
X018656Y026081D01*
X018718Y026019D02*
X018594Y026019D01*
X018904Y025833D02*
X019007Y025730D01*
X018904Y025627D01*
X018801Y025730D01*
X018904Y025833D01*
X018966Y025771D02*
X018842Y025771D01*
X017329Y025451D02*
X017226Y025348D01*
X017329Y025451D02*
X017432Y025348D01*
X017329Y025245D01*
X017226Y025348D01*
X017267Y025389D02*
X017391Y025389D01*
X017081Y025203D02*
X016978Y025100D01*
X017081Y025203D02*
X017184Y025100D01*
X017081Y024997D01*
X016978Y025100D01*
X017019Y025141D02*
X017143Y025141D01*
X016508Y027631D02*
X016362Y027631D01*
X016362Y027777D01*
X016508Y027777D01*
X016508Y027631D01*
X016508Y027775D02*
X016362Y027775D01*
X016158Y027631D02*
X016012Y027631D01*
X016012Y027777D01*
X016158Y027777D01*
X016158Y027631D01*
X016158Y027775D02*
X016012Y027775D01*
X016012Y028025D02*
X016158Y028025D01*
X016012Y028025D02*
X016012Y028171D01*
X016158Y028171D01*
X016158Y028025D01*
X016158Y028169D02*
X016012Y028169D01*
X016362Y028025D02*
X016508Y028025D01*
X016362Y028025D02*
X016362Y028171D01*
X016508Y028171D01*
X016508Y028025D01*
X016508Y028169D02*
X016362Y028169D01*
X018020Y031793D02*
X018166Y031793D01*
X018166Y031647D01*
X018020Y031647D01*
X018020Y031793D01*
X018020Y031791D02*
X018166Y031791D01*
X018370Y031793D02*
X018516Y031793D01*
X018516Y031647D01*
X018370Y031647D01*
X018370Y031793D01*
X018370Y031791D02*
X018516Y031791D01*
X018516Y032080D02*
X018370Y032080D01*
X018370Y032226D01*
X018516Y032226D01*
X018516Y032080D01*
X018516Y032224D02*
X018370Y032224D01*
X018166Y032080D02*
X018020Y032080D01*
X018020Y032226D01*
X018166Y032226D01*
X018166Y032080D01*
X018166Y032224D02*
X018020Y032224D01*
X018004Y034246D02*
X017858Y034246D01*
X017858Y034392D01*
X018004Y034392D01*
X018004Y034246D01*
X018004Y034390D02*
X017858Y034390D01*
X017654Y034246D02*
X017508Y034246D01*
X017508Y034392D01*
X017654Y034392D01*
X017654Y034246D01*
X017654Y034390D02*
X017508Y034390D01*
X017508Y034825D02*
X017654Y034825D01*
X017654Y034679D01*
X017508Y034679D01*
X017508Y034825D01*
X017508Y034823D02*
X017654Y034823D01*
X017858Y034825D02*
X018004Y034825D01*
X018004Y034679D01*
X017858Y034679D01*
X017858Y034825D01*
X017858Y034823D02*
X018004Y034823D01*
X016862Y034679D02*
X016716Y034679D01*
X016716Y034825D01*
X016862Y034825D01*
X016862Y034679D01*
X016862Y034823D02*
X016716Y034823D01*
X016512Y034679D02*
X016366Y034679D01*
X016366Y034825D01*
X016512Y034825D01*
X016512Y034679D01*
X016512Y034823D02*
X016366Y034823D01*
X016366Y034392D02*
X016512Y034392D01*
X016512Y034246D01*
X016366Y034246D01*
X016366Y034392D01*
X016366Y034390D02*
X016512Y034390D01*
X016716Y034392D02*
X016862Y034392D01*
X016862Y034246D01*
X016716Y034246D01*
X016716Y034392D01*
X016716Y034390D02*
X016862Y034390D01*
X014680Y034413D02*
X014680Y034267D01*
X014534Y034267D01*
X014534Y034413D01*
X014680Y034413D01*
X014680Y034411D02*
X014534Y034411D01*
X014680Y034617D02*
X014680Y034763D01*
X014680Y034617D02*
X014534Y034617D01*
X014534Y034763D01*
X014680Y034763D01*
X014680Y034761D02*
X014534Y034761D01*
X014286Y034763D02*
X014286Y034617D01*
X014140Y034617D01*
X014140Y034763D01*
X014286Y034763D01*
X014286Y034761D02*
X014140Y034761D01*
X014286Y034413D02*
X014286Y034267D01*
X014140Y034267D01*
X014140Y034413D01*
X014286Y034413D01*
X014286Y034411D02*
X014140Y034411D01*
X019258Y034858D02*
X019258Y035004D01*
X019404Y035004D01*
X019404Y034858D01*
X019258Y034858D01*
X019258Y035002D02*
X019404Y035002D01*
X019258Y035208D02*
X019258Y035354D01*
X019404Y035354D01*
X019404Y035208D01*
X019258Y035208D01*
X019258Y035352D02*
X019404Y035352D01*
X019573Y036787D02*
X019573Y036933D01*
X019719Y036933D01*
X019719Y036787D01*
X019573Y036787D01*
X019573Y036931D02*
X019719Y036931D01*
X019573Y037137D02*
X019573Y037283D01*
X019719Y037283D01*
X019719Y037137D01*
X019573Y037137D01*
X019573Y037281D02*
X019719Y037281D01*
X021727Y036417D02*
X021727Y036271D01*
X021581Y036271D01*
X021581Y036417D01*
X021727Y036417D01*
X021727Y036415D02*
X021581Y036415D01*
X021727Y036067D02*
X021727Y035921D01*
X021581Y035921D01*
X021581Y036067D01*
X021727Y036067D01*
X021727Y036065D02*
X021581Y036065D01*
X021681Y031805D02*
X021827Y031805D01*
X021681Y031805D02*
X021681Y031951D01*
X021827Y031951D01*
X021827Y031805D01*
X021827Y031949D02*
X021681Y031949D01*
X022031Y031805D02*
X022177Y031805D01*
X022031Y031805D02*
X022031Y031951D01*
X022177Y031951D01*
X022177Y031805D01*
X022177Y031949D02*
X022031Y031949D01*
X035028Y023655D02*
X035174Y023655D01*
X035028Y023655D02*
X035028Y023801D01*
X035174Y023801D01*
X035174Y023655D01*
X035174Y023799D02*
X035028Y023799D01*
X035378Y023655D02*
X035524Y023655D01*
X035378Y023655D02*
X035378Y023801D01*
X035524Y023801D01*
X035524Y023655D01*
X035524Y023799D02*
X035378Y023799D01*
X027829Y010708D02*
X027829Y010562D01*
X027683Y010562D01*
X027683Y010708D01*
X027829Y010708D01*
X027829Y010706D02*
X027683Y010706D01*
X027250Y010708D02*
X027250Y010562D01*
X027250Y010708D02*
X027396Y010708D01*
X027396Y010562D01*
X027250Y010562D01*
X027250Y010706D02*
X027396Y010706D01*
X027250Y010358D02*
X027250Y010212D01*
X027250Y010358D02*
X027396Y010358D01*
X027396Y010212D01*
X027250Y010212D01*
X027250Y010356D02*
X027396Y010356D01*
X027829Y010358D02*
X027829Y010212D01*
X027683Y010212D01*
X027683Y010358D01*
X027829Y010358D01*
X027829Y010356D02*
X027683Y010356D01*
X015465Y010033D02*
X015319Y010033D01*
X015319Y010179D01*
X015465Y010179D01*
X015465Y010033D01*
X015465Y010177D02*
X015319Y010177D01*
X015115Y010033D02*
X014969Y010033D01*
X014969Y010179D01*
X015115Y010179D01*
X015115Y010033D01*
X015115Y010177D02*
X014969Y010177D01*
X015113Y010429D02*
X015113Y010575D01*
X015113Y010429D02*
X014967Y010429D01*
X014967Y010575D01*
X015113Y010575D01*
X015113Y010573D02*
X014967Y010573D01*
X015113Y010779D02*
X015113Y010925D01*
X015113Y010779D02*
X014967Y010779D01*
X014967Y010925D01*
X015113Y010925D01*
X015113Y010923D02*
X014967Y010923D01*
X014969Y011175D02*
X015115Y011175D01*
X014969Y011175D02*
X014969Y011321D01*
X015115Y011321D01*
X015115Y011175D01*
X015115Y011319D02*
X014969Y011319D01*
X015319Y011175D02*
X015465Y011175D01*
X015319Y011175D02*
X015319Y011321D01*
X015465Y011321D01*
X015465Y011175D01*
X015465Y011319D02*
X015319Y011319D01*
X028335Y056765D02*
X028481Y056765D01*
X028335Y056765D02*
X028335Y056911D01*
X028481Y056911D01*
X028481Y056765D01*
X028481Y056909D02*
X028335Y056909D01*
X028335Y057305D02*
X028481Y057305D01*
X028481Y057159D01*
X028335Y057159D01*
X028335Y057305D01*
X028335Y057303D02*
X028481Y057303D01*
X028685Y057305D02*
X028831Y057305D01*
X028831Y057159D01*
X028685Y057159D01*
X028685Y057305D01*
X028685Y057303D02*
X028831Y057303D01*
X028831Y056765D02*
X028685Y056765D01*
X028685Y056911D01*
X028831Y056911D01*
X028831Y056765D01*
X028831Y056909D02*
X028685Y056909D01*
X028685Y057935D02*
X028831Y057935D01*
X028831Y057789D01*
X028685Y057789D01*
X028685Y057935D01*
X028685Y057933D02*
X028831Y057933D01*
X028831Y058183D02*
X028685Y058183D01*
X028685Y058329D01*
X028831Y058329D01*
X028831Y058183D01*
X028831Y058327D02*
X028685Y058327D01*
X028481Y058183D02*
X028335Y058183D01*
X028335Y058329D01*
X028481Y058329D01*
X028481Y058183D01*
X028481Y058327D02*
X028335Y058327D01*
X028335Y057935D02*
X028481Y057935D01*
X028481Y057789D01*
X028335Y057789D01*
X028335Y057935D01*
X028335Y057933D02*
X028481Y057933D01*
X026187Y057924D02*
X026187Y058070D01*
X026333Y058070D01*
X026333Y057924D01*
X026187Y057924D01*
X026187Y058068D02*
X026333Y058068D01*
X026187Y057720D02*
X026187Y057574D01*
X026187Y057720D02*
X026333Y057720D01*
X026333Y057574D01*
X026187Y057574D01*
X026187Y057718D02*
X026333Y057718D01*
X025912Y059740D02*
X025912Y059886D01*
X026058Y059886D01*
X026058Y059740D01*
X025912Y059740D01*
X025912Y059884D02*
X026058Y059884D01*
X025912Y060090D02*
X025912Y060236D01*
X026058Y060236D01*
X026058Y060090D01*
X025912Y060090D01*
X025912Y060234D02*
X026058Y060234D01*
X025152Y060236D02*
X025152Y060090D01*
X025006Y060090D01*
X025006Y060236D01*
X025152Y060236D01*
X025152Y060234D02*
X025006Y060234D01*
X024612Y060236D02*
X024612Y060090D01*
X024612Y060236D02*
X024758Y060236D01*
X024758Y060090D01*
X024612Y060090D01*
X024612Y060234D02*
X024758Y060234D01*
X024612Y059886D02*
X024612Y059740D01*
X024612Y059886D02*
X024758Y059886D01*
X024758Y059740D01*
X024612Y059740D01*
X024612Y059884D02*
X024758Y059884D01*
X025152Y059886D02*
X025152Y059740D01*
X025006Y059740D01*
X025006Y059886D01*
X025152Y059886D01*
X025152Y059884D02*
X025006Y059884D01*
X023695Y058385D02*
X023695Y058239D01*
X023549Y058239D01*
X023549Y058385D01*
X023695Y058385D01*
X023695Y058383D02*
X023549Y058383D01*
X023695Y058035D02*
X023695Y057889D01*
X023549Y057889D01*
X023549Y058035D01*
X023695Y058035D01*
X023695Y058033D02*
X023549Y058033D01*
X022723Y059740D02*
X022723Y059886D01*
X022869Y059886D01*
X022869Y059740D01*
X022723Y059740D01*
X022723Y059884D02*
X022869Y059884D01*
X022723Y060090D02*
X022723Y060236D01*
X022869Y060236D01*
X022869Y060090D01*
X022723Y060090D01*
X022723Y060234D02*
X022869Y060234D01*
X018026Y062968D02*
X018026Y063114D01*
X018026Y062968D02*
X017880Y062968D01*
X017880Y063114D01*
X018026Y063114D01*
X018026Y063112D02*
X017880Y063112D01*
X018026Y063318D02*
X018026Y063464D01*
X018026Y063318D02*
X017880Y063318D01*
X017880Y063464D01*
X018026Y063464D01*
X018026Y063462D02*
X017880Y063462D01*
X017593Y063464D02*
X017593Y063318D01*
X017447Y063318D01*
X017447Y063464D01*
X017593Y063464D01*
X017593Y063462D02*
X017447Y063462D01*
X017160Y063464D02*
X017160Y063318D01*
X017014Y063318D01*
X017014Y063464D01*
X017160Y063464D01*
X017160Y063462D02*
X017014Y063462D01*
X016727Y063464D02*
X016727Y063318D01*
X016581Y063318D01*
X016581Y063464D01*
X016727Y063464D01*
X016727Y063462D02*
X016581Y063462D01*
X016727Y063114D02*
X016727Y062968D01*
X016581Y062968D01*
X016581Y063114D01*
X016727Y063114D01*
X016727Y063112D02*
X016581Y063112D01*
X017160Y063114D02*
X017160Y062968D01*
X017014Y062968D01*
X017014Y063114D01*
X017160Y063114D01*
X017160Y063112D02*
X017014Y063112D01*
X017593Y063114D02*
X017593Y062968D01*
X017447Y062968D01*
X017447Y063114D01*
X017593Y063114D01*
X017593Y063112D02*
X017447Y063112D01*
X015996Y060966D02*
X015850Y060966D01*
X015996Y060966D02*
X015996Y060820D01*
X015850Y060820D01*
X015850Y060966D01*
X015850Y060964D02*
X015996Y060964D01*
X015646Y060966D02*
X015500Y060966D01*
X015646Y060966D02*
X015646Y060820D01*
X015500Y060820D01*
X015500Y060966D01*
X015500Y060964D02*
X015646Y060964D01*
X031248Y058931D02*
X031394Y058931D01*
X031248Y058931D02*
X031248Y059077D01*
X031394Y059077D01*
X031394Y058931D01*
X031394Y059075D02*
X031248Y059075D01*
X031598Y058931D02*
X031744Y058931D01*
X031598Y058931D02*
X031598Y059077D01*
X031744Y059077D01*
X031744Y058931D01*
X031744Y059075D02*
X031598Y059075D01*
X031598Y058683D02*
X031744Y058683D01*
X031744Y058537D01*
X031598Y058537D01*
X031598Y058683D01*
X031598Y058681D02*
X031744Y058681D01*
X031394Y058683D02*
X031248Y058683D01*
X031394Y058683D02*
X031394Y058537D01*
X031248Y058537D01*
X031248Y058683D01*
X031248Y058681D02*
X031394Y058681D01*
X031394Y057699D02*
X031248Y057699D01*
X031394Y057699D02*
X031394Y057553D01*
X031248Y057553D01*
X031248Y057699D01*
X031248Y057697D02*
X031394Y057697D01*
X031598Y057699D02*
X031744Y057699D01*
X031744Y057553D01*
X031598Y057553D01*
X031598Y057699D01*
X031598Y057697D02*
X031744Y057697D01*
X031744Y057305D02*
X031598Y057305D01*
X031744Y057305D02*
X031744Y057159D01*
X031598Y057159D01*
X031598Y057305D01*
X031598Y057303D02*
X031744Y057303D01*
X031394Y057305D02*
X031248Y057305D01*
X031394Y057305D02*
X031394Y057159D01*
X031248Y057159D01*
X031248Y057305D01*
X031248Y057303D02*
X031394Y057303D01*
X031394Y056765D02*
X031248Y056765D01*
X031248Y056911D01*
X031394Y056911D01*
X031394Y056765D01*
X031394Y056909D02*
X031248Y056909D01*
X031598Y056765D02*
X031744Y056765D01*
X031598Y056765D02*
X031598Y056911D01*
X031744Y056911D01*
X031744Y056765D01*
X031744Y056909D02*
X031598Y056909D01*
D15*
X024607Y021716D03*
X025689Y018310D03*
X028740Y009924D03*
D16*
X028740Y009074D03*
X025689Y017460D03*
X024607Y020866D03*
X027630Y026067D03*
D17*
X026780Y026067D03*
D18*
X025058Y030883D03*
X025058Y031383D03*
X025058Y031883D03*
X025058Y032383D03*
X022998Y032383D03*
X022998Y031883D03*
X022998Y031383D03*
X022998Y030883D03*
D19*
X025512Y027015D03*
X025512Y026425D03*
X027107Y020263D03*
X027697Y020263D03*
X023563Y017783D03*
X023563Y017193D03*
X034862Y024319D03*
X035453Y024319D03*
D20*
X031398Y027547D03*
X030650Y027547D03*
X031024Y028374D03*
X031004Y029161D03*
X031752Y029161D03*
X031378Y029988D03*
X027618Y025224D03*
X027244Y024397D03*
X026870Y025224D03*
X020610Y034948D03*
X019862Y034948D03*
X020236Y035775D03*
X020217Y036366D03*
X020965Y036366D03*
X020591Y037193D03*
X016280Y061523D03*
X015906Y062350D03*
X015532Y061523D03*
D21*
X027012Y028476D03*
X027760Y028476D03*
X027760Y027452D03*
X027386Y027452D03*
X027012Y027452D03*
D22*
X027244Y021740D03*
X027244Y021366D03*
X027244Y020992D03*
X026221Y020992D03*
X026221Y021740D03*
D23*
X019660Y030169D03*
X019081Y008507D03*
X029203Y006956D03*
D24*
X031112Y006956D03*
X019581Y007007D03*
X019581Y006507D03*
X019081Y006507D03*
X019081Y007007D03*
X019081Y007507D03*
X019581Y007507D03*
X019581Y008007D03*
X019081Y008007D03*
X019581Y008507D03*
X019160Y030169D03*
X019160Y030669D03*
X019660Y030669D03*
X019660Y031169D03*
X019660Y031669D03*
X019660Y032169D03*
X019160Y032169D03*
X019160Y031669D03*
X019160Y031169D03*
D25*
X022948Y012476D02*
X022948Y011471D01*
X023745Y009774D02*
X024750Y009774D01*
X025548Y011471D02*
X025548Y012476D01*
D26*
X015670Y009358D03*
X015040Y009358D03*
X015040Y008098D03*
X015670Y008098D03*
D27*
X015571Y013039D03*
X015315Y013039D03*
X015059Y013039D03*
X015059Y013472D03*
X015315Y013472D03*
X015571Y013472D03*
D28*
X015607Y040815D03*
X016607Y040815D03*
X017607Y040815D03*
X018607Y040815D03*
X014607Y040815D03*
D29*
X015107Y030413D03*
X015107Y029413D03*
X015107Y028413D03*
X015107Y027413D03*
X015107Y026413D03*
X014107Y026413D03*
X014107Y027413D03*
X014107Y028413D03*
X014107Y029413D03*
X014107Y030413D03*
D30*
X030256Y033925D03*
X030807Y035244D03*
X030807Y032606D03*
X033445Y032606D03*
X033996Y033925D03*
X033445Y035244D03*
D31*
X032126Y033925D03*
D32*
X027500Y017752D03*
X027500Y015256D03*
X017402Y058248D03*
X017402Y060744D03*
D33*
X034213Y022862D03*
X034213Y022153D03*
D34*
X033465Y022576D03*
X033268Y022576D03*
X033071Y022576D03*
X032874Y022576D03*
X032677Y022576D03*
X032677Y021415D03*
X032874Y021415D03*
X033071Y021415D03*
X033268Y021415D03*
X033465Y021415D03*
D35*
X033071Y021996D03*
D36*
X032481Y022094D03*
X032481Y021897D03*
X033662Y021897D03*
X033662Y022094D03*
D37*
X034961Y022507D03*
X035630Y022507D03*
X032914Y020637D03*
X032244Y020637D03*
X032244Y019830D03*
X031713Y019830D03*
X031044Y019830D03*
X032914Y019830D03*
D38*
X034292Y020716D03*
X034292Y021385D03*
X035118Y021385D03*
X035118Y020716D03*
D39*
X031693Y021996D03*
X031693Y023098D03*
D40*
X032874Y023137D03*
X032874Y024319D03*
D41*
G36*
X017959Y026865D02*
X018354Y027260D01*
X018749Y026865D01*
X018354Y026470D01*
X017959Y026865D01*
G37*
G36*
X017975Y019078D02*
X017580Y019473D01*
X017975Y019868D01*
X018370Y019473D01*
X017975Y019078D01*
G37*
D42*
X018541Y018908D03*
X017788Y026299D03*
X014849Y035933D03*
X029764Y022311D03*
X018196Y011011D03*
D43*
X016752Y070736D03*
X016752Y074279D03*
X019963Y070736D03*
X023172Y070736D03*
X025333Y070736D03*
X028542Y070736D03*
X031752Y070736D03*
X031752Y074279D03*
D44*
X031851Y070834D03*
X016654Y070834D03*
D45*
X021048Y074279D03*
X028024Y074279D03*
D46*
X025807Y058315D03*
X025551Y058315D03*
X025296Y058315D03*
X025296Y057645D03*
X025807Y057645D03*
X024587Y057645D03*
X024331Y057645D03*
X024075Y057645D03*
X024075Y058315D03*
X024587Y058315D03*
D47*
X024685Y060992D03*
X024252Y060992D03*
X023819Y060992D03*
X023386Y060992D03*
X022953Y060992D03*
X022520Y060992D03*
X022087Y060992D03*
X021654Y060992D03*
X021221Y060992D03*
X020788Y060992D03*
X020355Y060992D03*
X019922Y060992D03*
X019922Y066484D03*
X020355Y066484D03*
X020788Y066484D03*
X021221Y066484D03*
X021654Y066484D03*
X022087Y066484D03*
X022520Y066484D03*
X022953Y066484D03*
X023386Y066484D03*
X023819Y066484D03*
X024252Y066484D03*
X024685Y066484D03*
X025118Y066484D03*
X025551Y066484D03*
X025985Y066484D03*
X026418Y066484D03*
X026851Y066484D03*
X027284Y066484D03*
X027717Y066484D03*
X028150Y066484D03*
X028583Y066484D03*
X028583Y060992D03*
X028150Y060992D03*
X027717Y060992D03*
X027284Y060992D03*
X026851Y060992D03*
X026418Y060992D03*
X025985Y060992D03*
X025551Y060992D03*
X025118Y060992D03*
D48*
X028957Y061582D03*
X028957Y062015D03*
X028957Y062448D03*
X028957Y062881D03*
X028957Y063315D03*
X028957Y063748D03*
X028957Y064181D03*
X028957Y064614D03*
X028957Y065047D03*
X028957Y065480D03*
X028957Y065913D03*
X019548Y065913D03*
X019548Y065480D03*
X019548Y065047D03*
X019548Y064614D03*
X019548Y064181D03*
X019548Y063748D03*
X019548Y063315D03*
X019548Y062881D03*
X019548Y062448D03*
X019548Y062015D03*
X019548Y061582D03*
D49*
X020217Y061681D03*
X020925Y061681D03*
X020925Y062507D03*
X020217Y062507D03*
X020217Y063334D03*
X020925Y063334D03*
X020925Y064161D03*
X020217Y064161D03*
X020217Y064988D03*
X020925Y064988D03*
X020925Y065815D03*
X020217Y065815D03*
X021634Y065815D03*
X023051Y065815D03*
X025453Y065815D03*
X026870Y065815D03*
X027579Y065815D03*
X027579Y064988D03*
X027579Y064161D03*
X027579Y063334D03*
X027579Y062507D03*
X027579Y061681D03*
X026870Y061681D03*
X025453Y061681D03*
X023051Y061681D03*
X021634Y061681D03*
X028288Y061681D03*
X028288Y062507D03*
X028288Y063334D03*
X028288Y064161D03*
X028288Y064988D03*
X028288Y065815D03*
D50*
X029055Y059673D03*
X029555Y059673D03*
X030055Y059673D03*
D51*
X014961Y060402D03*
X014567Y060402D03*
X014764Y060912D03*
X029292Y019003D03*
X029488Y018493D03*
X029095Y018493D03*
D52*
X018012Y064122D03*
X016555Y064122D03*
D53*
X023859Y059712D03*
X027284Y060106D03*
D54*
G36*
X017335Y024873D02*
X017696Y025234D01*
X018003Y024927D01*
X017642Y024566D01*
X017335Y024873D01*
G37*
G36*
X016722Y024261D02*
X017083Y024622D01*
X017390Y024315D01*
X017029Y023954D01*
X016722Y024261D01*
G37*
X018032Y016090D03*
X018898Y016090D03*
X027126Y006956D03*
X027992Y006956D03*
D55*
X029528Y008019D03*
X029528Y008531D03*
X030532Y008531D03*
X030532Y008019D03*
D56*
X031575Y005775D03*
X028740Y005775D03*
D57*
X029646Y006828D03*
X029902Y006828D03*
X030158Y006828D03*
X030670Y006828D03*
D58*
X030511Y007112D02*
X030511Y006544D01*
X030317Y006544D01*
X030317Y007112D01*
X030511Y007112D01*
X030511Y006545D02*
X030317Y006545D01*
X030317Y006546D02*
X030511Y006546D01*
X030511Y006547D02*
X030317Y006547D01*
X030317Y006548D02*
X030511Y006548D01*
X030511Y006549D02*
X030317Y006549D01*
X030317Y006550D02*
X030511Y006550D01*
X030511Y006551D02*
X030317Y006551D01*
X030317Y006552D02*
X030511Y006552D01*
X030511Y006553D02*
X030317Y006553D01*
X030317Y006554D02*
X030511Y006554D01*
X030511Y006555D02*
X030317Y006555D01*
X030317Y006556D02*
X030511Y006556D01*
X030511Y006557D02*
X030317Y006557D01*
X030317Y006558D02*
X030511Y006558D01*
X030511Y006559D02*
X030317Y006559D01*
X030317Y006560D02*
X030511Y006560D01*
X030511Y006561D02*
X030317Y006561D01*
X030317Y006562D02*
X030511Y006562D01*
X030511Y006563D02*
X030317Y006563D01*
X030317Y006564D02*
X030511Y006564D01*
X030511Y006565D02*
X030317Y006565D01*
X030317Y006566D02*
X030511Y006566D01*
X030511Y006567D02*
X030317Y006567D01*
X030317Y006568D02*
X030511Y006568D01*
X030511Y006569D02*
X030317Y006569D01*
X030317Y006570D02*
X030511Y006570D01*
X030511Y006571D02*
X030317Y006571D01*
X030317Y006572D02*
X030511Y006572D01*
X030511Y006573D02*
X030317Y006573D01*
X030317Y006574D02*
X030511Y006574D01*
X030511Y006575D02*
X030317Y006575D01*
X030317Y006576D02*
X030511Y006576D01*
X030511Y006577D02*
X030317Y006577D01*
X030317Y006578D02*
X030511Y006578D01*
X030511Y006579D02*
X030317Y006579D01*
X030317Y006580D02*
X030511Y006580D01*
X030511Y006581D02*
X030317Y006581D01*
X030317Y006582D02*
X030511Y006582D01*
X030511Y006583D02*
X030317Y006583D01*
X030317Y006584D02*
X030511Y006584D01*
X030511Y006585D02*
X030317Y006585D01*
X030317Y006586D02*
X030511Y006586D01*
X030511Y006587D02*
X030317Y006587D01*
X030317Y006588D02*
X030511Y006588D01*
X030511Y006589D02*
X030317Y006589D01*
X030317Y006590D02*
X030511Y006590D01*
X030511Y006591D02*
X030317Y006591D01*
X030317Y006592D02*
X030511Y006592D01*
X030511Y006593D02*
X030317Y006593D01*
X030317Y006594D02*
X030511Y006594D01*
X030511Y006595D02*
X030317Y006595D01*
X030317Y006596D02*
X030511Y006596D01*
X030511Y006597D02*
X030317Y006597D01*
X030317Y006598D02*
X030511Y006598D01*
X030511Y006599D02*
X030317Y006599D01*
X030317Y006600D02*
X030511Y006600D01*
X030511Y006601D02*
X030317Y006601D01*
X030317Y006602D02*
X030511Y006602D01*
X030511Y006603D02*
X030317Y006603D01*
X030317Y006604D02*
X030511Y006604D01*
X030511Y006605D02*
X030317Y006605D01*
X030317Y006606D02*
X030511Y006606D01*
X030511Y006607D02*
X030317Y006607D01*
X030317Y006608D02*
X030511Y006608D01*
X030511Y006609D02*
X030317Y006609D01*
X030317Y006610D02*
X030511Y006610D01*
X030511Y006611D02*
X030317Y006611D01*
X030317Y006612D02*
X030511Y006612D01*
X030511Y006613D02*
X030317Y006613D01*
X030317Y006614D02*
X030511Y006614D01*
X030511Y006615D02*
X030317Y006615D01*
X030317Y006616D02*
X030511Y006616D01*
X030511Y006617D02*
X030317Y006617D01*
X030317Y006618D02*
X030511Y006618D01*
X030511Y006619D02*
X030317Y006619D01*
X030317Y006620D02*
X030511Y006620D01*
X030511Y006621D02*
X030317Y006621D01*
X030317Y006622D02*
X030511Y006622D01*
X030511Y006623D02*
X030317Y006623D01*
X030317Y006624D02*
X030511Y006624D01*
X030511Y006625D02*
X030317Y006625D01*
X030317Y006626D02*
X030511Y006626D01*
X030511Y006627D02*
X030317Y006627D01*
X030317Y006628D02*
X030511Y006628D01*
X030511Y006629D02*
X030317Y006629D01*
X030317Y006630D02*
X030511Y006630D01*
X030511Y006631D02*
X030317Y006631D01*
X030317Y006632D02*
X030511Y006632D01*
X030511Y006633D02*
X030317Y006633D01*
X030317Y006634D02*
X030511Y006634D01*
X030511Y006635D02*
X030317Y006635D01*
X030317Y006636D02*
X030511Y006636D01*
X030511Y006637D02*
X030317Y006637D01*
X030317Y006638D02*
X030511Y006638D01*
X030511Y006639D02*
X030317Y006639D01*
X030317Y006640D02*
X030511Y006640D01*
X030511Y006641D02*
X030317Y006641D01*
X030317Y006642D02*
X030511Y006642D01*
X030511Y006643D02*
X030317Y006643D01*
X030317Y006644D02*
X030511Y006644D01*
X030511Y006645D02*
X030317Y006645D01*
X030317Y006646D02*
X030511Y006646D01*
X030511Y006647D02*
X030317Y006647D01*
X030317Y006648D02*
X030511Y006648D01*
X030511Y006649D02*
X030317Y006649D01*
X030317Y006650D02*
X030511Y006650D01*
X030511Y006651D02*
X030317Y006651D01*
X030317Y006652D02*
X030511Y006652D01*
X030511Y006653D02*
X030317Y006653D01*
X030317Y006654D02*
X030511Y006654D01*
X030511Y006655D02*
X030317Y006655D01*
X030317Y006656D02*
X030511Y006656D01*
X030511Y006657D02*
X030317Y006657D01*
X030317Y006658D02*
X030511Y006658D01*
X030511Y006659D02*
X030317Y006659D01*
X030317Y006660D02*
X030511Y006660D01*
X030511Y006661D02*
X030317Y006661D01*
X030317Y006662D02*
X030511Y006662D01*
X030511Y006663D02*
X030317Y006663D01*
X030317Y006664D02*
X030511Y006664D01*
X030511Y006665D02*
X030317Y006665D01*
X030317Y006666D02*
X030511Y006666D01*
X030511Y006667D02*
X030317Y006667D01*
X030317Y006668D02*
X030511Y006668D01*
X030511Y006669D02*
X030317Y006669D01*
X030317Y006670D02*
X030511Y006670D01*
X030511Y006671D02*
X030317Y006671D01*
X030317Y006672D02*
X030511Y006672D01*
X030511Y006673D02*
X030317Y006673D01*
X030317Y006674D02*
X030511Y006674D01*
X030511Y006675D02*
X030317Y006675D01*
X030317Y006676D02*
X030511Y006676D01*
X030511Y006677D02*
X030317Y006677D01*
X030317Y006678D02*
X030511Y006678D01*
X030511Y006679D02*
X030317Y006679D01*
X030317Y006680D02*
X030511Y006680D01*
X030511Y006681D02*
X030317Y006681D01*
X030317Y006682D02*
X030511Y006682D01*
X030511Y006683D02*
X030317Y006683D01*
X030317Y006684D02*
X030511Y006684D01*
X030511Y006685D02*
X030317Y006685D01*
X030317Y006686D02*
X030511Y006686D01*
X030511Y006687D02*
X030317Y006687D01*
X030317Y006688D02*
X030511Y006688D01*
X030511Y006689D02*
X030317Y006689D01*
X030317Y006690D02*
X030511Y006690D01*
X030511Y006691D02*
X030317Y006691D01*
X030317Y006692D02*
X030511Y006692D01*
X030511Y006693D02*
X030317Y006693D01*
X030317Y006694D02*
X030511Y006694D01*
X030511Y006695D02*
X030317Y006695D01*
X030317Y006696D02*
X030511Y006696D01*
X030511Y006697D02*
X030317Y006697D01*
X030317Y006698D02*
X030511Y006698D01*
X030511Y006699D02*
X030317Y006699D01*
X030317Y006700D02*
X030511Y006700D01*
X030511Y006701D02*
X030317Y006701D01*
X030317Y006702D02*
X030511Y006702D01*
X030511Y006703D02*
X030317Y006703D01*
X030317Y006704D02*
X030511Y006704D01*
X030511Y006705D02*
X030317Y006705D01*
X030317Y006706D02*
X030511Y006706D01*
X030511Y006707D02*
X030317Y006707D01*
X030317Y006708D02*
X030511Y006708D01*
X030511Y006709D02*
X030317Y006709D01*
X030317Y006710D02*
X030511Y006710D01*
X030511Y006711D02*
X030317Y006711D01*
X030317Y006712D02*
X030511Y006712D01*
X030511Y006713D02*
X030317Y006713D01*
X030317Y006714D02*
X030511Y006714D01*
X030511Y006715D02*
X030317Y006715D01*
X030317Y006716D02*
X030511Y006716D01*
X030511Y006717D02*
X030317Y006717D01*
X030317Y006718D02*
X030511Y006718D01*
X030511Y006719D02*
X030317Y006719D01*
X030317Y006720D02*
X030511Y006720D01*
X030511Y006721D02*
X030317Y006721D01*
X030317Y006722D02*
X030511Y006722D01*
X030511Y006723D02*
X030317Y006723D01*
X030317Y006724D02*
X030511Y006724D01*
X030511Y006725D02*
X030317Y006725D01*
X030317Y006726D02*
X030511Y006726D01*
X030511Y006727D02*
X030317Y006727D01*
X030317Y006728D02*
X030511Y006728D01*
X030511Y006729D02*
X030317Y006729D01*
X030317Y006730D02*
X030511Y006730D01*
X030511Y006731D02*
X030317Y006731D01*
X030317Y006732D02*
X030511Y006732D01*
X030511Y006733D02*
X030317Y006733D01*
X030317Y006734D02*
X030511Y006734D01*
X030511Y006735D02*
X030317Y006735D01*
X030317Y006736D02*
X030511Y006736D01*
X030511Y006737D02*
X030317Y006737D01*
X030317Y006738D02*
X030511Y006738D01*
X030511Y006739D02*
X030317Y006739D01*
X030317Y006740D02*
X030511Y006740D01*
X030511Y006741D02*
X030317Y006741D01*
X030317Y006742D02*
X030511Y006742D01*
X030511Y006743D02*
X030317Y006743D01*
X030317Y006744D02*
X030511Y006744D01*
X030511Y006745D02*
X030317Y006745D01*
X030317Y006746D02*
X030511Y006746D01*
X030511Y006747D02*
X030317Y006747D01*
X030317Y006748D02*
X030511Y006748D01*
X030511Y006749D02*
X030317Y006749D01*
X030317Y006750D02*
X030511Y006750D01*
X030511Y006751D02*
X030317Y006751D01*
X030317Y006752D02*
X030511Y006752D01*
X030511Y006753D02*
X030317Y006753D01*
X030317Y006754D02*
X030511Y006754D01*
X030511Y006755D02*
X030317Y006755D01*
X030317Y006756D02*
X030511Y006756D01*
X030511Y006757D02*
X030317Y006757D01*
X030317Y006758D02*
X030511Y006758D01*
X030511Y006759D02*
X030317Y006759D01*
X030317Y006760D02*
X030511Y006760D01*
X030511Y006761D02*
X030317Y006761D01*
X030317Y006762D02*
X030511Y006762D01*
X030511Y006763D02*
X030317Y006763D01*
X030317Y006764D02*
X030511Y006764D01*
X030511Y006765D02*
X030317Y006765D01*
X030317Y006766D02*
X030511Y006766D01*
X030511Y006767D02*
X030317Y006767D01*
X030317Y006768D02*
X030511Y006768D01*
X030511Y006769D02*
X030317Y006769D01*
X030317Y006770D02*
X030511Y006770D01*
X030511Y006771D02*
X030317Y006771D01*
X030317Y006772D02*
X030511Y006772D01*
X030511Y006773D02*
X030317Y006773D01*
X030317Y006774D02*
X030511Y006774D01*
X030511Y006775D02*
X030317Y006775D01*
X030317Y006776D02*
X030511Y006776D01*
X030511Y006777D02*
X030317Y006777D01*
X030317Y006778D02*
X030511Y006778D01*
X030511Y006779D02*
X030317Y006779D01*
X030317Y006780D02*
X030511Y006780D01*
X030511Y006781D02*
X030317Y006781D01*
X030317Y006782D02*
X030511Y006782D01*
X030511Y006783D02*
X030317Y006783D01*
X030317Y006784D02*
X030511Y006784D01*
X030511Y006785D02*
X030317Y006785D01*
X030317Y006786D02*
X030511Y006786D01*
X030511Y006787D02*
X030317Y006787D01*
X030317Y006788D02*
X030511Y006788D01*
X030511Y006789D02*
X030317Y006789D01*
X030317Y006790D02*
X030511Y006790D01*
X030511Y006791D02*
X030317Y006791D01*
X030317Y006792D02*
X030511Y006792D01*
X030511Y006793D02*
X030317Y006793D01*
X030317Y006794D02*
X030511Y006794D01*
X030511Y006795D02*
X030317Y006795D01*
X030317Y006796D02*
X030511Y006796D01*
X030511Y006797D02*
X030317Y006797D01*
X030317Y006798D02*
X030511Y006798D01*
X030511Y006799D02*
X030317Y006799D01*
X030317Y006800D02*
X030511Y006800D01*
X030511Y006801D02*
X030317Y006801D01*
X030317Y006802D02*
X030511Y006802D01*
X030511Y006803D02*
X030317Y006803D01*
X030317Y006804D02*
X030511Y006804D01*
X030511Y006805D02*
X030317Y006805D01*
X030317Y006806D02*
X030511Y006806D01*
X030511Y006807D02*
X030317Y006807D01*
X030317Y006808D02*
X030511Y006808D01*
X030511Y006809D02*
X030317Y006809D01*
X030317Y006810D02*
X030511Y006810D01*
X030511Y006811D02*
X030317Y006811D01*
X030317Y006812D02*
X030511Y006812D01*
X030511Y006813D02*
X030317Y006813D01*
X030317Y006814D02*
X030511Y006814D01*
X030511Y006815D02*
X030317Y006815D01*
X030317Y006816D02*
X030511Y006816D01*
X030511Y006817D02*
X030317Y006817D01*
X030317Y006818D02*
X030511Y006818D01*
X030511Y006819D02*
X030317Y006819D01*
X030317Y006820D02*
X030511Y006820D01*
X030511Y006821D02*
X030317Y006821D01*
X030317Y006822D02*
X030511Y006822D01*
X030511Y006823D02*
X030317Y006823D01*
X030317Y006824D02*
X030511Y006824D01*
X030511Y006825D02*
X030317Y006825D01*
X030317Y006826D02*
X030511Y006826D01*
X030511Y006827D02*
X030317Y006827D01*
X030317Y006828D02*
X030511Y006828D01*
X030511Y006829D02*
X030317Y006829D01*
X030317Y006830D02*
X030511Y006830D01*
X030511Y006831D02*
X030317Y006831D01*
X030317Y006832D02*
X030511Y006832D01*
X030511Y006833D02*
X030317Y006833D01*
X030317Y006834D02*
X030511Y006834D01*
X030511Y006835D02*
X030317Y006835D01*
X030317Y006836D02*
X030511Y006836D01*
X030511Y006837D02*
X030317Y006837D01*
X030317Y006838D02*
X030511Y006838D01*
X030511Y006839D02*
X030317Y006839D01*
X030317Y006840D02*
X030511Y006840D01*
X030511Y006841D02*
X030317Y006841D01*
X030317Y006842D02*
X030511Y006842D01*
X030511Y006843D02*
X030317Y006843D01*
X030317Y006844D02*
X030511Y006844D01*
X030511Y006845D02*
X030317Y006845D01*
X030317Y006846D02*
X030511Y006846D01*
X030511Y006847D02*
X030317Y006847D01*
X030317Y006848D02*
X030511Y006848D01*
X030511Y006849D02*
X030317Y006849D01*
X030317Y006850D02*
X030511Y006850D01*
X030511Y006851D02*
X030317Y006851D01*
X030317Y006852D02*
X030511Y006852D01*
X030511Y006853D02*
X030317Y006853D01*
X030317Y006854D02*
X030511Y006854D01*
X030511Y006855D02*
X030317Y006855D01*
X030317Y006856D02*
X030511Y006856D01*
X030511Y006857D02*
X030317Y006857D01*
X030317Y006858D02*
X030511Y006858D01*
X030511Y006859D02*
X030317Y006859D01*
X030317Y006860D02*
X030511Y006860D01*
X030511Y006861D02*
X030317Y006861D01*
X030317Y006862D02*
X030511Y006862D01*
X030511Y006863D02*
X030317Y006863D01*
X030317Y006864D02*
X030511Y006864D01*
X030511Y006865D02*
X030317Y006865D01*
X030317Y006866D02*
X030511Y006866D01*
X030511Y006867D02*
X030317Y006867D01*
X030317Y006868D02*
X030511Y006868D01*
X030511Y006869D02*
X030317Y006869D01*
X030317Y006870D02*
X030511Y006870D01*
X030511Y006871D02*
X030317Y006871D01*
X030317Y006872D02*
X030511Y006872D01*
X030511Y006873D02*
X030317Y006873D01*
X030317Y006874D02*
X030511Y006874D01*
X030511Y006875D02*
X030317Y006875D01*
X030317Y006876D02*
X030511Y006876D01*
X030511Y006877D02*
X030317Y006877D01*
X030317Y006878D02*
X030511Y006878D01*
X030511Y006879D02*
X030317Y006879D01*
X030317Y006880D02*
X030511Y006880D01*
X030511Y006881D02*
X030317Y006881D01*
X030317Y006882D02*
X030511Y006882D01*
X030511Y006883D02*
X030317Y006883D01*
X030317Y006884D02*
X030511Y006884D01*
X030511Y006885D02*
X030317Y006885D01*
X030317Y006886D02*
X030511Y006886D01*
X030511Y006887D02*
X030317Y006887D01*
X030317Y006888D02*
X030511Y006888D01*
X030511Y006889D02*
X030317Y006889D01*
X030317Y006890D02*
X030511Y006890D01*
X030511Y006891D02*
X030317Y006891D01*
X030317Y006892D02*
X030511Y006892D01*
X030511Y006893D02*
X030317Y006893D01*
X030317Y006894D02*
X030511Y006894D01*
X030511Y006895D02*
X030317Y006895D01*
X030317Y006896D02*
X030511Y006896D01*
X030511Y006897D02*
X030317Y006897D01*
X030317Y006898D02*
X030511Y006898D01*
X030511Y006899D02*
X030317Y006899D01*
X030317Y006900D02*
X030511Y006900D01*
X030511Y006901D02*
X030317Y006901D01*
X030317Y006902D02*
X030511Y006902D01*
X030511Y006903D02*
X030317Y006903D01*
X030317Y006904D02*
X030511Y006904D01*
X030511Y006905D02*
X030317Y006905D01*
X030317Y006906D02*
X030511Y006906D01*
X030511Y006907D02*
X030317Y006907D01*
X030317Y006908D02*
X030511Y006908D01*
X030511Y006909D02*
X030317Y006909D01*
X030317Y006910D02*
X030511Y006910D01*
X030511Y006911D02*
X030317Y006911D01*
X030317Y006912D02*
X030511Y006912D01*
X030511Y006913D02*
X030317Y006913D01*
X030317Y006914D02*
X030511Y006914D01*
X030511Y006915D02*
X030317Y006915D01*
X030317Y006916D02*
X030511Y006916D01*
X030511Y006917D02*
X030317Y006917D01*
X030317Y006918D02*
X030511Y006918D01*
X030511Y006919D02*
X030317Y006919D01*
X030317Y006920D02*
X030511Y006920D01*
X030511Y006921D02*
X030317Y006921D01*
X030317Y006922D02*
X030511Y006922D01*
X030511Y006923D02*
X030317Y006923D01*
X030317Y006924D02*
X030511Y006924D01*
X030511Y006925D02*
X030317Y006925D01*
X030317Y006926D02*
X030511Y006926D01*
X030511Y006927D02*
X030317Y006927D01*
X030317Y006928D02*
X030511Y006928D01*
X030511Y006929D02*
X030317Y006929D01*
X030317Y006930D02*
X030511Y006930D01*
X030511Y006931D02*
X030317Y006931D01*
X030317Y006932D02*
X030511Y006932D01*
X030511Y006933D02*
X030317Y006933D01*
X030317Y006934D02*
X030511Y006934D01*
X030511Y006935D02*
X030317Y006935D01*
X030317Y006936D02*
X030511Y006936D01*
X030511Y006937D02*
X030317Y006937D01*
X030317Y006938D02*
X030511Y006938D01*
X030511Y006939D02*
X030317Y006939D01*
X030317Y006940D02*
X030511Y006940D01*
X030511Y006941D02*
X030317Y006941D01*
X030317Y006942D02*
X030511Y006942D01*
X030511Y006943D02*
X030317Y006943D01*
X030317Y006944D02*
X030511Y006944D01*
X030511Y006945D02*
X030317Y006945D01*
X030317Y006946D02*
X030511Y006946D01*
X030511Y006947D02*
X030317Y006947D01*
X030317Y006948D02*
X030511Y006948D01*
X030511Y006949D02*
X030317Y006949D01*
X030317Y006950D02*
X030511Y006950D01*
X030511Y006951D02*
X030317Y006951D01*
X030317Y006952D02*
X030511Y006952D01*
X030511Y006953D02*
X030317Y006953D01*
X030317Y006954D02*
X030511Y006954D01*
X030511Y006955D02*
X030317Y006955D01*
X030317Y006956D02*
X030511Y006956D01*
X030511Y006957D02*
X030317Y006957D01*
X030317Y006958D02*
X030511Y006958D01*
X030511Y006959D02*
X030317Y006959D01*
X030317Y006960D02*
X030511Y006960D01*
X030511Y006961D02*
X030317Y006961D01*
X030317Y006962D02*
X030511Y006962D01*
X030511Y006963D02*
X030317Y006963D01*
X030317Y006964D02*
X030511Y006964D01*
X030511Y006965D02*
X030317Y006965D01*
X030317Y006966D02*
X030511Y006966D01*
X030511Y006967D02*
X030317Y006967D01*
X030317Y006968D02*
X030511Y006968D01*
X030511Y006969D02*
X030317Y006969D01*
X030317Y006970D02*
X030511Y006970D01*
X030511Y006971D02*
X030317Y006971D01*
X030317Y006972D02*
X030511Y006972D01*
X030511Y006973D02*
X030317Y006973D01*
X030317Y006974D02*
X030511Y006974D01*
X030511Y006975D02*
X030317Y006975D01*
X030317Y006976D02*
X030511Y006976D01*
X030511Y006977D02*
X030317Y006977D01*
X030317Y006978D02*
X030511Y006978D01*
X030511Y006979D02*
X030317Y006979D01*
X030317Y006980D02*
X030511Y006980D01*
X030511Y006981D02*
X030317Y006981D01*
X030317Y006982D02*
X030511Y006982D01*
X030511Y006983D02*
X030317Y006983D01*
X030317Y006984D02*
X030511Y006984D01*
X030511Y006985D02*
X030317Y006985D01*
X030317Y006986D02*
X030511Y006986D01*
X030511Y006987D02*
X030317Y006987D01*
X030317Y006988D02*
X030511Y006988D01*
X030511Y006989D02*
X030317Y006989D01*
X030317Y006990D02*
X030511Y006990D01*
X030511Y006991D02*
X030317Y006991D01*
X030317Y006992D02*
X030511Y006992D01*
X030511Y006993D02*
X030317Y006993D01*
X030317Y006994D02*
X030511Y006994D01*
X030511Y006995D02*
X030317Y006995D01*
X030317Y006996D02*
X030511Y006996D01*
X030511Y006997D02*
X030317Y006997D01*
X030317Y006998D02*
X030511Y006998D01*
X030511Y006999D02*
X030317Y006999D01*
X030317Y007000D02*
X030511Y007000D01*
X030511Y007001D02*
X030317Y007001D01*
X030317Y007002D02*
X030511Y007002D01*
X030511Y007003D02*
X030317Y007003D01*
X030317Y007004D02*
X030511Y007004D01*
X030511Y007005D02*
X030317Y007005D01*
X030317Y007006D02*
X030511Y007006D01*
X030511Y007007D02*
X030317Y007007D01*
X030317Y007008D02*
X030511Y007008D01*
X030511Y007009D02*
X030317Y007009D01*
X030317Y007010D02*
X030511Y007010D01*
X030511Y007011D02*
X030317Y007011D01*
X030317Y007012D02*
X030511Y007012D01*
X030511Y007013D02*
X030317Y007013D01*
X030317Y007014D02*
X030511Y007014D01*
X030511Y007015D02*
X030317Y007015D01*
X030317Y007016D02*
X030511Y007016D01*
X030511Y007017D02*
X030317Y007017D01*
X030317Y007018D02*
X030511Y007018D01*
X030511Y007019D02*
X030317Y007019D01*
X030317Y007020D02*
X030511Y007020D01*
X030511Y007021D02*
X030317Y007021D01*
X030317Y007022D02*
X030511Y007022D01*
X030511Y007023D02*
X030317Y007023D01*
X030317Y007024D02*
X030511Y007024D01*
X030511Y007025D02*
X030317Y007025D01*
X030317Y007026D02*
X030511Y007026D01*
X030511Y007027D02*
X030317Y007027D01*
X030317Y007028D02*
X030511Y007028D01*
X030511Y007029D02*
X030317Y007029D01*
X030317Y007030D02*
X030511Y007030D01*
X030511Y007031D02*
X030317Y007031D01*
X030317Y007032D02*
X030511Y007032D01*
X030511Y007033D02*
X030317Y007033D01*
X030317Y007034D02*
X030511Y007034D01*
X030511Y007035D02*
X030317Y007035D01*
X030317Y007036D02*
X030511Y007036D01*
X030511Y007037D02*
X030317Y007037D01*
X030317Y007038D02*
X030511Y007038D01*
X030511Y007039D02*
X030317Y007039D01*
X030317Y007040D02*
X030511Y007040D01*
X030511Y007041D02*
X030317Y007041D01*
X030317Y007042D02*
X030511Y007042D01*
X030511Y007043D02*
X030317Y007043D01*
X030317Y007044D02*
X030511Y007044D01*
X030511Y007045D02*
X030317Y007045D01*
X030317Y007046D02*
X030511Y007046D01*
X030511Y007047D02*
X030317Y007047D01*
X030317Y007048D02*
X030511Y007048D01*
X030511Y007049D02*
X030317Y007049D01*
X030317Y007050D02*
X030511Y007050D01*
X030511Y007051D02*
X030317Y007051D01*
X030317Y007052D02*
X030511Y007052D01*
X030511Y007053D02*
X030317Y007053D01*
X030317Y007054D02*
X030511Y007054D01*
X030511Y007055D02*
X030317Y007055D01*
X030317Y007056D02*
X030511Y007056D01*
X030511Y007057D02*
X030317Y007057D01*
X030317Y007058D02*
X030511Y007058D01*
X030511Y007059D02*
X030317Y007059D01*
X030317Y007060D02*
X030511Y007060D01*
X030511Y007061D02*
X030317Y007061D01*
X030317Y007062D02*
X030511Y007062D01*
X030511Y007063D02*
X030317Y007063D01*
X030317Y007064D02*
X030511Y007064D01*
X030511Y007065D02*
X030317Y007065D01*
X030317Y007066D02*
X030511Y007066D01*
X030511Y007067D02*
X030317Y007067D01*
X030317Y007068D02*
X030511Y007068D01*
X030511Y007069D02*
X030317Y007069D01*
X030317Y007070D02*
X030511Y007070D01*
X030511Y007071D02*
X030317Y007071D01*
X030317Y007072D02*
X030511Y007072D01*
X030511Y007073D02*
X030317Y007073D01*
X030317Y007074D02*
X030511Y007074D01*
X030511Y007075D02*
X030317Y007075D01*
X030317Y007076D02*
X030511Y007076D01*
X030511Y007077D02*
X030317Y007077D01*
X030317Y007078D02*
X030511Y007078D01*
X030511Y007079D02*
X030317Y007079D01*
X030317Y007080D02*
X030511Y007080D01*
X030511Y007081D02*
X030317Y007081D01*
X030317Y007082D02*
X030511Y007082D01*
X030511Y007083D02*
X030317Y007083D01*
X030317Y007084D02*
X030511Y007084D01*
X030511Y007085D02*
X030317Y007085D01*
X030317Y007086D02*
X030511Y007086D01*
X030511Y007087D02*
X030317Y007087D01*
X030317Y007088D02*
X030511Y007088D01*
X030511Y007089D02*
X030317Y007089D01*
X030317Y007090D02*
X030511Y007090D01*
X030511Y007091D02*
X030317Y007091D01*
X030317Y007092D02*
X030511Y007092D01*
X030511Y007093D02*
X030317Y007093D01*
X030317Y007094D02*
X030511Y007094D01*
X030511Y007095D02*
X030317Y007095D01*
X030317Y007096D02*
X030511Y007096D01*
X030511Y007097D02*
X030317Y007097D01*
X030317Y007098D02*
X030511Y007098D01*
X030511Y007099D02*
X030317Y007099D01*
X030317Y007100D02*
X030511Y007100D01*
X030511Y007101D02*
X030317Y007101D01*
X030317Y007102D02*
X030511Y007102D01*
X030511Y007103D02*
X030317Y007103D01*
X030317Y007104D02*
X030511Y007104D01*
X030511Y007105D02*
X030317Y007105D01*
X030317Y007106D02*
X030511Y007106D01*
X030511Y007107D02*
X030317Y007107D01*
X030317Y007108D02*
X030511Y007108D01*
X030511Y007109D02*
X030317Y007109D01*
X030317Y007110D02*
X030511Y007110D01*
X030511Y007111D02*
X030317Y007111D01*
X030317Y007112D02*
X030511Y007112D01*
D59*
X025670Y016070D03*
X025670Y016819D03*
X024843Y016444D03*
D60*
X028032Y008177D03*
X028740Y008177D03*
G36*
X017525Y021443D02*
X017274Y021192D01*
X016913Y021553D01*
X017164Y021804D01*
X017525Y021443D01*
G37*
G36*
X017024Y020942D02*
X016773Y020691D01*
X016412Y021052D01*
X016663Y021303D01*
X017024Y020942D01*
G37*
D61*
X027244Y023137D03*
X028347Y023137D03*
D62*
X024016Y016444D03*
X024016Y015342D03*
D63*
X029941Y015736D03*
X032500Y015736D03*
D64*
X029764Y023098D03*
X017396Y011011D03*
X014049Y035933D03*
D65*
X018003Y014779D02*
X018003Y014487D01*
X018003Y014779D02*
X018099Y014779D01*
X018099Y014487D01*
X018003Y014487D01*
X018003Y014549D02*
X018099Y014549D01*
X018099Y014611D02*
X018003Y014611D01*
X018003Y014673D02*
X018099Y014673D01*
X018099Y014735D02*
X018003Y014735D01*
X018200Y014779D02*
X018200Y014487D01*
X018200Y014779D02*
X018296Y014779D01*
X018296Y014487D01*
X018200Y014487D01*
X018200Y014549D02*
X018296Y014549D01*
X018296Y014611D02*
X018200Y014611D01*
X018200Y014673D02*
X018296Y014673D01*
X018296Y014735D02*
X018200Y014735D01*
X018397Y014779D02*
X018397Y014487D01*
X018397Y014779D02*
X018493Y014779D01*
X018493Y014487D01*
X018397Y014487D01*
X018397Y014549D02*
X018493Y014549D01*
X018493Y014611D02*
X018397Y014611D01*
X018397Y014673D02*
X018493Y014673D01*
X018493Y014735D02*
X018397Y014735D01*
X018594Y014779D02*
X018594Y014487D01*
X018594Y014779D02*
X018690Y014779D01*
X018690Y014487D01*
X018594Y014487D01*
X018594Y014549D02*
X018690Y014549D01*
X018690Y014611D02*
X018594Y014611D01*
X018594Y014673D02*
X018690Y014673D01*
X018690Y014735D02*
X018594Y014735D01*
X018791Y014779D02*
X018791Y014487D01*
X018791Y014779D02*
X018887Y014779D01*
X018887Y014487D01*
X018791Y014487D01*
X018791Y014549D02*
X018887Y014549D01*
X018887Y014611D02*
X018791Y014611D01*
X018791Y014673D02*
X018887Y014673D01*
X018887Y014735D02*
X018791Y014735D01*
X018988Y014779D02*
X018988Y014487D01*
X018988Y014779D02*
X019084Y014779D01*
X019084Y014487D01*
X018988Y014487D01*
X018988Y014549D02*
X019084Y014549D01*
X019084Y014611D02*
X018988Y014611D01*
X018988Y014673D02*
X019084Y014673D01*
X019084Y014735D02*
X018988Y014735D01*
X019185Y014779D02*
X019185Y014487D01*
X019185Y014779D02*
X019281Y014779D01*
X019281Y014487D01*
X019185Y014487D01*
X019185Y014549D02*
X019281Y014549D01*
X019281Y014611D02*
X019185Y014611D01*
X019185Y014673D02*
X019281Y014673D01*
X019281Y014735D02*
X019185Y014735D01*
X019381Y014779D02*
X019381Y014487D01*
X019381Y014779D02*
X019477Y014779D01*
X019477Y014487D01*
X019381Y014487D01*
X019381Y014549D02*
X019477Y014549D01*
X019477Y014611D02*
X019381Y014611D01*
X019381Y014673D02*
X019477Y014673D01*
X019477Y014735D02*
X019381Y014735D01*
X019578Y014779D02*
X019578Y014487D01*
X019578Y014779D02*
X019674Y014779D01*
X019674Y014487D01*
X019578Y014487D01*
X019578Y014549D02*
X019674Y014549D01*
X019674Y014611D02*
X019578Y014611D01*
X019578Y014673D02*
X019674Y014673D01*
X019674Y014735D02*
X019578Y014735D01*
X019775Y014779D02*
X019775Y014487D01*
X019775Y014779D02*
X019871Y014779D01*
X019871Y014487D01*
X019775Y014487D01*
X019775Y014549D02*
X019871Y014549D01*
X019871Y014611D02*
X019775Y014611D01*
X019775Y014673D02*
X019871Y014673D01*
X019871Y014735D02*
X019775Y014735D01*
X019972Y014779D02*
X019972Y014487D01*
X019972Y014779D02*
X020068Y014779D01*
X020068Y014487D01*
X019972Y014487D01*
X019972Y014549D02*
X020068Y014549D01*
X020068Y014611D02*
X019972Y014611D01*
X019972Y014673D02*
X020068Y014673D01*
X020068Y014735D02*
X019972Y014735D01*
X020169Y014779D02*
X020169Y014487D01*
X020169Y014779D02*
X020265Y014779D01*
X020265Y014487D01*
X020169Y014487D01*
X020169Y014549D02*
X020265Y014549D01*
X020265Y014611D02*
X020169Y014611D01*
X020169Y014673D02*
X020265Y014673D01*
X020265Y014735D02*
X020169Y014735D01*
X020366Y014386D02*
X020658Y014386D01*
X020658Y014290D01*
X020366Y014290D01*
X020366Y014386D01*
X020366Y014352D02*
X020658Y014352D01*
X020658Y014189D02*
X020366Y014189D01*
X020658Y014189D02*
X020658Y014093D01*
X020366Y014093D01*
X020366Y014189D01*
X020366Y014155D02*
X020658Y014155D01*
X020658Y013992D02*
X020366Y013992D01*
X020658Y013992D02*
X020658Y013896D01*
X020366Y013896D01*
X020366Y013992D01*
X020366Y013958D02*
X020658Y013958D01*
X020658Y013796D02*
X020366Y013796D01*
X020658Y013796D02*
X020658Y013700D01*
X020366Y013700D01*
X020366Y013796D01*
X020366Y013762D02*
X020658Y013762D01*
X020658Y013599D02*
X020366Y013599D01*
X020658Y013599D02*
X020658Y013503D01*
X020366Y013503D01*
X020366Y013599D01*
X020366Y013565D02*
X020658Y013565D01*
X020658Y013402D02*
X020366Y013402D01*
X020658Y013402D02*
X020658Y013306D01*
X020366Y013306D01*
X020366Y013402D01*
X020366Y013368D02*
X020658Y013368D01*
X020658Y013205D02*
X020366Y013205D01*
X020658Y013205D02*
X020658Y013109D01*
X020366Y013109D01*
X020366Y013205D01*
X020366Y013171D02*
X020658Y013171D01*
X020658Y013008D02*
X020366Y013008D01*
X020658Y013008D02*
X020658Y012912D01*
X020366Y012912D01*
X020366Y013008D01*
X020366Y012974D02*
X020658Y012974D01*
X020658Y012811D02*
X020366Y012811D01*
X020658Y012811D02*
X020658Y012715D01*
X020366Y012715D01*
X020366Y012811D01*
X020366Y012777D02*
X020658Y012777D01*
X020658Y012615D02*
X020366Y012615D01*
X020658Y012615D02*
X020658Y012519D01*
X020366Y012519D01*
X020366Y012615D01*
X020366Y012581D02*
X020658Y012581D01*
X020658Y012418D02*
X020366Y012418D01*
X020658Y012418D02*
X020658Y012322D01*
X020366Y012322D01*
X020366Y012418D01*
X020366Y012384D02*
X020658Y012384D01*
X020658Y012221D02*
X020366Y012221D01*
X020658Y012221D02*
X020658Y012125D01*
X020366Y012125D01*
X020366Y012221D01*
X020366Y012187D02*
X020658Y012187D01*
X020265Y012024D02*
X020265Y011732D01*
X020169Y011732D01*
X020169Y012024D01*
X020265Y012024D01*
X020265Y011794D02*
X020169Y011794D01*
X020169Y011856D02*
X020265Y011856D01*
X020265Y011918D02*
X020169Y011918D01*
X020169Y011980D02*
X020265Y011980D01*
X020068Y012024D02*
X020068Y011732D01*
X019972Y011732D01*
X019972Y012024D01*
X020068Y012024D01*
X020068Y011794D02*
X019972Y011794D01*
X019972Y011856D02*
X020068Y011856D01*
X020068Y011918D02*
X019972Y011918D01*
X019972Y011980D02*
X020068Y011980D01*
X019871Y012024D02*
X019871Y011732D01*
X019775Y011732D01*
X019775Y012024D01*
X019871Y012024D01*
X019871Y011794D02*
X019775Y011794D01*
X019775Y011856D02*
X019871Y011856D01*
X019871Y011918D02*
X019775Y011918D01*
X019775Y011980D02*
X019871Y011980D01*
X019674Y012024D02*
X019674Y011732D01*
X019578Y011732D01*
X019578Y012024D01*
X019674Y012024D01*
X019674Y011794D02*
X019578Y011794D01*
X019578Y011856D02*
X019674Y011856D01*
X019674Y011918D02*
X019578Y011918D01*
X019578Y011980D02*
X019674Y011980D01*
X019477Y012024D02*
X019477Y011732D01*
X019381Y011732D01*
X019381Y012024D01*
X019477Y012024D01*
X019477Y011794D02*
X019381Y011794D01*
X019381Y011856D02*
X019477Y011856D01*
X019477Y011918D02*
X019381Y011918D01*
X019381Y011980D02*
X019477Y011980D01*
X019281Y012024D02*
X019281Y011732D01*
X019185Y011732D01*
X019185Y012024D01*
X019281Y012024D01*
X019281Y011794D02*
X019185Y011794D01*
X019185Y011856D02*
X019281Y011856D01*
X019281Y011918D02*
X019185Y011918D01*
X019185Y011980D02*
X019281Y011980D01*
X019084Y012024D02*
X019084Y011732D01*
X018988Y011732D01*
X018988Y012024D01*
X019084Y012024D01*
X019084Y011794D02*
X018988Y011794D01*
X018988Y011856D02*
X019084Y011856D01*
X019084Y011918D02*
X018988Y011918D01*
X018988Y011980D02*
X019084Y011980D01*
X018887Y012024D02*
X018887Y011732D01*
X018791Y011732D01*
X018791Y012024D01*
X018887Y012024D01*
X018887Y011794D02*
X018791Y011794D01*
X018791Y011856D02*
X018887Y011856D01*
X018887Y011918D02*
X018791Y011918D01*
X018791Y011980D02*
X018887Y011980D01*
X018690Y012024D02*
X018690Y011732D01*
X018594Y011732D01*
X018594Y012024D01*
X018690Y012024D01*
X018690Y011794D02*
X018594Y011794D01*
X018594Y011856D02*
X018690Y011856D01*
X018690Y011918D02*
X018594Y011918D01*
X018594Y011980D02*
X018690Y011980D01*
X018493Y012024D02*
X018493Y011732D01*
X018397Y011732D01*
X018397Y012024D01*
X018493Y012024D01*
X018493Y011794D02*
X018397Y011794D01*
X018397Y011856D02*
X018493Y011856D01*
X018493Y011918D02*
X018397Y011918D01*
X018397Y011980D02*
X018493Y011980D01*
X018296Y012024D02*
X018296Y011732D01*
X018200Y011732D01*
X018200Y012024D01*
X018296Y012024D01*
X018296Y011794D02*
X018200Y011794D01*
X018200Y011856D02*
X018296Y011856D01*
X018296Y011918D02*
X018200Y011918D01*
X018200Y011980D02*
X018296Y011980D01*
X018099Y012024D02*
X018099Y011732D01*
X018003Y011732D01*
X018003Y012024D01*
X018099Y012024D01*
X018099Y011794D02*
X018003Y011794D01*
X018003Y011856D02*
X018099Y011856D01*
X018099Y011918D02*
X018003Y011918D01*
X018003Y011980D02*
X018099Y011980D01*
X017902Y012125D02*
X017610Y012125D01*
X017610Y012221D01*
X017902Y012221D01*
X017902Y012125D01*
X017902Y012187D02*
X017610Y012187D01*
X017610Y012322D02*
X017902Y012322D01*
X017610Y012322D02*
X017610Y012418D01*
X017902Y012418D01*
X017902Y012322D01*
X017902Y012384D02*
X017610Y012384D01*
X017610Y012519D02*
X017902Y012519D01*
X017610Y012519D02*
X017610Y012615D01*
X017902Y012615D01*
X017902Y012519D01*
X017902Y012581D02*
X017610Y012581D01*
X017610Y012715D02*
X017902Y012715D01*
X017610Y012715D02*
X017610Y012811D01*
X017902Y012811D01*
X017902Y012715D01*
X017902Y012777D02*
X017610Y012777D01*
X017610Y012912D02*
X017902Y012912D01*
X017610Y012912D02*
X017610Y013008D01*
X017902Y013008D01*
X017902Y012912D01*
X017902Y012974D02*
X017610Y012974D01*
X017610Y013109D02*
X017902Y013109D01*
X017610Y013109D02*
X017610Y013205D01*
X017902Y013205D01*
X017902Y013109D01*
X017902Y013171D02*
X017610Y013171D01*
X017610Y013306D02*
X017902Y013306D01*
X017610Y013306D02*
X017610Y013402D01*
X017902Y013402D01*
X017902Y013306D01*
X017902Y013368D02*
X017610Y013368D01*
X017610Y013503D02*
X017902Y013503D01*
X017610Y013503D02*
X017610Y013599D01*
X017902Y013599D01*
X017902Y013503D01*
X017902Y013565D02*
X017610Y013565D01*
X017610Y013700D02*
X017902Y013700D01*
X017610Y013700D02*
X017610Y013796D01*
X017902Y013796D01*
X017902Y013700D01*
X017902Y013762D02*
X017610Y013762D01*
X017610Y013896D02*
X017902Y013896D01*
X017610Y013896D02*
X017610Y013992D01*
X017902Y013992D01*
X017902Y013896D01*
X017902Y013958D02*
X017610Y013958D01*
X017610Y014093D02*
X017902Y014093D01*
X017610Y014093D02*
X017610Y014189D01*
X017902Y014189D01*
X017902Y014093D01*
X017902Y014155D02*
X017610Y014155D01*
X017610Y014290D02*
X017902Y014290D01*
X017610Y014290D02*
X017610Y014386D01*
X017902Y014386D01*
X017902Y014290D01*
X017902Y014352D02*
X017610Y014352D01*
D66*
X018318Y014072D02*
X019950Y014072D01*
X019950Y012440D01*
X018318Y012440D01*
X018318Y014072D01*
X018318Y012620D02*
X019950Y012620D01*
X019950Y012800D02*
X018318Y012800D01*
X018318Y012980D02*
X019950Y012980D01*
X019950Y013160D02*
X018318Y013160D01*
X018318Y013340D02*
X019950Y013340D01*
X019950Y013520D02*
X018318Y013520D01*
X018318Y013700D02*
X019950Y013700D01*
X019950Y013880D02*
X018318Y013880D01*
X018318Y014060D02*
X019950Y014060D01*
D67*
X021092Y014839D02*
X021664Y014839D01*
X021664Y014567D01*
X021092Y014567D01*
X021092Y014839D01*
X021092Y014634D02*
X021664Y014634D01*
X021664Y014701D02*
X021092Y014701D01*
X021092Y014768D02*
X021664Y014768D01*
X021664Y014835D02*
X021092Y014835D01*
X021092Y016039D02*
X021664Y016039D01*
X021664Y015767D01*
X021092Y015767D01*
X021092Y016039D01*
X021092Y015834D02*
X021664Y015834D01*
X021664Y015901D02*
X021092Y015901D01*
X021092Y015968D02*
X021664Y015968D01*
X021664Y016035D02*
X021092Y016035D01*
X019170Y025919D02*
X018766Y026323D01*
X018958Y026515D01*
X019362Y026111D01*
X019170Y025919D01*
X019237Y025986D02*
X019103Y025986D01*
X019036Y026053D02*
X019304Y026053D01*
X019353Y026120D02*
X018969Y026120D01*
X018902Y026187D02*
X019286Y026187D01*
X019219Y026254D02*
X018835Y026254D01*
X018768Y026321D02*
X019152Y026321D01*
X019085Y026388D02*
X018831Y026388D01*
X018898Y026455D02*
X019018Y026455D01*
X019615Y027172D02*
X020019Y026768D01*
X019615Y027172D02*
X019807Y027364D01*
X020211Y026960D01*
X020019Y026768D01*
X020086Y026835D02*
X019952Y026835D01*
X019885Y026902D02*
X020153Y026902D01*
X020202Y026969D02*
X019818Y026969D01*
X019751Y027036D02*
X020135Y027036D01*
X020068Y027103D02*
X019684Y027103D01*
X019617Y027170D02*
X020001Y027170D01*
X019934Y027237D02*
X019680Y027237D01*
X019747Y027304D02*
X019867Y027304D01*
D68*
X019705Y017763D03*
X020610Y017763D03*
X020610Y016307D03*
X019705Y016307D03*
D69*
X019917Y020561D02*
X019977Y020621D01*
X019917Y020561D02*
X019733Y020745D01*
X019793Y020805D01*
X019977Y020621D01*
X019971Y020615D02*
X019863Y020615D01*
X019809Y020669D02*
X019929Y020669D01*
X019875Y020723D02*
X019755Y020723D01*
X019765Y020777D02*
X019821Y020777D01*
X020056Y020700D02*
X020116Y020760D01*
X020056Y020700D02*
X019872Y020884D01*
X019932Y020944D01*
X020116Y020760D01*
X020110Y020754D02*
X020002Y020754D01*
X019948Y020808D02*
X020068Y020808D01*
X020014Y020862D02*
X019894Y020862D01*
X019904Y020916D02*
X019960Y020916D01*
X020195Y020840D02*
X020255Y020900D01*
X020195Y020840D02*
X020011Y021024D01*
X020071Y021084D01*
X020255Y020900D01*
X020249Y020894D02*
X020141Y020894D01*
X020087Y020948D02*
X020207Y020948D01*
X020153Y021002D02*
X020033Y021002D01*
X020043Y021056D02*
X020099Y021056D01*
X020334Y020979D02*
X020394Y021039D01*
X020334Y020979D02*
X020150Y021163D01*
X020210Y021223D01*
X020394Y021039D01*
X020388Y021033D02*
X020280Y021033D01*
X020226Y021087D02*
X020346Y021087D01*
X020292Y021141D02*
X020172Y021141D01*
X020182Y021195D02*
X020238Y021195D01*
X020473Y021118D02*
X020533Y021178D01*
X020473Y021118D02*
X020289Y021302D01*
X020349Y021362D01*
X020533Y021178D01*
X020527Y021172D02*
X020419Y021172D01*
X020365Y021226D02*
X020485Y021226D01*
X020431Y021280D02*
X020311Y021280D01*
X020321Y021334D02*
X020377Y021334D01*
X020613Y021257D02*
X020673Y021317D01*
X020613Y021257D02*
X020429Y021441D01*
X020489Y021501D01*
X020673Y021317D01*
X020667Y021311D02*
X020559Y021311D01*
X020505Y021365D02*
X020625Y021365D01*
X020571Y021419D02*
X020451Y021419D01*
X020461Y021473D02*
X020517Y021473D01*
X020752Y021396D02*
X020812Y021456D01*
X020752Y021396D02*
X020568Y021580D01*
X020628Y021640D01*
X020812Y021456D01*
X020806Y021450D02*
X020698Y021450D01*
X020644Y021504D02*
X020764Y021504D01*
X020710Y021558D02*
X020590Y021558D01*
X020600Y021612D02*
X020656Y021612D01*
X020891Y021536D02*
X020951Y021596D01*
X020891Y021536D02*
X020707Y021720D01*
X020767Y021780D01*
X020951Y021596D01*
X020945Y021590D02*
X020837Y021590D01*
X020783Y021644D02*
X020903Y021644D01*
X020849Y021698D02*
X020729Y021698D01*
X020739Y021752D02*
X020795Y021752D01*
X021030Y021675D02*
X021090Y021735D01*
X021030Y021675D02*
X020846Y021859D01*
X020906Y021919D01*
X021090Y021735D01*
X021084Y021729D02*
X020976Y021729D01*
X020922Y021783D02*
X021042Y021783D01*
X020988Y021837D02*
X020868Y021837D01*
X020878Y021891D02*
X020934Y021891D01*
X021169Y021814D02*
X021229Y021874D01*
X021169Y021814D02*
X020985Y021998D01*
X021045Y022058D01*
X021229Y021874D01*
X021223Y021868D02*
X021115Y021868D01*
X021061Y021922D02*
X021181Y021922D01*
X021127Y021976D02*
X021007Y021976D01*
X021017Y022030D02*
X021073Y022030D01*
X021309Y021953D02*
X021369Y022013D01*
X021309Y021953D02*
X021125Y022137D01*
X021185Y022197D01*
X021369Y022013D01*
X021363Y022007D02*
X021255Y022007D01*
X021201Y022061D02*
X021321Y022061D01*
X021267Y022115D02*
X021147Y022115D01*
X021157Y022169D02*
X021213Y022169D01*
X021448Y022092D02*
X021508Y022152D01*
X021448Y022092D02*
X021264Y022276D01*
X021324Y022336D01*
X021508Y022152D01*
X021502Y022146D02*
X021394Y022146D01*
X021340Y022200D02*
X021460Y022200D01*
X021406Y022254D02*
X021286Y022254D01*
X021296Y022308D02*
X021352Y022308D01*
X021587Y022232D02*
X021647Y022292D01*
X021587Y022232D02*
X021403Y022416D01*
X021463Y022476D01*
X021647Y022292D01*
X021641Y022286D02*
X021533Y022286D01*
X021479Y022340D02*
X021599Y022340D01*
X021545Y022394D02*
X021425Y022394D01*
X021435Y022448D02*
X021491Y022448D01*
X021726Y022371D02*
X021786Y022431D01*
X021726Y022371D02*
X021542Y022555D01*
X021602Y022615D01*
X021786Y022431D01*
X021780Y022425D02*
X021672Y022425D01*
X021618Y022479D02*
X021738Y022479D01*
X021684Y022533D02*
X021564Y022533D01*
X021574Y022587D02*
X021630Y022587D01*
X021865Y022510D02*
X021925Y022570D01*
X021865Y022510D02*
X021681Y022694D01*
X021741Y022754D01*
X021925Y022570D01*
X021919Y022564D02*
X021811Y022564D01*
X021757Y022618D02*
X021877Y022618D01*
X021823Y022672D02*
X021703Y022672D01*
X021713Y022726D02*
X021769Y022726D01*
X022005Y022649D02*
X022065Y022709D01*
X022005Y022649D02*
X021821Y022833D01*
X021881Y022893D01*
X022065Y022709D01*
X022059Y022703D02*
X021951Y022703D01*
X021897Y022757D02*
X022017Y022757D01*
X021963Y022811D02*
X021843Y022811D01*
X021853Y022865D02*
X021909Y022865D01*
X021881Y023067D02*
X021821Y023127D01*
X022005Y023311D01*
X022065Y023251D01*
X021881Y023067D01*
X021935Y023121D02*
X021827Y023121D01*
X021869Y023175D02*
X021989Y023175D01*
X022043Y023229D02*
X021923Y023229D01*
X021977Y023283D02*
X022033Y023283D01*
X021741Y023206D02*
X021681Y023266D01*
X021865Y023450D01*
X021925Y023390D01*
X021741Y023206D01*
X021795Y023260D02*
X021687Y023260D01*
X021729Y023314D02*
X021849Y023314D01*
X021903Y023368D02*
X021783Y023368D01*
X021837Y023422D02*
X021893Y023422D01*
X021602Y023345D02*
X021542Y023405D01*
X021726Y023589D01*
X021786Y023529D01*
X021602Y023345D01*
X021656Y023399D02*
X021548Y023399D01*
X021590Y023453D02*
X021710Y023453D01*
X021764Y023507D02*
X021644Y023507D01*
X021698Y023561D02*
X021754Y023561D01*
X021463Y023484D02*
X021403Y023544D01*
X021587Y023728D01*
X021647Y023668D01*
X021463Y023484D01*
X021517Y023538D02*
X021409Y023538D01*
X021451Y023592D02*
X021571Y023592D01*
X021625Y023646D02*
X021505Y023646D01*
X021559Y023700D02*
X021615Y023700D01*
X021324Y023623D02*
X021264Y023683D01*
X021448Y023867D01*
X021508Y023807D01*
X021324Y023623D01*
X021378Y023677D02*
X021270Y023677D01*
X021312Y023731D02*
X021432Y023731D01*
X021486Y023785D02*
X021366Y023785D01*
X021420Y023839D02*
X021476Y023839D01*
X021185Y023763D02*
X021125Y023823D01*
X021309Y024007D01*
X021369Y023947D01*
X021185Y023763D01*
X021239Y023817D02*
X021131Y023817D01*
X021173Y023871D02*
X021293Y023871D01*
X021347Y023925D02*
X021227Y023925D01*
X021281Y023979D02*
X021337Y023979D01*
X021045Y023902D02*
X020985Y023962D01*
X021169Y024146D01*
X021229Y024086D01*
X021045Y023902D01*
X021099Y023956D02*
X020991Y023956D01*
X021033Y024010D02*
X021153Y024010D01*
X021207Y024064D02*
X021087Y024064D01*
X021141Y024118D02*
X021197Y024118D01*
X020906Y024041D02*
X020846Y024101D01*
X021030Y024285D01*
X021090Y024225D01*
X020906Y024041D01*
X020960Y024095D02*
X020852Y024095D01*
X020894Y024149D02*
X021014Y024149D01*
X021068Y024203D02*
X020948Y024203D01*
X021002Y024257D02*
X021058Y024257D01*
X020767Y024180D02*
X020707Y024240D01*
X020891Y024424D01*
X020951Y024364D01*
X020767Y024180D01*
X020821Y024234D02*
X020713Y024234D01*
X020755Y024288D02*
X020875Y024288D01*
X020929Y024342D02*
X020809Y024342D01*
X020863Y024396D02*
X020919Y024396D01*
X020628Y024319D02*
X020568Y024379D01*
X020752Y024563D01*
X020812Y024503D01*
X020628Y024319D01*
X020682Y024373D02*
X020574Y024373D01*
X020616Y024427D02*
X020736Y024427D01*
X020790Y024481D02*
X020670Y024481D01*
X020724Y024535D02*
X020780Y024535D01*
X020489Y024459D02*
X020429Y024519D01*
X020613Y024703D01*
X020673Y024643D01*
X020489Y024459D01*
X020543Y024513D02*
X020435Y024513D01*
X020477Y024567D02*
X020597Y024567D01*
X020651Y024621D02*
X020531Y024621D01*
X020585Y024675D02*
X020641Y024675D01*
X020349Y024598D02*
X020289Y024658D01*
X020473Y024842D01*
X020533Y024782D01*
X020349Y024598D01*
X020403Y024652D02*
X020295Y024652D01*
X020337Y024706D02*
X020457Y024706D01*
X020511Y024760D02*
X020391Y024760D01*
X020445Y024814D02*
X020501Y024814D01*
X020210Y024737D02*
X020150Y024797D01*
X020334Y024981D01*
X020394Y024921D01*
X020210Y024737D01*
X020264Y024791D02*
X020156Y024791D01*
X020198Y024845D02*
X020318Y024845D01*
X020372Y024899D02*
X020252Y024899D01*
X020306Y024953D02*
X020362Y024953D01*
X020071Y024876D02*
X020011Y024936D01*
X020195Y025120D01*
X020255Y025060D01*
X020071Y024876D01*
X020125Y024930D02*
X020017Y024930D01*
X020059Y024984D02*
X020179Y024984D01*
X020233Y025038D02*
X020113Y025038D01*
X020167Y025092D02*
X020223Y025092D01*
X019932Y025015D02*
X019872Y025075D01*
X020056Y025259D01*
X020116Y025199D01*
X019932Y025015D01*
X019986Y025069D02*
X019878Y025069D01*
X019920Y025123D02*
X020040Y025123D01*
X020094Y025177D02*
X019974Y025177D01*
X020028Y025231D02*
X020084Y025231D01*
X019793Y025155D02*
X019733Y025215D01*
X019917Y025399D01*
X019977Y025339D01*
X019793Y025155D01*
X019847Y025209D02*
X019739Y025209D01*
X019781Y025263D02*
X019901Y025263D01*
X019955Y025317D02*
X019835Y025317D01*
X019889Y025371D02*
X019945Y025371D01*
X019375Y025399D02*
X019315Y025339D01*
X019375Y025399D02*
X019559Y025215D01*
X019499Y025155D01*
X019315Y025339D01*
X019445Y025209D02*
X019553Y025209D01*
X019511Y025263D02*
X019391Y025263D01*
X019337Y025317D02*
X019457Y025317D01*
X019403Y025371D02*
X019347Y025371D01*
X019236Y025259D02*
X019176Y025199D01*
X019236Y025259D02*
X019420Y025075D01*
X019360Y025015D01*
X019176Y025199D01*
X019306Y025069D02*
X019414Y025069D01*
X019372Y025123D02*
X019252Y025123D01*
X019198Y025177D02*
X019318Y025177D01*
X019264Y025231D02*
X019208Y025231D01*
X019097Y025120D02*
X019037Y025060D01*
X019097Y025120D02*
X019281Y024936D01*
X019221Y024876D01*
X019037Y025060D01*
X019167Y024930D02*
X019275Y024930D01*
X019233Y024984D02*
X019113Y024984D01*
X019059Y025038D02*
X019179Y025038D01*
X019125Y025092D02*
X019069Y025092D01*
X018958Y024981D02*
X018898Y024921D01*
X018958Y024981D02*
X019142Y024797D01*
X019082Y024737D01*
X018898Y024921D01*
X019028Y024791D02*
X019136Y024791D01*
X019094Y024845D02*
X018974Y024845D01*
X018920Y024899D02*
X019040Y024899D01*
X018986Y024953D02*
X018930Y024953D01*
X018818Y024842D02*
X018758Y024782D01*
X018818Y024842D02*
X019002Y024658D01*
X018942Y024598D01*
X018758Y024782D01*
X018888Y024652D02*
X018996Y024652D01*
X018954Y024706D02*
X018834Y024706D01*
X018780Y024760D02*
X018900Y024760D01*
X018846Y024814D02*
X018790Y024814D01*
X018679Y024703D02*
X018619Y024643D01*
X018679Y024703D02*
X018863Y024519D01*
X018803Y024459D01*
X018619Y024643D01*
X018749Y024513D02*
X018857Y024513D01*
X018815Y024567D02*
X018695Y024567D01*
X018641Y024621D02*
X018761Y024621D01*
X018707Y024675D02*
X018651Y024675D01*
X018540Y024563D02*
X018480Y024503D01*
X018540Y024563D02*
X018724Y024379D01*
X018664Y024319D01*
X018480Y024503D01*
X018610Y024373D02*
X018718Y024373D01*
X018676Y024427D02*
X018556Y024427D01*
X018502Y024481D02*
X018622Y024481D01*
X018568Y024535D02*
X018512Y024535D01*
X018401Y024424D02*
X018341Y024364D01*
X018401Y024424D02*
X018585Y024240D01*
X018525Y024180D01*
X018341Y024364D01*
X018471Y024234D02*
X018579Y024234D01*
X018537Y024288D02*
X018417Y024288D01*
X018363Y024342D02*
X018483Y024342D01*
X018429Y024396D02*
X018373Y024396D01*
X018262Y024285D02*
X018202Y024225D01*
X018262Y024285D02*
X018446Y024101D01*
X018386Y024041D01*
X018202Y024225D01*
X018332Y024095D02*
X018440Y024095D01*
X018398Y024149D02*
X018278Y024149D01*
X018224Y024203D02*
X018344Y024203D01*
X018290Y024257D02*
X018234Y024257D01*
X018122Y024146D02*
X018062Y024086D01*
X018122Y024146D02*
X018306Y023962D01*
X018246Y023902D01*
X018062Y024086D01*
X018192Y023956D02*
X018300Y023956D01*
X018258Y024010D02*
X018138Y024010D01*
X018084Y024064D02*
X018204Y024064D01*
X018150Y024118D02*
X018094Y024118D01*
X017983Y024007D02*
X017923Y023947D01*
X017983Y024007D02*
X018167Y023823D01*
X018107Y023763D01*
X017923Y023947D01*
X018053Y023817D02*
X018161Y023817D01*
X018119Y023871D02*
X017999Y023871D01*
X017945Y023925D02*
X018065Y023925D01*
X018011Y023979D02*
X017955Y023979D01*
X017844Y023867D02*
X017784Y023807D01*
X017844Y023867D02*
X018028Y023683D01*
X017968Y023623D01*
X017784Y023807D01*
X017914Y023677D02*
X018022Y023677D01*
X017980Y023731D02*
X017860Y023731D01*
X017806Y023785D02*
X017926Y023785D01*
X017872Y023839D02*
X017816Y023839D01*
X017705Y023728D02*
X017645Y023668D01*
X017705Y023728D02*
X017889Y023544D01*
X017829Y023484D01*
X017645Y023668D01*
X017775Y023538D02*
X017883Y023538D01*
X017841Y023592D02*
X017721Y023592D01*
X017667Y023646D02*
X017787Y023646D01*
X017733Y023700D02*
X017677Y023700D01*
X017566Y023589D02*
X017506Y023529D01*
X017566Y023589D02*
X017750Y023405D01*
X017690Y023345D01*
X017506Y023529D01*
X017636Y023399D02*
X017744Y023399D01*
X017702Y023453D02*
X017582Y023453D01*
X017528Y023507D02*
X017648Y023507D01*
X017594Y023561D02*
X017538Y023561D01*
X017610Y023266D02*
X017550Y023206D01*
X017366Y023390D01*
X017426Y023450D01*
X017610Y023266D01*
X017604Y023260D02*
X017496Y023260D01*
X017442Y023314D02*
X017562Y023314D01*
X017508Y023368D02*
X017388Y023368D01*
X017398Y023422D02*
X017454Y023422D01*
X017471Y023127D02*
X017411Y023067D01*
X017227Y023251D01*
X017287Y023311D01*
X017471Y023127D01*
X017465Y023121D02*
X017357Y023121D01*
X017303Y023175D02*
X017423Y023175D01*
X017369Y023229D02*
X017249Y023229D01*
X017259Y023283D02*
X017315Y023283D01*
X017411Y022893D02*
X017471Y022833D01*
X017287Y022649D01*
X017227Y022709D01*
X017411Y022893D01*
X017341Y022703D02*
X017233Y022703D01*
X017275Y022757D02*
X017395Y022757D01*
X017449Y022811D02*
X017329Y022811D01*
X017383Y022865D02*
X017439Y022865D01*
X017550Y022754D02*
X017610Y022694D01*
X017426Y022510D01*
X017366Y022570D01*
X017550Y022754D01*
X017480Y022564D02*
X017372Y022564D01*
X017414Y022618D02*
X017534Y022618D01*
X017588Y022672D02*
X017468Y022672D01*
X017522Y022726D02*
X017578Y022726D01*
X017690Y022615D02*
X017750Y022555D01*
X017566Y022371D01*
X017506Y022431D01*
X017690Y022615D01*
X017620Y022425D02*
X017512Y022425D01*
X017554Y022479D02*
X017674Y022479D01*
X017728Y022533D02*
X017608Y022533D01*
X017662Y022587D02*
X017718Y022587D01*
X017829Y022476D02*
X017889Y022416D01*
X017705Y022232D01*
X017645Y022292D01*
X017829Y022476D01*
X017759Y022286D02*
X017651Y022286D01*
X017693Y022340D02*
X017813Y022340D01*
X017867Y022394D02*
X017747Y022394D01*
X017801Y022448D02*
X017857Y022448D01*
X017968Y022336D02*
X018028Y022276D01*
X017844Y022092D01*
X017784Y022152D01*
X017968Y022336D01*
X017898Y022146D02*
X017790Y022146D01*
X017832Y022200D02*
X017952Y022200D01*
X018006Y022254D02*
X017886Y022254D01*
X017940Y022308D02*
X017996Y022308D01*
X018107Y022197D02*
X018167Y022137D01*
X017983Y021953D01*
X017923Y022013D01*
X018107Y022197D01*
X018037Y022007D02*
X017929Y022007D01*
X017971Y022061D02*
X018091Y022061D01*
X018145Y022115D02*
X018025Y022115D01*
X018079Y022169D02*
X018135Y022169D01*
X018246Y022058D02*
X018306Y021998D01*
X018122Y021814D01*
X018062Y021874D01*
X018246Y022058D01*
X018176Y021868D02*
X018068Y021868D01*
X018110Y021922D02*
X018230Y021922D01*
X018284Y021976D02*
X018164Y021976D01*
X018218Y022030D02*
X018274Y022030D01*
X018386Y021919D02*
X018446Y021859D01*
X018262Y021675D01*
X018202Y021735D01*
X018386Y021919D01*
X018316Y021729D02*
X018208Y021729D01*
X018250Y021783D02*
X018370Y021783D01*
X018424Y021837D02*
X018304Y021837D01*
X018358Y021891D02*
X018414Y021891D01*
X018525Y021780D02*
X018585Y021720D01*
X018401Y021536D01*
X018341Y021596D01*
X018525Y021780D01*
X018455Y021590D02*
X018347Y021590D01*
X018389Y021644D02*
X018509Y021644D01*
X018563Y021698D02*
X018443Y021698D01*
X018497Y021752D02*
X018553Y021752D01*
X018664Y021640D02*
X018724Y021580D01*
X018540Y021396D01*
X018480Y021456D01*
X018664Y021640D01*
X018594Y021450D02*
X018486Y021450D01*
X018528Y021504D02*
X018648Y021504D01*
X018702Y021558D02*
X018582Y021558D01*
X018636Y021612D02*
X018692Y021612D01*
X018803Y021501D02*
X018863Y021441D01*
X018679Y021257D01*
X018619Y021317D01*
X018803Y021501D01*
X018733Y021311D02*
X018625Y021311D01*
X018667Y021365D02*
X018787Y021365D01*
X018841Y021419D02*
X018721Y021419D01*
X018775Y021473D02*
X018831Y021473D01*
X018942Y021362D02*
X019002Y021302D01*
X018818Y021118D01*
X018758Y021178D01*
X018942Y021362D01*
X018872Y021172D02*
X018764Y021172D01*
X018806Y021226D02*
X018926Y021226D01*
X018980Y021280D02*
X018860Y021280D01*
X018914Y021334D02*
X018970Y021334D01*
X018898Y021039D02*
X018958Y020979D01*
X018898Y021039D02*
X019082Y021223D01*
X019142Y021163D01*
X018958Y020979D01*
X019012Y021033D02*
X018904Y021033D01*
X018946Y021087D02*
X019066Y021087D01*
X019120Y021141D02*
X019000Y021141D01*
X019054Y021195D02*
X019110Y021195D01*
X019037Y020900D02*
X019097Y020840D01*
X019037Y020900D02*
X019221Y021084D01*
X019281Y021024D01*
X019097Y020840D01*
X019151Y020894D02*
X019043Y020894D01*
X019085Y020948D02*
X019205Y020948D01*
X019259Y021002D02*
X019139Y021002D01*
X019193Y021056D02*
X019249Y021056D01*
X019176Y020760D02*
X019236Y020700D01*
X019176Y020760D02*
X019360Y020944D01*
X019420Y020884D01*
X019236Y020700D01*
X019290Y020754D02*
X019182Y020754D01*
X019224Y020808D02*
X019344Y020808D01*
X019398Y020862D02*
X019278Y020862D01*
X019332Y020916D02*
X019388Y020916D01*
X019315Y020621D02*
X019375Y020561D01*
X019315Y020621D02*
X019499Y020805D01*
X019559Y020745D01*
X019375Y020561D01*
X019429Y020615D02*
X019321Y020615D01*
X019363Y020669D02*
X019483Y020669D01*
X019537Y020723D02*
X019417Y020723D01*
X019471Y020777D02*
X019527Y020777D01*
D70*
X019646Y021777D02*
X018443Y022980D01*
X019646Y024183D01*
X020849Y022980D01*
X019646Y021777D01*
X019834Y021965D02*
X019458Y021965D01*
X019270Y022153D02*
X020022Y022153D01*
X020210Y022341D02*
X019082Y022341D01*
X018894Y022529D02*
X020398Y022529D01*
X020586Y022717D02*
X018706Y022717D01*
X018518Y022905D02*
X020774Y022905D01*
X020736Y023093D02*
X018556Y023093D01*
X018744Y023281D02*
X020548Y023281D01*
X020360Y023469D02*
X018932Y023469D01*
X019120Y023657D02*
X020172Y023657D01*
X019984Y023845D02*
X019308Y023845D01*
X019496Y024033D02*
X019796Y024033D01*
D71*
X018549Y066571D02*
X018549Y067341D01*
X018549Y066571D02*
X018379Y066571D01*
X018379Y067341D01*
X018549Y067341D01*
X018549Y066740D02*
X018379Y066740D01*
X018379Y066909D02*
X018549Y066909D01*
X018549Y067078D02*
X018379Y067078D01*
X018379Y067247D02*
X018549Y067247D01*
X017449Y067341D02*
X017449Y066571D01*
X017279Y066571D01*
X017279Y067341D01*
X017449Y067341D01*
X017449Y066740D02*
X017279Y066740D01*
X017279Y066909D02*
X017449Y066909D01*
X017449Y067078D02*
X017279Y067078D01*
X017279Y067247D02*
X017449Y067247D01*
D72*
X017804Y067446D02*
X017804Y067666D01*
X018024Y067666D01*
X018024Y067446D01*
X017804Y067446D01*
X017804Y067665D02*
X018024Y067665D01*
X017804Y066466D02*
X017804Y066246D01*
X017804Y066466D02*
X018024Y066466D01*
X018024Y066246D01*
X017804Y066246D01*
X017804Y066465D02*
X018024Y066465D01*
M02*
