G75*
%MOIN*%
%OFA0B0*%
%FSLAX24Y24*%
%IPPOS*%
%LPD*%
%AMOC8*
5,1,8,0,0,1.08239X$1,22.5*
%
%ADD10C,0.0000*%
%ADD11C,0.1812*%
%ADD12R,0.0290X0.0540*%
%ADD13C,0.0098*%
%ADD14R,0.0476X0.0476*%
%ADD15C,0.0476*%
%ADD16C,0.1045*%
%ADD17C,0.0780*%
%ADD18OC8,0.0780*%
%ADD19C,0.0640*%
%ADD20C,0.1221*%
%ADD21R,0.0560X0.0560*%
%ADD22C,0.0560*%
%ADD23R,0.0512X0.0591*%
%ADD24R,0.0552X0.0434*%
%ADD25R,0.0493X0.0296*%
%ADD26R,0.0709X0.0670*%
%ADD27R,0.0355X0.0253*%
%ADD28C,0.0440*%
%ADD29R,0.0197X0.0316*%
%ADD30R,0.1575X0.1379*%
%ADD31C,0.0634*%
%ADD32R,0.0540X0.0290*%
%ADD33C,0.0740*%
%ADD34R,0.0560X0.0560*%
D10*
X012441Y018570D02*
X013229Y018570D01*
X013295Y018568D01*
X013361Y018563D01*
X013427Y018553D01*
X013492Y018540D01*
X013556Y018524D01*
X013619Y018504D01*
X013681Y018480D01*
X013741Y018453D01*
X013800Y018423D01*
X013857Y018389D01*
X013912Y018352D01*
X013965Y018312D01*
X014016Y018270D01*
X014064Y018224D01*
X014110Y018176D01*
X014152Y018125D01*
X014192Y018072D01*
X014229Y018017D01*
X014263Y017960D01*
X014293Y017901D01*
X014320Y017841D01*
X014344Y017779D01*
X014364Y017716D01*
X014380Y017652D01*
X014393Y017587D01*
X014403Y017521D01*
X014408Y017455D01*
X014410Y017389D01*
X014410Y007153D01*
X014409Y007153D02*
X014411Y007067D01*
X014416Y006981D01*
X014426Y006896D01*
X014439Y006811D01*
X014456Y006727D01*
X014476Y006643D01*
X014500Y006561D01*
X014528Y006480D01*
X014559Y006399D01*
X014593Y006321D01*
X014631Y006244D01*
X014673Y006169D01*
X014717Y006095D01*
X014765Y006024D01*
X014816Y005954D01*
X014870Y005887D01*
X014926Y005823D01*
X014986Y005761D01*
X015048Y005701D01*
X015112Y005645D01*
X015179Y005591D01*
X015249Y005540D01*
X015320Y005492D01*
X015393Y005448D01*
X015469Y005406D01*
X015546Y005368D01*
X015624Y005334D01*
X015705Y005303D01*
X015786Y005275D01*
X015868Y005251D01*
X015952Y005231D01*
X016036Y005214D01*
X016121Y005201D01*
X016206Y005191D01*
X016292Y005186D01*
X016378Y005184D01*
X016378Y005185D02*
X032126Y005185D01*
X032126Y005184D02*
X032212Y005186D01*
X032298Y005191D01*
X032383Y005201D01*
X032468Y005214D01*
X032552Y005231D01*
X032636Y005251D01*
X032718Y005275D01*
X032799Y005303D01*
X032880Y005334D01*
X032958Y005368D01*
X033035Y005406D01*
X033111Y005448D01*
X033184Y005492D01*
X033255Y005540D01*
X033325Y005591D01*
X033392Y005645D01*
X033456Y005701D01*
X033518Y005761D01*
X033578Y005823D01*
X033634Y005887D01*
X033688Y005954D01*
X033739Y006024D01*
X033787Y006095D01*
X033831Y006168D01*
X033873Y006244D01*
X033911Y006321D01*
X033945Y006399D01*
X033976Y006480D01*
X034004Y006561D01*
X034028Y006643D01*
X034048Y006727D01*
X034065Y006811D01*
X034078Y006896D01*
X034088Y006981D01*
X034093Y007067D01*
X034095Y007153D01*
X034095Y017389D01*
X034097Y017455D01*
X034102Y017521D01*
X034112Y017587D01*
X034125Y017652D01*
X034141Y017716D01*
X034161Y017779D01*
X034185Y017841D01*
X034212Y017901D01*
X034242Y017960D01*
X034276Y018017D01*
X034313Y018072D01*
X034353Y018125D01*
X034395Y018176D01*
X034441Y018224D01*
X034489Y018270D01*
X034540Y018312D01*
X034593Y018352D01*
X034648Y018389D01*
X034705Y018423D01*
X034764Y018453D01*
X034824Y018480D01*
X034886Y018504D01*
X034949Y018524D01*
X035013Y018540D01*
X035078Y018553D01*
X035144Y018563D01*
X035210Y018568D01*
X035276Y018570D01*
X036063Y018570D01*
X036063Y018571D02*
X036117Y018573D01*
X036170Y018578D01*
X036223Y018587D01*
X036275Y018600D01*
X036327Y018616D01*
X036377Y018636D01*
X036425Y018659D01*
X036472Y018686D01*
X036517Y018715D01*
X036560Y018748D01*
X036600Y018783D01*
X036638Y018821D01*
X036673Y018861D01*
X036706Y018904D01*
X036735Y018949D01*
X036762Y018996D01*
X036785Y019044D01*
X036805Y019094D01*
X036821Y019146D01*
X036834Y019198D01*
X036843Y019251D01*
X036848Y019304D01*
X036850Y019358D01*
X036851Y019358D02*
X036851Y061090D01*
X036850Y061090D02*
X036848Y061144D01*
X036843Y061197D01*
X036834Y061250D01*
X036821Y061302D01*
X036805Y061354D01*
X036785Y061404D01*
X036762Y061452D01*
X036735Y061499D01*
X036706Y061544D01*
X036673Y061587D01*
X036638Y061627D01*
X036600Y061665D01*
X036560Y061700D01*
X036517Y061733D01*
X036472Y061762D01*
X036425Y061789D01*
X036377Y061812D01*
X036327Y061832D01*
X036275Y061848D01*
X036223Y061861D01*
X036170Y061870D01*
X036117Y061875D01*
X036063Y061877D01*
X036063Y061878D02*
X035276Y061878D01*
X035210Y061880D01*
X035144Y061885D01*
X035078Y061895D01*
X035013Y061908D01*
X034949Y061924D01*
X034886Y061944D01*
X034824Y061968D01*
X034764Y061995D01*
X034705Y062025D01*
X034648Y062059D01*
X034593Y062096D01*
X034540Y062136D01*
X034489Y062178D01*
X034441Y062224D01*
X034395Y062272D01*
X034353Y062323D01*
X034313Y062376D01*
X034276Y062431D01*
X034242Y062488D01*
X034212Y062547D01*
X034185Y062607D01*
X034161Y062669D01*
X034141Y062732D01*
X034125Y062796D01*
X034112Y062861D01*
X034102Y062927D01*
X034097Y062993D01*
X034095Y063059D01*
X034095Y073295D01*
X034093Y073381D01*
X034088Y073467D01*
X034078Y073552D01*
X034065Y073637D01*
X034048Y073721D01*
X034028Y073805D01*
X034004Y073887D01*
X033976Y073968D01*
X033945Y074049D01*
X033911Y074127D01*
X033873Y074204D01*
X033831Y074280D01*
X033787Y074353D01*
X033739Y074424D01*
X033688Y074494D01*
X033634Y074561D01*
X033578Y074625D01*
X033518Y074687D01*
X033456Y074747D01*
X033392Y074803D01*
X033325Y074857D01*
X033255Y074908D01*
X033184Y074956D01*
X033111Y075000D01*
X033035Y075042D01*
X032958Y075080D01*
X032880Y075114D01*
X032799Y075145D01*
X032718Y075173D01*
X032636Y075197D01*
X032552Y075217D01*
X032468Y075234D01*
X032383Y075247D01*
X032298Y075257D01*
X032212Y075262D01*
X032126Y075264D01*
X032126Y075263D02*
X016378Y075263D01*
X016378Y075264D02*
X016292Y075262D01*
X016206Y075257D01*
X016121Y075247D01*
X016036Y075234D01*
X015952Y075217D01*
X015868Y075197D01*
X015786Y075173D01*
X015705Y075145D01*
X015624Y075114D01*
X015546Y075080D01*
X015469Y075042D01*
X015394Y075000D01*
X015320Y074956D01*
X015249Y074908D01*
X015179Y074857D01*
X015112Y074803D01*
X015048Y074747D01*
X014986Y074687D01*
X014926Y074625D01*
X014870Y074561D01*
X014816Y074494D01*
X014765Y074424D01*
X014717Y074353D01*
X014673Y074280D01*
X014631Y074204D01*
X014593Y074127D01*
X014559Y074049D01*
X014528Y073968D01*
X014500Y073887D01*
X014476Y073805D01*
X014456Y073721D01*
X014439Y073637D01*
X014426Y073552D01*
X014416Y073467D01*
X014411Y073381D01*
X014409Y073295D01*
X014410Y073295D02*
X014410Y063059D01*
X014408Y062993D01*
X014403Y062927D01*
X014393Y062861D01*
X014380Y062796D01*
X014364Y062732D01*
X014344Y062669D01*
X014320Y062607D01*
X014293Y062547D01*
X014263Y062488D01*
X014229Y062431D01*
X014192Y062376D01*
X014152Y062323D01*
X014110Y062272D01*
X014064Y062224D01*
X014016Y062178D01*
X013965Y062136D01*
X013912Y062096D01*
X013857Y062059D01*
X013800Y062025D01*
X013741Y061995D01*
X013681Y061968D01*
X013619Y061944D01*
X013556Y061924D01*
X013492Y061908D01*
X013427Y061895D01*
X013361Y061885D01*
X013295Y061880D01*
X013229Y061878D01*
X012441Y061878D01*
X012441Y061877D02*
X012387Y061875D01*
X012334Y061870D01*
X012281Y061861D01*
X012229Y061848D01*
X012177Y061832D01*
X012127Y061812D01*
X012079Y061789D01*
X012032Y061762D01*
X011987Y061733D01*
X011944Y061700D01*
X011904Y061665D01*
X011866Y061627D01*
X011831Y061587D01*
X011798Y061544D01*
X011769Y061499D01*
X011742Y061452D01*
X011719Y061404D01*
X011699Y061354D01*
X011683Y061302D01*
X011670Y061250D01*
X011661Y061197D01*
X011656Y061144D01*
X011654Y061090D01*
X011654Y019358D01*
X011656Y019304D01*
X011661Y019251D01*
X011670Y019198D01*
X011683Y019146D01*
X011699Y019094D01*
X011719Y019044D01*
X011742Y018996D01*
X011769Y018949D01*
X011798Y018904D01*
X011831Y018861D01*
X011866Y018821D01*
X011904Y018783D01*
X011944Y018748D01*
X011987Y018715D01*
X012032Y018686D01*
X012079Y018659D01*
X012127Y018636D01*
X012177Y018616D01*
X012229Y018600D01*
X012281Y018587D01*
X012334Y018578D01*
X012387Y018573D01*
X012441Y018571D01*
X031535Y033925D02*
X031537Y033973D01*
X031543Y034021D01*
X031553Y034068D01*
X031566Y034114D01*
X031584Y034159D01*
X031604Y034203D01*
X031629Y034245D01*
X031657Y034284D01*
X031687Y034321D01*
X031721Y034355D01*
X031758Y034387D01*
X031796Y034416D01*
X031837Y034441D01*
X031880Y034463D01*
X031925Y034481D01*
X031971Y034495D01*
X032018Y034506D01*
X032066Y034513D01*
X032114Y034516D01*
X032162Y034515D01*
X032210Y034510D01*
X032258Y034501D01*
X032304Y034489D01*
X032349Y034472D01*
X032393Y034452D01*
X032435Y034429D01*
X032475Y034402D01*
X032513Y034372D01*
X032548Y034339D01*
X032580Y034303D01*
X032610Y034265D01*
X032636Y034224D01*
X032658Y034181D01*
X032678Y034137D01*
X032693Y034092D01*
X032705Y034045D01*
X032713Y033997D01*
X032717Y033949D01*
X032717Y033901D01*
X032713Y033853D01*
X032705Y033805D01*
X032693Y033758D01*
X032678Y033713D01*
X032658Y033669D01*
X032636Y033626D01*
X032610Y033585D01*
X032580Y033547D01*
X032548Y033511D01*
X032513Y033478D01*
X032475Y033448D01*
X032435Y033421D01*
X032393Y033398D01*
X032349Y033378D01*
X032304Y033361D01*
X032258Y033349D01*
X032210Y033340D01*
X032162Y033335D01*
X032114Y033334D01*
X032066Y033337D01*
X032018Y033344D01*
X031971Y033355D01*
X031925Y033369D01*
X031880Y033387D01*
X031837Y033409D01*
X031796Y033434D01*
X031758Y033463D01*
X031721Y033495D01*
X031687Y033529D01*
X031657Y033566D01*
X031629Y033605D01*
X031604Y033647D01*
X031584Y033691D01*
X031566Y033736D01*
X031553Y033782D01*
X031543Y033829D01*
X031537Y033877D01*
X031535Y033925D01*
X022382Y054496D02*
X022384Y054555D01*
X022390Y054614D01*
X022400Y054672D01*
X022413Y054730D01*
X022431Y054787D01*
X022452Y054842D01*
X022477Y054896D01*
X022506Y054948D01*
X022538Y054997D01*
X022573Y055045D01*
X022611Y055090D01*
X022652Y055133D01*
X022696Y055173D01*
X022742Y055209D01*
X022791Y055243D01*
X022842Y055273D01*
X022895Y055300D01*
X022950Y055323D01*
X023005Y055342D01*
X023063Y055358D01*
X023121Y055370D01*
X023179Y055378D01*
X023238Y055382D01*
X023298Y055382D01*
X023357Y055378D01*
X023415Y055370D01*
X023473Y055358D01*
X023531Y055342D01*
X023586Y055323D01*
X023641Y055300D01*
X023694Y055273D01*
X023745Y055243D01*
X023794Y055209D01*
X023840Y055173D01*
X023884Y055133D01*
X023925Y055090D01*
X023963Y055045D01*
X023998Y054997D01*
X024030Y054948D01*
X024059Y054896D01*
X024084Y054842D01*
X024105Y054787D01*
X024123Y054730D01*
X024136Y054672D01*
X024146Y054614D01*
X024152Y054555D01*
X024154Y054496D01*
X024152Y054437D01*
X024146Y054378D01*
X024136Y054320D01*
X024123Y054262D01*
X024105Y054205D01*
X024084Y054150D01*
X024059Y054096D01*
X024030Y054044D01*
X023998Y053995D01*
X023963Y053947D01*
X023925Y053902D01*
X023884Y053859D01*
X023840Y053819D01*
X023794Y053783D01*
X023745Y053749D01*
X023694Y053719D01*
X023641Y053692D01*
X023586Y053669D01*
X023531Y053650D01*
X023473Y053634D01*
X023415Y053622D01*
X023357Y053614D01*
X023298Y053610D01*
X023238Y053610D01*
X023179Y053614D01*
X023121Y053622D01*
X023063Y053634D01*
X023005Y053650D01*
X022950Y053669D01*
X022895Y053692D01*
X022842Y053719D01*
X022791Y053749D01*
X022742Y053783D01*
X022696Y053819D01*
X022652Y053859D01*
X022611Y053902D01*
X022573Y053947D01*
X022538Y053995D01*
X022506Y054044D01*
X022477Y054096D01*
X022452Y054150D01*
X022431Y054205D01*
X022413Y054262D01*
X022400Y054320D01*
X022390Y054378D01*
X022384Y054437D01*
X022382Y054496D01*
D11*
X023268Y054496D03*
D12*
X026099Y019948D03*
X026499Y019948D03*
X024433Y019200D03*
X024033Y019200D03*
D13*
X023808Y066510D02*
X023808Y066802D01*
X023808Y066510D02*
X023516Y066510D01*
X023516Y066802D01*
X023808Y066802D01*
X023808Y066607D02*
X023516Y066607D01*
X023516Y066704D02*
X023808Y066704D01*
X023808Y066801D02*
X023516Y066801D01*
X023808Y067110D02*
X023808Y067402D01*
X023808Y067110D02*
X023516Y067110D01*
X023516Y067402D01*
X023808Y067402D01*
X023808Y067207D02*
X023516Y067207D01*
X023516Y067304D02*
X023808Y067304D01*
X023808Y067401D02*
X023516Y067401D01*
X026957Y067402D02*
X026957Y067110D01*
X026665Y067110D01*
X026665Y067402D01*
X026957Y067402D01*
X026957Y067207D02*
X026665Y067207D01*
X026665Y067304D02*
X026957Y067304D01*
X026957Y067401D02*
X026665Y067401D01*
X026957Y066802D02*
X026957Y066510D01*
X026665Y066510D01*
X026665Y066802D01*
X026957Y066802D01*
X026957Y066607D02*
X026665Y066607D01*
X026665Y066704D02*
X026957Y066704D01*
X026957Y066801D02*
X026665Y066801D01*
X019383Y068149D02*
X019091Y068149D01*
X019091Y068441D01*
X019383Y068441D01*
X019383Y068149D01*
X019383Y068246D02*
X019091Y068246D01*
X019091Y068343D02*
X019383Y068343D01*
X019383Y068440D02*
X019091Y068440D01*
X018783Y068149D02*
X018491Y068149D01*
X018491Y068441D01*
X018783Y068441D01*
X018783Y068149D01*
X018783Y068246D02*
X018491Y068246D01*
X018491Y068343D02*
X018783Y068343D01*
X018783Y068440D02*
X018491Y068440D01*
D14*
X019660Y030169D03*
X019081Y008507D03*
X029203Y006956D03*
D15*
X031112Y006956D03*
X019581Y007007D03*
X019581Y006507D03*
X019081Y006507D03*
X019081Y007007D03*
X019081Y007507D03*
X019581Y007507D03*
X019581Y008007D03*
X019081Y008007D03*
X019581Y008507D03*
X019160Y030169D03*
X019160Y030669D03*
X019660Y030669D03*
X019660Y031169D03*
X019660Y031669D03*
X019660Y032169D03*
X019160Y032169D03*
X019160Y031669D03*
X019160Y031169D03*
D16*
X022948Y012476D02*
X022948Y011471D01*
X023745Y009774D02*
X024750Y009774D01*
X025548Y011471D02*
X025548Y012476D01*
D17*
X018607Y040815D03*
X017607Y040815D03*
X016607Y040815D03*
X015607Y040815D03*
X014607Y040815D03*
D18*
X015107Y030413D03*
X015107Y029413D03*
X015107Y028413D03*
X015107Y027413D03*
X015107Y026413D03*
X014107Y026413D03*
X014107Y027413D03*
X014107Y028413D03*
X014107Y029413D03*
X014107Y030413D03*
D19*
X030256Y033925D03*
X030807Y035244D03*
X030807Y032606D03*
X033445Y032606D03*
X033996Y033925D03*
X033445Y035244D03*
D20*
X032126Y033925D03*
D21*
G36*
X017959Y026865D02*
X018354Y027260D01*
X018749Y026865D01*
X018354Y026470D01*
X017959Y026865D01*
G37*
G36*
X017975Y019078D02*
X017580Y019473D01*
X017975Y019868D01*
X018370Y019473D01*
X017975Y019078D01*
G37*
D22*
X018541Y018908D03*
X017788Y026299D03*
X014849Y035933D03*
X029764Y022311D03*
X018196Y011011D03*
D23*
X020512Y068570D03*
X021693Y068570D03*
X023662Y068570D03*
X024843Y068570D03*
X026811Y068570D03*
X027992Y068570D03*
D24*
X029764Y059043D03*
X030551Y059043D03*
X030551Y054173D03*
X029764Y054173D03*
D25*
X028910Y054990D03*
X028910Y055490D03*
X028910Y055990D03*
X028910Y056490D03*
X028910Y056990D03*
X028910Y057490D03*
D26*
X034315Y059019D03*
X034315Y054196D03*
D27*
X034087Y055637D03*
X034087Y057574D03*
D28*
X030055Y059673D03*
X029555Y059673D03*
X029055Y059673D03*
D29*
X028860Y052665D03*
X028360Y052665D03*
X027860Y052665D03*
X027360Y052665D03*
X027360Y050539D03*
X027860Y050539D03*
X028360Y050539D03*
X028860Y050539D03*
D30*
X028110Y051602D03*
D31*
X028740Y005775D03*
X031575Y005775D03*
D32*
X029922Y017347D03*
X029922Y017747D03*
X034410Y022583D03*
X034410Y022983D03*
X024488Y028804D03*
X024488Y029204D03*
D33*
X029941Y015736D03*
X032500Y015736D03*
D34*
X029764Y023098D03*
X017396Y011011D03*
X014049Y035933D03*
M02*
