G75*
%MOIN*%
%OFA0B0*%
%FSLAX24Y24*%
%IPPOS*%
%LPD*%
%AMOC8*
5,1,8,0,0,1.08239X$1,22.5*
%
%ADD10C,0.0000*%
%ADD11C,0.0088*%
%ADD12R,0.0551X0.0630*%
%ADD13C,0.0125*%
%ADD14R,0.0450X0.0700*%
%ADD15R,0.0400X0.0400*%
%ADD16R,0.0700X0.0450*%
%ADD17R,0.0870X0.0240*%
%ADD18R,0.0315X0.0315*%
%ADD19R,0.0315X0.0354*%
%ADD20R,0.0217X0.0472*%
%ADD21R,0.0472X0.0217*%
%ADD22R,0.0236X0.0394*%
%ADD23R,0.0118X0.0197*%
%ADD24R,0.1063X0.1004*%
%ADD25R,0.0472X0.0315*%
%ADD26R,0.0117X0.0335*%
%ADD27R,0.0276X0.0110*%
%ADD28R,0.0940X0.0340*%
%ADD29R,0.0433X0.0394*%
%ADD30R,0.0394X0.0433*%
%ADD31R,0.0709X0.0630*%
%ADD32R,0.0512X0.0512*%
%ADD33R,0.0591X0.0394*%
%ADD34R,0.0394X0.0591*%
%ADD35R,0.1024X0.0354*%
%ADD36R,0.0157X0.0276*%
%ADD37R,0.0295X0.0610*%
%ADD38R,0.0610X0.0295*%
%ADD39R,0.0413X0.0413*%
%ADD40R,0.0138X0.0236*%
%ADD41R,0.0472X0.0276*%
%ADD42R,0.0472X0.0394*%
%ADD43R,0.0354X0.0276*%
%ADD44R,0.0157X0.0531*%
%ADD45C,0.0002*%
%ADD46R,0.0354X0.0315*%
%ADD47R,0.0315X0.0472*%
%ADD48R,0.0394X0.0709*%
%ADD49R,0.0709X0.0394*%
%ADD50C,0.0047*%
%ADD51C,0.0004*%
%ADD52C,0.0060*%
%ADD53R,0.0433X0.0748*%
%ADD54C,0.0039*%
%ADD55C,0.0150*%
%ADD56C,0.0200*%
D10*
X012441Y018570D02*
X013229Y018570D01*
X013295Y018568D01*
X013361Y018563D01*
X013427Y018553D01*
X013492Y018540D01*
X013556Y018524D01*
X013619Y018504D01*
X013681Y018480D01*
X013741Y018453D01*
X013800Y018423D01*
X013857Y018389D01*
X013912Y018352D01*
X013965Y018312D01*
X014016Y018270D01*
X014064Y018224D01*
X014110Y018176D01*
X014152Y018125D01*
X014192Y018072D01*
X014229Y018017D01*
X014263Y017960D01*
X014293Y017901D01*
X014320Y017841D01*
X014344Y017779D01*
X014364Y017716D01*
X014380Y017652D01*
X014393Y017587D01*
X014403Y017521D01*
X014408Y017455D01*
X014410Y017389D01*
X014410Y007153D01*
X014409Y007153D02*
X014411Y007067D01*
X014416Y006981D01*
X014426Y006896D01*
X014439Y006811D01*
X014456Y006727D01*
X014476Y006643D01*
X014500Y006561D01*
X014528Y006480D01*
X014559Y006399D01*
X014593Y006321D01*
X014631Y006244D01*
X014673Y006169D01*
X014717Y006095D01*
X014765Y006024D01*
X014816Y005954D01*
X014870Y005887D01*
X014926Y005823D01*
X014986Y005761D01*
X015048Y005701D01*
X015112Y005645D01*
X015179Y005591D01*
X015249Y005540D01*
X015320Y005492D01*
X015393Y005448D01*
X015469Y005406D01*
X015546Y005368D01*
X015624Y005334D01*
X015705Y005303D01*
X015786Y005275D01*
X015868Y005251D01*
X015952Y005231D01*
X016036Y005214D01*
X016121Y005201D01*
X016206Y005191D01*
X016292Y005186D01*
X016378Y005184D01*
X016378Y005185D02*
X032126Y005185D01*
X032126Y005184D02*
X032212Y005186D01*
X032298Y005191D01*
X032383Y005201D01*
X032468Y005214D01*
X032552Y005231D01*
X032636Y005251D01*
X032718Y005275D01*
X032799Y005303D01*
X032880Y005334D01*
X032958Y005368D01*
X033035Y005406D01*
X033111Y005448D01*
X033184Y005492D01*
X033255Y005540D01*
X033325Y005591D01*
X033392Y005645D01*
X033456Y005701D01*
X033518Y005761D01*
X033578Y005823D01*
X033634Y005887D01*
X033688Y005954D01*
X033739Y006024D01*
X033787Y006095D01*
X033831Y006168D01*
X033873Y006244D01*
X033911Y006321D01*
X033945Y006399D01*
X033976Y006480D01*
X034004Y006561D01*
X034028Y006643D01*
X034048Y006727D01*
X034065Y006811D01*
X034078Y006896D01*
X034088Y006981D01*
X034093Y007067D01*
X034095Y007153D01*
X034095Y017389D01*
X034097Y017455D01*
X034102Y017521D01*
X034112Y017587D01*
X034125Y017652D01*
X034141Y017716D01*
X034161Y017779D01*
X034185Y017841D01*
X034212Y017901D01*
X034242Y017960D01*
X034276Y018017D01*
X034313Y018072D01*
X034353Y018125D01*
X034395Y018176D01*
X034441Y018224D01*
X034489Y018270D01*
X034540Y018312D01*
X034593Y018352D01*
X034648Y018389D01*
X034705Y018423D01*
X034764Y018453D01*
X034824Y018480D01*
X034886Y018504D01*
X034949Y018524D01*
X035013Y018540D01*
X035078Y018553D01*
X035144Y018563D01*
X035210Y018568D01*
X035276Y018570D01*
X036063Y018570D01*
X036063Y018571D02*
X036117Y018573D01*
X036170Y018578D01*
X036223Y018587D01*
X036275Y018600D01*
X036327Y018616D01*
X036377Y018636D01*
X036425Y018659D01*
X036472Y018686D01*
X036517Y018715D01*
X036560Y018748D01*
X036600Y018783D01*
X036638Y018821D01*
X036673Y018861D01*
X036706Y018904D01*
X036735Y018949D01*
X036762Y018996D01*
X036785Y019044D01*
X036805Y019094D01*
X036821Y019146D01*
X036834Y019198D01*
X036843Y019251D01*
X036848Y019304D01*
X036850Y019358D01*
X036851Y019358D02*
X036851Y061090D01*
X036850Y061090D02*
X036848Y061144D01*
X036843Y061197D01*
X036834Y061250D01*
X036821Y061302D01*
X036805Y061354D01*
X036785Y061404D01*
X036762Y061452D01*
X036735Y061499D01*
X036706Y061544D01*
X036673Y061587D01*
X036638Y061627D01*
X036600Y061665D01*
X036560Y061700D01*
X036517Y061733D01*
X036472Y061762D01*
X036425Y061789D01*
X036377Y061812D01*
X036327Y061832D01*
X036275Y061848D01*
X036223Y061861D01*
X036170Y061870D01*
X036117Y061875D01*
X036063Y061877D01*
X036063Y061878D02*
X035276Y061878D01*
X035210Y061880D01*
X035144Y061885D01*
X035078Y061895D01*
X035013Y061908D01*
X034949Y061924D01*
X034886Y061944D01*
X034824Y061968D01*
X034764Y061995D01*
X034705Y062025D01*
X034648Y062059D01*
X034593Y062096D01*
X034540Y062136D01*
X034489Y062178D01*
X034441Y062224D01*
X034395Y062272D01*
X034353Y062323D01*
X034313Y062376D01*
X034276Y062431D01*
X034242Y062488D01*
X034212Y062547D01*
X034185Y062607D01*
X034161Y062669D01*
X034141Y062732D01*
X034125Y062796D01*
X034112Y062861D01*
X034102Y062927D01*
X034097Y062993D01*
X034095Y063059D01*
X034095Y073295D01*
X034093Y073381D01*
X034088Y073467D01*
X034078Y073552D01*
X034065Y073637D01*
X034048Y073721D01*
X034028Y073805D01*
X034004Y073887D01*
X033976Y073968D01*
X033945Y074049D01*
X033911Y074127D01*
X033873Y074204D01*
X033831Y074280D01*
X033787Y074353D01*
X033739Y074424D01*
X033688Y074494D01*
X033634Y074561D01*
X033578Y074625D01*
X033518Y074687D01*
X033456Y074747D01*
X033392Y074803D01*
X033325Y074857D01*
X033255Y074908D01*
X033184Y074956D01*
X033111Y075000D01*
X033035Y075042D01*
X032958Y075080D01*
X032880Y075114D01*
X032799Y075145D01*
X032718Y075173D01*
X032636Y075197D01*
X032552Y075217D01*
X032468Y075234D01*
X032383Y075247D01*
X032298Y075257D01*
X032212Y075262D01*
X032126Y075264D01*
X032126Y075263D02*
X016378Y075263D01*
X016378Y075264D02*
X016292Y075262D01*
X016206Y075257D01*
X016121Y075247D01*
X016036Y075234D01*
X015952Y075217D01*
X015868Y075197D01*
X015786Y075173D01*
X015705Y075145D01*
X015624Y075114D01*
X015546Y075080D01*
X015469Y075042D01*
X015394Y075000D01*
X015320Y074956D01*
X015249Y074908D01*
X015179Y074857D01*
X015112Y074803D01*
X015048Y074747D01*
X014986Y074687D01*
X014926Y074625D01*
X014870Y074561D01*
X014816Y074494D01*
X014765Y074424D01*
X014717Y074353D01*
X014673Y074280D01*
X014631Y074204D01*
X014593Y074127D01*
X014559Y074049D01*
X014528Y073968D01*
X014500Y073887D01*
X014476Y073805D01*
X014456Y073721D01*
X014439Y073637D01*
X014426Y073552D01*
X014416Y073467D01*
X014411Y073381D01*
X014409Y073295D01*
X014410Y073295D02*
X014410Y063059D01*
X014408Y062993D01*
X014403Y062927D01*
X014393Y062861D01*
X014380Y062796D01*
X014364Y062732D01*
X014344Y062669D01*
X014320Y062607D01*
X014293Y062547D01*
X014263Y062488D01*
X014229Y062431D01*
X014192Y062376D01*
X014152Y062323D01*
X014110Y062272D01*
X014064Y062224D01*
X014016Y062178D01*
X013965Y062136D01*
X013912Y062096D01*
X013857Y062059D01*
X013800Y062025D01*
X013741Y061995D01*
X013681Y061968D01*
X013619Y061944D01*
X013556Y061924D01*
X013492Y061908D01*
X013427Y061895D01*
X013361Y061885D01*
X013295Y061880D01*
X013229Y061878D01*
X012441Y061878D01*
X012441Y061877D02*
X012387Y061875D01*
X012334Y061870D01*
X012281Y061861D01*
X012229Y061848D01*
X012177Y061832D01*
X012127Y061812D01*
X012079Y061789D01*
X012032Y061762D01*
X011987Y061733D01*
X011944Y061700D01*
X011904Y061665D01*
X011866Y061627D01*
X011831Y061587D01*
X011798Y061544D01*
X011769Y061499D01*
X011742Y061452D01*
X011719Y061404D01*
X011699Y061354D01*
X011683Y061302D01*
X011670Y061250D01*
X011661Y061197D01*
X011656Y061144D01*
X011654Y061090D01*
X011654Y019358D01*
X011656Y019304D01*
X011661Y019251D01*
X011670Y019198D01*
X011683Y019146D01*
X011699Y019094D01*
X011719Y019044D01*
X011742Y018996D01*
X011769Y018949D01*
X011798Y018904D01*
X011831Y018861D01*
X011866Y018821D01*
X011904Y018783D01*
X011944Y018748D01*
X011987Y018715D01*
X012032Y018686D01*
X012079Y018659D01*
X012127Y018636D01*
X012177Y018616D01*
X012229Y018600D01*
X012281Y018587D01*
X012334Y018578D01*
X012387Y018573D01*
X012441Y018571D01*
X031535Y033925D02*
X031537Y033973D01*
X031543Y034021D01*
X031553Y034068D01*
X031566Y034114D01*
X031584Y034159D01*
X031604Y034203D01*
X031629Y034245D01*
X031657Y034284D01*
X031687Y034321D01*
X031721Y034355D01*
X031758Y034387D01*
X031796Y034416D01*
X031837Y034441D01*
X031880Y034463D01*
X031925Y034481D01*
X031971Y034495D01*
X032018Y034506D01*
X032066Y034513D01*
X032114Y034516D01*
X032162Y034515D01*
X032210Y034510D01*
X032258Y034501D01*
X032304Y034489D01*
X032349Y034472D01*
X032393Y034452D01*
X032435Y034429D01*
X032475Y034402D01*
X032513Y034372D01*
X032548Y034339D01*
X032580Y034303D01*
X032610Y034265D01*
X032636Y034224D01*
X032658Y034181D01*
X032678Y034137D01*
X032693Y034092D01*
X032705Y034045D01*
X032713Y033997D01*
X032717Y033949D01*
X032717Y033901D01*
X032713Y033853D01*
X032705Y033805D01*
X032693Y033758D01*
X032678Y033713D01*
X032658Y033669D01*
X032636Y033626D01*
X032610Y033585D01*
X032580Y033547D01*
X032548Y033511D01*
X032513Y033478D01*
X032475Y033448D01*
X032435Y033421D01*
X032393Y033398D01*
X032349Y033378D01*
X032304Y033361D01*
X032258Y033349D01*
X032210Y033340D01*
X032162Y033335D01*
X032114Y033334D01*
X032066Y033337D01*
X032018Y033344D01*
X031971Y033355D01*
X031925Y033369D01*
X031880Y033387D01*
X031837Y033409D01*
X031796Y033434D01*
X031758Y033463D01*
X031721Y033495D01*
X031687Y033529D01*
X031657Y033566D01*
X031629Y033605D01*
X031604Y033647D01*
X031584Y033691D01*
X031566Y033736D01*
X031553Y033782D01*
X031543Y033829D01*
X031537Y033877D01*
X031535Y033925D01*
X022382Y054496D02*
X022384Y054555D01*
X022390Y054614D01*
X022400Y054672D01*
X022413Y054730D01*
X022431Y054787D01*
X022452Y054842D01*
X022477Y054896D01*
X022506Y054948D01*
X022538Y054997D01*
X022573Y055045D01*
X022611Y055090D01*
X022652Y055133D01*
X022696Y055173D01*
X022742Y055209D01*
X022791Y055243D01*
X022842Y055273D01*
X022895Y055300D01*
X022950Y055323D01*
X023005Y055342D01*
X023063Y055358D01*
X023121Y055370D01*
X023179Y055378D01*
X023238Y055382D01*
X023298Y055382D01*
X023357Y055378D01*
X023415Y055370D01*
X023473Y055358D01*
X023531Y055342D01*
X023586Y055323D01*
X023641Y055300D01*
X023694Y055273D01*
X023745Y055243D01*
X023794Y055209D01*
X023840Y055173D01*
X023884Y055133D01*
X023925Y055090D01*
X023963Y055045D01*
X023998Y054997D01*
X024030Y054948D01*
X024059Y054896D01*
X024084Y054842D01*
X024105Y054787D01*
X024123Y054730D01*
X024136Y054672D01*
X024146Y054614D01*
X024152Y054555D01*
X024154Y054496D01*
X024152Y054437D01*
X024146Y054378D01*
X024136Y054320D01*
X024123Y054262D01*
X024105Y054205D01*
X024084Y054150D01*
X024059Y054096D01*
X024030Y054044D01*
X023998Y053995D01*
X023963Y053947D01*
X023925Y053902D01*
X023884Y053859D01*
X023840Y053819D01*
X023794Y053783D01*
X023745Y053749D01*
X023694Y053719D01*
X023641Y053692D01*
X023586Y053669D01*
X023531Y053650D01*
X023473Y053634D01*
X023415Y053622D01*
X023357Y053614D01*
X023298Y053610D01*
X023238Y053610D01*
X023179Y053614D01*
X023121Y053622D01*
X023063Y053634D01*
X023005Y053650D01*
X022950Y053669D01*
X022895Y053692D01*
X022842Y053719D01*
X022791Y053749D01*
X022742Y053783D01*
X022696Y053819D01*
X022652Y053859D01*
X022611Y053902D01*
X022573Y053947D01*
X022538Y053995D01*
X022506Y054044D01*
X022477Y054096D01*
X022452Y054150D01*
X022431Y054205D01*
X022413Y054262D01*
X022400Y054320D01*
X022390Y054378D01*
X022384Y054437D01*
X022382Y054496D01*
D11*
X018778Y065158D02*
X018516Y065158D01*
X018778Y065158D02*
X018778Y064896D01*
X018516Y064896D01*
X018516Y065158D01*
X018516Y064983D02*
X018778Y064983D01*
X018778Y065070D02*
X018516Y065070D01*
X018516Y065157D02*
X018778Y065157D01*
X018778Y065487D02*
X018516Y065487D01*
X018516Y065749D01*
X018778Y065749D01*
X018778Y065487D01*
X018778Y065574D02*
X018516Y065574D01*
X018516Y065661D02*
X018778Y065661D01*
X018778Y065748D02*
X018516Y065748D01*
X018178Y065487D02*
X017916Y065487D01*
X017916Y065749D01*
X018178Y065749D01*
X018178Y065487D01*
X018178Y065574D02*
X017916Y065574D01*
X017916Y065661D02*
X018178Y065661D01*
X018178Y065748D02*
X017916Y065748D01*
X017916Y065158D02*
X018178Y065158D01*
X018178Y064896D01*
X017916Y064896D01*
X017916Y065158D01*
X017916Y064983D02*
X018178Y064983D01*
X018178Y065070D02*
X017916Y065070D01*
X017916Y065157D02*
X018178Y065157D01*
X019495Y067844D02*
X019495Y068106D01*
X019757Y068106D01*
X019757Y067844D01*
X019495Y067844D01*
X019495Y067931D02*
X019757Y067931D01*
X019757Y068018D02*
X019495Y068018D01*
X019495Y068105D02*
X019757Y068105D01*
X019495Y068444D02*
X019495Y068706D01*
X019757Y068706D01*
X019757Y068444D01*
X019495Y068444D01*
X019495Y068531D02*
X019757Y068531D01*
X019757Y068618D02*
X019495Y068618D01*
X019495Y068705D02*
X019757Y068705D01*
X020081Y068439D02*
X020343Y068439D01*
X020081Y068439D02*
X020081Y068701D01*
X020343Y068701D01*
X020343Y068439D01*
X020343Y068526D02*
X020081Y068526D01*
X020081Y068613D02*
X020343Y068613D01*
X020343Y068700D02*
X020081Y068700D01*
X020681Y068439D02*
X020943Y068439D01*
X020681Y068439D02*
X020681Y068701D01*
X020943Y068701D01*
X020943Y068439D01*
X020943Y068526D02*
X020681Y068526D01*
X020681Y068613D02*
X020943Y068613D01*
X020943Y068700D02*
X020681Y068700D01*
X021267Y068706D02*
X021267Y068444D01*
X021267Y068706D02*
X021529Y068706D01*
X021529Y068444D01*
X021267Y068444D01*
X021267Y068531D02*
X021529Y068531D01*
X021529Y068618D02*
X021267Y068618D01*
X021267Y068705D02*
X021529Y068705D01*
X021853Y068439D02*
X022115Y068439D01*
X021853Y068439D02*
X021853Y068701D01*
X022115Y068701D01*
X022115Y068439D01*
X022115Y068526D02*
X021853Y068526D01*
X021853Y068613D02*
X022115Y068613D01*
X022115Y068700D02*
X021853Y068700D01*
X022453Y068439D02*
X022715Y068439D01*
X022453Y068439D02*
X022453Y068701D01*
X022715Y068701D01*
X022715Y068439D01*
X022715Y068526D02*
X022453Y068526D01*
X022453Y068613D02*
X022715Y068613D01*
X022715Y068700D02*
X022453Y068700D01*
X023039Y068706D02*
X023039Y068444D01*
X023039Y068706D02*
X023301Y068706D01*
X023301Y068444D01*
X023039Y068444D01*
X023039Y068531D02*
X023301Y068531D01*
X023301Y068618D02*
X023039Y068618D01*
X023039Y068705D02*
X023301Y068705D01*
X023039Y068106D02*
X023039Y067844D01*
X023039Y068106D02*
X023301Y068106D01*
X023301Y067844D01*
X023039Y067844D01*
X023039Y067931D02*
X023301Y067931D01*
X023301Y068018D02*
X023039Y068018D01*
X023039Y068105D02*
X023301Y068105D01*
X021267Y068106D02*
X021267Y067844D01*
X021267Y068106D02*
X021529Y068106D01*
X021529Y067844D01*
X021267Y067844D01*
X021267Y067931D02*
X021529Y067931D01*
X021529Y068018D02*
X021267Y068018D01*
X021267Y068105D02*
X021529Y068105D01*
X025466Y068651D02*
X025466Y068913D01*
X025466Y068651D02*
X025204Y068651D01*
X025204Y068913D01*
X025466Y068913D01*
X025466Y068738D02*
X025204Y068738D01*
X025204Y068825D02*
X025466Y068825D01*
X025466Y068912D02*
X025204Y068912D01*
X025466Y069251D02*
X025466Y069513D01*
X025466Y069251D02*
X025204Y069251D01*
X025204Y069513D01*
X025466Y069513D01*
X025466Y069338D02*
X025204Y069338D01*
X025204Y069425D02*
X025466Y069425D01*
X025466Y069512D02*
X025204Y069512D01*
X035407Y030419D02*
X035407Y030157D01*
X035145Y030157D01*
X035145Y030419D01*
X035407Y030419D01*
X035407Y030244D02*
X035145Y030244D01*
X035145Y030331D02*
X035407Y030331D01*
X035407Y030418D02*
X035145Y030418D01*
X035407Y029819D02*
X035407Y029557D01*
X035145Y029557D01*
X035145Y029819D01*
X035407Y029819D01*
X035407Y029644D02*
X035145Y029644D01*
X035145Y029731D02*
X035407Y029731D01*
X035407Y029818D02*
X035145Y029818D01*
X027940Y021875D02*
X027940Y021613D01*
X027940Y021875D02*
X028202Y021875D01*
X028202Y021613D01*
X027940Y021613D01*
X027940Y021700D02*
X028202Y021700D01*
X028202Y021787D02*
X027940Y021787D01*
X027940Y021874D02*
X028202Y021874D01*
X027940Y021275D02*
X027940Y021013D01*
X027940Y021275D02*
X028202Y021275D01*
X028202Y021013D01*
X027940Y021013D01*
X027940Y021100D02*
X028202Y021100D01*
X028202Y021187D02*
X027940Y021187D01*
X027940Y021274D02*
X028202Y021274D01*
X025302Y021275D02*
X025302Y021013D01*
X025302Y021275D02*
X025564Y021275D01*
X025564Y021013D01*
X025302Y021013D01*
X025302Y021100D02*
X025564Y021100D01*
X025564Y021187D02*
X025302Y021187D01*
X025302Y021274D02*
X025564Y021274D01*
X025302Y021613D02*
X025302Y021875D01*
X025564Y021875D01*
X025564Y021613D01*
X025302Y021613D01*
X025302Y021700D02*
X025564Y021700D01*
X025564Y021787D02*
X025302Y021787D01*
X025302Y021874D02*
X025564Y021874D01*
X026223Y026668D02*
X026485Y026668D01*
X026223Y026668D02*
X026223Y026930D01*
X026485Y026930D01*
X026485Y026668D01*
X026485Y026755D02*
X026223Y026755D01*
X026223Y026842D02*
X026485Y026842D01*
X026485Y026929D02*
X026223Y026929D01*
X026823Y026668D02*
X027085Y026668D01*
X026823Y026668D02*
X026823Y026930D01*
X027085Y026930D01*
X027085Y026668D01*
X027085Y026755D02*
X026823Y026755D01*
X026823Y026842D02*
X027085Y026842D01*
X027085Y026929D02*
X026823Y026929D01*
D12*
X026929Y029437D03*
X028032Y029437D03*
D13*
X026301Y031815D02*
X026175Y031815D01*
X026175Y031941D01*
X026301Y031941D01*
X026301Y031815D01*
X026301Y031939D02*
X026175Y031939D01*
X025951Y031815D02*
X025825Y031815D01*
X025825Y031941D01*
X025951Y031941D01*
X025951Y031815D01*
X025951Y031939D02*
X025825Y031939D01*
X025825Y032326D02*
X025951Y032326D01*
X025825Y032326D02*
X025825Y032452D01*
X025951Y032452D01*
X025951Y032326D01*
X025951Y032450D02*
X025825Y032450D01*
X025825Y032799D02*
X025951Y032799D01*
X025825Y032799D02*
X025825Y032925D01*
X025951Y032925D01*
X025951Y032799D01*
X025951Y032923D02*
X025825Y032923D01*
X026175Y032799D02*
X026301Y032799D01*
X026175Y032799D02*
X026175Y032925D01*
X026301Y032925D01*
X026301Y032799D01*
X026301Y032923D02*
X026175Y032923D01*
X026175Y032326D02*
X026301Y032326D01*
X026175Y032326D02*
X026175Y032452D01*
X026301Y032452D01*
X026301Y032326D01*
X026301Y032450D02*
X026175Y032450D01*
X025449Y028257D02*
X025449Y028131D01*
X025449Y028257D02*
X025575Y028257D01*
X025575Y028131D01*
X025449Y028131D01*
X025449Y028255D02*
X025575Y028255D01*
X025449Y027907D02*
X025449Y027781D01*
X025449Y027907D02*
X025575Y027907D01*
X025575Y027781D01*
X025449Y027781D01*
X025449Y027905D02*
X025575Y027905D01*
X028488Y026131D02*
X028488Y026005D01*
X028362Y026005D01*
X028362Y026131D01*
X028488Y026131D01*
X028488Y026129D02*
X028362Y026129D01*
X028488Y025781D02*
X028488Y025655D01*
X028362Y025655D01*
X028362Y025781D01*
X028488Y025781D01*
X028488Y025779D02*
X028362Y025779D01*
X029977Y027506D02*
X029977Y027632D01*
X030103Y027632D01*
X030103Y027506D01*
X029977Y027506D01*
X029977Y027630D02*
X030103Y027630D01*
X029977Y027856D02*
X029977Y027982D01*
X030103Y027982D01*
X030103Y027856D01*
X029977Y027856D01*
X029977Y027980D02*
X030103Y027980D01*
X030370Y029553D02*
X030370Y029679D01*
X030496Y029679D01*
X030496Y029553D01*
X030370Y029553D01*
X030370Y029677D02*
X030496Y029677D01*
X030370Y029903D02*
X030370Y030029D01*
X030496Y030029D01*
X030496Y029903D01*
X030370Y029903D01*
X030370Y030027D02*
X030496Y030027D01*
X032229Y028533D02*
X032229Y028407D01*
X032103Y028407D01*
X032103Y028533D01*
X032229Y028533D01*
X032229Y028531D02*
X032103Y028531D01*
X032229Y028183D02*
X032229Y028057D01*
X032103Y028057D01*
X032103Y028183D01*
X032229Y028183D01*
X032229Y028181D02*
X032103Y028181D01*
X031144Y026027D02*
X031018Y026027D01*
X031018Y026153D01*
X031144Y026153D01*
X031144Y026027D01*
X031144Y026151D02*
X031018Y026151D01*
X030794Y026027D02*
X030668Y026027D01*
X030668Y026153D01*
X030794Y026153D01*
X030794Y026027D01*
X030794Y026151D02*
X030668Y026151D01*
X030668Y025720D02*
X030794Y025720D01*
X030794Y025594D01*
X030668Y025594D01*
X030668Y025720D01*
X030668Y025718D02*
X030794Y025718D01*
X031018Y025720D02*
X031144Y025720D01*
X031144Y025594D01*
X031018Y025594D01*
X031018Y025720D01*
X031018Y025718D02*
X031144Y025718D01*
X031455Y025720D02*
X031581Y025720D01*
X031581Y025594D01*
X031455Y025594D01*
X031455Y025720D01*
X031455Y025718D02*
X031581Y025718D01*
X031805Y025720D02*
X031931Y025720D01*
X031931Y025594D01*
X031805Y025594D01*
X031805Y025720D01*
X031805Y025718D02*
X031931Y025718D01*
X031931Y025161D02*
X031805Y025161D01*
X031805Y025287D01*
X031931Y025287D01*
X031931Y025161D01*
X031931Y025285D02*
X031805Y025285D01*
X031581Y025161D02*
X031455Y025161D01*
X031455Y025287D01*
X031581Y025287D01*
X031581Y025161D01*
X031581Y025285D02*
X031455Y025285D01*
X029372Y020633D02*
X029246Y020633D01*
X029246Y020759D01*
X029372Y020759D01*
X029372Y020633D01*
X029372Y020757D02*
X029246Y020757D01*
X029022Y020633D02*
X028896Y020633D01*
X028896Y020759D01*
X029022Y020759D01*
X029022Y020633D01*
X029022Y020757D02*
X028896Y020757D01*
X028896Y020326D02*
X029022Y020326D01*
X029022Y020200D01*
X028896Y020200D01*
X028896Y020326D01*
X028896Y020324D02*
X029022Y020324D01*
X029246Y020326D02*
X029372Y020326D01*
X029372Y020200D01*
X029246Y020200D01*
X029246Y020326D01*
X029246Y020324D02*
X029372Y020324D01*
X029372Y019767D02*
X029246Y019767D01*
X029246Y019893D01*
X029372Y019893D01*
X029372Y019767D01*
X029372Y019891D02*
X029246Y019891D01*
X029022Y019767D02*
X028896Y019767D01*
X028896Y019893D01*
X029022Y019893D01*
X029022Y019767D01*
X029022Y019891D02*
X028896Y019891D01*
X027640Y019815D02*
X027514Y019815D01*
X027640Y019815D02*
X027640Y019689D01*
X027514Y019689D01*
X027514Y019815D01*
X027514Y019813D02*
X027640Y019813D01*
X027290Y019815D02*
X027164Y019815D01*
X027290Y019815D02*
X027290Y019689D01*
X027164Y019689D01*
X027164Y019815D01*
X027164Y019813D02*
X027290Y019813D01*
X026158Y020065D02*
X026158Y020191D01*
X026284Y020191D01*
X026284Y020065D01*
X026158Y020065D01*
X026158Y020189D02*
X026284Y020189D01*
X026158Y020415D02*
X026158Y020541D01*
X026284Y020541D01*
X026284Y020415D01*
X026158Y020415D01*
X026158Y020539D02*
X026284Y020539D01*
X023500Y018848D02*
X023500Y018722D01*
X023500Y018848D02*
X023626Y018848D01*
X023626Y018722D01*
X023500Y018722D01*
X023500Y018846D02*
X023626Y018846D01*
X023500Y018498D02*
X023500Y018372D01*
X023500Y018498D02*
X023626Y018498D01*
X023626Y018372D01*
X023500Y018372D01*
X023500Y018496D02*
X023626Y018496D01*
X021205Y016958D02*
X021205Y016832D01*
X021079Y016832D01*
X021079Y016958D01*
X021205Y016958D01*
X021205Y016956D02*
X021079Y016956D01*
X021205Y016608D02*
X021205Y016482D01*
X021079Y016482D01*
X021079Y016608D01*
X021205Y016608D01*
X021205Y016606D02*
X021079Y016606D01*
X020725Y015580D02*
X020725Y015454D01*
X020725Y015580D02*
X020851Y015580D01*
X020851Y015454D01*
X020725Y015454D01*
X020725Y015578D02*
X020851Y015578D01*
X020725Y015230D02*
X020725Y015104D01*
X020725Y015230D02*
X020851Y015230D01*
X020851Y015104D01*
X020725Y015104D01*
X020725Y015228D02*
X020851Y015228D01*
X021906Y015186D02*
X021906Y015060D01*
X021906Y015186D02*
X022032Y015186D01*
X022032Y015060D01*
X021906Y015060D01*
X021906Y015184D02*
X022032Y015184D01*
X021906Y014836D02*
X021906Y014710D01*
X021906Y014836D02*
X022032Y014836D01*
X022032Y014710D01*
X021906Y014710D01*
X021906Y014834D02*
X022032Y014834D01*
X021835Y013375D02*
X021835Y013249D01*
X021709Y013249D01*
X021709Y013375D01*
X021835Y013375D01*
X021835Y013373D02*
X021709Y013373D01*
X021315Y013375D02*
X021315Y013249D01*
X021315Y013375D02*
X021441Y013375D01*
X021441Y013249D01*
X021315Y013249D01*
X021315Y013373D02*
X021441Y013373D01*
X021315Y013025D02*
X021315Y012899D01*
X021315Y013025D02*
X021441Y013025D01*
X021441Y012899D01*
X021315Y012899D01*
X021315Y013023D02*
X021441Y013023D01*
X021835Y013025D02*
X021835Y012899D01*
X021709Y012899D01*
X021709Y013025D01*
X021835Y013025D01*
X021835Y013023D02*
X021709Y013023D01*
X020632Y011271D02*
X020506Y011271D01*
X020632Y011271D02*
X020632Y011145D01*
X020506Y011145D01*
X020506Y011271D01*
X020506Y011269D02*
X020632Y011269D01*
X020282Y011271D02*
X020156Y011271D01*
X020282Y011271D02*
X020282Y011145D01*
X020156Y011145D01*
X020156Y011271D01*
X020156Y011269D02*
X020282Y011269D01*
X018992Y011202D02*
X018992Y011328D01*
X019118Y011328D01*
X019118Y011202D01*
X018992Y011202D01*
X018992Y011326D02*
X019118Y011326D01*
X018992Y010978D02*
X018992Y010852D01*
X018992Y010978D02*
X019118Y010978D01*
X019118Y010852D01*
X018992Y010852D01*
X018992Y010976D02*
X019118Y010976D01*
X019150Y009990D02*
X019150Y009864D01*
X019150Y009990D02*
X019276Y009990D01*
X019276Y009864D01*
X019150Y009864D01*
X019150Y009988D02*
X019276Y009988D01*
X019150Y009640D02*
X019150Y009514D01*
X019150Y009640D02*
X019276Y009640D01*
X019276Y009514D01*
X019150Y009514D01*
X019150Y009638D02*
X019276Y009638D01*
X018843Y009640D02*
X018843Y009514D01*
X018717Y009514D01*
X018717Y009640D01*
X018843Y009640D01*
X018843Y009638D02*
X018717Y009638D01*
X018843Y009864D02*
X018843Y009990D01*
X018843Y009864D02*
X018717Y009864D01*
X018717Y009990D01*
X018843Y009990D01*
X018843Y009988D02*
X018717Y009988D01*
X017128Y014295D02*
X017002Y014295D01*
X017002Y014421D01*
X017128Y014421D01*
X017128Y014295D01*
X017128Y014419D02*
X017002Y014419D01*
X016778Y014295D02*
X016652Y014295D01*
X016652Y014421D01*
X016778Y014421D01*
X016778Y014295D01*
X016778Y014419D02*
X016652Y014419D01*
X018345Y015602D02*
X018471Y015602D01*
X018471Y015476D01*
X018345Y015476D01*
X018345Y015602D01*
X018345Y015600D02*
X018471Y015600D01*
X018695Y015602D02*
X018821Y015602D01*
X018821Y015476D01*
X018695Y015476D01*
X018695Y015602D01*
X018695Y015600D02*
X018821Y015600D01*
X018892Y016704D02*
X019018Y016704D01*
X019018Y016578D01*
X018892Y016578D01*
X018892Y016704D01*
X018892Y016702D02*
X019018Y016702D01*
X018668Y016704D02*
X018542Y016704D01*
X018668Y016704D02*
X018668Y016578D01*
X018542Y016578D01*
X018542Y016704D01*
X018542Y016702D02*
X018668Y016702D01*
X019197Y017545D02*
X019197Y017671D01*
X019197Y017545D02*
X019071Y017545D01*
X019071Y017671D01*
X019197Y017671D01*
X019197Y017669D02*
X019071Y017669D01*
X019197Y017895D02*
X019197Y018021D01*
X019197Y017895D02*
X019071Y017895D01*
X019071Y018021D01*
X019197Y018021D01*
X019197Y018019D02*
X019071Y018019D01*
X020546Y019696D02*
X020635Y019785D01*
X020546Y019696D02*
X020457Y019785D01*
X020546Y019874D01*
X020635Y019785D01*
X020600Y019820D02*
X020492Y019820D01*
X020793Y019944D02*
X020882Y020033D01*
X020793Y019944D02*
X020704Y020033D01*
X020793Y020122D01*
X020882Y020033D01*
X020847Y020068D02*
X020739Y020068D01*
X022898Y021951D02*
X022987Y022040D01*
X023076Y021951D01*
X022987Y021862D01*
X022898Y021951D01*
X022933Y021986D02*
X023041Y021986D01*
X023145Y022198D02*
X023234Y022287D01*
X023323Y022198D01*
X023234Y022109D01*
X023145Y022198D01*
X023180Y022233D02*
X023288Y022233D01*
X021795Y024707D02*
X021884Y024796D01*
X021973Y024707D01*
X021884Y024618D01*
X021795Y024707D01*
X021830Y024742D02*
X021938Y024742D01*
X022043Y024954D02*
X022132Y025043D01*
X022221Y024954D01*
X022132Y024865D01*
X022043Y024954D01*
X022078Y024989D02*
X022186Y024989D01*
X021817Y025358D02*
X021728Y025269D01*
X021817Y025358D02*
X021906Y025269D01*
X021817Y025180D01*
X021728Y025269D01*
X021763Y025304D02*
X021871Y025304D01*
X021569Y025111D02*
X021480Y025022D01*
X021569Y025111D02*
X021658Y025022D01*
X021569Y024933D01*
X021480Y025022D01*
X021515Y025057D02*
X021623Y025057D01*
X020360Y027216D02*
X020271Y027305D01*
X020360Y027394D01*
X020449Y027305D01*
X020360Y027216D01*
X020414Y027340D02*
X020306Y027340D01*
X020113Y027463D02*
X020024Y027552D01*
X020113Y027641D01*
X020202Y027552D01*
X020113Y027463D01*
X020167Y027587D02*
X020059Y027587D01*
X018656Y026067D02*
X018745Y025978D01*
X018656Y025889D01*
X018567Y025978D01*
X018656Y026067D01*
X018710Y026013D02*
X018602Y026013D01*
X018904Y025819D02*
X018993Y025730D01*
X018904Y025641D01*
X018815Y025730D01*
X018904Y025819D01*
X018958Y025765D02*
X018850Y025765D01*
X017329Y025437D02*
X017240Y025348D01*
X017329Y025437D02*
X017418Y025348D01*
X017329Y025259D01*
X017240Y025348D01*
X017275Y025383D02*
X017383Y025383D01*
X017081Y025189D02*
X016992Y025100D01*
X017081Y025189D02*
X017170Y025100D01*
X017081Y025011D01*
X016992Y025100D01*
X017027Y025135D02*
X017135Y025135D01*
X016498Y027641D02*
X016372Y027641D01*
X016372Y027767D01*
X016498Y027767D01*
X016498Y027641D01*
X016498Y027765D02*
X016372Y027765D01*
X016148Y027641D02*
X016022Y027641D01*
X016022Y027767D01*
X016148Y027767D01*
X016148Y027641D01*
X016148Y027765D02*
X016022Y027765D01*
X016022Y028035D02*
X016148Y028035D01*
X016022Y028035D02*
X016022Y028161D01*
X016148Y028161D01*
X016148Y028035D01*
X016148Y028159D02*
X016022Y028159D01*
X016372Y028035D02*
X016498Y028035D01*
X016372Y028035D02*
X016372Y028161D01*
X016498Y028161D01*
X016498Y028035D01*
X016498Y028159D02*
X016372Y028159D01*
X018030Y031783D02*
X018156Y031783D01*
X018156Y031657D01*
X018030Y031657D01*
X018030Y031783D01*
X018030Y031781D02*
X018156Y031781D01*
X018380Y031783D02*
X018506Y031783D01*
X018506Y031657D01*
X018380Y031657D01*
X018380Y031783D01*
X018380Y031781D02*
X018506Y031781D01*
X018506Y032090D02*
X018380Y032090D01*
X018380Y032216D01*
X018506Y032216D01*
X018506Y032090D01*
X018506Y032214D02*
X018380Y032214D01*
X018156Y032090D02*
X018030Y032090D01*
X018030Y032216D01*
X018156Y032216D01*
X018156Y032090D01*
X018156Y032214D02*
X018030Y032214D01*
X017994Y034256D02*
X017868Y034256D01*
X017868Y034382D01*
X017994Y034382D01*
X017994Y034256D01*
X017994Y034380D02*
X017868Y034380D01*
X017644Y034256D02*
X017518Y034256D01*
X017518Y034382D01*
X017644Y034382D01*
X017644Y034256D01*
X017644Y034380D02*
X017518Y034380D01*
X017518Y034815D02*
X017644Y034815D01*
X017644Y034689D01*
X017518Y034689D01*
X017518Y034815D01*
X017518Y034813D02*
X017644Y034813D01*
X017868Y034815D02*
X017994Y034815D01*
X017994Y034689D01*
X017868Y034689D01*
X017868Y034815D01*
X017868Y034813D02*
X017994Y034813D01*
X016852Y034689D02*
X016726Y034689D01*
X016726Y034815D01*
X016852Y034815D01*
X016852Y034689D01*
X016852Y034813D02*
X016726Y034813D01*
X016502Y034689D02*
X016376Y034689D01*
X016376Y034815D01*
X016502Y034815D01*
X016502Y034689D01*
X016502Y034813D02*
X016376Y034813D01*
X016376Y034382D02*
X016502Y034382D01*
X016502Y034256D01*
X016376Y034256D01*
X016376Y034382D01*
X016376Y034380D02*
X016502Y034380D01*
X016726Y034382D02*
X016852Y034382D01*
X016852Y034256D01*
X016726Y034256D01*
X016726Y034382D01*
X016726Y034380D02*
X016852Y034380D01*
X014670Y034403D02*
X014670Y034277D01*
X014544Y034277D01*
X014544Y034403D01*
X014670Y034403D01*
X014670Y034401D02*
X014544Y034401D01*
X014670Y034627D02*
X014670Y034753D01*
X014670Y034627D02*
X014544Y034627D01*
X014544Y034753D01*
X014670Y034753D01*
X014670Y034751D02*
X014544Y034751D01*
X014276Y034753D02*
X014276Y034627D01*
X014150Y034627D01*
X014150Y034753D01*
X014276Y034753D01*
X014276Y034751D02*
X014150Y034751D01*
X014276Y034403D02*
X014276Y034277D01*
X014150Y034277D01*
X014150Y034403D01*
X014276Y034403D01*
X014276Y034401D02*
X014150Y034401D01*
X019268Y034868D02*
X019268Y034994D01*
X019394Y034994D01*
X019394Y034868D01*
X019268Y034868D01*
X019268Y034992D02*
X019394Y034992D01*
X019268Y035218D02*
X019268Y035344D01*
X019394Y035344D01*
X019394Y035218D01*
X019268Y035218D01*
X019268Y035342D02*
X019394Y035342D01*
X019583Y036797D02*
X019583Y036923D01*
X019709Y036923D01*
X019709Y036797D01*
X019583Y036797D01*
X019583Y036921D02*
X019709Y036921D01*
X019583Y037147D02*
X019583Y037273D01*
X019709Y037273D01*
X019709Y037147D01*
X019583Y037147D01*
X019583Y037271D02*
X019709Y037271D01*
X021717Y036407D02*
X021717Y036281D01*
X021591Y036281D01*
X021591Y036407D01*
X021717Y036407D01*
X021717Y036405D02*
X021591Y036405D01*
X021717Y036057D02*
X021717Y035931D01*
X021591Y035931D01*
X021591Y036057D01*
X021717Y036057D01*
X021717Y036055D02*
X021591Y036055D01*
X021691Y031815D02*
X021817Y031815D01*
X021691Y031815D02*
X021691Y031941D01*
X021817Y031941D01*
X021817Y031815D01*
X021817Y031939D02*
X021691Y031939D01*
X022041Y031815D02*
X022167Y031815D01*
X022041Y031815D02*
X022041Y031941D01*
X022167Y031941D01*
X022167Y031815D01*
X022167Y031939D02*
X022041Y031939D01*
X035038Y023665D02*
X035164Y023665D01*
X035038Y023665D02*
X035038Y023791D01*
X035164Y023791D01*
X035164Y023665D01*
X035164Y023789D02*
X035038Y023789D01*
X035388Y023665D02*
X035514Y023665D01*
X035388Y023665D02*
X035388Y023791D01*
X035514Y023791D01*
X035514Y023665D01*
X035514Y023789D02*
X035388Y023789D01*
X027819Y010698D02*
X027819Y010572D01*
X027693Y010572D01*
X027693Y010698D01*
X027819Y010698D01*
X027819Y010696D02*
X027693Y010696D01*
X027260Y010698D02*
X027260Y010572D01*
X027260Y010698D02*
X027386Y010698D01*
X027386Y010572D01*
X027260Y010572D01*
X027260Y010696D02*
X027386Y010696D01*
X027260Y010348D02*
X027260Y010222D01*
X027260Y010348D02*
X027386Y010348D01*
X027386Y010222D01*
X027260Y010222D01*
X027260Y010346D02*
X027386Y010346D01*
X027819Y010348D02*
X027819Y010222D01*
X027693Y010222D01*
X027693Y010348D01*
X027819Y010348D01*
X027819Y010346D02*
X027693Y010346D01*
X015455Y010043D02*
X015329Y010043D01*
X015329Y010169D01*
X015455Y010169D01*
X015455Y010043D01*
X015455Y010167D02*
X015329Y010167D01*
X015105Y010043D02*
X014979Y010043D01*
X014979Y010169D01*
X015105Y010169D01*
X015105Y010043D01*
X015105Y010167D02*
X014979Y010167D01*
X015103Y010439D02*
X015103Y010565D01*
X015103Y010439D02*
X014977Y010439D01*
X014977Y010565D01*
X015103Y010565D01*
X015103Y010563D02*
X014977Y010563D01*
X015103Y010789D02*
X015103Y010915D01*
X015103Y010789D02*
X014977Y010789D01*
X014977Y010915D01*
X015103Y010915D01*
X015103Y010913D02*
X014977Y010913D01*
X014979Y011185D02*
X015105Y011185D01*
X014979Y011185D02*
X014979Y011311D01*
X015105Y011311D01*
X015105Y011185D01*
X015105Y011309D02*
X014979Y011309D01*
X015329Y011185D02*
X015455Y011185D01*
X015329Y011185D02*
X015329Y011311D01*
X015455Y011311D01*
X015455Y011185D01*
X015455Y011309D02*
X015329Y011309D01*
X028345Y056775D02*
X028471Y056775D01*
X028345Y056775D02*
X028345Y056901D01*
X028471Y056901D01*
X028471Y056775D01*
X028471Y056899D02*
X028345Y056899D01*
X028345Y057295D02*
X028471Y057295D01*
X028471Y057169D01*
X028345Y057169D01*
X028345Y057295D01*
X028345Y057293D02*
X028471Y057293D01*
X028695Y057295D02*
X028821Y057295D01*
X028821Y057169D01*
X028695Y057169D01*
X028695Y057295D01*
X028695Y057293D02*
X028821Y057293D01*
X028821Y056775D02*
X028695Y056775D01*
X028695Y056901D01*
X028821Y056901D01*
X028821Y056775D01*
X028821Y056899D02*
X028695Y056899D01*
X028695Y057925D02*
X028821Y057925D01*
X028821Y057799D01*
X028695Y057799D01*
X028695Y057925D01*
X028695Y057923D02*
X028821Y057923D01*
X028821Y058193D02*
X028695Y058193D01*
X028695Y058319D01*
X028821Y058319D01*
X028821Y058193D01*
X028821Y058317D02*
X028695Y058317D01*
X028471Y058193D02*
X028345Y058193D01*
X028345Y058319D01*
X028471Y058319D01*
X028471Y058193D01*
X028471Y058317D02*
X028345Y058317D01*
X028345Y057925D02*
X028471Y057925D01*
X028471Y057799D01*
X028345Y057799D01*
X028345Y057925D01*
X028345Y057923D02*
X028471Y057923D01*
X026197Y057934D02*
X026197Y058060D01*
X026323Y058060D01*
X026323Y057934D01*
X026197Y057934D01*
X026197Y058058D02*
X026323Y058058D01*
X026197Y057710D02*
X026197Y057584D01*
X026197Y057710D02*
X026323Y057710D01*
X026323Y057584D01*
X026197Y057584D01*
X026197Y057708D02*
X026323Y057708D01*
X025922Y059750D02*
X025922Y059876D01*
X026048Y059876D01*
X026048Y059750D01*
X025922Y059750D01*
X025922Y059874D02*
X026048Y059874D01*
X025922Y060100D02*
X025922Y060226D01*
X026048Y060226D01*
X026048Y060100D01*
X025922Y060100D01*
X025922Y060224D02*
X026048Y060224D01*
X025142Y060226D02*
X025142Y060100D01*
X025016Y060100D01*
X025016Y060226D01*
X025142Y060226D01*
X025142Y060224D02*
X025016Y060224D01*
X024622Y060226D02*
X024622Y060100D01*
X024622Y060226D02*
X024748Y060226D01*
X024748Y060100D01*
X024622Y060100D01*
X024622Y060224D02*
X024748Y060224D01*
X024622Y059876D02*
X024622Y059750D01*
X024622Y059876D02*
X024748Y059876D01*
X024748Y059750D01*
X024622Y059750D01*
X024622Y059874D02*
X024748Y059874D01*
X025142Y059876D02*
X025142Y059750D01*
X025016Y059750D01*
X025016Y059876D01*
X025142Y059876D01*
X025142Y059874D02*
X025016Y059874D01*
X023685Y058375D02*
X023685Y058249D01*
X023559Y058249D01*
X023559Y058375D01*
X023685Y058375D01*
X023685Y058373D02*
X023559Y058373D01*
X023685Y058025D02*
X023685Y057899D01*
X023559Y057899D01*
X023559Y058025D01*
X023685Y058025D01*
X023685Y058023D02*
X023559Y058023D01*
X022733Y059750D02*
X022733Y059876D01*
X022859Y059876D01*
X022859Y059750D01*
X022733Y059750D01*
X022733Y059874D02*
X022859Y059874D01*
X022733Y060100D02*
X022733Y060226D01*
X022859Y060226D01*
X022859Y060100D01*
X022733Y060100D01*
X022733Y060224D02*
X022859Y060224D01*
X018016Y062978D02*
X018016Y063104D01*
X018016Y062978D02*
X017890Y062978D01*
X017890Y063104D01*
X018016Y063104D01*
X018016Y063102D02*
X017890Y063102D01*
X018016Y063328D02*
X018016Y063454D01*
X018016Y063328D02*
X017890Y063328D01*
X017890Y063454D01*
X018016Y063454D01*
X018016Y063452D02*
X017890Y063452D01*
X017583Y063454D02*
X017583Y063328D01*
X017457Y063328D01*
X017457Y063454D01*
X017583Y063454D01*
X017583Y063452D02*
X017457Y063452D01*
X017150Y063454D02*
X017150Y063328D01*
X017024Y063328D01*
X017024Y063454D01*
X017150Y063454D01*
X017150Y063452D02*
X017024Y063452D01*
X016717Y063454D02*
X016717Y063328D01*
X016591Y063328D01*
X016591Y063454D01*
X016717Y063454D01*
X016717Y063452D02*
X016591Y063452D01*
X016717Y063104D02*
X016717Y062978D01*
X016591Y062978D01*
X016591Y063104D01*
X016717Y063104D01*
X016717Y063102D02*
X016591Y063102D01*
X017150Y063104D02*
X017150Y062978D01*
X017024Y062978D01*
X017024Y063104D01*
X017150Y063104D01*
X017150Y063102D02*
X017024Y063102D01*
X017583Y063104D02*
X017583Y062978D01*
X017457Y062978D01*
X017457Y063104D01*
X017583Y063104D01*
X017583Y063102D02*
X017457Y063102D01*
X015986Y060956D02*
X015860Y060956D01*
X015986Y060956D02*
X015986Y060830D01*
X015860Y060830D01*
X015860Y060956D01*
X015860Y060954D02*
X015986Y060954D01*
X015636Y060956D02*
X015510Y060956D01*
X015636Y060956D02*
X015636Y060830D01*
X015510Y060830D01*
X015510Y060956D01*
X015510Y060954D02*
X015636Y060954D01*
X031258Y058941D02*
X031384Y058941D01*
X031258Y058941D02*
X031258Y059067D01*
X031384Y059067D01*
X031384Y058941D01*
X031384Y059065D02*
X031258Y059065D01*
X031608Y058941D02*
X031734Y058941D01*
X031608Y058941D02*
X031608Y059067D01*
X031734Y059067D01*
X031734Y058941D01*
X031734Y059065D02*
X031608Y059065D01*
X031608Y058673D02*
X031734Y058673D01*
X031734Y058547D01*
X031608Y058547D01*
X031608Y058673D01*
X031608Y058671D02*
X031734Y058671D01*
X031384Y058673D02*
X031258Y058673D01*
X031384Y058673D02*
X031384Y058547D01*
X031258Y058547D01*
X031258Y058673D01*
X031258Y058671D02*
X031384Y058671D01*
X031384Y057689D02*
X031258Y057689D01*
X031384Y057689D02*
X031384Y057563D01*
X031258Y057563D01*
X031258Y057689D01*
X031258Y057687D02*
X031384Y057687D01*
X031608Y057689D02*
X031734Y057689D01*
X031734Y057563D01*
X031608Y057563D01*
X031608Y057689D01*
X031608Y057687D02*
X031734Y057687D01*
X031734Y057295D02*
X031608Y057295D01*
X031734Y057295D02*
X031734Y057169D01*
X031608Y057169D01*
X031608Y057295D01*
X031608Y057293D02*
X031734Y057293D01*
X031384Y057295D02*
X031258Y057295D01*
X031384Y057295D02*
X031384Y057169D01*
X031258Y057169D01*
X031258Y057295D01*
X031258Y057293D02*
X031384Y057293D01*
X031384Y056775D02*
X031258Y056775D01*
X031258Y056901D01*
X031384Y056901D01*
X031384Y056775D01*
X031384Y056899D02*
X031258Y056899D01*
X031608Y056775D02*
X031734Y056775D01*
X031608Y056775D02*
X031608Y056901D01*
X031734Y056901D01*
X031734Y056775D01*
X031734Y056899D02*
X031608Y056899D01*
D14*
X024607Y021716D03*
X025689Y018310D03*
X028740Y009924D03*
D15*
X028740Y009074D03*
X025689Y017460D03*
X024607Y020866D03*
X027630Y026067D03*
D16*
X026780Y026067D03*
D17*
X025058Y030883D03*
X025058Y031383D03*
X025058Y031883D03*
X025058Y032383D03*
X022998Y032383D03*
X022998Y031883D03*
X022998Y031383D03*
X022998Y030883D03*
D18*
X025512Y027015D03*
X025512Y026425D03*
X027107Y020263D03*
X027697Y020263D03*
X023563Y017783D03*
X023563Y017193D03*
X034862Y024319D03*
X035453Y024319D03*
D19*
X031398Y027547D03*
X030650Y027547D03*
X031024Y028374D03*
X031004Y029161D03*
X031752Y029161D03*
X031378Y029988D03*
X027618Y025224D03*
X027244Y024397D03*
X026870Y025224D03*
X020610Y034948D03*
X019862Y034948D03*
X020236Y035775D03*
X020217Y036366D03*
X020965Y036366D03*
X020591Y037193D03*
X016280Y061523D03*
X015906Y062350D03*
X015532Y061523D03*
D20*
X027012Y028476D03*
X027760Y028476D03*
X027760Y027452D03*
X027386Y027452D03*
X027012Y027452D03*
D21*
X027244Y021740D03*
X027244Y021366D03*
X027244Y020992D03*
X026221Y020992D03*
X026221Y021740D03*
D22*
X015670Y009358D03*
X015040Y009358D03*
X015040Y008098D03*
X015670Y008098D03*
D23*
X015571Y013039D03*
X015315Y013039D03*
X015059Y013039D03*
X015059Y013472D03*
X015315Y013472D03*
X015571Y013472D03*
D24*
X027500Y015256D03*
X027500Y017752D03*
X017402Y058248D03*
X017402Y060744D03*
D25*
X034213Y022862D03*
X034213Y022153D03*
D26*
X033465Y022576D03*
X033268Y022576D03*
X033071Y022576D03*
X032874Y022576D03*
X032677Y022576D03*
X032677Y021415D03*
X032874Y021415D03*
X033071Y021415D03*
X033268Y021415D03*
X033465Y021415D03*
D27*
X033662Y021897D03*
X033662Y022094D03*
X032481Y022094D03*
X032481Y021897D03*
D28*
X033071Y021996D03*
D29*
X032914Y020637D03*
X032244Y020637D03*
X032244Y019830D03*
X031713Y019830D03*
X031044Y019830D03*
X032914Y019830D03*
X034961Y022507D03*
X035630Y022507D03*
D30*
X035118Y021385D03*
X035118Y020716D03*
X034292Y020716D03*
X034292Y021385D03*
D31*
X031693Y021996D03*
X031693Y023098D03*
D32*
X032874Y023137D03*
X032874Y024319D03*
D33*
X031752Y070736D03*
X031752Y074279D03*
X028542Y070736D03*
X025333Y070736D03*
X023172Y070736D03*
X019963Y070736D03*
X016752Y070736D03*
X016752Y074279D03*
D34*
X016654Y070834D03*
X031851Y070834D03*
D35*
X028024Y074279D03*
X021048Y074279D03*
D36*
X024075Y058315D03*
X024587Y058315D03*
X024587Y057645D03*
X024331Y057645D03*
X024075Y057645D03*
X025296Y057645D03*
X025807Y057645D03*
X025807Y058315D03*
X025551Y058315D03*
X025296Y058315D03*
D37*
X025118Y060992D03*
X024685Y060992D03*
X024252Y060992D03*
X023819Y060992D03*
X023386Y060992D03*
X022953Y060992D03*
X022520Y060992D03*
X022087Y060992D03*
X021654Y060992D03*
X021221Y060992D03*
X020788Y060992D03*
X020355Y060992D03*
X019922Y060992D03*
X019922Y066484D03*
X020355Y066484D03*
X020788Y066484D03*
X021221Y066484D03*
X021654Y066484D03*
X022087Y066484D03*
X022520Y066484D03*
X022953Y066484D03*
X023386Y066484D03*
X023819Y066484D03*
X024252Y066484D03*
X024685Y066484D03*
X025118Y066484D03*
X025551Y066484D03*
X025985Y066484D03*
X026418Y066484D03*
X026851Y066484D03*
X027284Y066484D03*
X027717Y066484D03*
X028150Y066484D03*
X028583Y066484D03*
X028583Y060992D03*
X028150Y060992D03*
X027717Y060992D03*
X027284Y060992D03*
X026851Y060992D03*
X026418Y060992D03*
X025985Y060992D03*
X025551Y060992D03*
D38*
X028957Y061582D03*
X028957Y062015D03*
X028957Y062448D03*
X028957Y062881D03*
X028957Y063315D03*
X028957Y063748D03*
X028957Y064181D03*
X028957Y064614D03*
X028957Y065047D03*
X028957Y065480D03*
X028957Y065913D03*
X019548Y065913D03*
X019548Y065480D03*
X019548Y065047D03*
X019548Y064614D03*
X019548Y064181D03*
X019548Y063748D03*
X019548Y063315D03*
X019548Y062881D03*
X019548Y062448D03*
X019548Y062015D03*
X019548Y061582D03*
D39*
X020217Y061681D03*
X020925Y061681D03*
X020925Y062507D03*
X020217Y062507D03*
X020217Y063334D03*
X020925Y063334D03*
X020925Y064161D03*
X020217Y064161D03*
X020217Y064988D03*
X020925Y064988D03*
X020925Y065815D03*
X020217Y065815D03*
X021634Y065815D03*
X023051Y065815D03*
X025453Y065815D03*
X026870Y065815D03*
X027579Y065815D03*
X027579Y064988D03*
X027579Y064161D03*
X027579Y063334D03*
X027579Y062507D03*
X027579Y061681D03*
X026870Y061681D03*
X025453Y061681D03*
X023051Y061681D03*
X021634Y061681D03*
X028288Y061681D03*
X028288Y062507D03*
X028288Y063334D03*
X028288Y064161D03*
X028288Y064988D03*
X028288Y065815D03*
D40*
X014961Y060402D03*
X014567Y060402D03*
X014764Y060912D03*
X029292Y019003D03*
X029488Y018493D03*
X029095Y018493D03*
D41*
X018012Y064122D03*
X016555Y064122D03*
D42*
G36*
X017363Y024873D02*
X017696Y025206D01*
X017975Y024927D01*
X017642Y024594D01*
X017363Y024873D01*
G37*
G36*
X016750Y024261D02*
X017083Y024594D01*
X017362Y024315D01*
X017029Y023982D01*
X016750Y024261D01*
G37*
X018032Y016090D03*
X018898Y016090D03*
X027126Y006956D03*
X027992Y006956D03*
D43*
X029528Y008019D03*
X029528Y008531D03*
X030532Y008531D03*
X030532Y008019D03*
D44*
X030670Y006828D03*
X030158Y006828D03*
X029902Y006828D03*
X029646Y006828D03*
D45*
X030491Y007092D02*
X030491Y006564D01*
X030337Y006564D01*
X030337Y007092D01*
X030491Y007092D01*
X030491Y006565D02*
X030337Y006565D01*
X030337Y006566D02*
X030491Y006566D01*
X030491Y006567D02*
X030337Y006567D01*
X030337Y006568D02*
X030491Y006568D01*
X030491Y006569D02*
X030337Y006569D01*
X030337Y006570D02*
X030491Y006570D01*
X030491Y006571D02*
X030337Y006571D01*
X030337Y006572D02*
X030491Y006572D01*
X030491Y006573D02*
X030337Y006573D01*
X030337Y006574D02*
X030491Y006574D01*
X030491Y006575D02*
X030337Y006575D01*
X030337Y006576D02*
X030491Y006576D01*
X030491Y006577D02*
X030337Y006577D01*
X030337Y006578D02*
X030491Y006578D01*
X030491Y006579D02*
X030337Y006579D01*
X030337Y006580D02*
X030491Y006580D01*
X030491Y006581D02*
X030337Y006581D01*
X030337Y006582D02*
X030491Y006582D01*
X030491Y006583D02*
X030337Y006583D01*
X030337Y006584D02*
X030491Y006584D01*
X030491Y006585D02*
X030337Y006585D01*
X030337Y006586D02*
X030491Y006586D01*
X030491Y006587D02*
X030337Y006587D01*
X030337Y006588D02*
X030491Y006588D01*
X030491Y006589D02*
X030337Y006589D01*
X030337Y006590D02*
X030491Y006590D01*
X030491Y006591D02*
X030337Y006591D01*
X030337Y006592D02*
X030491Y006592D01*
X030491Y006593D02*
X030337Y006593D01*
X030337Y006594D02*
X030491Y006594D01*
X030491Y006595D02*
X030337Y006595D01*
X030337Y006596D02*
X030491Y006596D01*
X030491Y006597D02*
X030337Y006597D01*
X030337Y006598D02*
X030491Y006598D01*
X030491Y006599D02*
X030337Y006599D01*
X030337Y006600D02*
X030491Y006600D01*
X030491Y006601D02*
X030337Y006601D01*
X030337Y006602D02*
X030491Y006602D01*
X030491Y006603D02*
X030337Y006603D01*
X030337Y006604D02*
X030491Y006604D01*
X030491Y006605D02*
X030337Y006605D01*
X030337Y006606D02*
X030491Y006606D01*
X030491Y006607D02*
X030337Y006607D01*
X030337Y006608D02*
X030491Y006608D01*
X030491Y006609D02*
X030337Y006609D01*
X030337Y006610D02*
X030491Y006610D01*
X030491Y006611D02*
X030337Y006611D01*
X030337Y006612D02*
X030491Y006612D01*
X030491Y006613D02*
X030337Y006613D01*
X030337Y006614D02*
X030491Y006614D01*
X030491Y006615D02*
X030337Y006615D01*
X030337Y006616D02*
X030491Y006616D01*
X030491Y006617D02*
X030337Y006617D01*
X030337Y006618D02*
X030491Y006618D01*
X030491Y006619D02*
X030337Y006619D01*
X030337Y006620D02*
X030491Y006620D01*
X030491Y006621D02*
X030337Y006621D01*
X030337Y006622D02*
X030491Y006622D01*
X030491Y006623D02*
X030337Y006623D01*
X030337Y006624D02*
X030491Y006624D01*
X030491Y006625D02*
X030337Y006625D01*
X030337Y006626D02*
X030491Y006626D01*
X030491Y006627D02*
X030337Y006627D01*
X030337Y006628D02*
X030491Y006628D01*
X030491Y006629D02*
X030337Y006629D01*
X030337Y006630D02*
X030491Y006630D01*
X030491Y006631D02*
X030337Y006631D01*
X030337Y006632D02*
X030491Y006632D01*
X030491Y006633D02*
X030337Y006633D01*
X030337Y006634D02*
X030491Y006634D01*
X030491Y006635D02*
X030337Y006635D01*
X030337Y006636D02*
X030491Y006636D01*
X030491Y006637D02*
X030337Y006637D01*
X030337Y006638D02*
X030491Y006638D01*
X030491Y006639D02*
X030337Y006639D01*
X030337Y006640D02*
X030491Y006640D01*
X030491Y006641D02*
X030337Y006641D01*
X030337Y006642D02*
X030491Y006642D01*
X030491Y006643D02*
X030337Y006643D01*
X030337Y006644D02*
X030491Y006644D01*
X030491Y006645D02*
X030337Y006645D01*
X030337Y006646D02*
X030491Y006646D01*
X030491Y006647D02*
X030337Y006647D01*
X030337Y006648D02*
X030491Y006648D01*
X030491Y006649D02*
X030337Y006649D01*
X030337Y006650D02*
X030491Y006650D01*
X030491Y006651D02*
X030337Y006651D01*
X030337Y006652D02*
X030491Y006652D01*
X030491Y006653D02*
X030337Y006653D01*
X030337Y006654D02*
X030491Y006654D01*
X030491Y006655D02*
X030337Y006655D01*
X030337Y006656D02*
X030491Y006656D01*
X030491Y006657D02*
X030337Y006657D01*
X030337Y006658D02*
X030491Y006658D01*
X030491Y006659D02*
X030337Y006659D01*
X030337Y006660D02*
X030491Y006660D01*
X030491Y006661D02*
X030337Y006661D01*
X030337Y006662D02*
X030491Y006662D01*
X030491Y006663D02*
X030337Y006663D01*
X030337Y006664D02*
X030491Y006664D01*
X030491Y006665D02*
X030337Y006665D01*
X030337Y006666D02*
X030491Y006666D01*
X030491Y006667D02*
X030337Y006667D01*
X030337Y006668D02*
X030491Y006668D01*
X030491Y006669D02*
X030337Y006669D01*
X030337Y006670D02*
X030491Y006670D01*
X030491Y006671D02*
X030337Y006671D01*
X030337Y006672D02*
X030491Y006672D01*
X030491Y006673D02*
X030337Y006673D01*
X030337Y006674D02*
X030491Y006674D01*
X030491Y006675D02*
X030337Y006675D01*
X030337Y006676D02*
X030491Y006676D01*
X030491Y006677D02*
X030337Y006677D01*
X030337Y006678D02*
X030491Y006678D01*
X030491Y006679D02*
X030337Y006679D01*
X030337Y006680D02*
X030491Y006680D01*
X030491Y006681D02*
X030337Y006681D01*
X030337Y006682D02*
X030491Y006682D01*
X030491Y006683D02*
X030337Y006683D01*
X030337Y006684D02*
X030491Y006684D01*
X030491Y006685D02*
X030337Y006685D01*
X030337Y006686D02*
X030491Y006686D01*
X030491Y006687D02*
X030337Y006687D01*
X030337Y006688D02*
X030491Y006688D01*
X030491Y006689D02*
X030337Y006689D01*
X030337Y006690D02*
X030491Y006690D01*
X030491Y006691D02*
X030337Y006691D01*
X030337Y006692D02*
X030491Y006692D01*
X030491Y006693D02*
X030337Y006693D01*
X030337Y006694D02*
X030491Y006694D01*
X030491Y006695D02*
X030337Y006695D01*
X030337Y006696D02*
X030491Y006696D01*
X030491Y006697D02*
X030337Y006697D01*
X030337Y006698D02*
X030491Y006698D01*
X030491Y006699D02*
X030337Y006699D01*
X030337Y006700D02*
X030491Y006700D01*
X030491Y006701D02*
X030337Y006701D01*
X030337Y006702D02*
X030491Y006702D01*
X030491Y006703D02*
X030337Y006703D01*
X030337Y006704D02*
X030491Y006704D01*
X030491Y006705D02*
X030337Y006705D01*
X030337Y006706D02*
X030491Y006706D01*
X030491Y006707D02*
X030337Y006707D01*
X030337Y006708D02*
X030491Y006708D01*
X030491Y006709D02*
X030337Y006709D01*
X030337Y006710D02*
X030491Y006710D01*
X030491Y006711D02*
X030337Y006711D01*
X030337Y006712D02*
X030491Y006712D01*
X030491Y006713D02*
X030337Y006713D01*
X030337Y006714D02*
X030491Y006714D01*
X030491Y006715D02*
X030337Y006715D01*
X030337Y006716D02*
X030491Y006716D01*
X030491Y006717D02*
X030337Y006717D01*
X030337Y006718D02*
X030491Y006718D01*
X030491Y006719D02*
X030337Y006719D01*
X030337Y006720D02*
X030491Y006720D01*
X030491Y006721D02*
X030337Y006721D01*
X030337Y006722D02*
X030491Y006722D01*
X030491Y006723D02*
X030337Y006723D01*
X030337Y006724D02*
X030491Y006724D01*
X030491Y006725D02*
X030337Y006725D01*
X030337Y006726D02*
X030491Y006726D01*
X030491Y006727D02*
X030337Y006727D01*
X030337Y006728D02*
X030491Y006728D01*
X030491Y006729D02*
X030337Y006729D01*
X030337Y006730D02*
X030491Y006730D01*
X030491Y006731D02*
X030337Y006731D01*
X030337Y006732D02*
X030491Y006732D01*
X030491Y006733D02*
X030337Y006733D01*
X030337Y006734D02*
X030491Y006734D01*
X030491Y006735D02*
X030337Y006735D01*
X030337Y006736D02*
X030491Y006736D01*
X030491Y006737D02*
X030337Y006737D01*
X030337Y006738D02*
X030491Y006738D01*
X030491Y006739D02*
X030337Y006739D01*
X030337Y006740D02*
X030491Y006740D01*
X030491Y006741D02*
X030337Y006741D01*
X030337Y006742D02*
X030491Y006742D01*
X030491Y006743D02*
X030337Y006743D01*
X030337Y006744D02*
X030491Y006744D01*
X030491Y006745D02*
X030337Y006745D01*
X030337Y006746D02*
X030491Y006746D01*
X030491Y006747D02*
X030337Y006747D01*
X030337Y006748D02*
X030491Y006748D01*
X030491Y006749D02*
X030337Y006749D01*
X030337Y006750D02*
X030491Y006750D01*
X030491Y006751D02*
X030337Y006751D01*
X030337Y006752D02*
X030491Y006752D01*
X030491Y006753D02*
X030337Y006753D01*
X030337Y006754D02*
X030491Y006754D01*
X030491Y006755D02*
X030337Y006755D01*
X030337Y006756D02*
X030491Y006756D01*
X030491Y006757D02*
X030337Y006757D01*
X030337Y006758D02*
X030491Y006758D01*
X030491Y006759D02*
X030337Y006759D01*
X030337Y006760D02*
X030491Y006760D01*
X030491Y006761D02*
X030337Y006761D01*
X030337Y006762D02*
X030491Y006762D01*
X030491Y006763D02*
X030337Y006763D01*
X030337Y006764D02*
X030491Y006764D01*
X030491Y006765D02*
X030337Y006765D01*
X030337Y006766D02*
X030491Y006766D01*
X030491Y006767D02*
X030337Y006767D01*
X030337Y006768D02*
X030491Y006768D01*
X030491Y006769D02*
X030337Y006769D01*
X030337Y006770D02*
X030491Y006770D01*
X030491Y006771D02*
X030337Y006771D01*
X030337Y006772D02*
X030491Y006772D01*
X030491Y006773D02*
X030337Y006773D01*
X030337Y006774D02*
X030491Y006774D01*
X030491Y006775D02*
X030337Y006775D01*
X030337Y006776D02*
X030491Y006776D01*
X030491Y006777D02*
X030337Y006777D01*
X030337Y006778D02*
X030491Y006778D01*
X030491Y006779D02*
X030337Y006779D01*
X030337Y006780D02*
X030491Y006780D01*
X030491Y006781D02*
X030337Y006781D01*
X030337Y006782D02*
X030491Y006782D01*
X030491Y006783D02*
X030337Y006783D01*
X030337Y006784D02*
X030491Y006784D01*
X030491Y006785D02*
X030337Y006785D01*
X030337Y006786D02*
X030491Y006786D01*
X030491Y006787D02*
X030337Y006787D01*
X030337Y006788D02*
X030491Y006788D01*
X030491Y006789D02*
X030337Y006789D01*
X030337Y006790D02*
X030491Y006790D01*
X030491Y006791D02*
X030337Y006791D01*
X030337Y006792D02*
X030491Y006792D01*
X030491Y006793D02*
X030337Y006793D01*
X030337Y006794D02*
X030491Y006794D01*
X030491Y006795D02*
X030337Y006795D01*
X030337Y006796D02*
X030491Y006796D01*
X030491Y006797D02*
X030337Y006797D01*
X030337Y006798D02*
X030491Y006798D01*
X030491Y006799D02*
X030337Y006799D01*
X030337Y006800D02*
X030491Y006800D01*
X030491Y006801D02*
X030337Y006801D01*
X030337Y006802D02*
X030491Y006802D01*
X030491Y006803D02*
X030337Y006803D01*
X030337Y006804D02*
X030491Y006804D01*
X030491Y006805D02*
X030337Y006805D01*
X030337Y006806D02*
X030491Y006806D01*
X030491Y006807D02*
X030337Y006807D01*
X030337Y006808D02*
X030491Y006808D01*
X030491Y006809D02*
X030337Y006809D01*
X030337Y006810D02*
X030491Y006810D01*
X030491Y006811D02*
X030337Y006811D01*
X030337Y006812D02*
X030491Y006812D01*
X030491Y006813D02*
X030337Y006813D01*
X030337Y006814D02*
X030491Y006814D01*
X030491Y006815D02*
X030337Y006815D01*
X030337Y006816D02*
X030491Y006816D01*
X030491Y006817D02*
X030337Y006817D01*
X030337Y006818D02*
X030491Y006818D01*
X030491Y006819D02*
X030337Y006819D01*
X030337Y006820D02*
X030491Y006820D01*
X030491Y006821D02*
X030337Y006821D01*
X030337Y006822D02*
X030491Y006822D01*
X030491Y006823D02*
X030337Y006823D01*
X030337Y006824D02*
X030491Y006824D01*
X030491Y006825D02*
X030337Y006825D01*
X030337Y006826D02*
X030491Y006826D01*
X030491Y006827D02*
X030337Y006827D01*
X030337Y006828D02*
X030491Y006828D01*
X030491Y006829D02*
X030337Y006829D01*
X030337Y006830D02*
X030491Y006830D01*
X030491Y006831D02*
X030337Y006831D01*
X030337Y006832D02*
X030491Y006832D01*
X030491Y006833D02*
X030337Y006833D01*
X030337Y006834D02*
X030491Y006834D01*
X030491Y006835D02*
X030337Y006835D01*
X030337Y006836D02*
X030491Y006836D01*
X030491Y006837D02*
X030337Y006837D01*
X030337Y006838D02*
X030491Y006838D01*
X030491Y006839D02*
X030337Y006839D01*
X030337Y006840D02*
X030491Y006840D01*
X030491Y006841D02*
X030337Y006841D01*
X030337Y006842D02*
X030491Y006842D01*
X030491Y006843D02*
X030337Y006843D01*
X030337Y006844D02*
X030491Y006844D01*
X030491Y006845D02*
X030337Y006845D01*
X030337Y006846D02*
X030491Y006846D01*
X030491Y006847D02*
X030337Y006847D01*
X030337Y006848D02*
X030491Y006848D01*
X030491Y006849D02*
X030337Y006849D01*
X030337Y006850D02*
X030491Y006850D01*
X030491Y006851D02*
X030337Y006851D01*
X030337Y006852D02*
X030491Y006852D01*
X030491Y006853D02*
X030337Y006853D01*
X030337Y006854D02*
X030491Y006854D01*
X030491Y006855D02*
X030337Y006855D01*
X030337Y006856D02*
X030491Y006856D01*
X030491Y006857D02*
X030337Y006857D01*
X030337Y006858D02*
X030491Y006858D01*
X030491Y006859D02*
X030337Y006859D01*
X030337Y006860D02*
X030491Y006860D01*
X030491Y006861D02*
X030337Y006861D01*
X030337Y006862D02*
X030491Y006862D01*
X030491Y006863D02*
X030337Y006863D01*
X030337Y006864D02*
X030491Y006864D01*
X030491Y006865D02*
X030337Y006865D01*
X030337Y006866D02*
X030491Y006866D01*
X030491Y006867D02*
X030337Y006867D01*
X030337Y006868D02*
X030491Y006868D01*
X030491Y006869D02*
X030337Y006869D01*
X030337Y006870D02*
X030491Y006870D01*
X030491Y006871D02*
X030337Y006871D01*
X030337Y006872D02*
X030491Y006872D01*
X030491Y006873D02*
X030337Y006873D01*
X030337Y006874D02*
X030491Y006874D01*
X030491Y006875D02*
X030337Y006875D01*
X030337Y006876D02*
X030491Y006876D01*
X030491Y006877D02*
X030337Y006877D01*
X030337Y006878D02*
X030491Y006878D01*
X030491Y006879D02*
X030337Y006879D01*
X030337Y006880D02*
X030491Y006880D01*
X030491Y006881D02*
X030337Y006881D01*
X030337Y006882D02*
X030491Y006882D01*
X030491Y006883D02*
X030337Y006883D01*
X030337Y006884D02*
X030491Y006884D01*
X030491Y006885D02*
X030337Y006885D01*
X030337Y006886D02*
X030491Y006886D01*
X030491Y006887D02*
X030337Y006887D01*
X030337Y006888D02*
X030491Y006888D01*
X030491Y006889D02*
X030337Y006889D01*
X030337Y006890D02*
X030491Y006890D01*
X030491Y006891D02*
X030337Y006891D01*
X030337Y006892D02*
X030491Y006892D01*
X030491Y006893D02*
X030337Y006893D01*
X030337Y006894D02*
X030491Y006894D01*
X030491Y006895D02*
X030337Y006895D01*
X030337Y006896D02*
X030491Y006896D01*
X030491Y006897D02*
X030337Y006897D01*
X030337Y006898D02*
X030491Y006898D01*
X030491Y006899D02*
X030337Y006899D01*
X030337Y006900D02*
X030491Y006900D01*
X030491Y006901D02*
X030337Y006901D01*
X030337Y006902D02*
X030491Y006902D01*
X030491Y006903D02*
X030337Y006903D01*
X030337Y006904D02*
X030491Y006904D01*
X030491Y006905D02*
X030337Y006905D01*
X030337Y006906D02*
X030491Y006906D01*
X030491Y006907D02*
X030337Y006907D01*
X030337Y006908D02*
X030491Y006908D01*
X030491Y006909D02*
X030337Y006909D01*
X030337Y006910D02*
X030491Y006910D01*
X030491Y006911D02*
X030337Y006911D01*
X030337Y006912D02*
X030491Y006912D01*
X030491Y006913D02*
X030337Y006913D01*
X030337Y006914D02*
X030491Y006914D01*
X030491Y006915D02*
X030337Y006915D01*
X030337Y006916D02*
X030491Y006916D01*
X030491Y006917D02*
X030337Y006917D01*
X030337Y006918D02*
X030491Y006918D01*
X030491Y006919D02*
X030337Y006919D01*
X030337Y006920D02*
X030491Y006920D01*
X030491Y006921D02*
X030337Y006921D01*
X030337Y006922D02*
X030491Y006922D01*
X030491Y006923D02*
X030337Y006923D01*
X030337Y006924D02*
X030491Y006924D01*
X030491Y006925D02*
X030337Y006925D01*
X030337Y006926D02*
X030491Y006926D01*
X030491Y006927D02*
X030337Y006927D01*
X030337Y006928D02*
X030491Y006928D01*
X030491Y006929D02*
X030337Y006929D01*
X030337Y006930D02*
X030491Y006930D01*
X030491Y006931D02*
X030337Y006931D01*
X030337Y006932D02*
X030491Y006932D01*
X030491Y006933D02*
X030337Y006933D01*
X030337Y006934D02*
X030491Y006934D01*
X030491Y006935D02*
X030337Y006935D01*
X030337Y006936D02*
X030491Y006936D01*
X030491Y006937D02*
X030337Y006937D01*
X030337Y006938D02*
X030491Y006938D01*
X030491Y006939D02*
X030337Y006939D01*
X030337Y006940D02*
X030491Y006940D01*
X030491Y006941D02*
X030337Y006941D01*
X030337Y006942D02*
X030491Y006942D01*
X030491Y006943D02*
X030337Y006943D01*
X030337Y006944D02*
X030491Y006944D01*
X030491Y006945D02*
X030337Y006945D01*
X030337Y006946D02*
X030491Y006946D01*
X030491Y006947D02*
X030337Y006947D01*
X030337Y006948D02*
X030491Y006948D01*
X030491Y006949D02*
X030337Y006949D01*
X030337Y006950D02*
X030491Y006950D01*
X030491Y006951D02*
X030337Y006951D01*
X030337Y006952D02*
X030491Y006952D01*
X030491Y006953D02*
X030337Y006953D01*
X030337Y006954D02*
X030491Y006954D01*
X030491Y006955D02*
X030337Y006955D01*
X030337Y006956D02*
X030491Y006956D01*
X030491Y006957D02*
X030337Y006957D01*
X030337Y006958D02*
X030491Y006958D01*
X030491Y006959D02*
X030337Y006959D01*
X030337Y006960D02*
X030491Y006960D01*
X030491Y006961D02*
X030337Y006961D01*
X030337Y006962D02*
X030491Y006962D01*
X030491Y006963D02*
X030337Y006963D01*
X030337Y006964D02*
X030491Y006964D01*
X030491Y006965D02*
X030337Y006965D01*
X030337Y006966D02*
X030491Y006966D01*
X030491Y006967D02*
X030337Y006967D01*
X030337Y006968D02*
X030491Y006968D01*
X030491Y006969D02*
X030337Y006969D01*
X030337Y006970D02*
X030491Y006970D01*
X030491Y006971D02*
X030337Y006971D01*
X030337Y006972D02*
X030491Y006972D01*
X030491Y006973D02*
X030337Y006973D01*
X030337Y006974D02*
X030491Y006974D01*
X030491Y006975D02*
X030337Y006975D01*
X030337Y006976D02*
X030491Y006976D01*
X030491Y006977D02*
X030337Y006977D01*
X030337Y006978D02*
X030491Y006978D01*
X030491Y006979D02*
X030337Y006979D01*
X030337Y006980D02*
X030491Y006980D01*
X030491Y006981D02*
X030337Y006981D01*
X030337Y006982D02*
X030491Y006982D01*
X030491Y006983D02*
X030337Y006983D01*
X030337Y006984D02*
X030491Y006984D01*
X030491Y006985D02*
X030337Y006985D01*
X030337Y006986D02*
X030491Y006986D01*
X030491Y006987D02*
X030337Y006987D01*
X030337Y006988D02*
X030491Y006988D01*
X030491Y006989D02*
X030337Y006989D01*
X030337Y006990D02*
X030491Y006990D01*
X030491Y006991D02*
X030337Y006991D01*
X030337Y006992D02*
X030491Y006992D01*
X030491Y006993D02*
X030337Y006993D01*
X030337Y006994D02*
X030491Y006994D01*
X030491Y006995D02*
X030337Y006995D01*
X030337Y006996D02*
X030491Y006996D01*
X030491Y006997D02*
X030337Y006997D01*
X030337Y006998D02*
X030491Y006998D01*
X030491Y006999D02*
X030337Y006999D01*
X030337Y007000D02*
X030491Y007000D01*
X030491Y007001D02*
X030337Y007001D01*
X030337Y007002D02*
X030491Y007002D01*
X030491Y007003D02*
X030337Y007003D01*
X030337Y007004D02*
X030491Y007004D01*
X030491Y007005D02*
X030337Y007005D01*
X030337Y007006D02*
X030491Y007006D01*
X030491Y007007D02*
X030337Y007007D01*
X030337Y007008D02*
X030491Y007008D01*
X030491Y007009D02*
X030337Y007009D01*
X030337Y007010D02*
X030491Y007010D01*
X030491Y007011D02*
X030337Y007011D01*
X030337Y007012D02*
X030491Y007012D01*
X030491Y007013D02*
X030337Y007013D01*
X030337Y007014D02*
X030491Y007014D01*
X030491Y007015D02*
X030337Y007015D01*
X030337Y007016D02*
X030491Y007016D01*
X030491Y007017D02*
X030337Y007017D01*
X030337Y007018D02*
X030491Y007018D01*
X030491Y007019D02*
X030337Y007019D01*
X030337Y007020D02*
X030491Y007020D01*
X030491Y007021D02*
X030337Y007021D01*
X030337Y007022D02*
X030491Y007022D01*
X030491Y007023D02*
X030337Y007023D01*
X030337Y007024D02*
X030491Y007024D01*
X030491Y007025D02*
X030337Y007025D01*
X030337Y007026D02*
X030491Y007026D01*
X030491Y007027D02*
X030337Y007027D01*
X030337Y007028D02*
X030491Y007028D01*
X030491Y007029D02*
X030337Y007029D01*
X030337Y007030D02*
X030491Y007030D01*
X030491Y007031D02*
X030337Y007031D01*
X030337Y007032D02*
X030491Y007032D01*
X030491Y007033D02*
X030337Y007033D01*
X030337Y007034D02*
X030491Y007034D01*
X030491Y007035D02*
X030337Y007035D01*
X030337Y007036D02*
X030491Y007036D01*
X030491Y007037D02*
X030337Y007037D01*
X030337Y007038D02*
X030491Y007038D01*
X030491Y007039D02*
X030337Y007039D01*
X030337Y007040D02*
X030491Y007040D01*
X030491Y007041D02*
X030337Y007041D01*
X030337Y007042D02*
X030491Y007042D01*
X030491Y007043D02*
X030337Y007043D01*
X030337Y007044D02*
X030491Y007044D01*
X030491Y007045D02*
X030337Y007045D01*
X030337Y007046D02*
X030491Y007046D01*
X030491Y007047D02*
X030337Y007047D01*
X030337Y007048D02*
X030491Y007048D01*
X030491Y007049D02*
X030337Y007049D01*
X030337Y007050D02*
X030491Y007050D01*
X030491Y007051D02*
X030337Y007051D01*
X030337Y007052D02*
X030491Y007052D01*
X030491Y007053D02*
X030337Y007053D01*
X030337Y007054D02*
X030491Y007054D01*
X030491Y007055D02*
X030337Y007055D01*
X030337Y007056D02*
X030491Y007056D01*
X030491Y007057D02*
X030337Y007057D01*
X030337Y007058D02*
X030491Y007058D01*
X030491Y007059D02*
X030337Y007059D01*
X030337Y007060D02*
X030491Y007060D01*
X030491Y007061D02*
X030337Y007061D01*
X030337Y007062D02*
X030491Y007062D01*
X030491Y007063D02*
X030337Y007063D01*
X030337Y007064D02*
X030491Y007064D01*
X030491Y007065D02*
X030337Y007065D01*
X030337Y007066D02*
X030491Y007066D01*
X030491Y007067D02*
X030337Y007067D01*
X030337Y007068D02*
X030491Y007068D01*
X030491Y007069D02*
X030337Y007069D01*
X030337Y007070D02*
X030491Y007070D01*
X030491Y007071D02*
X030337Y007071D01*
X030337Y007072D02*
X030491Y007072D01*
X030491Y007073D02*
X030337Y007073D01*
X030337Y007074D02*
X030491Y007074D01*
X030491Y007075D02*
X030337Y007075D01*
X030337Y007076D02*
X030491Y007076D01*
X030491Y007077D02*
X030337Y007077D01*
X030337Y007078D02*
X030491Y007078D01*
X030491Y007079D02*
X030337Y007079D01*
X030337Y007080D02*
X030491Y007080D01*
X030491Y007081D02*
X030337Y007081D01*
X030337Y007082D02*
X030491Y007082D01*
X030491Y007083D02*
X030337Y007083D01*
X030337Y007084D02*
X030491Y007084D01*
X030491Y007085D02*
X030337Y007085D01*
X030337Y007086D02*
X030491Y007086D01*
X030491Y007087D02*
X030337Y007087D01*
X030337Y007088D02*
X030491Y007088D01*
X030491Y007089D02*
X030337Y007089D01*
X030337Y007090D02*
X030491Y007090D01*
X030491Y007091D02*
X030337Y007091D01*
X030337Y007092D02*
X030491Y007092D01*
D46*
X025670Y016070D03*
X025670Y016819D03*
X024843Y016444D03*
D47*
X028032Y008177D03*
X028740Y008177D03*
G36*
X017496Y021443D02*
X017274Y021221D01*
X016942Y021553D01*
X017164Y021775D01*
X017496Y021443D01*
G37*
G36*
X016995Y020942D02*
X016773Y020720D01*
X016441Y021052D01*
X016663Y021274D01*
X016995Y020942D01*
G37*
D48*
X027244Y023137D03*
X028347Y023137D03*
D49*
X024016Y016444D03*
X024016Y015342D03*
D50*
X020646Y014374D02*
X020378Y014374D01*
X020646Y014374D02*
X020646Y014302D01*
X020378Y014302D01*
X020378Y014374D01*
X020378Y014348D02*
X020646Y014348D01*
X020646Y014177D02*
X020378Y014177D01*
X020646Y014177D02*
X020646Y014105D01*
X020378Y014105D01*
X020378Y014177D01*
X020378Y014151D02*
X020646Y014151D01*
X020646Y013980D02*
X020378Y013980D01*
X020646Y013980D02*
X020646Y013908D01*
X020378Y013908D01*
X020378Y013980D01*
X020378Y013954D02*
X020646Y013954D01*
X020646Y013784D02*
X020378Y013784D01*
X020646Y013784D02*
X020646Y013712D01*
X020378Y013712D01*
X020378Y013784D01*
X020378Y013758D02*
X020646Y013758D01*
X020646Y013587D02*
X020378Y013587D01*
X020646Y013587D02*
X020646Y013515D01*
X020378Y013515D01*
X020378Y013587D01*
X020378Y013561D02*
X020646Y013561D01*
X020646Y013390D02*
X020378Y013390D01*
X020646Y013390D02*
X020646Y013318D01*
X020378Y013318D01*
X020378Y013390D01*
X020378Y013364D02*
X020646Y013364D01*
X020646Y013193D02*
X020378Y013193D01*
X020646Y013193D02*
X020646Y013121D01*
X020378Y013121D01*
X020378Y013193D01*
X020378Y013167D02*
X020646Y013167D01*
X020646Y012996D02*
X020378Y012996D01*
X020646Y012996D02*
X020646Y012924D01*
X020378Y012924D01*
X020378Y012996D01*
X020378Y012970D02*
X020646Y012970D01*
X020646Y012799D02*
X020378Y012799D01*
X020646Y012799D02*
X020646Y012727D01*
X020378Y012727D01*
X020378Y012799D01*
X020378Y012773D02*
X020646Y012773D01*
X020646Y012603D02*
X020378Y012603D01*
X020646Y012603D02*
X020646Y012531D01*
X020378Y012531D01*
X020378Y012603D01*
X020378Y012577D02*
X020646Y012577D01*
X020646Y012406D02*
X020378Y012406D01*
X020646Y012406D02*
X020646Y012334D01*
X020378Y012334D01*
X020378Y012406D01*
X020378Y012380D02*
X020646Y012380D01*
X020646Y012209D02*
X020378Y012209D01*
X020646Y012209D02*
X020646Y012137D01*
X020378Y012137D01*
X020378Y012209D01*
X020378Y012183D02*
X020646Y012183D01*
X020253Y012012D02*
X020253Y011744D01*
X020181Y011744D01*
X020181Y012012D01*
X020253Y012012D01*
X020253Y011790D02*
X020181Y011790D01*
X020181Y011836D02*
X020253Y011836D01*
X020253Y011882D02*
X020181Y011882D01*
X020181Y011928D02*
X020253Y011928D01*
X020253Y011974D02*
X020181Y011974D01*
X020056Y012012D02*
X020056Y011744D01*
X019984Y011744D01*
X019984Y012012D01*
X020056Y012012D01*
X020056Y011790D02*
X019984Y011790D01*
X019984Y011836D02*
X020056Y011836D01*
X020056Y011882D02*
X019984Y011882D01*
X019984Y011928D02*
X020056Y011928D01*
X020056Y011974D02*
X019984Y011974D01*
X019859Y012012D02*
X019859Y011744D01*
X019787Y011744D01*
X019787Y012012D01*
X019859Y012012D01*
X019859Y011790D02*
X019787Y011790D01*
X019787Y011836D02*
X019859Y011836D01*
X019859Y011882D02*
X019787Y011882D01*
X019787Y011928D02*
X019859Y011928D01*
X019859Y011974D02*
X019787Y011974D01*
X019662Y012012D02*
X019662Y011744D01*
X019590Y011744D01*
X019590Y012012D01*
X019662Y012012D01*
X019662Y011790D02*
X019590Y011790D01*
X019590Y011836D02*
X019662Y011836D01*
X019662Y011882D02*
X019590Y011882D01*
X019590Y011928D02*
X019662Y011928D01*
X019662Y011974D02*
X019590Y011974D01*
X019465Y012012D02*
X019465Y011744D01*
X019393Y011744D01*
X019393Y012012D01*
X019465Y012012D01*
X019465Y011790D02*
X019393Y011790D01*
X019393Y011836D02*
X019465Y011836D01*
X019465Y011882D02*
X019393Y011882D01*
X019393Y011928D02*
X019465Y011928D01*
X019465Y011974D02*
X019393Y011974D01*
X019269Y012012D02*
X019269Y011744D01*
X019197Y011744D01*
X019197Y012012D01*
X019269Y012012D01*
X019269Y011790D02*
X019197Y011790D01*
X019197Y011836D02*
X019269Y011836D01*
X019269Y011882D02*
X019197Y011882D01*
X019197Y011928D02*
X019269Y011928D01*
X019269Y011974D02*
X019197Y011974D01*
X019072Y012012D02*
X019072Y011744D01*
X019000Y011744D01*
X019000Y012012D01*
X019072Y012012D01*
X019072Y011790D02*
X019000Y011790D01*
X019000Y011836D02*
X019072Y011836D01*
X019072Y011882D02*
X019000Y011882D01*
X019000Y011928D02*
X019072Y011928D01*
X019072Y011974D02*
X019000Y011974D01*
X018875Y012012D02*
X018875Y011744D01*
X018803Y011744D01*
X018803Y012012D01*
X018875Y012012D01*
X018875Y011790D02*
X018803Y011790D01*
X018803Y011836D02*
X018875Y011836D01*
X018875Y011882D02*
X018803Y011882D01*
X018803Y011928D02*
X018875Y011928D01*
X018875Y011974D02*
X018803Y011974D01*
X018678Y012012D02*
X018678Y011744D01*
X018606Y011744D01*
X018606Y012012D01*
X018678Y012012D01*
X018678Y011790D02*
X018606Y011790D01*
X018606Y011836D02*
X018678Y011836D01*
X018678Y011882D02*
X018606Y011882D01*
X018606Y011928D02*
X018678Y011928D01*
X018678Y011974D02*
X018606Y011974D01*
X018481Y012012D02*
X018481Y011744D01*
X018409Y011744D01*
X018409Y012012D01*
X018481Y012012D01*
X018481Y011790D02*
X018409Y011790D01*
X018409Y011836D02*
X018481Y011836D01*
X018481Y011882D02*
X018409Y011882D01*
X018409Y011928D02*
X018481Y011928D01*
X018481Y011974D02*
X018409Y011974D01*
X018284Y012012D02*
X018284Y011744D01*
X018212Y011744D01*
X018212Y012012D01*
X018284Y012012D01*
X018284Y011790D02*
X018212Y011790D01*
X018212Y011836D02*
X018284Y011836D01*
X018284Y011882D02*
X018212Y011882D01*
X018212Y011928D02*
X018284Y011928D01*
X018284Y011974D02*
X018212Y011974D01*
X018087Y012012D02*
X018087Y011744D01*
X018015Y011744D01*
X018015Y012012D01*
X018087Y012012D01*
X018087Y011790D02*
X018015Y011790D01*
X018015Y011836D02*
X018087Y011836D01*
X018087Y011882D02*
X018015Y011882D01*
X018015Y011928D02*
X018087Y011928D01*
X018087Y011974D02*
X018015Y011974D01*
X017890Y012137D02*
X017622Y012137D01*
X017622Y012209D01*
X017890Y012209D01*
X017890Y012137D01*
X017890Y012183D02*
X017622Y012183D01*
X017622Y012334D02*
X017890Y012334D01*
X017622Y012334D02*
X017622Y012406D01*
X017890Y012406D01*
X017890Y012334D01*
X017890Y012380D02*
X017622Y012380D01*
X017622Y012531D02*
X017890Y012531D01*
X017622Y012531D02*
X017622Y012603D01*
X017890Y012603D01*
X017890Y012531D01*
X017890Y012577D02*
X017622Y012577D01*
X017622Y012727D02*
X017890Y012727D01*
X017622Y012727D02*
X017622Y012799D01*
X017890Y012799D01*
X017890Y012727D01*
X017890Y012773D02*
X017622Y012773D01*
X017622Y012924D02*
X017890Y012924D01*
X017622Y012924D02*
X017622Y012996D01*
X017890Y012996D01*
X017890Y012924D01*
X017890Y012970D02*
X017622Y012970D01*
X017622Y013121D02*
X017890Y013121D01*
X017622Y013121D02*
X017622Y013193D01*
X017890Y013193D01*
X017890Y013121D01*
X017890Y013167D02*
X017622Y013167D01*
X017622Y013318D02*
X017890Y013318D01*
X017622Y013318D02*
X017622Y013390D01*
X017890Y013390D01*
X017890Y013318D01*
X017890Y013364D02*
X017622Y013364D01*
X017622Y013515D02*
X017890Y013515D01*
X017622Y013515D02*
X017622Y013587D01*
X017890Y013587D01*
X017890Y013515D01*
X017890Y013561D02*
X017622Y013561D01*
X017622Y013712D02*
X017890Y013712D01*
X017622Y013712D02*
X017622Y013784D01*
X017890Y013784D01*
X017890Y013712D01*
X017890Y013758D02*
X017622Y013758D01*
X017622Y013908D02*
X017890Y013908D01*
X017622Y013908D02*
X017622Y013980D01*
X017890Y013980D01*
X017890Y013908D01*
X017890Y013954D02*
X017622Y013954D01*
X017622Y014105D02*
X017890Y014105D01*
X017622Y014105D02*
X017622Y014177D01*
X017890Y014177D01*
X017890Y014105D01*
X017890Y014151D02*
X017622Y014151D01*
X017622Y014302D02*
X017890Y014302D01*
X017622Y014302D02*
X017622Y014374D01*
X017890Y014374D01*
X017890Y014302D01*
X017890Y014348D02*
X017622Y014348D01*
X018015Y014499D02*
X018015Y014767D01*
X018087Y014767D01*
X018087Y014499D01*
X018015Y014499D01*
X018015Y014545D02*
X018087Y014545D01*
X018087Y014591D02*
X018015Y014591D01*
X018015Y014637D02*
X018087Y014637D01*
X018087Y014683D02*
X018015Y014683D01*
X018015Y014729D02*
X018087Y014729D01*
X018212Y014767D02*
X018212Y014499D01*
X018212Y014767D02*
X018284Y014767D01*
X018284Y014499D01*
X018212Y014499D01*
X018212Y014545D02*
X018284Y014545D01*
X018284Y014591D02*
X018212Y014591D01*
X018212Y014637D02*
X018284Y014637D01*
X018284Y014683D02*
X018212Y014683D01*
X018212Y014729D02*
X018284Y014729D01*
X018409Y014767D02*
X018409Y014499D01*
X018409Y014767D02*
X018481Y014767D01*
X018481Y014499D01*
X018409Y014499D01*
X018409Y014545D02*
X018481Y014545D01*
X018481Y014591D02*
X018409Y014591D01*
X018409Y014637D02*
X018481Y014637D01*
X018481Y014683D02*
X018409Y014683D01*
X018409Y014729D02*
X018481Y014729D01*
X018606Y014767D02*
X018606Y014499D01*
X018606Y014767D02*
X018678Y014767D01*
X018678Y014499D01*
X018606Y014499D01*
X018606Y014545D02*
X018678Y014545D01*
X018678Y014591D02*
X018606Y014591D01*
X018606Y014637D02*
X018678Y014637D01*
X018678Y014683D02*
X018606Y014683D01*
X018606Y014729D02*
X018678Y014729D01*
X018803Y014767D02*
X018803Y014499D01*
X018803Y014767D02*
X018875Y014767D01*
X018875Y014499D01*
X018803Y014499D01*
X018803Y014545D02*
X018875Y014545D01*
X018875Y014591D02*
X018803Y014591D01*
X018803Y014637D02*
X018875Y014637D01*
X018875Y014683D02*
X018803Y014683D01*
X018803Y014729D02*
X018875Y014729D01*
X019000Y014767D02*
X019000Y014499D01*
X019000Y014767D02*
X019072Y014767D01*
X019072Y014499D01*
X019000Y014499D01*
X019000Y014545D02*
X019072Y014545D01*
X019072Y014591D02*
X019000Y014591D01*
X019000Y014637D02*
X019072Y014637D01*
X019072Y014683D02*
X019000Y014683D01*
X019000Y014729D02*
X019072Y014729D01*
X019197Y014767D02*
X019197Y014499D01*
X019197Y014767D02*
X019269Y014767D01*
X019269Y014499D01*
X019197Y014499D01*
X019197Y014545D02*
X019269Y014545D01*
X019269Y014591D02*
X019197Y014591D01*
X019197Y014637D02*
X019269Y014637D01*
X019269Y014683D02*
X019197Y014683D01*
X019197Y014729D02*
X019269Y014729D01*
X019393Y014767D02*
X019393Y014499D01*
X019393Y014767D02*
X019465Y014767D01*
X019465Y014499D01*
X019393Y014499D01*
X019393Y014545D02*
X019465Y014545D01*
X019465Y014591D02*
X019393Y014591D01*
X019393Y014637D02*
X019465Y014637D01*
X019465Y014683D02*
X019393Y014683D01*
X019393Y014729D02*
X019465Y014729D01*
X019590Y014767D02*
X019590Y014499D01*
X019590Y014767D02*
X019662Y014767D01*
X019662Y014499D01*
X019590Y014499D01*
X019590Y014545D02*
X019662Y014545D01*
X019662Y014591D02*
X019590Y014591D01*
X019590Y014637D02*
X019662Y014637D01*
X019662Y014683D02*
X019590Y014683D01*
X019590Y014729D02*
X019662Y014729D01*
X019787Y014767D02*
X019787Y014499D01*
X019787Y014767D02*
X019859Y014767D01*
X019859Y014499D01*
X019787Y014499D01*
X019787Y014545D02*
X019859Y014545D01*
X019859Y014591D02*
X019787Y014591D01*
X019787Y014637D02*
X019859Y014637D01*
X019859Y014683D02*
X019787Y014683D01*
X019787Y014729D02*
X019859Y014729D01*
X019984Y014767D02*
X019984Y014499D01*
X019984Y014767D02*
X020056Y014767D01*
X020056Y014499D01*
X019984Y014499D01*
X019984Y014545D02*
X020056Y014545D01*
X020056Y014591D02*
X019984Y014591D01*
X019984Y014637D02*
X020056Y014637D01*
X020056Y014683D02*
X019984Y014683D01*
X019984Y014729D02*
X020056Y014729D01*
X020181Y014767D02*
X020181Y014499D01*
X020181Y014767D02*
X020253Y014767D01*
X020253Y014499D01*
X020181Y014499D01*
X020181Y014545D02*
X020253Y014545D01*
X020253Y014591D02*
X020181Y014591D01*
X020181Y014637D02*
X020253Y014637D01*
X020253Y014683D02*
X020181Y014683D01*
X020181Y014729D02*
X020253Y014729D01*
D51*
X019429Y013575D02*
X019454Y013551D01*
X019473Y013521D01*
X019485Y013487D01*
X019488Y013452D01*
X018780Y013452D01*
X018784Y013487D01*
X018795Y013521D01*
X018814Y013551D01*
X018839Y013575D01*
X018869Y013594D01*
X018902Y013606D01*
X018937Y013610D01*
X019331Y013610D01*
X019366Y013606D01*
X019399Y013594D01*
X019429Y013575D01*
X019428Y013576D02*
X018840Y013576D01*
X018837Y013574D02*
X019431Y013574D01*
X019433Y013571D02*
X018835Y013571D01*
X018832Y013569D02*
X019436Y013569D01*
X019438Y013566D02*
X018830Y013566D01*
X018828Y013564D02*
X019441Y013564D01*
X019443Y013561D02*
X018825Y013561D01*
X018823Y013559D02*
X019446Y013559D01*
X019448Y013557D02*
X018820Y013557D01*
X018818Y013554D02*
X019450Y013554D01*
X019453Y013552D02*
X018815Y013552D01*
X018813Y013549D02*
X019455Y013549D01*
X019456Y013547D02*
X018812Y013547D01*
X018810Y013544D02*
X019458Y013544D01*
X019459Y013542D02*
X018809Y013542D01*
X018807Y013540D02*
X019461Y013540D01*
X019463Y013537D02*
X018806Y013537D01*
X018804Y013535D02*
X019464Y013535D01*
X019466Y013532D02*
X018803Y013532D01*
X018801Y013530D02*
X019467Y013530D01*
X019469Y013527D02*
X018800Y013527D01*
X018798Y013525D02*
X019470Y013525D01*
X019472Y013522D02*
X018797Y013522D01*
X018795Y013520D02*
X019473Y013520D01*
X019474Y013518D02*
X018794Y013518D01*
X018793Y013515D02*
X019475Y013515D01*
X019476Y013513D02*
X018793Y013513D01*
X018792Y013510D02*
X019476Y013510D01*
X019477Y013508D02*
X018791Y013508D01*
X018790Y013505D02*
X019478Y013505D01*
X019479Y013503D02*
X018789Y013503D01*
X018788Y013501D02*
X019480Y013501D01*
X019481Y013498D02*
X018787Y013498D01*
X018787Y013496D02*
X019482Y013496D01*
X019482Y013493D02*
X018786Y013493D01*
X018785Y013491D02*
X019483Y013491D01*
X019484Y013488D02*
X018784Y013488D01*
X018784Y013486D02*
X019485Y013486D01*
X019485Y013483D02*
X018783Y013483D01*
X018783Y013481D02*
X019485Y013481D01*
X019485Y013479D02*
X018783Y013479D01*
X018782Y013476D02*
X019486Y013476D01*
X019486Y013474D02*
X018782Y013474D01*
X018782Y013471D02*
X019486Y013471D01*
X019487Y013469D02*
X018782Y013469D01*
X018781Y013466D02*
X019487Y013466D01*
X019487Y013464D02*
X018781Y013464D01*
X018781Y013462D02*
X019487Y013462D01*
X019488Y013459D02*
X018781Y013459D01*
X018780Y013457D02*
X019488Y013457D01*
X019488Y013454D02*
X018780Y013454D01*
X018780Y013452D02*
X018780Y013059D01*
X018784Y013024D01*
X018795Y012990D01*
X018814Y012960D01*
X018839Y012936D01*
X018869Y012917D01*
X018902Y012905D01*
X018937Y012901D01*
X019331Y012901D01*
X019366Y012905D01*
X019399Y012917D01*
X019429Y012936D01*
X019454Y012960D01*
X019473Y012990D01*
X019485Y013024D01*
X019488Y013059D01*
X019488Y013452D01*
X019488Y013449D02*
X018780Y013449D01*
X018780Y013447D02*
X019488Y013447D01*
X019488Y013444D02*
X018780Y013444D01*
X018780Y013442D02*
X019488Y013442D01*
X019488Y013440D02*
X018780Y013440D01*
X018780Y013437D02*
X019488Y013437D01*
X019488Y013435D02*
X018780Y013435D01*
X018780Y013432D02*
X019488Y013432D01*
X019488Y013430D02*
X018780Y013430D01*
X018780Y013427D02*
X019488Y013427D01*
X019488Y013425D02*
X018780Y013425D01*
X018780Y013423D02*
X019488Y013423D01*
X019488Y013420D02*
X018780Y013420D01*
X018780Y013418D02*
X019488Y013418D01*
X019488Y013415D02*
X018780Y013415D01*
X018780Y013413D02*
X019488Y013413D01*
X019488Y013410D02*
X018780Y013410D01*
X018780Y013408D02*
X019488Y013408D01*
X019488Y013406D02*
X018780Y013406D01*
X018780Y013403D02*
X019488Y013403D01*
X019488Y013401D02*
X018780Y013401D01*
X018780Y013398D02*
X019488Y013398D01*
X019488Y013396D02*
X018780Y013396D01*
X018780Y013393D02*
X019488Y013393D01*
X019488Y013391D02*
X018780Y013391D01*
X018780Y013388D02*
X019488Y013388D01*
X019488Y013386D02*
X018780Y013386D01*
X018780Y013384D02*
X019488Y013384D01*
X019488Y013381D02*
X018780Y013381D01*
X018780Y013379D02*
X019488Y013379D01*
X019488Y013376D02*
X018780Y013376D01*
X018780Y013374D02*
X019488Y013374D01*
X019488Y013371D02*
X018780Y013371D01*
X018780Y013369D02*
X019488Y013369D01*
X019488Y013367D02*
X018780Y013367D01*
X018780Y013364D02*
X019488Y013364D01*
X019488Y013362D02*
X018780Y013362D01*
X018780Y013359D02*
X019488Y013359D01*
X019488Y013357D02*
X018780Y013357D01*
X018780Y013354D02*
X019488Y013354D01*
X019488Y013352D02*
X018780Y013352D01*
X018780Y013349D02*
X019488Y013349D01*
X019488Y013347D02*
X018780Y013347D01*
X018780Y013345D02*
X019488Y013345D01*
X019488Y013342D02*
X018780Y013342D01*
X018780Y013340D02*
X019488Y013340D01*
X019488Y013337D02*
X018780Y013337D01*
X018780Y013335D02*
X019488Y013335D01*
X019488Y013332D02*
X018780Y013332D01*
X018780Y013330D02*
X019488Y013330D01*
X019488Y013328D02*
X018780Y013328D01*
X018780Y013325D02*
X019488Y013325D01*
X019488Y013323D02*
X018780Y013323D01*
X018780Y013320D02*
X019488Y013320D01*
X019488Y013318D02*
X018780Y013318D01*
X018780Y013315D02*
X019488Y013315D01*
X019488Y013313D02*
X018780Y013313D01*
X018780Y013310D02*
X019488Y013310D01*
X019488Y013308D02*
X018780Y013308D01*
X018780Y013306D02*
X019488Y013306D01*
X019488Y013303D02*
X018780Y013303D01*
X018780Y013301D02*
X019488Y013301D01*
X019488Y013298D02*
X018780Y013298D01*
X018780Y013296D02*
X019488Y013296D01*
X019488Y013293D02*
X018780Y013293D01*
X018780Y013291D02*
X019488Y013291D01*
X019488Y013289D02*
X018780Y013289D01*
X018780Y013286D02*
X019488Y013286D01*
X019488Y013284D02*
X018780Y013284D01*
X018780Y013281D02*
X019488Y013281D01*
X019488Y013279D02*
X018780Y013279D01*
X018780Y013276D02*
X019488Y013276D01*
X019488Y013274D02*
X018780Y013274D01*
X018780Y013271D02*
X019488Y013271D01*
X019488Y013269D02*
X018780Y013269D01*
X018780Y013267D02*
X019488Y013267D01*
X019488Y013264D02*
X018780Y013264D01*
X018780Y013262D02*
X019488Y013262D01*
X019488Y013259D02*
X018780Y013259D01*
X018780Y013257D02*
X019488Y013257D01*
X019488Y013254D02*
X018780Y013254D01*
X018780Y013252D02*
X019488Y013252D01*
X019488Y013250D02*
X018780Y013250D01*
X018780Y013247D02*
X019488Y013247D01*
X019488Y013245D02*
X018780Y013245D01*
X018780Y013242D02*
X019488Y013242D01*
X019488Y013240D02*
X018780Y013240D01*
X018780Y013237D02*
X019488Y013237D01*
X019488Y013235D02*
X018780Y013235D01*
X018780Y013232D02*
X019488Y013232D01*
X019488Y013230D02*
X018780Y013230D01*
X018780Y013228D02*
X019488Y013228D01*
X019488Y013225D02*
X018780Y013225D01*
X018780Y013223D02*
X019488Y013223D01*
X019488Y013220D02*
X018780Y013220D01*
X018780Y013218D02*
X019488Y013218D01*
X019488Y013215D02*
X018780Y013215D01*
X018780Y013213D02*
X019488Y013213D01*
X019488Y013211D02*
X018780Y013211D01*
X018780Y013208D02*
X019488Y013208D01*
X019488Y013206D02*
X018780Y013206D01*
X018780Y013203D02*
X019488Y013203D01*
X019488Y013201D02*
X018780Y013201D01*
X018780Y013198D02*
X019488Y013198D01*
X019488Y013196D02*
X018780Y013196D01*
X018780Y013193D02*
X019488Y013193D01*
X019488Y013191D02*
X018780Y013191D01*
X018780Y013189D02*
X019488Y013189D01*
X019488Y013186D02*
X018780Y013186D01*
X018780Y013184D02*
X019488Y013184D01*
X019488Y013181D02*
X018780Y013181D01*
X018780Y013179D02*
X019488Y013179D01*
X019488Y013176D02*
X018780Y013176D01*
X018780Y013174D02*
X019488Y013174D01*
X019488Y013172D02*
X018780Y013172D01*
X018780Y013169D02*
X019488Y013169D01*
X019488Y013167D02*
X018780Y013167D01*
X018780Y013164D02*
X019488Y013164D01*
X019488Y013162D02*
X018780Y013162D01*
X018780Y013159D02*
X019488Y013159D01*
X019488Y013157D02*
X018780Y013157D01*
X018780Y013154D02*
X019488Y013154D01*
X019488Y013152D02*
X018780Y013152D01*
X018780Y013150D02*
X019488Y013150D01*
X019488Y013147D02*
X018780Y013147D01*
X018780Y013145D02*
X019488Y013145D01*
X019488Y013142D02*
X018780Y013142D01*
X018780Y013140D02*
X019488Y013140D01*
X019488Y013137D02*
X018780Y013137D01*
X018780Y013135D02*
X019488Y013135D01*
X019488Y013133D02*
X018780Y013133D01*
X018780Y013130D02*
X019488Y013130D01*
X019488Y013128D02*
X018780Y013128D01*
X018780Y013125D02*
X019488Y013125D01*
X019488Y013123D02*
X018780Y013123D01*
X018780Y013120D02*
X019488Y013120D01*
X019488Y013118D02*
X018780Y013118D01*
X018780Y013115D02*
X019488Y013115D01*
X019488Y013113D02*
X018780Y013113D01*
X018780Y013111D02*
X019488Y013111D01*
X019488Y013108D02*
X018780Y013108D01*
X018780Y013106D02*
X019488Y013106D01*
X019488Y013103D02*
X018780Y013103D01*
X018780Y013101D02*
X019488Y013101D01*
X019488Y013098D02*
X018780Y013098D01*
X018780Y013096D02*
X019488Y013096D01*
X019488Y013094D02*
X018780Y013094D01*
X018780Y013091D02*
X019488Y013091D01*
X019488Y013089D02*
X018780Y013089D01*
X018780Y013086D02*
X019488Y013086D01*
X019488Y013084D02*
X018780Y013084D01*
X018780Y013081D02*
X019488Y013081D01*
X019488Y013079D02*
X018780Y013079D01*
X018780Y013076D02*
X019488Y013076D01*
X019488Y013074D02*
X018780Y013074D01*
X018780Y013072D02*
X019488Y013072D01*
X019488Y013069D02*
X018780Y013069D01*
X018780Y013067D02*
X019488Y013067D01*
X019488Y013064D02*
X018780Y013064D01*
X018780Y013062D02*
X019488Y013062D01*
X019488Y013059D02*
X018780Y013059D01*
X018780Y013057D02*
X019488Y013057D01*
X019488Y013055D02*
X018780Y013055D01*
X018781Y013052D02*
X019488Y013052D01*
X019487Y013050D02*
X018781Y013050D01*
X018781Y013047D02*
X019487Y013047D01*
X019487Y013045D02*
X018781Y013045D01*
X018782Y013042D02*
X019487Y013042D01*
X019486Y013040D02*
X018782Y013040D01*
X018782Y013037D02*
X019486Y013037D01*
X019486Y013035D02*
X018782Y013035D01*
X018783Y013033D02*
X019486Y013033D01*
X019485Y013030D02*
X018783Y013030D01*
X018783Y013028D02*
X019485Y013028D01*
X019485Y013025D02*
X018784Y013025D01*
X018784Y013023D02*
X019484Y013023D01*
X019483Y013020D02*
X018785Y013020D01*
X018786Y013018D02*
X019483Y013018D01*
X019482Y013016D02*
X018787Y013016D01*
X018787Y013013D02*
X019481Y013013D01*
X019480Y013011D02*
X018788Y013011D01*
X018789Y013008D02*
X019479Y013008D01*
X019478Y013006D02*
X018790Y013006D01*
X018791Y013003D02*
X019477Y013003D01*
X019477Y013001D02*
X018792Y013001D01*
X018793Y012998D02*
X019476Y012998D01*
X019475Y012996D02*
X018793Y012996D01*
X018794Y012994D02*
X019474Y012994D01*
X019473Y012991D02*
X018795Y012991D01*
X018796Y012989D02*
X019472Y012989D01*
X019470Y012986D02*
X018798Y012986D01*
X018799Y012984D02*
X019469Y012984D01*
X019467Y012981D02*
X018801Y012981D01*
X018803Y012979D02*
X019466Y012979D01*
X019464Y012977D02*
X018804Y012977D01*
X018806Y012974D02*
X019463Y012974D01*
X019461Y012972D02*
X018807Y012972D01*
X018809Y012969D02*
X019460Y012969D01*
X019458Y012967D02*
X018810Y012967D01*
X018812Y012964D02*
X019457Y012964D01*
X019455Y012962D02*
X018813Y012962D01*
X018815Y012959D02*
X019453Y012959D01*
X019451Y012957D02*
X018818Y012957D01*
X018820Y012955D02*
X019448Y012955D01*
X019446Y012952D02*
X018822Y012952D01*
X018825Y012950D02*
X019443Y012950D01*
X019441Y012947D02*
X018827Y012947D01*
X018830Y012945D02*
X019438Y012945D01*
X019436Y012942D02*
X018832Y012942D01*
X018835Y012940D02*
X019434Y012940D01*
X019431Y012938D02*
X018837Y012938D01*
X018840Y012935D02*
X019428Y012935D01*
X019425Y012933D02*
X018844Y012933D01*
X018848Y012930D02*
X019421Y012930D01*
X019417Y012928D02*
X018851Y012928D01*
X018855Y012925D02*
X019413Y012925D01*
X019409Y012923D02*
X018859Y012923D01*
X018863Y012920D02*
X019405Y012920D01*
X019401Y012918D02*
X018867Y012918D01*
X018872Y012916D02*
X019396Y012916D01*
X019389Y012913D02*
X018879Y012913D01*
X018886Y012911D02*
X019382Y012911D01*
X019375Y012908D02*
X018893Y012908D01*
X018900Y012906D02*
X019368Y012906D01*
X019351Y012903D02*
X018917Y012903D01*
X018844Y013579D02*
X019424Y013579D01*
X019420Y013581D02*
X018848Y013581D01*
X018852Y013583D02*
X019417Y013583D01*
X019413Y013586D02*
X018856Y013586D01*
X018859Y013588D02*
X019409Y013588D01*
X019405Y013591D02*
X018863Y013591D01*
X018867Y013593D02*
X019401Y013593D01*
X019395Y013596D02*
X018873Y013596D01*
X018880Y013598D02*
X019388Y013598D01*
X019381Y013600D02*
X018887Y013600D01*
X018894Y013603D02*
X019375Y013603D01*
X019368Y013605D02*
X018901Y013605D01*
X018919Y013608D02*
X019349Y013608D01*
X019624Y022506D02*
X019581Y022516D01*
X019541Y022535D01*
X019507Y022562D01*
X019785Y022562D01*
X019751Y022535D01*
X019711Y022516D01*
X019668Y022506D01*
X019624Y022506D01*
X019623Y022506D02*
X019669Y022506D01*
X019680Y022509D02*
X019612Y022509D01*
X019601Y022511D02*
X019691Y022511D01*
X019701Y022514D02*
X019591Y022514D01*
X019580Y022516D02*
X019711Y022516D01*
X019716Y022518D02*
X019575Y022518D01*
X019570Y022521D02*
X019722Y022521D01*
X019727Y022523D02*
X019565Y022523D01*
X019560Y022526D02*
X019732Y022526D01*
X019737Y022528D02*
X019555Y022528D01*
X019550Y022531D02*
X019742Y022531D01*
X019747Y022533D02*
X019545Y022533D01*
X019540Y022535D02*
X019751Y022535D01*
X019754Y022538D02*
X019537Y022538D01*
X019534Y022540D02*
X019758Y022540D01*
X019761Y022543D02*
X019531Y022543D01*
X019528Y022545D02*
X019764Y022545D01*
X019767Y022548D02*
X019525Y022548D01*
X019522Y022550D02*
X019770Y022550D01*
X019773Y022553D02*
X019519Y022553D01*
X019516Y022555D02*
X019776Y022555D01*
X019779Y022557D02*
X019513Y022557D01*
X019510Y022560D02*
X019782Y022560D01*
X019785Y022562D02*
X020064Y022841D01*
X020091Y022875D01*
X020110Y022915D01*
X020120Y022958D01*
X020120Y023002D01*
X020110Y023045D01*
X020091Y023085D01*
X020064Y023119D01*
X019785Y023398D01*
X019751Y023425D01*
X019711Y023444D01*
X019668Y023454D01*
X019624Y023454D01*
X019581Y023444D01*
X019541Y023425D01*
X019507Y023398D01*
X019228Y023119D01*
X019201Y023085D01*
X019182Y023045D01*
X019172Y023002D01*
X019172Y022958D01*
X019182Y022915D01*
X019201Y022875D01*
X019228Y022841D01*
X019507Y022562D01*
X019504Y022565D02*
X019787Y022565D01*
X019790Y022567D02*
X019502Y022567D01*
X019499Y022570D02*
X019792Y022570D01*
X019795Y022572D02*
X019497Y022572D01*
X019495Y022574D02*
X019797Y022574D01*
X019800Y022577D02*
X019492Y022577D01*
X019490Y022579D02*
X019802Y022579D01*
X019805Y022582D02*
X019487Y022582D01*
X019485Y022584D02*
X019807Y022584D01*
X019809Y022587D02*
X019482Y022587D01*
X019480Y022589D02*
X019812Y022589D01*
X019814Y022592D02*
X019478Y022592D01*
X019475Y022594D02*
X019817Y022594D01*
X019819Y022596D02*
X019473Y022596D01*
X019470Y022599D02*
X019822Y022599D01*
X019824Y022601D02*
X019468Y022601D01*
X019465Y022604D02*
X019826Y022604D01*
X019829Y022606D02*
X019463Y022606D01*
X019460Y022609D02*
X019831Y022609D01*
X019834Y022611D02*
X019458Y022611D01*
X019456Y022613D02*
X019836Y022613D01*
X019839Y022616D02*
X019453Y022616D01*
X019451Y022618D02*
X019841Y022618D01*
X019844Y022621D02*
X019448Y022621D01*
X019446Y022623D02*
X019846Y022623D01*
X019848Y022626D02*
X019443Y022626D01*
X019441Y022628D02*
X019851Y022628D01*
X019853Y022631D02*
X019439Y022631D01*
X019436Y022633D02*
X019856Y022633D01*
X019858Y022635D02*
X019434Y022635D01*
X019431Y022638D02*
X019861Y022638D01*
X019863Y022640D02*
X019429Y022640D01*
X019426Y022643D02*
X019865Y022643D01*
X019868Y022645D02*
X019424Y022645D01*
X019422Y022648D02*
X019870Y022648D01*
X019873Y022650D02*
X019419Y022650D01*
X019417Y022652D02*
X019875Y022652D01*
X019878Y022655D02*
X019414Y022655D01*
X019412Y022657D02*
X019880Y022657D01*
X019883Y022660D02*
X019409Y022660D01*
X019407Y022662D02*
X019885Y022662D01*
X019887Y022665D02*
X019404Y022665D01*
X019402Y022667D02*
X019890Y022667D01*
X019892Y022670D02*
X019400Y022670D01*
X019397Y022672D02*
X019895Y022672D01*
X019897Y022674D02*
X019395Y022674D01*
X019392Y022677D02*
X019900Y022677D01*
X019902Y022679D02*
X019390Y022679D01*
X019387Y022682D02*
X019904Y022682D01*
X019907Y022684D02*
X019385Y022684D01*
X019383Y022687D02*
X019909Y022687D01*
X019912Y022689D02*
X019380Y022689D01*
X019378Y022691D02*
X019914Y022691D01*
X019917Y022694D02*
X019375Y022694D01*
X019373Y022696D02*
X019919Y022696D01*
X019922Y022699D02*
X019370Y022699D01*
X019368Y022701D02*
X019924Y022701D01*
X019926Y022704D02*
X019365Y022704D01*
X019363Y022706D02*
X019929Y022706D01*
X019931Y022709D02*
X019361Y022709D01*
X019358Y022711D02*
X019934Y022711D01*
X019936Y022713D02*
X019356Y022713D01*
X019353Y022716D02*
X019939Y022716D01*
X019941Y022718D02*
X019351Y022718D01*
X019348Y022721D02*
X019943Y022721D01*
X019946Y022723D02*
X019346Y022723D01*
X019344Y022726D02*
X019948Y022726D01*
X019951Y022728D02*
X019341Y022728D01*
X019339Y022730D02*
X019953Y022730D01*
X019956Y022733D02*
X019336Y022733D01*
X019334Y022735D02*
X019958Y022735D01*
X019961Y022738D02*
X019331Y022738D01*
X019329Y022740D02*
X019963Y022740D01*
X019965Y022743D02*
X019326Y022743D01*
X019324Y022745D02*
X019968Y022745D01*
X019970Y022747D02*
X019322Y022747D01*
X019319Y022750D02*
X019973Y022750D01*
X019975Y022752D02*
X019317Y022752D01*
X019314Y022755D02*
X019978Y022755D01*
X019980Y022757D02*
X019312Y022757D01*
X019309Y022760D02*
X019982Y022760D01*
X019985Y022762D02*
X019307Y022762D01*
X019305Y022765D02*
X019987Y022765D01*
X019990Y022767D02*
X019302Y022767D01*
X019300Y022769D02*
X019992Y022769D01*
X019995Y022772D02*
X019297Y022772D01*
X019295Y022774D02*
X019997Y022774D01*
X020000Y022777D02*
X019292Y022777D01*
X019290Y022779D02*
X020002Y022779D01*
X020004Y022782D02*
X019287Y022782D01*
X019285Y022784D02*
X020007Y022784D01*
X020009Y022786D02*
X019283Y022786D01*
X019280Y022789D02*
X020012Y022789D01*
X020014Y022791D02*
X019278Y022791D01*
X019275Y022794D02*
X020017Y022794D01*
X020019Y022796D02*
X019273Y022796D01*
X019270Y022799D02*
X020021Y022799D01*
X020024Y022801D02*
X019268Y022801D01*
X019266Y022804D02*
X020026Y022804D01*
X020029Y022806D02*
X019263Y022806D01*
X019261Y022808D02*
X020031Y022808D01*
X020034Y022811D02*
X019258Y022811D01*
X019256Y022813D02*
X020036Y022813D01*
X020039Y022816D02*
X019253Y022816D01*
X019251Y022818D02*
X020041Y022818D01*
X020043Y022821D02*
X019248Y022821D01*
X019246Y022823D02*
X020046Y022823D01*
X020048Y022825D02*
X019244Y022825D01*
X019241Y022828D02*
X020051Y022828D01*
X020053Y022830D02*
X019239Y022830D01*
X019236Y022833D02*
X020056Y022833D01*
X020058Y022835D02*
X019234Y022835D01*
X019231Y022838D02*
X020060Y022838D01*
X020063Y022840D02*
X019229Y022840D01*
X019227Y022843D02*
X020065Y022843D01*
X020067Y022845D02*
X019225Y022845D01*
X019223Y022847D02*
X020069Y022847D01*
X020071Y022850D02*
X019221Y022850D01*
X019219Y022852D02*
X020073Y022852D01*
X020075Y022855D02*
X019217Y022855D01*
X019215Y022857D02*
X020077Y022857D01*
X020079Y022860D02*
X019213Y022860D01*
X019211Y022862D02*
X020081Y022862D01*
X020082Y022864D02*
X019209Y022864D01*
X019207Y022867D02*
X020084Y022867D01*
X020086Y022869D02*
X019206Y022869D01*
X019204Y022872D02*
X020088Y022872D01*
X020090Y022874D02*
X019202Y022874D01*
X019200Y022877D02*
X020092Y022877D01*
X020093Y022879D02*
X019199Y022879D01*
X019198Y022882D02*
X020094Y022882D01*
X020095Y022884D02*
X019197Y022884D01*
X019195Y022886D02*
X020096Y022886D01*
X020098Y022889D02*
X019194Y022889D01*
X019193Y022891D02*
X020099Y022891D01*
X020100Y022894D02*
X019192Y022894D01*
X019191Y022896D02*
X020101Y022896D01*
X020102Y022899D02*
X019190Y022899D01*
X019188Y022901D02*
X020103Y022901D01*
X020105Y022903D02*
X019187Y022903D01*
X019186Y022906D02*
X020106Y022906D01*
X020107Y022908D02*
X019185Y022908D01*
X019184Y022911D02*
X020108Y022911D01*
X020109Y022913D02*
X019183Y022913D01*
X019182Y022916D02*
X020110Y022916D01*
X020111Y022918D02*
X019181Y022918D01*
X019180Y022921D02*
X020111Y022921D01*
X020112Y022923D02*
X019180Y022923D01*
X019179Y022925D02*
X020113Y022925D01*
X020113Y022928D02*
X019179Y022928D01*
X019178Y022930D02*
X020114Y022930D01*
X020114Y022933D02*
X019178Y022933D01*
X019177Y022935D02*
X020115Y022935D01*
X020115Y022938D02*
X019177Y022938D01*
X019176Y022940D02*
X020116Y022940D01*
X020116Y022942D02*
X019175Y022942D01*
X019175Y022945D02*
X020117Y022945D01*
X020118Y022947D02*
X019174Y022947D01*
X019174Y022950D02*
X020118Y022950D01*
X020119Y022952D02*
X019173Y022952D01*
X019173Y022955D02*
X020119Y022955D01*
X020120Y022957D02*
X019172Y022957D01*
X019172Y022960D02*
X020120Y022960D01*
X020120Y022962D02*
X019172Y022962D01*
X019172Y022964D02*
X020120Y022964D01*
X020120Y022967D02*
X019172Y022967D01*
X019172Y022969D02*
X020120Y022969D01*
X020120Y022972D02*
X019172Y022972D01*
X019172Y022974D02*
X020120Y022974D01*
X020120Y022977D02*
X019172Y022977D01*
X019172Y022979D02*
X020120Y022979D01*
X020120Y022981D02*
X019172Y022981D01*
X019172Y022984D02*
X020120Y022984D01*
X020120Y022986D02*
X019172Y022986D01*
X019172Y022989D02*
X020120Y022989D01*
X020120Y022991D02*
X019172Y022991D01*
X019172Y022994D02*
X020120Y022994D01*
X020120Y022996D02*
X019172Y022996D01*
X019172Y022999D02*
X020120Y022999D01*
X020120Y023001D02*
X019172Y023001D01*
X019172Y023003D02*
X020120Y023003D01*
X020119Y023006D02*
X019173Y023006D01*
X019173Y023008D02*
X020118Y023008D01*
X020118Y023011D02*
X019174Y023011D01*
X019174Y023013D02*
X020117Y023013D01*
X020117Y023016D02*
X019175Y023016D01*
X019176Y023018D02*
X020116Y023018D01*
X020116Y023020D02*
X019176Y023020D01*
X019177Y023023D02*
X020115Y023023D01*
X020115Y023025D02*
X019177Y023025D01*
X019178Y023028D02*
X020114Y023028D01*
X020113Y023030D02*
X019178Y023030D01*
X019179Y023033D02*
X020113Y023033D01*
X020112Y023035D02*
X019179Y023035D01*
X019180Y023038D02*
X020112Y023038D01*
X020111Y023040D02*
X019181Y023040D01*
X019181Y023042D02*
X020111Y023042D01*
X020110Y023045D02*
X019182Y023045D01*
X019183Y023047D02*
X020109Y023047D01*
X020108Y023050D02*
X019184Y023050D01*
X019185Y023052D02*
X020107Y023052D01*
X020105Y023055D02*
X019186Y023055D01*
X019188Y023057D02*
X020104Y023057D01*
X020103Y023059D02*
X019189Y023059D01*
X019190Y023062D02*
X020102Y023062D01*
X020101Y023064D02*
X019191Y023064D01*
X019192Y023067D02*
X020100Y023067D01*
X020098Y023069D02*
X019193Y023069D01*
X019195Y023072D02*
X020097Y023072D01*
X020096Y023074D02*
X019196Y023074D01*
X019197Y023077D02*
X020095Y023077D01*
X020094Y023079D02*
X019198Y023079D01*
X019199Y023081D02*
X020093Y023081D01*
X020091Y023084D02*
X019200Y023084D01*
X019202Y023086D02*
X020090Y023086D01*
X020088Y023089D02*
X019204Y023089D01*
X019206Y023091D02*
X020086Y023091D01*
X020084Y023094D02*
X019208Y023094D01*
X019210Y023096D02*
X020082Y023096D01*
X020080Y023098D02*
X019212Y023098D01*
X019214Y023101D02*
X020078Y023101D01*
X020076Y023103D02*
X019216Y023103D01*
X019218Y023106D02*
X020074Y023106D01*
X020072Y023108D02*
X019220Y023108D01*
X019222Y023111D02*
X020070Y023111D01*
X020068Y023113D02*
X019224Y023113D01*
X019225Y023116D02*
X020066Y023116D01*
X020064Y023118D02*
X019227Y023118D01*
X019230Y023120D02*
X020062Y023120D01*
X020060Y023123D02*
X019232Y023123D01*
X019235Y023125D02*
X020057Y023125D01*
X020055Y023128D02*
X019237Y023128D01*
X019239Y023130D02*
X020052Y023130D01*
X020050Y023133D02*
X019242Y023133D01*
X019244Y023135D02*
X020048Y023135D01*
X020045Y023137D02*
X019247Y023137D01*
X019249Y023140D02*
X020043Y023140D01*
X020040Y023142D02*
X019252Y023142D01*
X019254Y023145D02*
X020038Y023145D01*
X020035Y023147D02*
X019256Y023147D01*
X019259Y023150D02*
X020033Y023150D01*
X020031Y023152D02*
X019261Y023152D01*
X019264Y023155D02*
X020028Y023155D01*
X020026Y023157D02*
X019266Y023157D01*
X019269Y023159D02*
X020023Y023159D01*
X020021Y023162D02*
X019271Y023162D01*
X019274Y023164D02*
X020018Y023164D01*
X020016Y023167D02*
X019276Y023167D01*
X019278Y023169D02*
X020013Y023169D01*
X020011Y023172D02*
X019281Y023172D01*
X019283Y023174D02*
X020009Y023174D01*
X020006Y023176D02*
X019286Y023176D01*
X019288Y023179D02*
X020004Y023179D01*
X020001Y023181D02*
X019291Y023181D01*
X019293Y023184D02*
X019999Y023184D01*
X019996Y023186D02*
X019295Y023186D01*
X019298Y023189D02*
X019994Y023189D01*
X019992Y023191D02*
X019300Y023191D01*
X019303Y023194D02*
X019989Y023194D01*
X019987Y023196D02*
X019305Y023196D01*
X019308Y023198D02*
X019984Y023198D01*
X019982Y023201D02*
X019310Y023201D01*
X019312Y023203D02*
X019979Y023203D01*
X019977Y023206D02*
X019315Y023206D01*
X019317Y023208D02*
X019974Y023208D01*
X019972Y023211D02*
X019320Y023211D01*
X019322Y023213D02*
X019970Y023213D01*
X019967Y023215D02*
X019325Y023215D01*
X019327Y023218D02*
X019965Y023218D01*
X019962Y023220D02*
X019330Y023220D01*
X019332Y023223D02*
X019960Y023223D01*
X019957Y023225D02*
X019334Y023225D01*
X019337Y023228D02*
X019955Y023228D01*
X019953Y023230D02*
X019339Y023230D01*
X019342Y023233D02*
X019950Y023233D01*
X019948Y023235D02*
X019344Y023235D01*
X019347Y023237D02*
X019945Y023237D01*
X019943Y023240D02*
X019349Y023240D01*
X019351Y023242D02*
X019940Y023242D01*
X019938Y023245D02*
X019354Y023245D01*
X019356Y023247D02*
X019935Y023247D01*
X019933Y023250D02*
X019359Y023250D01*
X019361Y023252D02*
X019931Y023252D01*
X019928Y023254D02*
X019364Y023254D01*
X019366Y023257D02*
X019926Y023257D01*
X019923Y023259D02*
X019369Y023259D01*
X019371Y023262D02*
X019921Y023262D01*
X019918Y023264D02*
X019373Y023264D01*
X019376Y023267D02*
X019916Y023267D01*
X019914Y023269D02*
X019378Y023269D01*
X019381Y023272D02*
X019911Y023272D01*
X019909Y023274D02*
X019383Y023274D01*
X019386Y023276D02*
X019906Y023276D01*
X019904Y023279D02*
X019388Y023279D01*
X019390Y023281D02*
X019901Y023281D01*
X019899Y023284D02*
X019393Y023284D01*
X019395Y023286D02*
X019896Y023286D01*
X019894Y023289D02*
X019398Y023289D01*
X019400Y023291D02*
X019892Y023291D01*
X019889Y023293D02*
X019403Y023293D01*
X019405Y023296D02*
X019887Y023296D01*
X019884Y023298D02*
X019408Y023298D01*
X019410Y023301D02*
X019882Y023301D01*
X019879Y023303D02*
X019412Y023303D01*
X019415Y023306D02*
X019877Y023306D01*
X019875Y023308D02*
X019417Y023308D01*
X019420Y023311D02*
X019872Y023311D01*
X019870Y023313D02*
X019422Y023313D01*
X019425Y023315D02*
X019867Y023315D01*
X019865Y023318D02*
X019427Y023318D01*
X019429Y023320D02*
X019862Y023320D01*
X019860Y023323D02*
X019432Y023323D01*
X019434Y023325D02*
X019858Y023325D01*
X019855Y023328D02*
X019437Y023328D01*
X019439Y023330D02*
X019853Y023330D01*
X019850Y023332D02*
X019442Y023332D01*
X019444Y023335D02*
X019848Y023335D01*
X019845Y023337D02*
X019447Y023337D01*
X019449Y023340D02*
X019843Y023340D01*
X019840Y023342D02*
X019451Y023342D01*
X019454Y023345D02*
X019838Y023345D01*
X019836Y023347D02*
X019456Y023347D01*
X019459Y023349D02*
X019833Y023349D01*
X019831Y023352D02*
X019461Y023352D01*
X019464Y023354D02*
X019828Y023354D01*
X019826Y023357D02*
X019466Y023357D01*
X019468Y023359D02*
X019823Y023359D01*
X019821Y023362D02*
X019471Y023362D01*
X019473Y023364D02*
X019819Y023364D01*
X019816Y023367D02*
X019476Y023367D01*
X019478Y023369D02*
X019814Y023369D01*
X019811Y023371D02*
X019481Y023371D01*
X019483Y023374D02*
X019809Y023374D01*
X019806Y023376D02*
X019486Y023376D01*
X019488Y023379D02*
X019804Y023379D01*
X019801Y023381D02*
X019490Y023381D01*
X019493Y023384D02*
X019799Y023384D01*
X019797Y023386D02*
X019495Y023386D01*
X019498Y023388D02*
X019794Y023388D01*
X019792Y023391D02*
X019500Y023391D01*
X019503Y023393D02*
X019789Y023393D01*
X019787Y023396D02*
X019505Y023396D01*
X019508Y023398D02*
X019784Y023398D01*
X019781Y023401D02*
X019511Y023401D01*
X019514Y023403D02*
X019778Y023403D01*
X019775Y023406D02*
X019517Y023406D01*
X019520Y023408D02*
X019772Y023408D01*
X019769Y023410D02*
X019523Y023410D01*
X019526Y023413D02*
X019766Y023413D01*
X019763Y023415D02*
X019529Y023415D01*
X019532Y023418D02*
X019760Y023418D01*
X019757Y023420D02*
X019535Y023420D01*
X019538Y023423D02*
X019754Y023423D01*
X019751Y023425D02*
X019541Y023425D01*
X019546Y023427D02*
X019745Y023427D01*
X019740Y023430D02*
X019551Y023430D01*
X019557Y023432D02*
X019735Y023432D01*
X019730Y023435D02*
X019562Y023435D01*
X019567Y023437D02*
X019725Y023437D01*
X019720Y023440D02*
X019572Y023440D01*
X019577Y023442D02*
X019715Y023442D01*
X019709Y023445D02*
X019583Y023445D01*
X019594Y023447D02*
X019698Y023447D01*
X019688Y023449D02*
X019604Y023449D01*
X019615Y023452D02*
X019677Y023452D01*
D52*
X019170Y025942D02*
X018789Y026323D01*
X018958Y026492D01*
X019339Y026111D01*
X019170Y025942D01*
X019229Y026001D02*
X019111Y026001D01*
X019052Y026060D02*
X019288Y026060D01*
X019331Y026119D02*
X018993Y026119D01*
X018934Y026178D02*
X019272Y026178D01*
X019213Y026237D02*
X018875Y026237D01*
X018816Y026296D02*
X019154Y026296D01*
X019095Y026355D02*
X018821Y026355D01*
X018880Y026414D02*
X019036Y026414D01*
X018977Y026473D02*
X018939Y026473D01*
X019638Y027172D02*
X020019Y026791D01*
X019638Y027172D02*
X019807Y027341D01*
X020188Y026960D01*
X020019Y026791D01*
X020078Y026850D02*
X019960Y026850D01*
X019901Y026909D02*
X020137Y026909D01*
X020180Y026968D02*
X019842Y026968D01*
X019783Y027027D02*
X020121Y027027D01*
X020062Y027086D02*
X019724Y027086D01*
X019665Y027145D02*
X020003Y027145D01*
X019944Y027204D02*
X019670Y027204D01*
X019729Y027263D02*
X019885Y027263D01*
X019826Y027322D02*
X019788Y027322D01*
X021108Y016023D02*
X021648Y016023D01*
X021648Y015783D01*
X021108Y015783D01*
X021108Y016023D01*
X021108Y015842D02*
X021648Y015842D01*
X021648Y015901D02*
X021108Y015901D01*
X021108Y015960D02*
X021648Y015960D01*
X021648Y016019D02*
X021108Y016019D01*
X021108Y014823D02*
X021648Y014823D01*
X021648Y014583D01*
X021108Y014583D01*
X021108Y014823D01*
X021108Y014642D02*
X021648Y014642D01*
X021648Y014701D02*
X021108Y014701D01*
X021108Y014760D02*
X021648Y014760D01*
X021648Y014819D02*
X021108Y014819D01*
D53*
X020610Y016307D03*
X019705Y016307D03*
X019705Y017763D03*
X020610Y017763D03*
D54*
X019917Y020578D02*
X019960Y020621D01*
X019917Y020578D02*
X019750Y020745D01*
X019793Y020788D01*
X019960Y020621D01*
X019955Y020616D02*
X019879Y020616D01*
X019841Y020654D02*
X019927Y020654D01*
X019889Y020692D02*
X019803Y020692D01*
X019765Y020730D02*
X019851Y020730D01*
X019813Y020768D02*
X019773Y020768D01*
X020056Y020717D02*
X020099Y020760D01*
X020056Y020717D02*
X019889Y020884D01*
X019932Y020927D01*
X020099Y020760D01*
X020094Y020755D02*
X020018Y020755D01*
X019980Y020793D02*
X020066Y020793D01*
X020028Y020831D02*
X019942Y020831D01*
X019904Y020869D02*
X019990Y020869D01*
X019952Y020907D02*
X019912Y020907D01*
X020195Y020857D02*
X020238Y020900D01*
X020195Y020857D02*
X020028Y021024D01*
X020071Y021067D01*
X020238Y020900D01*
X020233Y020895D02*
X020157Y020895D01*
X020119Y020933D02*
X020205Y020933D01*
X020167Y020971D02*
X020081Y020971D01*
X020043Y021009D02*
X020129Y021009D01*
X020091Y021047D02*
X020051Y021047D01*
X020334Y020996D02*
X020377Y021039D01*
X020334Y020996D02*
X020167Y021163D01*
X020210Y021206D01*
X020377Y021039D01*
X020372Y021034D02*
X020296Y021034D01*
X020258Y021072D02*
X020344Y021072D01*
X020306Y021110D02*
X020220Y021110D01*
X020182Y021148D02*
X020268Y021148D01*
X020230Y021186D02*
X020190Y021186D01*
X020473Y021135D02*
X020516Y021178D01*
X020473Y021135D02*
X020306Y021302D01*
X020349Y021345D01*
X020516Y021178D01*
X020511Y021173D02*
X020435Y021173D01*
X020397Y021211D02*
X020483Y021211D01*
X020445Y021249D02*
X020359Y021249D01*
X020321Y021287D02*
X020407Y021287D01*
X020369Y021325D02*
X020329Y021325D01*
X020613Y021274D02*
X020656Y021317D01*
X020613Y021274D02*
X020446Y021441D01*
X020489Y021484D01*
X020656Y021317D01*
X020651Y021312D02*
X020575Y021312D01*
X020537Y021350D02*
X020623Y021350D01*
X020585Y021388D02*
X020499Y021388D01*
X020461Y021426D02*
X020547Y021426D01*
X020509Y021464D02*
X020469Y021464D01*
X020752Y021413D02*
X020795Y021456D01*
X020752Y021413D02*
X020585Y021580D01*
X020628Y021623D01*
X020795Y021456D01*
X020790Y021451D02*
X020714Y021451D01*
X020676Y021489D02*
X020762Y021489D01*
X020724Y021527D02*
X020638Y021527D01*
X020600Y021565D02*
X020686Y021565D01*
X020648Y021603D02*
X020608Y021603D01*
X020891Y021553D02*
X020934Y021596D01*
X020891Y021553D02*
X020724Y021720D01*
X020767Y021763D01*
X020934Y021596D01*
X020929Y021591D02*
X020853Y021591D01*
X020815Y021629D02*
X020901Y021629D01*
X020863Y021667D02*
X020777Y021667D01*
X020739Y021705D02*
X020825Y021705D01*
X020787Y021743D02*
X020747Y021743D01*
X021030Y021692D02*
X021073Y021735D01*
X021030Y021692D02*
X020863Y021859D01*
X020906Y021902D01*
X021073Y021735D01*
X021068Y021730D02*
X020992Y021730D01*
X020954Y021768D02*
X021040Y021768D01*
X021002Y021806D02*
X020916Y021806D01*
X020878Y021844D02*
X020964Y021844D01*
X020926Y021882D02*
X020886Y021882D01*
X021169Y021831D02*
X021212Y021874D01*
X021169Y021831D02*
X021002Y021998D01*
X021045Y022041D01*
X021212Y021874D01*
X021207Y021869D02*
X021131Y021869D01*
X021093Y021907D02*
X021179Y021907D01*
X021141Y021945D02*
X021055Y021945D01*
X021017Y021983D02*
X021103Y021983D01*
X021065Y022021D02*
X021025Y022021D01*
X021309Y021970D02*
X021352Y022013D01*
X021309Y021970D02*
X021142Y022137D01*
X021185Y022180D01*
X021352Y022013D01*
X021347Y022008D02*
X021271Y022008D01*
X021233Y022046D02*
X021319Y022046D01*
X021281Y022084D02*
X021195Y022084D01*
X021157Y022122D02*
X021243Y022122D01*
X021205Y022160D02*
X021165Y022160D01*
X021448Y022109D02*
X021491Y022152D01*
X021448Y022109D02*
X021281Y022276D01*
X021324Y022319D01*
X021491Y022152D01*
X021486Y022147D02*
X021410Y022147D01*
X021372Y022185D02*
X021458Y022185D01*
X021420Y022223D02*
X021334Y022223D01*
X021296Y022261D02*
X021382Y022261D01*
X021344Y022299D02*
X021304Y022299D01*
X021587Y022249D02*
X021630Y022292D01*
X021587Y022249D02*
X021420Y022416D01*
X021463Y022459D01*
X021630Y022292D01*
X021625Y022287D02*
X021549Y022287D01*
X021511Y022325D02*
X021597Y022325D01*
X021559Y022363D02*
X021473Y022363D01*
X021435Y022401D02*
X021521Y022401D01*
X021483Y022439D02*
X021443Y022439D01*
X021726Y022388D02*
X021769Y022431D01*
X021726Y022388D02*
X021559Y022555D01*
X021602Y022598D01*
X021769Y022431D01*
X021764Y022426D02*
X021688Y022426D01*
X021650Y022464D02*
X021736Y022464D01*
X021698Y022502D02*
X021612Y022502D01*
X021574Y022540D02*
X021660Y022540D01*
X021622Y022578D02*
X021582Y022578D01*
X021865Y022527D02*
X021908Y022570D01*
X021865Y022527D02*
X021698Y022694D01*
X021741Y022737D01*
X021908Y022570D01*
X021903Y022565D02*
X021827Y022565D01*
X021789Y022603D02*
X021875Y022603D01*
X021837Y022641D02*
X021751Y022641D01*
X021713Y022679D02*
X021799Y022679D01*
X021761Y022717D02*
X021721Y022717D01*
X022005Y022666D02*
X022048Y022709D01*
X022005Y022666D02*
X021838Y022833D01*
X021881Y022876D01*
X022048Y022709D01*
X022043Y022704D02*
X021967Y022704D01*
X021929Y022742D02*
X022015Y022742D01*
X021977Y022780D02*
X021891Y022780D01*
X021853Y022818D02*
X021939Y022818D01*
X021901Y022856D02*
X021861Y022856D01*
X021881Y023084D02*
X021838Y023127D01*
X022005Y023294D01*
X022048Y023251D01*
X021881Y023084D01*
X021919Y023122D02*
X021843Y023122D01*
X021871Y023160D02*
X021957Y023160D01*
X021995Y023198D02*
X021909Y023198D01*
X021947Y023236D02*
X022033Y023236D01*
X022025Y023274D02*
X021985Y023274D01*
X021741Y023223D02*
X021698Y023266D01*
X021865Y023433D01*
X021908Y023390D01*
X021741Y023223D01*
X021779Y023261D02*
X021703Y023261D01*
X021731Y023299D02*
X021817Y023299D01*
X021855Y023337D02*
X021769Y023337D01*
X021807Y023375D02*
X021893Y023375D01*
X021885Y023413D02*
X021845Y023413D01*
X021602Y023362D02*
X021559Y023405D01*
X021726Y023572D01*
X021769Y023529D01*
X021602Y023362D01*
X021640Y023400D02*
X021564Y023400D01*
X021592Y023438D02*
X021678Y023438D01*
X021716Y023476D02*
X021630Y023476D01*
X021668Y023514D02*
X021754Y023514D01*
X021746Y023552D02*
X021706Y023552D01*
X021463Y023501D02*
X021420Y023544D01*
X021587Y023711D01*
X021630Y023668D01*
X021463Y023501D01*
X021501Y023539D02*
X021425Y023539D01*
X021453Y023577D02*
X021539Y023577D01*
X021577Y023615D02*
X021491Y023615D01*
X021529Y023653D02*
X021615Y023653D01*
X021607Y023691D02*
X021567Y023691D01*
X021324Y023640D02*
X021281Y023683D01*
X021448Y023850D01*
X021491Y023807D01*
X021324Y023640D01*
X021362Y023678D02*
X021286Y023678D01*
X021314Y023716D02*
X021400Y023716D01*
X021438Y023754D02*
X021352Y023754D01*
X021390Y023792D02*
X021476Y023792D01*
X021468Y023830D02*
X021428Y023830D01*
X021185Y023780D02*
X021142Y023823D01*
X021309Y023990D01*
X021352Y023947D01*
X021185Y023780D01*
X021223Y023818D02*
X021147Y023818D01*
X021175Y023856D02*
X021261Y023856D01*
X021299Y023894D02*
X021213Y023894D01*
X021251Y023932D02*
X021337Y023932D01*
X021329Y023970D02*
X021289Y023970D01*
X021045Y023919D02*
X021002Y023962D01*
X021169Y024129D01*
X021212Y024086D01*
X021045Y023919D01*
X021083Y023957D02*
X021007Y023957D01*
X021035Y023995D02*
X021121Y023995D01*
X021159Y024033D02*
X021073Y024033D01*
X021111Y024071D02*
X021197Y024071D01*
X021189Y024109D02*
X021149Y024109D01*
X020906Y024058D02*
X020863Y024101D01*
X021030Y024268D01*
X021073Y024225D01*
X020906Y024058D01*
X020944Y024096D02*
X020868Y024096D01*
X020896Y024134D02*
X020982Y024134D01*
X021020Y024172D02*
X020934Y024172D01*
X020972Y024210D02*
X021058Y024210D01*
X021050Y024248D02*
X021010Y024248D01*
X020767Y024197D02*
X020724Y024240D01*
X020891Y024407D01*
X020934Y024364D01*
X020767Y024197D01*
X020805Y024235D02*
X020729Y024235D01*
X020757Y024273D02*
X020843Y024273D01*
X020881Y024311D02*
X020795Y024311D01*
X020833Y024349D02*
X020919Y024349D01*
X020911Y024387D02*
X020871Y024387D01*
X020628Y024336D02*
X020585Y024379D01*
X020752Y024546D01*
X020795Y024503D01*
X020628Y024336D01*
X020666Y024374D02*
X020590Y024374D01*
X020618Y024412D02*
X020704Y024412D01*
X020742Y024450D02*
X020656Y024450D01*
X020694Y024488D02*
X020780Y024488D01*
X020772Y024526D02*
X020732Y024526D01*
X020489Y024476D02*
X020446Y024519D01*
X020613Y024686D01*
X020656Y024643D01*
X020489Y024476D01*
X020527Y024514D02*
X020451Y024514D01*
X020479Y024552D02*
X020565Y024552D01*
X020603Y024590D02*
X020517Y024590D01*
X020555Y024628D02*
X020641Y024628D01*
X020633Y024666D02*
X020593Y024666D01*
X020349Y024615D02*
X020306Y024658D01*
X020473Y024825D01*
X020516Y024782D01*
X020349Y024615D01*
X020387Y024653D02*
X020311Y024653D01*
X020339Y024691D02*
X020425Y024691D01*
X020463Y024729D02*
X020377Y024729D01*
X020415Y024767D02*
X020501Y024767D01*
X020493Y024805D02*
X020453Y024805D01*
X020210Y024754D02*
X020167Y024797D01*
X020334Y024964D01*
X020377Y024921D01*
X020210Y024754D01*
X020248Y024792D02*
X020172Y024792D01*
X020200Y024830D02*
X020286Y024830D01*
X020324Y024868D02*
X020238Y024868D01*
X020276Y024906D02*
X020362Y024906D01*
X020354Y024944D02*
X020314Y024944D01*
X020071Y024893D02*
X020028Y024936D01*
X020195Y025103D01*
X020238Y025060D01*
X020071Y024893D01*
X020109Y024931D02*
X020033Y024931D01*
X020061Y024969D02*
X020147Y024969D01*
X020185Y025007D02*
X020099Y025007D01*
X020137Y025045D02*
X020223Y025045D01*
X020215Y025083D02*
X020175Y025083D01*
X019932Y025032D02*
X019889Y025075D01*
X020056Y025242D01*
X020099Y025199D01*
X019932Y025032D01*
X019970Y025070D02*
X019894Y025070D01*
X019922Y025108D02*
X020008Y025108D01*
X020046Y025146D02*
X019960Y025146D01*
X019998Y025184D02*
X020084Y025184D01*
X020076Y025222D02*
X020036Y025222D01*
X019793Y025172D02*
X019750Y025215D01*
X019917Y025382D01*
X019960Y025339D01*
X019793Y025172D01*
X019831Y025210D02*
X019755Y025210D01*
X019783Y025248D02*
X019869Y025248D01*
X019907Y025286D02*
X019821Y025286D01*
X019859Y025324D02*
X019945Y025324D01*
X019937Y025362D02*
X019897Y025362D01*
X019375Y025382D02*
X019332Y025339D01*
X019375Y025382D02*
X019542Y025215D01*
X019499Y025172D01*
X019332Y025339D01*
X019461Y025210D02*
X019537Y025210D01*
X019509Y025248D02*
X019423Y025248D01*
X019385Y025286D02*
X019471Y025286D01*
X019433Y025324D02*
X019347Y025324D01*
X019355Y025362D02*
X019395Y025362D01*
X019236Y025242D02*
X019193Y025199D01*
X019236Y025242D02*
X019403Y025075D01*
X019360Y025032D01*
X019193Y025199D01*
X019322Y025070D02*
X019398Y025070D01*
X019370Y025108D02*
X019284Y025108D01*
X019246Y025146D02*
X019332Y025146D01*
X019294Y025184D02*
X019208Y025184D01*
X019216Y025222D02*
X019256Y025222D01*
X019097Y025103D02*
X019054Y025060D01*
X019097Y025103D02*
X019264Y024936D01*
X019221Y024893D01*
X019054Y025060D01*
X019183Y024931D02*
X019259Y024931D01*
X019231Y024969D02*
X019145Y024969D01*
X019107Y025007D02*
X019193Y025007D01*
X019155Y025045D02*
X019069Y025045D01*
X019077Y025083D02*
X019117Y025083D01*
X018958Y024964D02*
X018915Y024921D01*
X018958Y024964D02*
X019125Y024797D01*
X019082Y024754D01*
X018915Y024921D01*
X019044Y024792D02*
X019120Y024792D01*
X019092Y024830D02*
X019006Y024830D01*
X018968Y024868D02*
X019054Y024868D01*
X019016Y024906D02*
X018930Y024906D01*
X018938Y024944D02*
X018978Y024944D01*
X018818Y024825D02*
X018775Y024782D01*
X018818Y024825D02*
X018985Y024658D01*
X018942Y024615D01*
X018775Y024782D01*
X018904Y024653D02*
X018980Y024653D01*
X018952Y024691D02*
X018866Y024691D01*
X018828Y024729D02*
X018914Y024729D01*
X018876Y024767D02*
X018790Y024767D01*
X018798Y024805D02*
X018838Y024805D01*
X018679Y024686D02*
X018636Y024643D01*
X018679Y024686D02*
X018846Y024519D01*
X018803Y024476D01*
X018636Y024643D01*
X018765Y024514D02*
X018841Y024514D01*
X018813Y024552D02*
X018727Y024552D01*
X018689Y024590D02*
X018775Y024590D01*
X018737Y024628D02*
X018651Y024628D01*
X018659Y024666D02*
X018699Y024666D01*
X018540Y024546D02*
X018497Y024503D01*
X018540Y024546D02*
X018707Y024379D01*
X018664Y024336D01*
X018497Y024503D01*
X018626Y024374D02*
X018702Y024374D01*
X018674Y024412D02*
X018588Y024412D01*
X018550Y024450D02*
X018636Y024450D01*
X018598Y024488D02*
X018512Y024488D01*
X018520Y024526D02*
X018560Y024526D01*
X018401Y024407D02*
X018358Y024364D01*
X018401Y024407D02*
X018568Y024240D01*
X018525Y024197D01*
X018358Y024364D01*
X018487Y024235D02*
X018563Y024235D01*
X018535Y024273D02*
X018449Y024273D01*
X018411Y024311D02*
X018497Y024311D01*
X018459Y024349D02*
X018373Y024349D01*
X018381Y024387D02*
X018421Y024387D01*
X018262Y024268D02*
X018219Y024225D01*
X018262Y024268D02*
X018429Y024101D01*
X018386Y024058D01*
X018219Y024225D01*
X018348Y024096D02*
X018424Y024096D01*
X018396Y024134D02*
X018310Y024134D01*
X018272Y024172D02*
X018358Y024172D01*
X018320Y024210D02*
X018234Y024210D01*
X018242Y024248D02*
X018282Y024248D01*
X018122Y024129D02*
X018079Y024086D01*
X018122Y024129D02*
X018289Y023962D01*
X018246Y023919D01*
X018079Y024086D01*
X018208Y023957D02*
X018284Y023957D01*
X018256Y023995D02*
X018170Y023995D01*
X018132Y024033D02*
X018218Y024033D01*
X018180Y024071D02*
X018094Y024071D01*
X018102Y024109D02*
X018142Y024109D01*
X017983Y023990D02*
X017940Y023947D01*
X017983Y023990D02*
X018150Y023823D01*
X018107Y023780D01*
X017940Y023947D01*
X018069Y023818D02*
X018145Y023818D01*
X018117Y023856D02*
X018031Y023856D01*
X017993Y023894D02*
X018079Y023894D01*
X018041Y023932D02*
X017955Y023932D01*
X017963Y023970D02*
X018003Y023970D01*
X017844Y023850D02*
X017801Y023807D01*
X017844Y023850D02*
X018011Y023683D01*
X017968Y023640D01*
X017801Y023807D01*
X017930Y023678D02*
X018006Y023678D01*
X017978Y023716D02*
X017892Y023716D01*
X017854Y023754D02*
X017940Y023754D01*
X017902Y023792D02*
X017816Y023792D01*
X017824Y023830D02*
X017864Y023830D01*
X017705Y023711D02*
X017662Y023668D01*
X017705Y023711D02*
X017872Y023544D01*
X017829Y023501D01*
X017662Y023668D01*
X017791Y023539D02*
X017867Y023539D01*
X017839Y023577D02*
X017753Y023577D01*
X017715Y023615D02*
X017801Y023615D01*
X017763Y023653D02*
X017677Y023653D01*
X017685Y023691D02*
X017725Y023691D01*
X017566Y023572D02*
X017523Y023529D01*
X017566Y023572D02*
X017733Y023405D01*
X017690Y023362D01*
X017523Y023529D01*
X017652Y023400D02*
X017728Y023400D01*
X017700Y023438D02*
X017614Y023438D01*
X017576Y023476D02*
X017662Y023476D01*
X017624Y023514D02*
X017538Y023514D01*
X017546Y023552D02*
X017586Y023552D01*
X017593Y023266D02*
X017550Y023223D01*
X017383Y023390D01*
X017426Y023433D01*
X017593Y023266D01*
X017588Y023261D02*
X017512Y023261D01*
X017474Y023299D02*
X017560Y023299D01*
X017522Y023337D02*
X017436Y023337D01*
X017398Y023375D02*
X017484Y023375D01*
X017446Y023413D02*
X017406Y023413D01*
X017454Y023127D02*
X017411Y023084D01*
X017244Y023251D01*
X017287Y023294D01*
X017454Y023127D01*
X017449Y023122D02*
X017373Y023122D01*
X017335Y023160D02*
X017421Y023160D01*
X017383Y023198D02*
X017297Y023198D01*
X017259Y023236D02*
X017345Y023236D01*
X017307Y023274D02*
X017267Y023274D01*
X017411Y022876D02*
X017454Y022833D01*
X017287Y022666D01*
X017244Y022709D01*
X017411Y022876D01*
X017325Y022704D02*
X017249Y022704D01*
X017277Y022742D02*
X017363Y022742D01*
X017401Y022780D02*
X017315Y022780D01*
X017353Y022818D02*
X017439Y022818D01*
X017431Y022856D02*
X017391Y022856D01*
X017550Y022737D02*
X017593Y022694D01*
X017426Y022527D01*
X017383Y022570D01*
X017550Y022737D01*
X017464Y022565D02*
X017388Y022565D01*
X017416Y022603D02*
X017502Y022603D01*
X017540Y022641D02*
X017454Y022641D01*
X017492Y022679D02*
X017578Y022679D01*
X017570Y022717D02*
X017530Y022717D01*
X017690Y022598D02*
X017733Y022555D01*
X017566Y022388D01*
X017523Y022431D01*
X017690Y022598D01*
X017604Y022426D02*
X017528Y022426D01*
X017556Y022464D02*
X017642Y022464D01*
X017680Y022502D02*
X017594Y022502D01*
X017632Y022540D02*
X017718Y022540D01*
X017710Y022578D02*
X017670Y022578D01*
X017829Y022459D02*
X017872Y022416D01*
X017705Y022249D01*
X017662Y022292D01*
X017829Y022459D01*
X017743Y022287D02*
X017667Y022287D01*
X017695Y022325D02*
X017781Y022325D01*
X017819Y022363D02*
X017733Y022363D01*
X017771Y022401D02*
X017857Y022401D01*
X017849Y022439D02*
X017809Y022439D01*
X017968Y022319D02*
X018011Y022276D01*
X017844Y022109D01*
X017801Y022152D01*
X017968Y022319D01*
X017882Y022147D02*
X017806Y022147D01*
X017834Y022185D02*
X017920Y022185D01*
X017958Y022223D02*
X017872Y022223D01*
X017910Y022261D02*
X017996Y022261D01*
X017988Y022299D02*
X017948Y022299D01*
X018107Y022180D02*
X018150Y022137D01*
X017983Y021970D01*
X017940Y022013D01*
X018107Y022180D01*
X018021Y022008D02*
X017945Y022008D01*
X017973Y022046D02*
X018059Y022046D01*
X018097Y022084D02*
X018011Y022084D01*
X018049Y022122D02*
X018135Y022122D01*
X018127Y022160D02*
X018087Y022160D01*
X018246Y022041D02*
X018289Y021998D01*
X018122Y021831D01*
X018079Y021874D01*
X018246Y022041D01*
X018160Y021869D02*
X018084Y021869D01*
X018112Y021907D02*
X018198Y021907D01*
X018236Y021945D02*
X018150Y021945D01*
X018188Y021983D02*
X018274Y021983D01*
X018266Y022021D02*
X018226Y022021D01*
X018386Y021902D02*
X018429Y021859D01*
X018262Y021692D01*
X018219Y021735D01*
X018386Y021902D01*
X018300Y021730D02*
X018224Y021730D01*
X018252Y021768D02*
X018338Y021768D01*
X018376Y021806D02*
X018290Y021806D01*
X018328Y021844D02*
X018414Y021844D01*
X018406Y021882D02*
X018366Y021882D01*
X018525Y021763D02*
X018568Y021720D01*
X018401Y021553D01*
X018358Y021596D01*
X018525Y021763D01*
X018439Y021591D02*
X018363Y021591D01*
X018391Y021629D02*
X018477Y021629D01*
X018515Y021667D02*
X018429Y021667D01*
X018467Y021705D02*
X018553Y021705D01*
X018545Y021743D02*
X018505Y021743D01*
X018664Y021623D02*
X018707Y021580D01*
X018540Y021413D01*
X018497Y021456D01*
X018664Y021623D01*
X018578Y021451D02*
X018502Y021451D01*
X018530Y021489D02*
X018616Y021489D01*
X018654Y021527D02*
X018568Y021527D01*
X018606Y021565D02*
X018692Y021565D01*
X018684Y021603D02*
X018644Y021603D01*
X018803Y021484D02*
X018846Y021441D01*
X018679Y021274D01*
X018636Y021317D01*
X018803Y021484D01*
X018717Y021312D02*
X018641Y021312D01*
X018669Y021350D02*
X018755Y021350D01*
X018793Y021388D02*
X018707Y021388D01*
X018745Y021426D02*
X018831Y021426D01*
X018823Y021464D02*
X018783Y021464D01*
X018942Y021345D02*
X018985Y021302D01*
X018818Y021135D01*
X018775Y021178D01*
X018942Y021345D01*
X018856Y021173D02*
X018780Y021173D01*
X018808Y021211D02*
X018894Y021211D01*
X018932Y021249D02*
X018846Y021249D01*
X018884Y021287D02*
X018970Y021287D01*
X018962Y021325D02*
X018922Y021325D01*
X018915Y021039D02*
X018958Y020996D01*
X018915Y021039D02*
X019082Y021206D01*
X019125Y021163D01*
X018958Y020996D01*
X018996Y021034D02*
X018920Y021034D01*
X018948Y021072D02*
X019034Y021072D01*
X019072Y021110D02*
X018986Y021110D01*
X019024Y021148D02*
X019110Y021148D01*
X019102Y021186D02*
X019062Y021186D01*
X019054Y020900D02*
X019097Y020857D01*
X019054Y020900D02*
X019221Y021067D01*
X019264Y021024D01*
X019097Y020857D01*
X019135Y020895D02*
X019059Y020895D01*
X019087Y020933D02*
X019173Y020933D01*
X019211Y020971D02*
X019125Y020971D01*
X019163Y021009D02*
X019249Y021009D01*
X019241Y021047D02*
X019201Y021047D01*
X019193Y020760D02*
X019236Y020717D01*
X019193Y020760D02*
X019360Y020927D01*
X019403Y020884D01*
X019236Y020717D01*
X019274Y020755D02*
X019198Y020755D01*
X019226Y020793D02*
X019312Y020793D01*
X019350Y020831D02*
X019264Y020831D01*
X019302Y020869D02*
X019388Y020869D01*
X019380Y020907D02*
X019340Y020907D01*
X019332Y020621D02*
X019375Y020578D01*
X019332Y020621D02*
X019499Y020788D01*
X019542Y020745D01*
X019375Y020578D01*
X019413Y020616D02*
X019337Y020616D01*
X019365Y020654D02*
X019451Y020654D01*
X019489Y020692D02*
X019403Y020692D01*
X019441Y020730D02*
X019527Y020730D01*
X019519Y020768D02*
X019479Y020768D01*
D55*
X018539Y066581D02*
X018539Y067331D01*
X018539Y066581D02*
X018389Y066581D01*
X018389Y067331D01*
X018539Y067331D01*
X018539Y066730D02*
X018389Y066730D01*
X018389Y066879D02*
X018539Y066879D01*
X018539Y067028D02*
X018389Y067028D01*
X018389Y067177D02*
X018539Y067177D01*
X018539Y067326D02*
X018389Y067326D01*
X017439Y067331D02*
X017439Y066581D01*
X017289Y066581D01*
X017289Y067331D01*
X017439Y067331D01*
X017439Y066730D02*
X017289Y066730D01*
X017289Y066879D02*
X017439Y066879D01*
X017439Y067028D02*
X017289Y067028D01*
X017289Y067177D02*
X017439Y067177D01*
X017439Y067326D02*
X017289Y067326D01*
D56*
X017814Y067456D02*
X017814Y067656D01*
X018014Y067656D01*
X018014Y067456D01*
X017814Y067456D01*
X017814Y067655D02*
X018014Y067655D01*
X017814Y066456D02*
X017814Y066256D01*
X017814Y066456D02*
X018014Y066456D01*
X018014Y066256D01*
X017814Y066256D01*
X017814Y066455D02*
X018014Y066455D01*
M02*
