G75*
%MOIN*%
%OFA0B0*%
%FSLAX24Y24*%
%IPPOS*%
%LPD*%
%AMOC8*
5,1,8,0,0,1.08239X$1,22.5*
%
%ADD10C,0.0000*%
%ADD11C,0.0080*%
%ADD12R,0.0250X0.0500*%
%ADD13C,0.0088*%
%ADD14R,0.0436X0.0436*%
%ADD15C,0.0436*%
%ADD16C,0.1005*%
%ADD17C,0.0740*%
%ADD18OC8,0.0740*%
%ADD19C,0.0600*%
%ADD20R,0.0520X0.0520*%
%ADD21C,0.0520*%
%ADD22R,0.0472X0.0551*%
%ADD23R,0.0512X0.0394*%
%ADD24R,0.0453X0.0256*%
%ADD25R,0.0669X0.0630*%
%ADD26R,0.0315X0.0213*%
%ADD27C,0.0400*%
%ADD28R,0.0157X0.0276*%
%ADD29R,0.1535X0.1339*%
%ADD30C,0.0594*%
%ADD31R,0.0500X0.0250*%
%ADD32C,0.0700*%
%ADD33R,0.0520X0.0520*%
%ADD34C,0.0240*%
%ADD35C,0.0120*%
%ADD36C,0.0236*%
%ADD37C,0.0160*%
%ADD38C,0.0280*%
%ADD39C,0.0356*%
%ADD40C,0.0240*%
%ADD41C,0.0472*%
%ADD42C,0.0320*%
D10*
X012441Y018570D02*
X013229Y018570D01*
X013295Y018568D01*
X013361Y018563D01*
X013427Y018553D01*
X013492Y018540D01*
X013556Y018524D01*
X013619Y018504D01*
X013681Y018480D01*
X013741Y018453D01*
X013800Y018423D01*
X013857Y018389D01*
X013912Y018352D01*
X013965Y018312D01*
X014016Y018270D01*
X014064Y018224D01*
X014110Y018176D01*
X014152Y018125D01*
X014192Y018072D01*
X014229Y018017D01*
X014263Y017960D01*
X014293Y017901D01*
X014320Y017841D01*
X014344Y017779D01*
X014364Y017716D01*
X014380Y017652D01*
X014393Y017587D01*
X014403Y017521D01*
X014408Y017455D01*
X014410Y017389D01*
X014410Y007153D01*
X014409Y007153D02*
X014411Y007067D01*
X014416Y006981D01*
X014426Y006896D01*
X014439Y006811D01*
X014456Y006727D01*
X014476Y006643D01*
X014500Y006561D01*
X014528Y006480D01*
X014559Y006399D01*
X014593Y006321D01*
X014631Y006244D01*
X014673Y006169D01*
X014717Y006095D01*
X014765Y006024D01*
X014816Y005954D01*
X014870Y005887D01*
X014926Y005823D01*
X014986Y005761D01*
X015048Y005701D01*
X015112Y005645D01*
X015179Y005591D01*
X015249Y005540D01*
X015320Y005492D01*
X015393Y005448D01*
X015469Y005406D01*
X015546Y005368D01*
X015624Y005334D01*
X015705Y005303D01*
X015786Y005275D01*
X015868Y005251D01*
X015952Y005231D01*
X016036Y005214D01*
X016121Y005201D01*
X016206Y005191D01*
X016292Y005186D01*
X016378Y005184D01*
X016378Y005185D02*
X032126Y005185D01*
X032126Y005184D02*
X032212Y005186D01*
X032298Y005191D01*
X032383Y005201D01*
X032468Y005214D01*
X032552Y005231D01*
X032636Y005251D01*
X032718Y005275D01*
X032799Y005303D01*
X032880Y005334D01*
X032958Y005368D01*
X033035Y005406D01*
X033111Y005448D01*
X033184Y005492D01*
X033255Y005540D01*
X033325Y005591D01*
X033392Y005645D01*
X033456Y005701D01*
X033518Y005761D01*
X033578Y005823D01*
X033634Y005887D01*
X033688Y005954D01*
X033739Y006024D01*
X033787Y006095D01*
X033831Y006168D01*
X033873Y006244D01*
X033911Y006321D01*
X033945Y006399D01*
X033976Y006480D01*
X034004Y006561D01*
X034028Y006643D01*
X034048Y006727D01*
X034065Y006811D01*
X034078Y006896D01*
X034088Y006981D01*
X034093Y007067D01*
X034095Y007153D01*
X034095Y017389D01*
X034097Y017455D01*
X034102Y017521D01*
X034112Y017587D01*
X034125Y017652D01*
X034141Y017716D01*
X034161Y017779D01*
X034185Y017841D01*
X034212Y017901D01*
X034242Y017960D01*
X034276Y018017D01*
X034313Y018072D01*
X034353Y018125D01*
X034395Y018176D01*
X034441Y018224D01*
X034489Y018270D01*
X034540Y018312D01*
X034593Y018352D01*
X034648Y018389D01*
X034705Y018423D01*
X034764Y018453D01*
X034824Y018480D01*
X034886Y018504D01*
X034949Y018524D01*
X035013Y018540D01*
X035078Y018553D01*
X035144Y018563D01*
X035210Y018568D01*
X035276Y018570D01*
X036063Y018570D01*
X036063Y018571D02*
X036117Y018573D01*
X036170Y018578D01*
X036223Y018587D01*
X036275Y018600D01*
X036327Y018616D01*
X036377Y018636D01*
X036425Y018659D01*
X036472Y018686D01*
X036517Y018715D01*
X036560Y018748D01*
X036600Y018783D01*
X036638Y018821D01*
X036673Y018861D01*
X036706Y018904D01*
X036735Y018949D01*
X036762Y018996D01*
X036785Y019044D01*
X036805Y019094D01*
X036821Y019146D01*
X036834Y019198D01*
X036843Y019251D01*
X036848Y019304D01*
X036850Y019358D01*
X036851Y019358D02*
X036851Y061090D01*
X036850Y061090D02*
X036848Y061144D01*
X036843Y061197D01*
X036834Y061250D01*
X036821Y061302D01*
X036805Y061354D01*
X036785Y061404D01*
X036762Y061452D01*
X036735Y061499D01*
X036706Y061544D01*
X036673Y061587D01*
X036638Y061627D01*
X036600Y061665D01*
X036560Y061700D01*
X036517Y061733D01*
X036472Y061762D01*
X036425Y061789D01*
X036377Y061812D01*
X036327Y061832D01*
X036275Y061848D01*
X036223Y061861D01*
X036170Y061870D01*
X036117Y061875D01*
X036063Y061877D01*
X036063Y061878D02*
X035276Y061878D01*
X035210Y061880D01*
X035144Y061885D01*
X035078Y061895D01*
X035013Y061908D01*
X034949Y061924D01*
X034886Y061944D01*
X034824Y061968D01*
X034764Y061995D01*
X034705Y062025D01*
X034648Y062059D01*
X034593Y062096D01*
X034540Y062136D01*
X034489Y062178D01*
X034441Y062224D01*
X034395Y062272D01*
X034353Y062323D01*
X034313Y062376D01*
X034276Y062431D01*
X034242Y062488D01*
X034212Y062547D01*
X034185Y062607D01*
X034161Y062669D01*
X034141Y062732D01*
X034125Y062796D01*
X034112Y062861D01*
X034102Y062927D01*
X034097Y062993D01*
X034095Y063059D01*
X034095Y073295D01*
X034093Y073381D01*
X034088Y073467D01*
X034078Y073552D01*
X034065Y073637D01*
X034048Y073721D01*
X034028Y073805D01*
X034004Y073887D01*
X033976Y073968D01*
X033945Y074049D01*
X033911Y074127D01*
X033873Y074204D01*
X033831Y074280D01*
X033787Y074353D01*
X033739Y074424D01*
X033688Y074494D01*
X033634Y074561D01*
X033578Y074625D01*
X033518Y074687D01*
X033456Y074747D01*
X033392Y074803D01*
X033325Y074857D01*
X033255Y074908D01*
X033184Y074956D01*
X033111Y075000D01*
X033035Y075042D01*
X032958Y075080D01*
X032880Y075114D01*
X032799Y075145D01*
X032718Y075173D01*
X032636Y075197D01*
X032552Y075217D01*
X032468Y075234D01*
X032383Y075247D01*
X032298Y075257D01*
X032212Y075262D01*
X032126Y075264D01*
X032126Y075263D02*
X016378Y075263D01*
X016378Y075264D02*
X016292Y075262D01*
X016206Y075257D01*
X016121Y075247D01*
X016036Y075234D01*
X015952Y075217D01*
X015868Y075197D01*
X015786Y075173D01*
X015705Y075145D01*
X015624Y075114D01*
X015546Y075080D01*
X015469Y075042D01*
X015394Y075000D01*
X015320Y074956D01*
X015249Y074908D01*
X015179Y074857D01*
X015112Y074803D01*
X015048Y074747D01*
X014986Y074687D01*
X014926Y074625D01*
X014870Y074561D01*
X014816Y074494D01*
X014765Y074424D01*
X014717Y074353D01*
X014673Y074280D01*
X014631Y074204D01*
X014593Y074127D01*
X014559Y074049D01*
X014528Y073968D01*
X014500Y073887D01*
X014476Y073805D01*
X014456Y073721D01*
X014439Y073637D01*
X014426Y073552D01*
X014416Y073467D01*
X014411Y073381D01*
X014409Y073295D01*
X014410Y073295D02*
X014410Y063059D01*
X014408Y062993D01*
X014403Y062927D01*
X014393Y062861D01*
X014380Y062796D01*
X014364Y062732D01*
X014344Y062669D01*
X014320Y062607D01*
X014293Y062547D01*
X014263Y062488D01*
X014229Y062431D01*
X014192Y062376D01*
X014152Y062323D01*
X014110Y062272D01*
X014064Y062224D01*
X014016Y062178D01*
X013965Y062136D01*
X013912Y062096D01*
X013857Y062059D01*
X013800Y062025D01*
X013741Y061995D01*
X013681Y061968D01*
X013619Y061944D01*
X013556Y061924D01*
X013492Y061908D01*
X013427Y061895D01*
X013361Y061885D01*
X013295Y061880D01*
X013229Y061878D01*
X012441Y061878D01*
X012441Y061877D02*
X012387Y061875D01*
X012334Y061870D01*
X012281Y061861D01*
X012229Y061848D01*
X012177Y061832D01*
X012127Y061812D01*
X012079Y061789D01*
X012032Y061762D01*
X011987Y061733D01*
X011944Y061700D01*
X011904Y061665D01*
X011866Y061627D01*
X011831Y061587D01*
X011798Y061544D01*
X011769Y061499D01*
X011742Y061452D01*
X011719Y061404D01*
X011699Y061354D01*
X011683Y061302D01*
X011670Y061250D01*
X011661Y061197D01*
X011656Y061144D01*
X011654Y061090D01*
X011654Y019358D01*
X011656Y019304D01*
X011661Y019251D01*
X011670Y019198D01*
X011683Y019146D01*
X011699Y019094D01*
X011719Y019044D01*
X011742Y018996D01*
X011769Y018949D01*
X011798Y018904D01*
X011831Y018861D01*
X011866Y018821D01*
X011904Y018783D01*
X011944Y018748D01*
X011987Y018715D01*
X012032Y018686D01*
X012079Y018659D01*
X012127Y018636D01*
X012177Y018616D01*
X012229Y018600D01*
X012281Y018587D01*
X012334Y018578D01*
X012387Y018573D01*
X012441Y018571D01*
X031535Y033925D02*
X031537Y033973D01*
X031543Y034021D01*
X031553Y034068D01*
X031566Y034114D01*
X031584Y034159D01*
X031604Y034203D01*
X031629Y034245D01*
X031657Y034284D01*
X031687Y034321D01*
X031721Y034355D01*
X031758Y034387D01*
X031796Y034416D01*
X031837Y034441D01*
X031880Y034463D01*
X031925Y034481D01*
X031971Y034495D01*
X032018Y034506D01*
X032066Y034513D01*
X032114Y034516D01*
X032162Y034515D01*
X032210Y034510D01*
X032258Y034501D01*
X032304Y034489D01*
X032349Y034472D01*
X032393Y034452D01*
X032435Y034429D01*
X032475Y034402D01*
X032513Y034372D01*
X032548Y034339D01*
X032580Y034303D01*
X032610Y034265D01*
X032636Y034224D01*
X032658Y034181D01*
X032678Y034137D01*
X032693Y034092D01*
X032705Y034045D01*
X032713Y033997D01*
X032717Y033949D01*
X032717Y033901D01*
X032713Y033853D01*
X032705Y033805D01*
X032693Y033758D01*
X032678Y033713D01*
X032658Y033669D01*
X032636Y033626D01*
X032610Y033585D01*
X032580Y033547D01*
X032548Y033511D01*
X032513Y033478D01*
X032475Y033448D01*
X032435Y033421D01*
X032393Y033398D01*
X032349Y033378D01*
X032304Y033361D01*
X032258Y033349D01*
X032210Y033340D01*
X032162Y033335D01*
X032114Y033334D01*
X032066Y033337D01*
X032018Y033344D01*
X031971Y033355D01*
X031925Y033369D01*
X031880Y033387D01*
X031837Y033409D01*
X031796Y033434D01*
X031758Y033463D01*
X031721Y033495D01*
X031687Y033529D01*
X031657Y033566D01*
X031629Y033605D01*
X031604Y033647D01*
X031584Y033691D01*
X031566Y033736D01*
X031553Y033782D01*
X031543Y033829D01*
X031537Y033877D01*
X031535Y033925D01*
X022382Y054496D02*
X022384Y054555D01*
X022390Y054614D01*
X022400Y054672D01*
X022413Y054730D01*
X022431Y054787D01*
X022452Y054842D01*
X022477Y054896D01*
X022506Y054948D01*
X022538Y054997D01*
X022573Y055045D01*
X022611Y055090D01*
X022652Y055133D01*
X022696Y055173D01*
X022742Y055209D01*
X022791Y055243D01*
X022842Y055273D01*
X022895Y055300D01*
X022950Y055323D01*
X023005Y055342D01*
X023063Y055358D01*
X023121Y055370D01*
X023179Y055378D01*
X023238Y055382D01*
X023298Y055382D01*
X023357Y055378D01*
X023415Y055370D01*
X023473Y055358D01*
X023531Y055342D01*
X023586Y055323D01*
X023641Y055300D01*
X023694Y055273D01*
X023745Y055243D01*
X023794Y055209D01*
X023840Y055173D01*
X023884Y055133D01*
X023925Y055090D01*
X023963Y055045D01*
X023998Y054997D01*
X024030Y054948D01*
X024059Y054896D01*
X024084Y054842D01*
X024105Y054787D01*
X024123Y054730D01*
X024136Y054672D01*
X024146Y054614D01*
X024152Y054555D01*
X024154Y054496D01*
X024152Y054437D01*
X024146Y054378D01*
X024136Y054320D01*
X024123Y054262D01*
X024105Y054205D01*
X024084Y054150D01*
X024059Y054096D01*
X024030Y054044D01*
X023998Y053995D01*
X023963Y053947D01*
X023925Y053902D01*
X023884Y053859D01*
X023840Y053819D01*
X023794Y053783D01*
X023745Y053749D01*
X023694Y053719D01*
X023641Y053692D01*
X023586Y053669D01*
X023531Y053650D01*
X023473Y053634D01*
X023415Y053622D01*
X023357Y053614D01*
X023298Y053610D01*
X023238Y053610D01*
X023179Y053614D01*
X023121Y053622D01*
X023063Y053634D01*
X023005Y053650D01*
X022950Y053669D01*
X022895Y053692D01*
X022842Y053719D01*
X022791Y053749D01*
X022742Y053783D01*
X022696Y053819D01*
X022652Y053859D01*
X022611Y053902D01*
X022573Y053947D01*
X022538Y053995D01*
X022506Y054044D01*
X022477Y054096D01*
X022452Y054150D01*
X022431Y054205D01*
X022413Y054262D01*
X022400Y054320D01*
X022390Y054378D01*
X022384Y054437D01*
X022382Y054496D01*
D11*
X025079Y059456D02*
X025079Y060126D01*
X025355Y060401D01*
X023662Y065067D02*
X023662Y066656D01*
X023647Y066641D01*
X023662Y065067D02*
X020158Y061563D01*
X015630Y061563D01*
X013032Y058964D01*
X012717Y058137D02*
X015945Y061366D01*
X022008Y061366D01*
X026811Y066169D01*
X026811Y066656D01*
X018662Y066720D02*
X018662Y068270D01*
X018637Y068295D01*
X018662Y066720D02*
X016299Y064358D01*
X016299Y063019D01*
X013465Y060185D01*
X013465Y059870D01*
X014567Y058452D02*
X013189Y057074D01*
X013189Y022035D01*
X015158Y020067D01*
X015433Y020067D01*
X015197Y019791D02*
X015788Y019791D01*
X015433Y019515D02*
X015236Y019515D01*
X012874Y021878D01*
X012874Y057901D01*
X013032Y058059D01*
X012717Y058137D02*
X012717Y021799D01*
X015276Y019240D01*
X015788Y019240D01*
X015197Y019791D02*
X013032Y021956D01*
X013032Y057626D01*
X013465Y058059D01*
X014849Y035933D02*
X014843Y035926D01*
X014843Y035342D01*
X014607Y035106D01*
X014607Y033846D01*
X014213Y032822D02*
X014922Y032114D01*
X017205Y032114D01*
X017796Y031523D01*
X017796Y029004D01*
X017953Y028846D01*
X018150Y028846D01*
X020906Y026090D01*
X020906Y025972D01*
X020512Y025854D02*
X020315Y026051D01*
X020079Y026051D01*
X020315Y026326D02*
X020276Y026366D01*
X020276Y026484D01*
X018071Y028689D01*
X017874Y028689D01*
X017638Y028925D01*
X017638Y031444D01*
X017126Y031956D01*
X016181Y031956D01*
X016024Y031799D01*
X016575Y031130D02*
X017008Y031130D01*
X017166Y030972D01*
X017166Y030578D01*
X017048Y030460D01*
X017048Y025539D01*
X017756Y024830D01*
X017756Y024240D01*
X017441Y023885D02*
X017441Y024909D01*
X016890Y025460D01*
X016890Y030775D01*
X018110Y029122D02*
X021555Y025677D01*
X021575Y025657D01*
X021693Y025539D01*
X022953Y025539D01*
X022677Y024830D02*
X021969Y024122D01*
X021614Y024122D01*
X020512Y025224D01*
X020512Y025854D01*
X020276Y025736D02*
X020276Y025224D01*
X021654Y023846D01*
X021929Y023846D01*
X022677Y024594D01*
X029292Y024594D01*
X029567Y024870D01*
X029567Y026208D01*
X029803Y026444D01*
X030709Y026444D01*
X030000Y025224D02*
X030000Y024712D01*
X029725Y024437D01*
X023032Y024437D01*
X022796Y024200D01*
X022796Y023807D02*
X023268Y024279D01*
X030591Y024279D01*
X031103Y023767D01*
X031103Y022507D01*
X032284Y021326D01*
X030315Y021720D02*
X030315Y023649D01*
X029843Y024122D01*
X025040Y024122D01*
X024843Y023925D01*
X025000Y024830D02*
X022677Y024830D01*
X023622Y023846D02*
X023622Y023689D01*
X023780Y023531D01*
X023780Y023059D01*
X023425Y022704D01*
X023150Y022704D01*
X021654Y021208D01*
X021654Y020657D01*
X021654Y019948D01*
X020945Y019240D01*
X020945Y014830D01*
X021339Y014437D01*
X021339Y013964D01*
X021063Y013689D01*
X021063Y012271D01*
X021181Y012153D01*
X021181Y011878D01*
X021024Y011720D01*
X020630Y011720D01*
X020512Y011838D01*
X020906Y012074D02*
X020906Y013767D01*
X021181Y014043D01*
X021181Y014358D01*
X020788Y014752D01*
X020788Y019319D01*
X021418Y019948D01*
X021418Y020381D01*
X021418Y021208D01*
X023071Y022862D01*
X023347Y022862D01*
X023504Y023019D01*
X023504Y023413D01*
X023229Y023137D02*
X023110Y023137D01*
X021181Y021208D01*
X021181Y020657D01*
X021181Y019948D01*
X020630Y019397D01*
X020630Y014358D01*
X020788Y014200D01*
X020945Y014200D01*
X021339Y014673D02*
X021575Y014673D01*
X021929Y014319D01*
X021693Y014004D02*
X021693Y010263D01*
X021536Y010106D01*
X021851Y009909D02*
X021614Y009673D01*
X021851Y009909D02*
X021851Y013610D01*
X022008Y013767D01*
X022008Y013807D01*
X021339Y014673D02*
X021103Y014909D01*
X021103Y019161D01*
X021811Y019870D01*
X021811Y020421D01*
X022166Y020775D01*
X022205Y019988D02*
X024685Y019988D01*
X026969Y017704D01*
X029095Y017704D01*
X027992Y019752D02*
X027166Y019752D01*
X026969Y019948D01*
X026499Y019948D01*
X026449Y019948D02*
X026149Y019948D01*
X026099Y019948D02*
X026137Y020386D01*
X025433Y021090D01*
X025433Y022389D01*
X024383Y019200D02*
X024083Y019200D01*
X022559Y017862D02*
X022244Y017862D01*
X021614Y018492D01*
X022559Y017862D02*
X027323Y013098D01*
X027323Y012074D01*
X029292Y021169D02*
X029292Y021444D01*
X029449Y021602D01*
X030197Y021602D01*
X030315Y021720D01*
X034410Y022583D02*
X035074Y022621D01*
X035079Y022626D01*
X034410Y022633D02*
X034410Y022933D01*
X034410Y022983D02*
X034410Y023492D01*
X034646Y023728D01*
X024488Y028854D02*
X024488Y029154D01*
X023898Y028689D02*
X023898Y027586D01*
X023898Y028689D02*
X023465Y029122D01*
X021654Y030696D02*
X020906Y030696D01*
X020670Y030933D01*
X020670Y033177D01*
X019843Y034004D01*
X019132Y030696D02*
X019160Y030669D01*
X019132Y030696D02*
X018898Y030696D01*
X018740Y030539D01*
X018740Y029397D01*
X021536Y026602D01*
X021693Y026602D01*
X021299Y027153D02*
X021299Y027311D01*
X019173Y029437D01*
X019173Y030155D01*
X019160Y030169D01*
X016457Y027114D02*
X016457Y024515D01*
X017166Y023807D01*
X017166Y022429D01*
X017205Y022389D01*
X016969Y022193D02*
X017126Y022035D01*
X016969Y022193D02*
X016969Y023728D01*
X015709Y024988D01*
X015709Y028098D01*
X015107Y026413D02*
X015107Y024370D01*
X015866Y023610D01*
X016614Y023610D01*
X016221Y021563D02*
X017481Y020303D01*
X020551Y020303D01*
D12*
X024033Y019200D03*
X024433Y019200D03*
X026099Y019948D03*
X026499Y019948D03*
D13*
X026942Y066525D02*
X026942Y066787D01*
X026942Y066525D02*
X026680Y066525D01*
X026680Y066787D01*
X026942Y066787D01*
X026942Y066612D02*
X026680Y066612D01*
X026680Y066699D02*
X026942Y066699D01*
X026942Y066786D02*
X026680Y066786D01*
X026942Y067125D02*
X026942Y067387D01*
X026942Y067125D02*
X026680Y067125D01*
X026680Y067387D01*
X026942Y067387D01*
X026942Y067212D02*
X026680Y067212D01*
X026680Y067299D02*
X026942Y067299D01*
X026942Y067386D02*
X026680Y067386D01*
X023793Y067387D02*
X023793Y067125D01*
X023531Y067125D01*
X023531Y067387D01*
X023793Y067387D01*
X023793Y067212D02*
X023531Y067212D01*
X023531Y067299D02*
X023793Y067299D01*
X023793Y067386D02*
X023531Y067386D01*
X023793Y066787D02*
X023793Y066525D01*
X023531Y066525D01*
X023531Y066787D01*
X023793Y066787D01*
X023793Y066612D02*
X023531Y066612D01*
X023531Y066699D02*
X023793Y066699D01*
X023793Y066786D02*
X023531Y066786D01*
X019368Y068164D02*
X019106Y068164D01*
X019106Y068426D01*
X019368Y068426D01*
X019368Y068164D01*
X019368Y068251D02*
X019106Y068251D01*
X019106Y068338D02*
X019368Y068338D01*
X019368Y068425D02*
X019106Y068425D01*
X018768Y068164D02*
X018506Y068164D01*
X018506Y068426D01*
X018768Y068426D01*
X018768Y068164D01*
X018768Y068251D02*
X018506Y068251D01*
X018506Y068338D02*
X018768Y068338D01*
X018768Y068425D02*
X018506Y068425D01*
D14*
X019660Y030169D03*
X019081Y008507D03*
X029203Y006956D03*
D15*
X031112Y006956D03*
X019581Y007007D03*
X019581Y006507D03*
X019081Y006507D03*
X019081Y007007D03*
X019081Y007507D03*
X019581Y007507D03*
X019581Y008007D03*
X019081Y008007D03*
X019581Y008507D03*
X019160Y030169D03*
X019160Y030669D03*
X019660Y030669D03*
X019660Y031169D03*
X019660Y031669D03*
X019660Y032169D03*
X019160Y032169D03*
X019160Y031669D03*
X019160Y031169D03*
D16*
X022948Y012476D02*
X022948Y011471D01*
X023745Y009774D02*
X024750Y009774D01*
X025548Y011471D02*
X025548Y012476D01*
D17*
X018607Y040815D03*
X017607Y040815D03*
X016607Y040815D03*
X015607Y040815D03*
X014607Y040815D03*
D18*
X015107Y030413D03*
X015107Y029413D03*
X015107Y028413D03*
X015107Y027413D03*
X015107Y026413D03*
X014107Y026413D03*
X014107Y027413D03*
X014107Y028413D03*
X014107Y029413D03*
X014107Y030413D03*
D19*
X030256Y033925D03*
X030807Y035244D03*
X030807Y032606D03*
X033445Y032606D03*
X033996Y033925D03*
X033445Y035244D03*
D20*
G36*
X017987Y026865D02*
X018354Y027232D01*
X018721Y026865D01*
X018354Y026498D01*
X017987Y026865D01*
G37*
G36*
X017975Y019106D02*
X017608Y019473D01*
X017975Y019840D01*
X018342Y019473D01*
X017975Y019106D01*
G37*
D21*
X018541Y018908D03*
X017788Y026299D03*
X014849Y035933D03*
X029764Y022311D03*
X018196Y011011D03*
D22*
X020512Y068570D03*
X021693Y068570D03*
X023662Y068570D03*
X024843Y068570D03*
X026811Y068570D03*
X027992Y068570D03*
D23*
X029764Y059043D03*
X030551Y059043D03*
X030551Y054173D03*
X029764Y054173D03*
D24*
X028910Y054990D03*
X028910Y055490D03*
X028910Y055990D03*
X028910Y056490D03*
X028910Y056990D03*
X028910Y057490D03*
D25*
X034315Y059019D03*
X034315Y054196D03*
D26*
X034087Y055637D03*
X034087Y057574D03*
D27*
X030055Y059673D03*
X029555Y059673D03*
X029055Y059673D03*
D28*
X028860Y052665D03*
X028360Y052665D03*
X027860Y052665D03*
X027360Y052665D03*
X027360Y050539D03*
X027860Y050539D03*
X028360Y050539D03*
X028860Y050539D03*
D29*
X028110Y051602D03*
D30*
X028740Y005775D03*
X031575Y005775D03*
D31*
X029922Y017347D03*
X029922Y017747D03*
X034410Y022583D03*
X034410Y022983D03*
X024488Y028804D03*
X024488Y029204D03*
D32*
X029941Y015736D03*
X032500Y015736D03*
D33*
X029764Y023098D03*
X017396Y011011D03*
X014049Y035933D03*
D34*
X013662Y034378D03*
X014213Y032822D03*
X014607Y033846D03*
X016024Y031799D03*
X016575Y031130D03*
X016890Y030775D03*
X018110Y029122D03*
X016457Y027114D03*
X015709Y028098D03*
X017756Y024240D03*
X017441Y023885D03*
X017205Y022389D03*
X017126Y022035D03*
X016221Y021563D03*
X015433Y020067D03*
X015788Y019791D03*
X015433Y019515D03*
X015788Y019240D03*
X017087Y016090D03*
X017402Y015578D03*
X017402Y015224D03*
X017756Y015224D03*
X017756Y015578D03*
X017402Y014870D03*
X015906Y011681D03*
X016201Y011385D03*
X015906Y011090D03*
X016201Y010795D03*
X016496Y011090D03*
X016792Y010795D03*
X016496Y010500D03*
X016201Y010204D03*
X015906Y009909D03*
X016496Y009909D03*
X016792Y010204D03*
X017087Y010460D03*
X017087Y009909D03*
X017481Y009456D03*
X017481Y008866D03*
X017481Y008275D03*
X017481Y007685D03*
X017284Y007291D03*
X016890Y007685D03*
X016496Y007291D03*
X016103Y007685D03*
X015709Y007291D03*
X015315Y007685D03*
X014922Y007291D03*
X014646Y009850D03*
X014646Y010204D03*
X014646Y010559D03*
X014646Y010913D03*
X014646Y011267D03*
X014646Y011622D03*
X015414Y011681D03*
X015414Y010795D03*
X015414Y010500D03*
X015906Y010500D03*
X019095Y010342D03*
X020197Y010027D03*
X020433Y010263D03*
X020670Y010539D03*
X020906Y010815D03*
X021536Y010106D03*
X021614Y009673D03*
X020512Y011838D03*
X020906Y012074D03*
X022008Y013807D03*
X021693Y014004D03*
X021929Y014319D03*
X022481Y013334D03*
X023386Y014909D03*
X020945Y014200D03*
X021614Y018492D03*
X022205Y019988D03*
X022166Y020775D03*
X021654Y020657D03*
X021418Y020381D03*
X021181Y020657D03*
X020551Y020303D03*
X022894Y021622D03*
X023366Y021031D03*
X023681Y021031D03*
X023524Y020716D03*
X023366Y020401D03*
X023721Y020401D03*
X023878Y020716D03*
X024075Y020401D03*
X025040Y020460D03*
X025394Y020460D03*
X025394Y020106D03*
X025040Y020106D03*
X026181Y021366D03*
X026614Y021366D03*
X026733Y021720D03*
X026733Y021011D03*
X028189Y020618D03*
X028189Y020263D03*
X027992Y019752D03*
X028859Y021130D03*
X028859Y021484D03*
X029292Y021169D03*
X028544Y022271D03*
X028544Y022586D03*
X028189Y022586D03*
X028189Y022271D03*
X027835Y022271D03*
X027835Y022586D03*
X030000Y025224D03*
X030709Y026444D03*
X031890Y026484D03*
X034646Y023728D03*
X035079Y023098D03*
X035670Y021523D03*
X035670Y021169D03*
X035670Y020815D03*
X035670Y020460D03*
X035079Y020027D03*
X034410Y020145D03*
X034016Y020145D03*
X033583Y019870D03*
X033701Y020578D03*
X033701Y020933D03*
X033465Y021996D03*
X033071Y021996D03*
X032677Y021996D03*
X032284Y021326D03*
X031614Y021287D03*
X031260Y021287D03*
X030906Y021287D03*
X030906Y020933D03*
X031260Y020933D03*
X031614Y020933D03*
X031614Y020578D03*
X031260Y020578D03*
X030906Y020578D03*
X030551Y021130D03*
X029095Y017704D03*
X028307Y016346D03*
X027914Y016346D03*
X027520Y016346D03*
X027126Y016346D03*
X026733Y016346D03*
X023583Y019200D03*
X025433Y022389D03*
X024843Y023925D03*
X025000Y024830D03*
X023524Y025204D03*
X023524Y025598D03*
X023524Y025992D03*
X022953Y025539D03*
X022796Y024200D03*
X022796Y023807D03*
X023229Y023137D03*
X023504Y023413D03*
X023622Y023846D03*
X021969Y026169D03*
X021693Y026602D03*
X021299Y027153D03*
X021024Y027901D03*
X020315Y026326D03*
X020079Y026051D03*
X020276Y025736D03*
X020906Y025972D03*
X023898Y027586D03*
X023465Y029122D03*
X025512Y028846D03*
X025906Y029437D03*
X026929Y030736D03*
X026910Y027960D03*
X026516Y027960D03*
X026614Y027468D03*
X027382Y027960D03*
X027855Y027960D03*
X028248Y027960D03*
X028229Y027468D03*
X027776Y026897D03*
X027776Y026543D03*
X027382Y026543D03*
X027382Y026897D03*
X021654Y030696D03*
X021713Y031307D03*
X022067Y031307D03*
X021359Y031307D03*
X019843Y034004D03*
X017914Y036130D03*
X012048Y036287D03*
X012048Y035696D03*
X012048Y035106D03*
X012048Y034515D03*
X012048Y033925D03*
X012048Y033334D03*
X012048Y032744D03*
X012048Y032153D03*
X012048Y031563D03*
X012048Y030972D03*
X012048Y030381D03*
X012048Y029791D03*
X012048Y029200D03*
X012048Y028610D03*
X012048Y028019D03*
X012048Y027429D03*
X012048Y026838D03*
X012048Y026248D03*
X012048Y025657D03*
X012048Y025067D03*
X012048Y024476D03*
X012048Y023885D03*
X012048Y023295D03*
X012048Y022704D03*
X012048Y022114D03*
X012048Y021523D03*
X012048Y020933D03*
X012048Y020362D03*
X012048Y020342D03*
X012048Y019752D03*
X012048Y019161D03*
X016614Y023610D03*
X012048Y036878D03*
X012048Y037468D03*
X012048Y038059D03*
X012048Y038649D03*
X012048Y039240D03*
X012048Y039830D03*
X012048Y040421D03*
X012048Y041011D03*
X012048Y041602D03*
X012048Y042193D03*
X012048Y042783D03*
X012048Y043374D03*
X012048Y043964D03*
X012048Y044555D03*
X012048Y045145D03*
X012048Y045736D03*
X012048Y046326D03*
X012048Y046917D03*
X012048Y047507D03*
X012048Y048098D03*
X012048Y048689D03*
X012048Y049279D03*
X012048Y049870D03*
X012048Y050460D03*
X012048Y051051D03*
X012048Y051641D03*
X012048Y052232D03*
X012048Y052822D03*
X012048Y053413D03*
X012048Y054004D03*
X012048Y054594D03*
X012048Y055185D03*
X012048Y055775D03*
X012048Y056366D03*
X012048Y056956D03*
X012048Y057547D03*
X012048Y058137D03*
X012048Y058728D03*
X012048Y059319D03*
X012048Y059909D03*
X012048Y060500D03*
X012048Y061090D03*
X013465Y059870D03*
X013032Y058964D03*
X013032Y058059D03*
X013465Y058059D03*
X014567Y058452D03*
X018898Y060145D03*
X019213Y060145D03*
X019528Y060145D03*
X019843Y060145D03*
X020355Y060145D03*
X020748Y060145D03*
X021693Y059830D03*
X021693Y059515D03*
X022008Y059515D03*
X022008Y059830D03*
X025079Y059456D03*
X025355Y060401D03*
X025689Y060421D03*
X026457Y059082D03*
X026260Y057035D03*
X028360Y054096D03*
X031063Y055500D03*
X030709Y057507D03*
X029370Y057862D03*
X031890Y060657D03*
X032166Y060972D03*
X036457Y061090D03*
X036457Y060500D03*
X036457Y059909D03*
X036457Y059319D03*
X036457Y058728D03*
X036457Y058137D03*
X036457Y057547D03*
X036457Y056956D03*
X036457Y056366D03*
X036457Y055775D03*
X036457Y055185D03*
X036457Y054594D03*
X036457Y054004D03*
X036457Y053413D03*
X036457Y052822D03*
X036457Y052232D03*
X036457Y051641D03*
X036457Y051051D03*
X036457Y050460D03*
X036457Y049870D03*
X036457Y049279D03*
X036457Y048689D03*
X036457Y048098D03*
X036457Y047507D03*
X036457Y046917D03*
X036457Y046326D03*
X036457Y045736D03*
X036457Y045145D03*
X036457Y044555D03*
X036457Y043964D03*
X036457Y043374D03*
X036457Y042783D03*
X036457Y042193D03*
X036457Y041602D03*
X036457Y041011D03*
X036457Y040421D03*
X036457Y039830D03*
X036457Y039240D03*
X036457Y038649D03*
X036457Y038059D03*
X036457Y037468D03*
X036457Y036878D03*
X036457Y036287D03*
X036457Y035696D03*
X036457Y035106D03*
X036457Y034515D03*
X036457Y033925D03*
X036457Y033334D03*
X036457Y032744D03*
X036457Y032153D03*
X036457Y031563D03*
X036457Y030972D03*
X036457Y030381D03*
X036457Y029791D03*
X036457Y029200D03*
X036457Y028610D03*
X036457Y028019D03*
X036457Y027429D03*
X036457Y026838D03*
X036457Y026248D03*
X036457Y025657D03*
X036457Y025067D03*
X036457Y024476D03*
X036457Y023885D03*
X036457Y023295D03*
X036457Y022704D03*
X036457Y022114D03*
X036457Y021523D03*
X036457Y020933D03*
X036457Y020362D03*
X036457Y020342D03*
X036457Y019752D03*
X036457Y019161D03*
X030729Y009378D03*
X030453Y009063D03*
X031044Y009063D03*
X031044Y008511D03*
X030945Y007921D03*
X031299Y007921D03*
X031299Y007527D03*
X030945Y007527D03*
X030591Y007527D03*
X029666Y009063D03*
X029429Y009378D03*
X029193Y009063D03*
X027323Y012074D03*
X026260Y043964D03*
X026260Y046602D03*
X031063Y052665D03*
X024607Y067311D03*
X024607Y067626D03*
X024292Y067626D03*
X024292Y067311D03*
X022796Y067311D03*
X022481Y067311D03*
X022166Y067311D03*
X021851Y067311D03*
X021536Y067311D03*
X019370Y067153D03*
X019016Y067153D03*
X019016Y067507D03*
X019370Y067507D03*
X019016Y067862D03*
X018150Y068098D03*
X017756Y068098D03*
X017362Y067783D03*
X016969Y067783D03*
X016851Y067389D03*
X016851Y067035D03*
X016851Y066681D03*
X016851Y066326D03*
X016851Y065972D03*
X017244Y065854D03*
X017244Y066208D03*
X016496Y066326D03*
X016496Y066681D03*
X016496Y067035D03*
X016496Y067389D03*
X015689Y068275D03*
X015394Y068767D03*
X015099Y068275D03*
X014803Y068767D03*
X015985Y068767D03*
X018622Y063256D03*
X018622Y062941D03*
X018622Y062626D03*
X018622Y062311D03*
X018622Y061996D03*
X026024Y068767D03*
X028977Y068767D03*
X029567Y068767D03*
X030158Y068767D03*
X030748Y068767D03*
X031044Y068275D03*
X031339Y068767D03*
X031634Y068275D03*
X031929Y068767D03*
X032225Y068275D03*
X032520Y068767D03*
X032815Y068275D03*
X033110Y068767D03*
X033406Y068275D03*
X033701Y068767D03*
D35*
X032166Y060972D02*
X033110Y060027D01*
X033110Y057114D01*
X032481Y056484D01*
X028916Y056484D01*
X028910Y056490D01*
X028589Y056490D01*
X028347Y056248D01*
X028347Y054110D01*
X028360Y054096D01*
X028360Y052665D01*
X027860Y052665D02*
X027860Y056706D01*
X028622Y057468D01*
X030069Y057468D01*
X028910Y057490D01*
X030109Y057507D01*
X030709Y057507D01*
X031103Y057862D02*
X031378Y057586D01*
X031378Y056996D01*
X031418Y056956D01*
X030124Y056956D01*
X028910Y056990D01*
X028910Y056490D02*
X028786Y056490D01*
X028920Y055500D02*
X028910Y055490D01*
X028920Y055500D02*
X031063Y055500D01*
X031418Y056956D02*
X032559Y056956D01*
X032914Y057311D01*
X032914Y059633D01*
X031890Y060657D01*
X031103Y057862D02*
X029370Y057862D01*
X027638Y057862D01*
X026772Y056996D01*
X026772Y050145D01*
X027008Y049909D01*
X027599Y049909D01*
X027860Y050171D01*
X027860Y050539D01*
X028860Y052665D02*
X031063Y052665D01*
X026024Y058649D02*
X026457Y059082D01*
X026024Y058649D02*
X020906Y058649D01*
X020394Y059161D01*
X020355Y059161D01*
X020355Y060145D01*
X026260Y057035D02*
X026260Y046602D01*
X026260Y043964D02*
X026260Y043767D01*
X026929Y043098D01*
X026929Y030736D01*
X025512Y028846D02*
X025507Y028841D01*
X024488Y028804D01*
X024488Y029204D02*
X024488Y030106D01*
X024449Y030145D01*
X026614Y027468D02*
X028229Y027468D01*
X031890Y026484D02*
X033445Y028039D01*
X033445Y032606D01*
X035079Y023098D02*
X035079Y022626D01*
X035079Y020027D01*
X033583Y019870D02*
X033544Y019830D01*
X030985Y019830D01*
X030551Y020263D01*
X030551Y021130D01*
X029922Y017747D02*
X029917Y017704D01*
X029095Y017704D01*
X029922Y017347D02*
X029922Y015756D01*
X029941Y015736D01*
X024607Y018295D02*
X024607Y018846D01*
X024449Y019004D01*
X024449Y019146D01*
X024433Y019200D01*
X024033Y019200D02*
X023583Y019200D01*
X023386Y014909D02*
X023386Y014515D01*
X022481Y013610D01*
X022481Y013334D01*
X022481Y013098D01*
X022205Y012822D01*
X022205Y009397D01*
X021929Y009122D01*
X019095Y009122D01*
X019095Y010342D01*
X019095Y011759D01*
X018859Y011996D01*
X017599Y011996D01*
X017087Y012507D01*
X017087Y016090D01*
X019095Y009122D02*
X019095Y008521D01*
X019081Y008507D01*
X021969Y026169D02*
X021969Y026956D01*
X021024Y027901D01*
X017914Y036130D02*
X017607Y036437D01*
X017607Y040815D01*
D36*
X019660Y030169D02*
X019683Y030145D01*
X024449Y030145D01*
X025197Y030145D01*
X025906Y029437D01*
X025906Y025067D02*
X028544Y025067D01*
X029449Y033610D02*
X029449Y041996D01*
X027756Y043689D01*
D37*
X027954Y043859D02*
X036671Y043859D01*
X036671Y044017D02*
X027795Y044017D01*
X027637Y044176D02*
X036671Y044176D01*
X036671Y044334D02*
X027478Y044334D01*
X027320Y044493D02*
X036671Y044493D01*
X036671Y044651D02*
X027161Y044651D01*
X027003Y044810D02*
X036671Y044810D01*
X036671Y044968D02*
X026844Y044968D01*
X026686Y045127D02*
X036671Y045127D01*
X036671Y045285D02*
X026527Y045285D01*
X026369Y045444D02*
X036671Y045444D01*
X036671Y045602D02*
X026210Y045602D01*
X026052Y045761D02*
X036671Y045761D01*
X036671Y045919D02*
X025893Y045919D01*
X025735Y046078D02*
X036671Y046078D01*
X036671Y046236D02*
X025576Y046236D01*
X025418Y046395D02*
X026100Y046395D01*
X026113Y046382D02*
X026208Y046342D01*
X026312Y046342D01*
X026407Y046382D01*
X026481Y046455D01*
X026520Y046550D01*
X026520Y046654D01*
X026481Y046749D01*
X026460Y046770D01*
X026460Y056867D01*
X026481Y056888D01*
X026520Y056983D01*
X026520Y057087D01*
X026481Y057182D01*
X026407Y057255D01*
X026312Y057295D01*
X026208Y057295D01*
X026113Y057255D01*
X026040Y057182D01*
X026000Y057087D01*
X026000Y056983D01*
X026040Y056888D01*
X026060Y056867D01*
X026060Y046770D01*
X026040Y046749D01*
X026000Y046654D01*
X026000Y046550D01*
X026040Y046455D01*
X026113Y046382D01*
X026000Y046553D02*
X025259Y046553D01*
X025101Y046712D02*
X026024Y046712D01*
X026060Y046870D02*
X024942Y046870D01*
X024784Y047029D02*
X026060Y047029D01*
X026060Y047187D02*
X024625Y047187D01*
X024467Y047346D02*
X026060Y047346D01*
X026060Y047504D02*
X024308Y047504D01*
X024150Y047663D02*
X026060Y047663D01*
X026060Y047821D02*
X023991Y047821D01*
X023833Y047980D02*
X026060Y047980D01*
X026060Y048138D02*
X023674Y048138D01*
X023516Y048297D02*
X026060Y048297D01*
X026060Y048455D02*
X023357Y048455D01*
X023199Y048614D02*
X026060Y048614D01*
X026060Y048772D02*
X023040Y048772D01*
X022882Y048931D02*
X026060Y048931D01*
X026060Y049089D02*
X022723Y049089D01*
X022565Y049248D02*
X026060Y049248D01*
X026060Y049406D02*
X022406Y049406D01*
X022248Y049565D02*
X026060Y049565D01*
X026060Y049723D02*
X022089Y049723D01*
X021931Y049882D02*
X026060Y049882D01*
X026060Y050040D02*
X021772Y050040D01*
X021614Y050199D02*
X026060Y050199D01*
X026060Y050357D02*
X021455Y050357D01*
X021297Y050516D02*
X026060Y050516D01*
X026060Y050674D02*
X021138Y050674D01*
X020980Y050833D02*
X026060Y050833D01*
X026060Y050991D02*
X020821Y050991D01*
X020663Y051150D02*
X026060Y051150D01*
X026060Y051308D02*
X020504Y051308D01*
X020346Y051467D02*
X026060Y051467D01*
X026060Y051625D02*
X020187Y051625D01*
X020029Y051784D02*
X026060Y051784D01*
X026060Y051942D02*
X019870Y051942D01*
X019712Y052101D02*
X026060Y052101D01*
X026060Y052259D02*
X019553Y052259D01*
X019395Y052418D02*
X026060Y052418D01*
X026060Y052576D02*
X019236Y052576D01*
X019078Y052735D02*
X026060Y052735D01*
X026060Y052893D02*
X018919Y052893D01*
X018761Y053052D02*
X026060Y053052D01*
X026060Y053210D02*
X018602Y053210D01*
X018444Y053369D02*
X026060Y053369D01*
X026060Y053527D02*
X023722Y053527D01*
X023679Y053502D02*
X023922Y053643D01*
X024121Y053841D01*
X024261Y054084D01*
X024334Y054355D01*
X024334Y054636D01*
X024261Y054907D01*
X024121Y055150D01*
X023922Y055349D01*
X023679Y055489D01*
X023408Y055561D01*
X023128Y055561D01*
X022857Y055489D01*
X022614Y055349D01*
X022415Y055150D01*
X022275Y054907D01*
X022202Y054636D01*
X022202Y054355D01*
X022275Y054084D01*
X022415Y053841D01*
X022614Y053643D01*
X022857Y053502D01*
X023128Y053430D01*
X023408Y053430D01*
X023679Y053502D01*
X023965Y053686D02*
X026060Y053686D01*
X026060Y053844D02*
X024123Y053844D01*
X024214Y054003D02*
X026060Y054003D01*
X026060Y054161D02*
X024282Y054161D01*
X024324Y054320D02*
X026060Y054320D01*
X026060Y054478D02*
X024334Y054478D01*
X024334Y054637D02*
X026060Y054637D01*
X026060Y054795D02*
X024291Y054795D01*
X024234Y054954D02*
X026060Y054954D01*
X026060Y055112D02*
X024143Y055112D01*
X024000Y055271D02*
X026060Y055271D01*
X026060Y055429D02*
X023783Y055429D01*
X022753Y055429D02*
X016383Y055429D01*
X016542Y055271D02*
X022536Y055271D01*
X022393Y055112D02*
X016700Y055112D01*
X016859Y054954D02*
X022302Y054954D01*
X022245Y054795D02*
X017017Y054795D01*
X017176Y054637D02*
X022202Y054637D01*
X022202Y054478D02*
X017334Y054478D01*
X017493Y054320D02*
X022212Y054320D01*
X022254Y054161D02*
X017651Y054161D01*
X017810Y054003D02*
X022322Y054003D01*
X022413Y053844D02*
X017968Y053844D01*
X018127Y053686D02*
X022571Y053686D01*
X022814Y053527D02*
X018285Y053527D01*
X017867Y053210D02*
X013369Y053210D01*
X013369Y053052D02*
X018025Y053052D01*
X018184Y052893D02*
X013369Y052893D01*
X013369Y052735D02*
X018342Y052735D01*
X018501Y052576D02*
X013369Y052576D01*
X013369Y052418D02*
X018659Y052418D01*
X018818Y052259D02*
X013369Y052259D01*
X013369Y052101D02*
X018976Y052101D01*
X019135Y051942D02*
X013369Y051942D01*
X013369Y051784D02*
X019293Y051784D01*
X019452Y051625D02*
X013369Y051625D01*
X013369Y051467D02*
X019610Y051467D01*
X019769Y051308D02*
X013369Y051308D01*
X013369Y051150D02*
X019927Y051150D01*
X020086Y050991D02*
X013369Y050991D01*
X013369Y050833D02*
X020244Y050833D01*
X020403Y050674D02*
X013369Y050674D01*
X013369Y050516D02*
X020561Y050516D01*
X020720Y050357D02*
X013369Y050357D01*
X013369Y050199D02*
X020878Y050199D01*
X021037Y050040D02*
X013369Y050040D01*
X013369Y049882D02*
X021195Y049882D01*
X021354Y049723D02*
X013369Y049723D01*
X013369Y049565D02*
X021512Y049565D01*
X021671Y049406D02*
X013369Y049406D01*
X013369Y049248D02*
X021829Y049248D01*
X021988Y049089D02*
X013369Y049089D01*
X013369Y048931D02*
X022146Y048931D01*
X022305Y048772D02*
X013369Y048772D01*
X013369Y048614D02*
X022463Y048614D01*
X022622Y048455D02*
X013369Y048455D01*
X013369Y048297D02*
X022780Y048297D01*
X022939Y048138D02*
X013369Y048138D01*
X013369Y047980D02*
X023097Y047980D01*
X023256Y047821D02*
X013369Y047821D01*
X013369Y047663D02*
X023414Y047663D01*
X023573Y047504D02*
X013369Y047504D01*
X013369Y047346D02*
X023731Y047346D01*
X023890Y047187D02*
X013369Y047187D01*
X013369Y047029D02*
X024048Y047029D01*
X024207Y046870D02*
X013369Y046870D01*
X013369Y046712D02*
X024365Y046712D01*
X024524Y046553D02*
X013369Y046553D01*
X013369Y046395D02*
X024682Y046395D01*
X024841Y046236D02*
X013369Y046236D01*
X013369Y046078D02*
X024999Y046078D01*
X025158Y045919D02*
X013369Y045919D01*
X013369Y045761D02*
X025316Y045761D01*
X025475Y045602D02*
X013369Y045602D01*
X013369Y045444D02*
X025633Y045444D01*
X025792Y045285D02*
X013369Y045285D01*
X013369Y045127D02*
X025950Y045127D01*
X026109Y044968D02*
X013369Y044968D01*
X013369Y044810D02*
X026267Y044810D01*
X026426Y044651D02*
X013369Y044651D01*
X013369Y044493D02*
X026584Y044493D01*
X026743Y044334D02*
X013369Y044334D01*
X013369Y044176D02*
X026104Y044176D01*
X026113Y044185D02*
X026040Y044111D01*
X026000Y044016D01*
X026000Y043912D01*
X026040Y043817D01*
X026060Y043796D01*
X026060Y043684D01*
X026729Y043015D01*
X026729Y030904D01*
X026709Y030883D01*
X026669Y030788D01*
X026669Y030684D01*
X026709Y030589D01*
X026782Y030515D01*
X026878Y030476D01*
X026981Y030476D01*
X027077Y030515D01*
X027150Y030589D01*
X027189Y030684D01*
X027189Y030788D01*
X027150Y030883D01*
X027129Y030904D01*
X027129Y043181D01*
X026484Y043826D01*
X026520Y043912D01*
X026520Y044016D01*
X026481Y044111D01*
X026407Y044185D01*
X026312Y044224D01*
X026208Y044224D01*
X026113Y044185D01*
X026001Y044017D02*
X013369Y044017D01*
X013369Y043859D02*
X026022Y043859D01*
X026060Y043700D02*
X013369Y043700D01*
X013369Y043542D02*
X026203Y043542D01*
X026361Y043383D02*
X013369Y043383D01*
X013369Y043225D02*
X026520Y043225D01*
X026678Y043066D02*
X013369Y043066D01*
X013369Y042908D02*
X026729Y042908D01*
X026729Y042749D02*
X013369Y042749D01*
X013369Y042591D02*
X026729Y042591D01*
X026729Y042432D02*
X013369Y042432D01*
X013369Y042274D02*
X026729Y042274D01*
X026729Y042115D02*
X013369Y042115D01*
X013369Y041957D02*
X026729Y041957D01*
X026729Y041798D02*
X013369Y041798D01*
X013369Y041640D02*
X026729Y041640D01*
X026729Y041481D02*
X013369Y041481D01*
X013369Y041323D02*
X014501Y041323D01*
X014505Y041325D02*
X014318Y041247D01*
X014174Y041103D01*
X014097Y040916D01*
X014097Y040713D01*
X014174Y040526D01*
X014318Y040382D01*
X014505Y040305D01*
X014708Y040305D01*
X014895Y040382D01*
X015039Y040526D01*
X015107Y040689D01*
X015106Y040689D01*
X015107Y040689D02*
X015174Y040526D01*
X015318Y040382D01*
X015505Y040305D01*
X015708Y040305D01*
X015895Y040382D01*
X016039Y040526D01*
X016107Y040689D01*
X016106Y040689D01*
X016107Y040689D02*
X016174Y040526D01*
X016318Y040382D01*
X016505Y040305D01*
X016708Y040305D01*
X016895Y040382D01*
X017039Y040526D01*
X017107Y040689D01*
X017106Y040689D01*
X017107Y040689D02*
X017174Y040526D01*
X017318Y040382D01*
X017407Y040345D01*
X017407Y036354D01*
X017654Y036107D01*
X017654Y036078D01*
X017693Y035982D01*
X017766Y035909D01*
X017862Y035870D01*
X017965Y035870D01*
X018061Y035909D01*
X018134Y035982D01*
X018174Y036078D01*
X018174Y036181D01*
X018134Y036277D01*
X018061Y036350D01*
X017965Y036390D01*
X017936Y036390D01*
X017807Y036519D01*
X017807Y040345D01*
X017895Y040382D01*
X018039Y040526D01*
X018086Y040638D01*
X018097Y040603D01*
X018136Y040526D01*
X018187Y040456D01*
X018248Y040395D01*
X018318Y040344D01*
X018395Y040305D01*
X018478Y040278D01*
X018563Y040265D01*
X018587Y040265D01*
X018587Y040795D01*
X018627Y040795D01*
X018627Y040835D01*
X018587Y040835D01*
X018587Y041365D01*
X018563Y041365D01*
X018478Y041351D01*
X018395Y041324D01*
X018318Y041285D01*
X018248Y041234D01*
X018187Y041173D01*
X018136Y041103D01*
X018097Y041026D01*
X018086Y040991D01*
X018039Y041103D01*
X017895Y041247D01*
X017708Y041325D01*
X017505Y041325D01*
X017318Y041247D01*
X017174Y041103D01*
X017107Y040940D01*
X017039Y041103D01*
X016895Y041247D01*
X016708Y041325D01*
X016505Y041325D01*
X016318Y041247D01*
X016174Y041103D01*
X016107Y040940D01*
X016039Y041103D01*
X015895Y041247D01*
X015708Y041325D01*
X015505Y041325D01*
X015318Y041247D01*
X015174Y041103D01*
X015107Y040940D01*
X015039Y041103D01*
X014895Y041247D01*
X014708Y041325D01*
X014505Y041325D01*
X014713Y041323D02*
X015501Y041323D01*
X015713Y041323D02*
X016501Y041323D01*
X016713Y041323D02*
X017501Y041323D01*
X017713Y041323D02*
X018392Y041323D01*
X018587Y041323D02*
X018627Y041323D01*
X018627Y041365D02*
X018627Y040835D01*
X019157Y040835D01*
X019157Y040858D01*
X019143Y040943D01*
X019116Y041026D01*
X019077Y041103D01*
X019026Y041173D01*
X018965Y041234D01*
X018895Y041285D01*
X018818Y041324D01*
X018735Y041351D01*
X018650Y041365D01*
X018627Y041365D01*
X018821Y041323D02*
X026729Y041323D01*
X026729Y041164D02*
X019032Y041164D01*
X019123Y041006D02*
X026729Y041006D01*
X026729Y040847D02*
X019157Y040847D01*
X019157Y040795D02*
X018627Y040795D01*
X018627Y040265D01*
X018650Y040265D01*
X018735Y040278D01*
X018818Y040305D01*
X018895Y040344D01*
X018965Y040395D01*
X019026Y040456D01*
X019077Y040526D01*
X019116Y040603D01*
X019143Y040686D01*
X019157Y040771D01*
X019157Y040795D01*
X019143Y040689D02*
X026729Y040689D01*
X026729Y040530D02*
X019079Y040530D01*
X018933Y040372D02*
X026729Y040372D01*
X026729Y040213D02*
X017807Y040213D01*
X017807Y040055D02*
X026729Y040055D01*
X026729Y039896D02*
X017807Y039896D01*
X017807Y039738D02*
X026729Y039738D01*
X026729Y039579D02*
X017807Y039579D01*
X017807Y039421D02*
X026729Y039421D01*
X026729Y039262D02*
X017807Y039262D01*
X017807Y039104D02*
X026729Y039104D01*
X026729Y038945D02*
X017807Y038945D01*
X017807Y038787D02*
X026729Y038787D01*
X026729Y038628D02*
X017807Y038628D01*
X017807Y038470D02*
X026729Y038470D01*
X026729Y038311D02*
X017807Y038311D01*
X017807Y038153D02*
X026729Y038153D01*
X026729Y037994D02*
X017807Y037994D01*
X017807Y037836D02*
X026729Y037836D01*
X026729Y037677D02*
X017807Y037677D01*
X017807Y037519D02*
X026729Y037519D01*
X026729Y037360D02*
X017807Y037360D01*
X017807Y037202D02*
X026729Y037202D01*
X026729Y037043D02*
X017807Y037043D01*
X017807Y036885D02*
X026729Y036885D01*
X026729Y036726D02*
X017807Y036726D01*
X017807Y036568D02*
X026729Y036568D01*
X026729Y036409D02*
X017917Y036409D01*
X018145Y036251D02*
X026729Y036251D01*
X026729Y036092D02*
X018174Y036092D01*
X018086Y035934D02*
X026729Y035934D01*
X026729Y035775D02*
X015217Y035775D01*
X015188Y035706D02*
X015249Y035853D01*
X015249Y036012D01*
X015188Y036159D01*
X015076Y036272D01*
X014929Y036333D01*
X014770Y036333D01*
X014622Y036272D01*
X014510Y036159D01*
X014449Y036012D01*
X014449Y035853D01*
X014510Y035706D01*
X014622Y035594D01*
X014663Y035577D01*
X014663Y035417D01*
X014427Y035180D01*
X014427Y034034D01*
X014386Y033993D01*
X014347Y033898D01*
X014347Y033794D01*
X014386Y033699D01*
X014459Y033626D01*
X014555Y033586D01*
X014658Y033586D01*
X014754Y033626D01*
X014827Y033699D01*
X014867Y033794D01*
X014867Y033898D01*
X014827Y033993D01*
X014787Y034034D01*
X014787Y035031D01*
X014917Y035162D01*
X015023Y035268D01*
X015023Y035572D01*
X015076Y035594D01*
X015188Y035706D01*
X015099Y035617D02*
X026729Y035617D01*
X026729Y035458D02*
X015023Y035458D01*
X015023Y035300D02*
X026729Y035300D01*
X026729Y035141D02*
X014896Y035141D01*
X014787Y034983D02*
X026729Y034983D01*
X026729Y034824D02*
X014787Y034824D01*
X014787Y034666D02*
X026729Y034666D01*
X026729Y034507D02*
X014787Y034507D01*
X014787Y034349D02*
X026729Y034349D01*
X026729Y034190D02*
X020024Y034190D01*
X019990Y034224D02*
X019894Y034264D01*
X019791Y034264D01*
X019696Y034224D01*
X019622Y034151D01*
X019583Y034055D01*
X019583Y033952D01*
X019622Y033856D01*
X019696Y033783D01*
X019791Y033744D01*
X019848Y033744D01*
X020490Y033102D01*
X020490Y030858D01*
X020595Y030753D01*
X020831Y030516D01*
X021466Y030516D01*
X021507Y030476D01*
X021602Y030436D01*
X021706Y030436D01*
X021801Y030476D01*
X021874Y030549D01*
X021914Y030645D01*
X021914Y030748D01*
X021874Y030844D01*
X021801Y030917D01*
X021706Y030956D01*
X021602Y030956D01*
X021507Y030917D01*
X021466Y030876D01*
X020980Y030876D01*
X020850Y031007D01*
X020850Y033251D01*
X020103Y033998D01*
X020103Y034055D01*
X020063Y034151D01*
X019990Y034224D01*
X020103Y034032D02*
X026729Y034032D01*
X026729Y033873D02*
X020228Y033873D01*
X020386Y033715D02*
X026729Y033715D01*
X026729Y033556D02*
X020545Y033556D01*
X020703Y033398D02*
X026729Y033398D01*
X026729Y033239D02*
X020850Y033239D01*
X020850Y033081D02*
X026729Y033081D01*
X026729Y032922D02*
X020850Y032922D01*
X020850Y032764D02*
X026729Y032764D01*
X026729Y032605D02*
X020850Y032605D01*
X020850Y032447D02*
X026729Y032447D01*
X026729Y032288D02*
X020850Y032288D01*
X020850Y032130D02*
X026729Y032130D01*
X026729Y031971D02*
X020850Y031971D01*
X020850Y031813D02*
X026729Y031813D01*
X026729Y031654D02*
X020850Y031654D01*
X020850Y031496D02*
X026729Y031496D01*
X026729Y031337D02*
X020850Y031337D01*
X020850Y031179D02*
X026729Y031179D01*
X026729Y031020D02*
X020850Y031020D01*
X020490Y031020D02*
X020029Y031020D01*
X020043Y031053D02*
X020058Y031130D01*
X020058Y031169D01*
X020058Y031208D01*
X020043Y031285D01*
X020013Y031357D01*
X019969Y031423D01*
X019944Y031447D01*
X019963Y031466D01*
X020018Y031598D01*
X020018Y031740D01*
X019963Y031872D01*
X019944Y031891D01*
X019969Y031915D01*
X020013Y031980D01*
X020043Y032053D01*
X020058Y032130D01*
X020490Y032130D01*
X020490Y032288D02*
X020041Y032288D01*
X020043Y032285D02*
X020013Y032357D01*
X019969Y032423D01*
X019913Y032478D01*
X019848Y032522D01*
X019776Y032552D01*
X019699Y032567D01*
X019660Y032567D01*
X019660Y032169D01*
X020058Y032169D01*
X020058Y032208D01*
X020043Y032285D01*
X020058Y032169D02*
X019660Y032169D01*
X019660Y032169D01*
X019660Y032169D01*
X019660Y032567D01*
X019620Y032567D01*
X019544Y032552D01*
X019471Y032522D01*
X019406Y032478D01*
X019381Y032454D01*
X019363Y032472D01*
X019231Y032527D01*
X019088Y032527D01*
X018957Y032472D01*
X018856Y032372D01*
X018802Y032240D01*
X018802Y032098D01*
X018856Y031966D01*
X018903Y031919D01*
X018856Y031872D01*
X018802Y031740D01*
X018802Y031598D01*
X018856Y031466D01*
X018903Y031419D01*
X018856Y031372D01*
X018802Y031240D01*
X018802Y031098D01*
X018856Y030966D01*
X018903Y030919D01*
X018861Y030876D01*
X018823Y030876D01*
X018718Y030771D01*
X018560Y030614D01*
X018560Y029323D01*
X021461Y026422D01*
X021505Y026422D01*
X021546Y026382D01*
X021641Y026342D01*
X021745Y026342D01*
X021769Y026352D01*
X021769Y026337D01*
X021748Y026316D01*
X021709Y026221D01*
X021709Y026117D01*
X021748Y026022D01*
X021821Y025948D01*
X021917Y025909D01*
X022020Y025909D01*
X022116Y025948D01*
X022189Y026022D01*
X022229Y026117D01*
X022229Y026221D01*
X022189Y026316D01*
X022169Y026337D01*
X022169Y026873D01*
X022169Y027039D01*
X021284Y027924D01*
X021284Y027953D01*
X021244Y028048D01*
X021171Y028122D01*
X021076Y028161D01*
X020972Y028161D01*
X020877Y028122D01*
X020810Y028055D01*
X019353Y029511D01*
X019353Y029841D01*
X019384Y029811D01*
X019936Y029811D01*
X020012Y029887D01*
X024288Y029887D01*
X024288Y029469D01*
X024180Y029469D01*
X024098Y029387D01*
X024098Y029021D01*
X024115Y029004D01*
X024098Y028987D01*
X024098Y028621D01*
X024180Y028539D01*
X024796Y028539D01*
X024876Y028618D01*
X025355Y028636D01*
X025365Y028626D01*
X025460Y028586D01*
X025564Y028586D01*
X025659Y028626D01*
X025732Y028699D01*
X025772Y028794D01*
X025772Y028898D01*
X025732Y028993D01*
X025659Y029066D01*
X025564Y029106D01*
X025460Y029106D01*
X025365Y029066D01*
X025333Y029035D01*
X024876Y029018D01*
X024878Y029021D01*
X024878Y029387D01*
X024796Y029469D01*
X024688Y029469D01*
X024688Y029887D01*
X025090Y029887D01*
X025683Y029294D01*
X025685Y029289D01*
X025758Y029216D01*
X025854Y029177D01*
X025957Y029177D01*
X026053Y029216D01*
X026126Y029289D01*
X026166Y029385D01*
X026166Y029488D01*
X026126Y029584D01*
X026053Y029657D01*
X026048Y029659D01*
X025416Y030291D01*
X025343Y030364D01*
X025248Y030403D01*
X020018Y030403D01*
X020018Y030445D01*
X020000Y030462D01*
X020013Y030480D01*
X020043Y030553D01*
X020058Y030630D01*
X020058Y030669D01*
X020058Y030708D01*
X020043Y030785D01*
X020013Y030857D01*
X019971Y030919D01*
X020013Y030980D01*
X020043Y031053D01*
X020058Y031169D02*
X019660Y031169D01*
X020058Y031169D01*
X020058Y031179D02*
X020490Y031179D01*
X020490Y031337D02*
X020021Y031337D01*
X019976Y031496D02*
X020490Y031496D01*
X020490Y031654D02*
X020018Y031654D01*
X019988Y031813D02*
X020490Y031813D01*
X020490Y031971D02*
X020006Y031971D01*
X020058Y032130D02*
X020058Y032169D01*
X019945Y032447D02*
X020490Y032447D01*
X020490Y032605D02*
X014685Y032605D01*
X014843Y032447D02*
X018931Y032447D01*
X018822Y032288D02*
X017285Y032288D01*
X017280Y032294D02*
X014996Y032294D01*
X014473Y032817D01*
X014473Y032874D01*
X014433Y032970D01*
X014360Y033043D01*
X014265Y033082D01*
X014161Y033082D01*
X014066Y033043D01*
X013992Y032970D01*
X013953Y032874D01*
X013953Y032771D01*
X013992Y032675D01*
X014066Y032602D01*
X014161Y032562D01*
X014218Y032562D01*
X014847Y031934D01*
X015798Y031934D01*
X015764Y031851D01*
X015764Y031747D01*
X015803Y031652D01*
X015877Y031578D01*
X015972Y031539D01*
X016076Y031539D01*
X016171Y031578D01*
X016244Y031652D01*
X016284Y031747D01*
X016284Y031776D01*
X017052Y031776D01*
X017458Y031370D01*
X017458Y028850D01*
X017563Y028745D01*
X017800Y028509D01*
X017997Y028509D01*
X020076Y026429D01*
X020055Y026378D01*
X020055Y026311D01*
X020027Y026311D01*
X019932Y026271D01*
X019859Y026198D01*
X019819Y026103D01*
X019819Y025999D01*
X019859Y025904D01*
X019932Y025830D01*
X020019Y025794D01*
X020016Y025788D01*
X020016Y025684D01*
X020055Y025589D01*
X020096Y025548D01*
X020096Y025149D01*
X021579Y023666D01*
X022004Y023666D01*
X022109Y023772D01*
X022536Y024198D01*
X022536Y024149D01*
X022575Y024053D01*
X022625Y024004D01*
X022575Y023954D01*
X022536Y023858D01*
X022536Y023755D01*
X022575Y023659D01*
X022648Y023586D01*
X022744Y023547D01*
X022847Y023547D01*
X022943Y023586D01*
X023016Y023659D01*
X023056Y023755D01*
X023056Y023812D01*
X023343Y024099D01*
X023554Y024099D01*
X023475Y024066D01*
X023402Y023993D01*
X023362Y023898D01*
X023362Y023794D01*
X023402Y023699D01*
X023435Y023666D01*
X023357Y023633D01*
X023284Y023560D01*
X023244Y023465D01*
X023244Y023397D01*
X023177Y023397D01*
X023081Y023358D01*
X023041Y023317D01*
X023036Y023317D01*
X021107Y021388D01*
X021001Y021283D01*
X021001Y020845D01*
X020961Y020804D01*
X020921Y020709D01*
X020921Y020605D01*
X020961Y020510D01*
X021001Y020469D01*
X021001Y020023D01*
X020450Y019472D01*
X020450Y014283D01*
X020713Y014020D01*
X020757Y014020D01*
X020798Y013980D01*
X020845Y013961D01*
X020726Y013842D01*
X020726Y012262D01*
X020685Y012222D01*
X020646Y012126D01*
X020646Y012064D01*
X020564Y012098D01*
X020460Y012098D01*
X020365Y012059D01*
X020292Y011985D01*
X020252Y011890D01*
X020252Y011786D01*
X020292Y011691D01*
X020365Y011618D01*
X020460Y011578D01*
X020518Y011578D01*
X020556Y011540D01*
X021098Y011540D01*
X021204Y011646D01*
X021361Y011803D01*
X021361Y012228D01*
X021256Y012333D01*
X021243Y012346D01*
X021243Y013614D01*
X021479Y013850D01*
X021513Y013816D01*
X021513Y010366D01*
X021484Y010366D01*
X021388Y010326D01*
X021315Y010253D01*
X021276Y010158D01*
X021276Y010054D01*
X021315Y009959D01*
X021388Y009885D01*
X021439Y009865D01*
X021394Y009820D01*
X021354Y009725D01*
X021354Y009621D01*
X021394Y009526D01*
X021467Y009452D01*
X021563Y009413D01*
X021666Y009413D01*
X021762Y009452D01*
X021835Y009526D01*
X021874Y009621D01*
X021874Y009678D01*
X022005Y009809D01*
X022005Y009480D01*
X021847Y009322D01*
X019295Y009322D01*
X019295Y010174D01*
X019315Y010195D01*
X019355Y010290D01*
X019355Y010394D01*
X019315Y010489D01*
X019295Y010510D01*
X019295Y011842D01*
X019059Y012079D01*
X018941Y012196D01*
X017682Y012196D01*
X017287Y012590D01*
X017287Y015922D01*
X017307Y015943D01*
X017347Y016038D01*
X017347Y016142D01*
X017307Y016237D01*
X017234Y016311D01*
X017139Y016350D01*
X017035Y016350D01*
X016940Y016311D01*
X016866Y016237D01*
X016827Y016142D01*
X016827Y016038D01*
X016866Y015943D01*
X016887Y015922D01*
X016887Y012425D01*
X017004Y012307D01*
X017516Y011796D01*
X018776Y011796D01*
X018895Y011677D01*
X018895Y010510D01*
X018874Y010489D01*
X018835Y010394D01*
X018835Y010290D01*
X018874Y010195D01*
X018895Y010174D01*
X018895Y008866D01*
X018805Y008866D01*
X018723Y008784D01*
X018723Y008231D01*
X018740Y008214D01*
X018728Y008196D01*
X018698Y008124D01*
X018683Y008047D01*
X018683Y008007D01*
X018683Y007968D01*
X018698Y007891D01*
X018728Y007819D01*
X018769Y007757D01*
X018728Y007696D01*
X018698Y007624D01*
X018683Y007547D01*
X018683Y007507D01*
X018683Y007468D01*
X018698Y007391D01*
X018728Y007319D01*
X018772Y007254D01*
X018796Y007229D01*
X018777Y007210D01*
X018723Y007079D01*
X018723Y006936D01*
X018777Y006805D01*
X018796Y006786D01*
X018772Y006761D01*
X018728Y006696D01*
X018698Y006624D01*
X018683Y006547D01*
X018683Y006507D01*
X018683Y006468D01*
X018698Y006391D01*
X018728Y006319D01*
X018772Y006254D01*
X018827Y006198D01*
X018892Y006155D01*
X018965Y006125D01*
X019042Y006109D01*
X019081Y006109D01*
X019120Y006109D01*
X019197Y006125D01*
X019270Y006155D01*
X019335Y006198D01*
X019359Y006223D01*
X019378Y006204D01*
X019510Y006149D01*
X019652Y006149D01*
X019784Y006204D01*
X019885Y006305D01*
X019939Y006436D01*
X019939Y006579D01*
X019885Y006710D01*
X019837Y006757D01*
X019885Y006805D01*
X019939Y006936D01*
X019939Y007079D01*
X019885Y007210D01*
X019837Y007257D01*
X019885Y007305D01*
X019939Y007436D01*
X019939Y007579D01*
X019885Y007710D01*
X019837Y007757D01*
X019885Y007805D01*
X019939Y007936D01*
X019939Y008079D01*
X019885Y008210D01*
X019837Y008257D01*
X019885Y008305D01*
X019939Y008436D01*
X019939Y008579D01*
X019885Y008710D01*
X019784Y008811D01*
X019652Y008866D01*
X019510Y008866D01*
X019402Y008821D01*
X019357Y008866D01*
X019295Y008866D01*
X019295Y008922D01*
X022012Y008922D01*
X022129Y009039D01*
X022405Y009314D01*
X022405Y011106D01*
X022584Y010927D01*
X022820Y010829D01*
X023076Y010829D01*
X023312Y010927D01*
X023493Y011107D01*
X023590Y011344D01*
X023590Y012604D01*
X023493Y012840D01*
X023312Y013021D01*
X023248Y013048D01*
X023248Y013441D01*
X024064Y014257D01*
X024091Y014257D01*
X024229Y014315D01*
X024335Y014420D01*
X024392Y014559D01*
X024392Y014708D01*
X024335Y014847D01*
X024229Y014952D01*
X024091Y015010D01*
X023941Y015010D01*
X023803Y014952D01*
X023697Y014847D01*
X023640Y014708D01*
X023640Y014682D01*
X023586Y014628D01*
X023586Y014741D01*
X023607Y014762D01*
X023646Y014857D01*
X023646Y014961D01*
X023607Y015056D01*
X023533Y015129D01*
X023438Y015169D01*
X023334Y015169D01*
X023239Y015129D01*
X023166Y015056D01*
X023126Y014961D01*
X023126Y014857D01*
X023166Y014762D01*
X023186Y014741D01*
X023186Y014598D01*
X022398Y013810D01*
X022281Y013693D01*
X022281Y013502D01*
X022260Y013482D01*
X022221Y013386D01*
X022221Y013283D01*
X022260Y013187D01*
X022273Y013174D01*
X022122Y013022D01*
X022031Y012931D01*
X022031Y013535D01*
X022042Y013547D01*
X022060Y013547D01*
X022155Y013586D01*
X022229Y013659D01*
X022268Y013755D01*
X022268Y013858D01*
X022229Y013954D01*
X022155Y014027D01*
X022060Y014067D01*
X022001Y014067D01*
X022077Y014098D01*
X022150Y014171D01*
X022189Y014267D01*
X022189Y014370D01*
X022150Y014466D01*
X022077Y014539D01*
X021981Y014579D01*
X021924Y014579D01*
X021650Y014853D01*
X021413Y014853D01*
X023128Y014853D01*
X023147Y015012D02*
X021283Y015012D01*
X021283Y014984D02*
X021283Y019086D01*
X021886Y019690D01*
X021991Y019795D01*
X021991Y019834D01*
X022058Y019767D01*
X022153Y019728D01*
X022257Y019728D01*
X022352Y019767D01*
X022393Y019808D01*
X024611Y019808D01*
X026789Y017630D01*
X026894Y017524D01*
X028907Y017524D01*
X028947Y017484D01*
X029043Y017444D01*
X029146Y017444D01*
X029242Y017484D01*
X029262Y017504D01*
X029532Y017504D01*
X029532Y017164D01*
X029614Y017082D01*
X029722Y017082D01*
X029722Y016175D01*
X029664Y016151D01*
X029526Y016013D01*
X029451Y015833D01*
X029451Y015638D01*
X029526Y015458D01*
X029664Y015320D01*
X029844Y015246D01*
X030039Y015246D01*
X030219Y015320D01*
X030357Y015458D01*
X030431Y015638D01*
X030431Y015833D01*
X030357Y016013D01*
X030219Y016151D01*
X030122Y016192D01*
X030122Y017082D01*
X030230Y017082D01*
X030312Y017164D01*
X030312Y017530D01*
X030295Y017547D01*
X030312Y017564D01*
X030312Y017930D01*
X030230Y018012D01*
X029614Y018012D01*
X029532Y017930D01*
X029532Y017904D01*
X029262Y017904D01*
X029242Y017925D01*
X029146Y017964D01*
X029043Y017964D01*
X028947Y017925D01*
X028907Y017884D01*
X027043Y017884D01*
X024760Y020168D01*
X022393Y020168D01*
X022352Y020208D01*
X022257Y020248D01*
X022153Y020248D01*
X022058Y020208D01*
X021991Y020142D01*
X021991Y020346D01*
X022160Y020515D01*
X022217Y020515D01*
X022313Y020555D01*
X022386Y020628D01*
X022426Y020723D01*
X022426Y020827D01*
X022386Y020922D01*
X022313Y020996D01*
X022217Y021035D01*
X022114Y021035D01*
X022018Y020996D01*
X021945Y020922D01*
X021906Y020827D01*
X021906Y020770D01*
X021894Y020758D01*
X021874Y020804D01*
X021834Y020845D01*
X021834Y021134D01*
X023224Y022524D01*
X023500Y022524D01*
X023605Y022630D01*
X023960Y022984D01*
X023960Y023606D01*
X023854Y023711D01*
X023850Y023716D01*
X023882Y023794D01*
X023882Y023898D01*
X023843Y023993D01*
X023770Y024066D01*
X023691Y024099D01*
X024649Y024099D01*
X024622Y024072D01*
X024583Y023977D01*
X024583Y023873D01*
X024622Y023778D01*
X024696Y023704D01*
X024791Y023665D01*
X024894Y023665D01*
X024990Y023704D01*
X025063Y023778D01*
X025103Y023873D01*
X025103Y023930D01*
X025114Y023942D01*
X029768Y023942D01*
X030135Y023575D01*
X030135Y023445D01*
X030082Y023498D01*
X029446Y023498D01*
X029364Y023416D01*
X029364Y022780D01*
X029446Y022698D01*
X029555Y022698D01*
X029533Y022687D01*
X029477Y022646D01*
X029428Y022597D01*
X029388Y022541D01*
X029356Y022480D01*
X029335Y022414D01*
X029324Y022345D01*
X029324Y022311D01*
X029764Y022311D01*
X029764Y022311D01*
X029324Y022311D01*
X029324Y022276D01*
X029335Y022208D01*
X029356Y022142D01*
X029388Y022080D01*
X029428Y022024D01*
X029477Y021975D01*
X029533Y021934D01*
X029595Y021903D01*
X029661Y021881D01*
X029729Y021871D01*
X029764Y021871D01*
X029799Y021871D01*
X029867Y021881D01*
X029933Y021903D01*
X029995Y021934D01*
X030051Y021975D01*
X030100Y022024D01*
X030135Y022073D01*
X030135Y021795D01*
X030123Y021782D01*
X029375Y021782D01*
X029269Y021677D01*
X029112Y021519D01*
X029112Y021357D01*
X029071Y021316D01*
X029032Y021221D01*
X029032Y021117D01*
X029071Y021022D01*
X029144Y020948D01*
X029240Y020909D01*
X029343Y020909D01*
X029439Y020948D01*
X029512Y021022D01*
X029552Y021117D01*
X029552Y021221D01*
X029512Y021316D01*
X029472Y021357D01*
X029472Y021370D01*
X029524Y021422D01*
X030272Y021422D01*
X030390Y021540D01*
X030495Y021646D01*
X030495Y023724D01*
X030120Y024099D01*
X030516Y024099D01*
X030923Y023693D01*
X030923Y022433D01*
X032024Y021332D01*
X032024Y021275D01*
X032063Y021179D01*
X032136Y021106D01*
X032232Y021066D01*
X032335Y021066D01*
X032431Y021106D01*
X032504Y021179D01*
X032544Y021275D01*
X032544Y021378D01*
X032504Y021474D01*
X032431Y021547D01*
X032335Y021586D01*
X032278Y021586D01*
X031283Y022582D01*
X031283Y023842D01*
X030771Y024354D01*
X030665Y024459D01*
X030002Y024459D01*
X030180Y024638D01*
X030180Y025036D01*
X030221Y025077D01*
X030260Y025172D01*
X030260Y025276D01*
X030221Y025371D01*
X030148Y025444D01*
X030052Y025484D01*
X029949Y025484D01*
X029853Y025444D01*
X029780Y025371D01*
X029747Y025292D01*
X029747Y026134D01*
X029878Y026264D01*
X030521Y026264D01*
X030562Y026224D01*
X030657Y026184D01*
X030761Y026184D01*
X030856Y026224D01*
X030929Y026297D01*
X030969Y026393D01*
X030969Y026496D01*
X030929Y026592D01*
X030856Y026665D01*
X030761Y026704D01*
X030657Y026704D01*
X030562Y026665D01*
X030521Y026624D01*
X029729Y026624D01*
X029493Y026388D01*
X029387Y026283D01*
X029387Y024944D01*
X029217Y024774D01*
X028669Y024774D01*
X028724Y024797D01*
X028813Y024886D01*
X028862Y025003D01*
X028862Y025130D01*
X028813Y025247D01*
X028724Y025336D01*
X028607Y025385D01*
X028480Y025385D01*
X028363Y025336D01*
X028352Y025325D01*
X026098Y025325D01*
X026086Y025336D01*
X025969Y025385D01*
X025842Y025385D01*
X025726Y025336D01*
X025636Y025247D01*
X025588Y025130D01*
X025588Y025003D01*
X025636Y024886D01*
X025726Y024797D01*
X025781Y024774D01*
X025258Y024774D01*
X025260Y024779D01*
X025260Y024882D01*
X025221Y024978D01*
X025148Y025051D01*
X025052Y025090D01*
X024949Y025090D01*
X024853Y025051D01*
X024813Y025010D01*
X022603Y025010D01*
X021894Y024302D01*
X021689Y024302D01*
X020692Y025299D01*
X020692Y025818D01*
X020758Y025752D01*
X020854Y025712D01*
X020957Y025712D01*
X021053Y025752D01*
X021126Y025825D01*
X021134Y025844D01*
X021395Y025583D01*
X021619Y025359D01*
X022765Y025359D01*
X022806Y025319D01*
X022901Y025279D01*
X023005Y025279D01*
X023100Y025319D01*
X023173Y025392D01*
X023213Y025487D01*
X023213Y025591D01*
X023173Y025686D01*
X023100Y025759D01*
X023005Y025799D01*
X022901Y025799D01*
X022806Y025759D01*
X022765Y025719D01*
X021768Y025719D01*
X021650Y025837D01*
X018370Y029116D01*
X018370Y029173D01*
X018331Y029269D01*
X018258Y029342D01*
X018162Y029382D01*
X018059Y029382D01*
X017976Y029347D01*
X017976Y031598D01*
X017385Y032188D01*
X017280Y032294D01*
X017444Y032130D02*
X018802Y032130D01*
X018854Y031971D02*
X017602Y031971D01*
X017761Y031813D02*
X018832Y031813D01*
X018802Y031654D02*
X017919Y031654D01*
X017976Y031496D02*
X018844Y031496D01*
X018842Y031337D02*
X017976Y031337D01*
X017976Y031179D02*
X018802Y031179D01*
X018834Y031020D02*
X017976Y031020D01*
X017976Y030862D02*
X018809Y030862D01*
X018650Y030703D02*
X017976Y030703D01*
X017976Y030545D02*
X018560Y030545D01*
X018560Y030386D02*
X017976Y030386D01*
X017976Y030228D02*
X018560Y030228D01*
X018560Y030069D02*
X017976Y030069D01*
X017976Y029911D02*
X018560Y029911D01*
X018560Y029752D02*
X017976Y029752D01*
X017976Y029594D02*
X018560Y029594D01*
X018560Y029435D02*
X017976Y029435D01*
X018323Y029277D02*
X018606Y029277D01*
X018765Y029118D02*
X018370Y029118D01*
X018527Y028960D02*
X018923Y028960D01*
X019082Y028801D02*
X018686Y028801D01*
X018844Y028643D02*
X019240Y028643D01*
X019399Y028484D02*
X019003Y028484D01*
X019161Y028326D02*
X019557Y028326D01*
X019716Y028167D02*
X019320Y028167D01*
X019478Y028009D02*
X019874Y028009D01*
X020033Y027850D02*
X019637Y027850D01*
X019795Y027692D02*
X020191Y027692D01*
X020350Y027533D02*
X019954Y027533D01*
X020112Y027375D02*
X020508Y027375D01*
X020667Y027216D02*
X020271Y027216D01*
X020429Y027058D02*
X020825Y027058D01*
X020984Y026899D02*
X020588Y026899D01*
X020746Y026741D02*
X021142Y026741D01*
X021301Y026582D02*
X020905Y026582D01*
X021063Y026424D02*
X021459Y026424D01*
X021222Y026265D02*
X021727Y026265D01*
X021713Y026107D02*
X021380Y026107D01*
X021539Y025948D02*
X021822Y025948D01*
X021697Y025790D02*
X022879Y025790D01*
X023027Y025790D02*
X029387Y025790D01*
X029387Y025948D02*
X022115Y025948D01*
X022224Y026107D02*
X029387Y026107D01*
X029387Y026265D02*
X022210Y026265D01*
X022169Y026424D02*
X029528Y026424D01*
X029687Y026582D02*
X022169Y026582D01*
X022169Y026741D02*
X031831Y026741D01*
X031838Y026744D02*
X031743Y026704D01*
X031670Y026631D01*
X031630Y026536D01*
X031630Y026432D01*
X031670Y026337D01*
X031743Y026263D01*
X031838Y026224D01*
X031942Y026224D01*
X032037Y026263D01*
X032110Y026337D01*
X032150Y026432D01*
X032150Y026461D01*
X033645Y027956D01*
X033645Y032212D01*
X033694Y032233D01*
X033818Y032357D01*
X033885Y032518D01*
X033885Y032693D01*
X033818Y032855D01*
X033705Y032968D01*
X033705Y033594D01*
X033747Y033552D01*
X033909Y033485D01*
X034084Y033485D01*
X034246Y033552D01*
X034369Y033676D01*
X034436Y033837D01*
X034436Y034012D01*
X034369Y034174D01*
X034246Y034298D01*
X034084Y034365D01*
X033909Y034365D01*
X033747Y034298D01*
X033705Y034256D01*
X033705Y034881D01*
X033818Y034994D01*
X033885Y035156D01*
X033885Y035331D01*
X033818Y035493D01*
X033694Y035617D01*
X033533Y035684D01*
X033358Y035684D01*
X033196Y035617D01*
X033072Y035493D01*
X033005Y035331D01*
X033005Y035156D01*
X033072Y034994D01*
X033185Y034881D01*
X033185Y032968D01*
X033072Y032855D01*
X033005Y032693D01*
X033005Y032518D01*
X033072Y032357D01*
X033196Y032233D01*
X033245Y032212D01*
X033245Y028122D01*
X031867Y026744D01*
X031838Y026744D01*
X032023Y026899D02*
X022169Y026899D01*
X022150Y027058D02*
X032181Y027058D01*
X032340Y027216D02*
X028300Y027216D01*
X028280Y027208D02*
X028376Y027248D01*
X028449Y027321D01*
X028489Y027416D01*
X028489Y027520D01*
X028449Y027615D01*
X028376Y027689D01*
X028280Y027728D01*
X028177Y027728D01*
X028081Y027689D01*
X028061Y027668D01*
X026782Y027668D01*
X026762Y027689D01*
X026666Y027728D01*
X026563Y027728D01*
X026467Y027689D01*
X026394Y027615D01*
X026354Y027520D01*
X026354Y027416D01*
X026394Y027321D01*
X026467Y027248D01*
X026563Y027208D01*
X026666Y027208D01*
X026762Y027248D01*
X026782Y027268D01*
X028061Y027268D01*
X028081Y027248D01*
X028177Y027208D01*
X028280Y027208D01*
X028157Y027216D02*
X026686Y027216D01*
X026543Y027216D02*
X021992Y027216D01*
X021833Y027375D02*
X023742Y027375D01*
X023751Y027366D02*
X023846Y027326D01*
X023950Y027326D01*
X024045Y027366D01*
X024118Y027439D01*
X024158Y027535D01*
X024158Y027638D01*
X024118Y027733D01*
X024078Y027774D01*
X024078Y028763D01*
X023972Y028869D01*
X023725Y029116D01*
X023725Y029173D01*
X023685Y029269D01*
X023612Y029342D01*
X023517Y029382D01*
X023413Y029382D01*
X023318Y029342D01*
X023244Y029269D01*
X023205Y029173D01*
X023205Y029070D01*
X023244Y028974D01*
X023318Y028901D01*
X023413Y028862D01*
X023470Y028862D01*
X023718Y028614D01*
X023718Y027774D01*
X023677Y027733D01*
X023638Y027638D01*
X023638Y027535D01*
X023677Y027439D01*
X023751Y027366D01*
X023638Y027533D02*
X021675Y027533D01*
X021516Y027692D02*
X023660Y027692D01*
X023718Y027850D02*
X021358Y027850D01*
X021261Y028009D02*
X023718Y028009D01*
X023718Y028167D02*
X020697Y028167D01*
X020539Y028326D02*
X023718Y028326D01*
X023718Y028484D02*
X020380Y028484D01*
X020222Y028643D02*
X023689Y028643D01*
X023531Y028801D02*
X020063Y028801D01*
X019905Y028960D02*
X023259Y028960D01*
X023205Y029118D02*
X019746Y029118D01*
X019588Y029277D02*
X023252Y029277D01*
X023677Y029277D02*
X024098Y029277D01*
X024098Y029118D02*
X023725Y029118D01*
X023881Y028960D02*
X024098Y028960D01*
X024098Y028801D02*
X024040Y028801D01*
X024078Y028643D02*
X024098Y028643D01*
X024078Y028484D02*
X033245Y028484D01*
X033245Y028326D02*
X024078Y028326D01*
X024078Y028167D02*
X033245Y028167D01*
X033132Y028009D02*
X024078Y028009D01*
X024078Y027850D02*
X032974Y027850D01*
X032815Y027692D02*
X028368Y027692D01*
X028483Y027533D02*
X032657Y027533D01*
X032498Y027375D02*
X028471Y027375D01*
X028089Y027692D02*
X026754Y027692D01*
X026475Y027692D02*
X024136Y027692D01*
X024157Y027533D02*
X026360Y027533D01*
X026372Y027375D02*
X024054Y027375D01*
X024878Y029118D02*
X033245Y029118D01*
X033245Y028960D02*
X025746Y028960D01*
X025772Y028801D02*
X033245Y028801D01*
X033245Y028643D02*
X025676Y028643D01*
X025698Y029277D02*
X024878Y029277D01*
X024830Y029435D02*
X025542Y029435D01*
X025384Y029594D02*
X024688Y029594D01*
X024688Y029752D02*
X025225Y029752D01*
X025638Y030069D02*
X033245Y030069D01*
X033245Y029911D02*
X025797Y029911D01*
X025955Y029752D02*
X033245Y029752D01*
X033245Y029594D02*
X026116Y029594D01*
X026166Y029435D02*
X033245Y029435D01*
X033245Y029277D02*
X026114Y029277D01*
X025480Y030228D02*
X033245Y030228D01*
X033245Y030386D02*
X025290Y030386D01*
X024288Y029752D02*
X019353Y029752D01*
X019353Y029594D02*
X024288Y029594D01*
X024147Y029435D02*
X019429Y029435D01*
X019660Y030669D02*
X019660Y030669D01*
X020058Y030669D01*
X019660Y030669D01*
X019660Y030669D01*
X019660Y030771D01*
X019660Y031169D01*
X019660Y031169D01*
X019660Y031169D01*
X019660Y030669D01*
X019660Y030703D02*
X019660Y030703D01*
X019660Y030862D02*
X019660Y030862D01*
X019660Y031020D02*
X019660Y031020D01*
X020010Y030862D02*
X020490Y030862D01*
X020644Y030703D02*
X020058Y030703D01*
X020039Y030545D02*
X020803Y030545D01*
X021870Y030545D02*
X026753Y030545D01*
X026669Y030703D02*
X021914Y030703D01*
X021856Y030862D02*
X026700Y030862D01*
X027129Y031020D02*
X028775Y031020D01*
X028807Y030988D02*
X031950Y030988D01*
X031968Y030971D01*
X032071Y030928D01*
X032182Y030928D01*
X032285Y030971D01*
X032364Y031050D01*
X032406Y031153D01*
X032406Y031264D01*
X032364Y031367D01*
X032285Y031446D01*
X032182Y031488D01*
X032071Y031488D01*
X031968Y031446D01*
X031950Y031428D01*
X028989Y031428D01*
X028134Y032284D01*
X028134Y036063D01*
X027839Y036358D01*
X027839Y036382D01*
X027797Y036485D01*
X027718Y036564D01*
X027615Y036606D01*
X027504Y036606D01*
X027401Y036564D01*
X027322Y036485D01*
X027279Y036382D01*
X027279Y036271D01*
X027322Y036168D01*
X027401Y036089D01*
X027504Y036046D01*
X027528Y036046D01*
X027694Y035881D01*
X027694Y032101D01*
X027823Y031973D01*
X028807Y030988D01*
X028898Y031208D02*
X027914Y032193D01*
X027914Y035972D01*
X027559Y036326D01*
X027291Y036409D02*
X027129Y036409D01*
X027129Y036251D02*
X027288Y036251D01*
X027398Y036092D02*
X027129Y036092D01*
X027129Y035934D02*
X027641Y035934D01*
X027694Y035775D02*
X027129Y035775D01*
X027129Y035617D02*
X027694Y035617D01*
X027694Y035458D02*
X027129Y035458D01*
X027129Y035300D02*
X027694Y035300D01*
X027694Y035141D02*
X027129Y035141D01*
X027129Y034983D02*
X027694Y034983D01*
X027694Y034824D02*
X027129Y034824D01*
X027129Y034666D02*
X027694Y034666D01*
X027694Y034507D02*
X027129Y034507D01*
X027129Y034349D02*
X027694Y034349D01*
X027694Y034190D02*
X027129Y034190D01*
X027129Y034032D02*
X027694Y034032D01*
X027694Y033873D02*
X027129Y033873D01*
X027129Y033715D02*
X027694Y033715D01*
X027694Y033556D02*
X027129Y033556D01*
X027129Y033398D02*
X027694Y033398D01*
X027694Y033239D02*
X027129Y033239D01*
X027129Y033081D02*
X027694Y033081D01*
X027694Y032922D02*
X027129Y032922D01*
X027129Y032764D02*
X027694Y032764D01*
X027694Y032605D02*
X027129Y032605D01*
X027129Y032447D02*
X027694Y032447D01*
X027694Y032288D02*
X027129Y032288D01*
X027129Y032130D02*
X027694Y032130D01*
X027824Y031971D02*
X027129Y031971D01*
X027129Y031813D02*
X027982Y031813D01*
X028141Y031654D02*
X027129Y031654D01*
X027129Y031496D02*
X028299Y031496D01*
X028458Y031337D02*
X027129Y031337D01*
X027129Y031179D02*
X028616Y031179D01*
X028898Y031208D02*
X032126Y031208D01*
X032334Y031020D02*
X033245Y031020D01*
X033245Y030862D02*
X027159Y030862D01*
X027189Y030703D02*
X033245Y030703D01*
X033245Y030545D02*
X027106Y030545D01*
X028446Y031971D02*
X033245Y031971D01*
X033245Y031813D02*
X028605Y031813D01*
X028763Y031654D02*
X033245Y031654D01*
X033245Y031496D02*
X028922Y031496D01*
X028288Y032130D02*
X033245Y032130D01*
X033141Y032288D02*
X031112Y032288D01*
X031057Y032233D02*
X031180Y032357D01*
X031247Y032518D01*
X031247Y032693D01*
X031180Y032855D01*
X031057Y032979D01*
X030895Y033046D01*
X030720Y033046D01*
X030558Y032979D01*
X030434Y032855D01*
X030367Y032693D01*
X030367Y032518D01*
X030434Y032357D01*
X030558Y032233D01*
X030720Y032166D01*
X030895Y032166D01*
X031057Y032233D01*
X031218Y032447D02*
X033035Y032447D01*
X033005Y032605D02*
X031247Y032605D01*
X031218Y032764D02*
X033034Y032764D01*
X033139Y032922D02*
X031113Y032922D01*
X030501Y032922D02*
X028134Y032922D01*
X028134Y032764D02*
X030396Y032764D01*
X030367Y032605D02*
X028134Y032605D01*
X028134Y032447D02*
X030397Y032447D01*
X030503Y032288D02*
X028134Y032288D01*
X028134Y033081D02*
X033185Y033081D01*
X033185Y033239D02*
X032485Y033239D01*
X032563Y033272D02*
X032779Y033488D01*
X032897Y033772D01*
X032897Y034078D01*
X032779Y034361D01*
X032563Y034578D01*
X032280Y034695D01*
X031973Y034695D01*
X031690Y034578D01*
X031473Y034361D01*
X031356Y034078D01*
X031356Y033772D01*
X031473Y033488D01*
X031690Y033272D01*
X031973Y033154D01*
X032280Y033154D01*
X032563Y033272D01*
X032689Y033398D02*
X033185Y033398D01*
X033185Y033556D02*
X032808Y033556D01*
X032873Y033715D02*
X033185Y033715D01*
X033185Y033873D02*
X032897Y033873D01*
X032897Y034032D02*
X033185Y034032D01*
X033185Y034190D02*
X032850Y034190D01*
X032785Y034349D02*
X033185Y034349D01*
X033185Y034507D02*
X032634Y034507D01*
X032351Y034666D02*
X033185Y034666D01*
X033185Y034824D02*
X030944Y034824D01*
X030895Y034804D02*
X031057Y034871D01*
X031180Y034994D01*
X031247Y035156D01*
X031247Y035331D01*
X031180Y035493D01*
X031057Y035617D01*
X033196Y035617D01*
X033058Y035458D02*
X031195Y035458D01*
X031247Y035300D02*
X033005Y035300D01*
X033011Y035141D02*
X031241Y035141D01*
X031169Y034983D02*
X033084Y034983D01*
X033705Y034824D02*
X036671Y034824D01*
X036671Y034666D02*
X033705Y034666D01*
X033705Y034507D02*
X036671Y034507D01*
X036671Y034349D02*
X034123Y034349D01*
X033870Y034349D02*
X033705Y034349D01*
X033806Y034983D02*
X036671Y034983D01*
X036671Y035141D02*
X033879Y035141D01*
X033885Y035300D02*
X036671Y035300D01*
X036671Y035458D02*
X033833Y035458D01*
X033694Y035617D02*
X036671Y035617D01*
X036671Y035775D02*
X029707Y035775D01*
X029707Y035617D02*
X030558Y035617D01*
X030434Y035493D01*
X030367Y035331D01*
X030367Y035156D01*
X030434Y034994D01*
X030558Y034871D01*
X030720Y034804D01*
X030895Y034804D01*
X030670Y034824D02*
X029707Y034824D01*
X029707Y034666D02*
X031901Y034666D01*
X031619Y034507D02*
X029707Y034507D01*
X029707Y034349D02*
X030130Y034349D01*
X030169Y034365D02*
X030007Y034298D01*
X029883Y034174D01*
X029816Y034012D01*
X029816Y033837D01*
X029883Y033676D01*
X030007Y033552D01*
X030169Y033485D01*
X030344Y033485D01*
X030505Y033552D01*
X030629Y033676D01*
X030696Y033837D01*
X030696Y034012D01*
X030629Y034174D01*
X030505Y034298D01*
X030344Y034365D01*
X030169Y034365D01*
X030383Y034349D02*
X031468Y034349D01*
X031402Y034190D02*
X030613Y034190D01*
X030688Y034032D02*
X031356Y034032D01*
X031356Y033873D02*
X030696Y033873D01*
X030645Y033715D02*
X031379Y033715D01*
X031445Y033556D02*
X030510Y033556D01*
X030003Y033556D02*
X029767Y033556D01*
X029767Y033547D02*
X029767Y033673D01*
X029719Y033790D01*
X029707Y033802D01*
X029707Y042047D01*
X029668Y042142D01*
X029595Y042214D01*
X027978Y043831D01*
X027977Y043836D01*
X016166Y055647D01*
X016166Y059365D01*
X016175Y059375D01*
X016224Y059491D01*
X016224Y059618D01*
X016175Y059735D01*
X016086Y059824D01*
X015969Y059873D01*
X015842Y059873D01*
X015726Y059824D01*
X015636Y059735D01*
X015588Y059618D01*
X015588Y059491D01*
X015636Y059375D01*
X015646Y059365D01*
X015646Y055487D01*
X015685Y055392D01*
X015758Y055319D01*
X027609Y043468D01*
X027613Y043466D01*
X029191Y041889D01*
X029191Y033802D01*
X029179Y033790D01*
X029131Y033673D01*
X029131Y033547D01*
X029179Y033430D01*
X029269Y033340D01*
X029386Y033292D01*
X029512Y033292D01*
X029629Y033340D01*
X029719Y033430D01*
X029767Y033547D01*
X029750Y033715D02*
X029867Y033715D01*
X029816Y033873D02*
X029707Y033873D01*
X029707Y034032D02*
X029824Y034032D01*
X029899Y034190D02*
X029707Y034190D01*
X029191Y034190D02*
X028134Y034190D01*
X028134Y034032D02*
X029191Y034032D01*
X029191Y033873D02*
X028134Y033873D01*
X028134Y033715D02*
X029148Y033715D01*
X029131Y033556D02*
X028134Y033556D01*
X028134Y033398D02*
X029211Y033398D01*
X029687Y033398D02*
X031564Y033398D01*
X031768Y033239D02*
X028134Y033239D01*
X028134Y034349D02*
X029191Y034349D01*
X029191Y034507D02*
X028134Y034507D01*
X028134Y034666D02*
X029191Y034666D01*
X029191Y034824D02*
X028134Y034824D01*
X028134Y034983D02*
X029191Y034983D01*
X029191Y035141D02*
X028134Y035141D01*
X028134Y035300D02*
X029191Y035300D01*
X029191Y035458D02*
X028134Y035458D01*
X028134Y035617D02*
X029191Y035617D01*
X029191Y035775D02*
X028134Y035775D01*
X028134Y035934D02*
X029191Y035934D01*
X029191Y036092D02*
X028105Y036092D01*
X027946Y036251D02*
X029191Y036251D01*
X029191Y036409D02*
X027828Y036409D01*
X027708Y036568D02*
X029191Y036568D01*
X029191Y036726D02*
X027129Y036726D01*
X027129Y036568D02*
X027410Y036568D01*
X027129Y036885D02*
X029191Y036885D01*
X029191Y037043D02*
X027129Y037043D01*
X027129Y037202D02*
X029191Y037202D01*
X029191Y037360D02*
X027129Y037360D01*
X027129Y037519D02*
X029191Y037519D01*
X029191Y037677D02*
X027129Y037677D01*
X027129Y037836D02*
X029191Y037836D01*
X029191Y037994D02*
X027129Y037994D01*
X027129Y038153D02*
X029191Y038153D01*
X029191Y038311D02*
X027129Y038311D01*
X027129Y038470D02*
X029191Y038470D01*
X029191Y038628D02*
X027129Y038628D01*
X027129Y038787D02*
X029191Y038787D01*
X029191Y038945D02*
X027129Y038945D01*
X027129Y039104D02*
X029191Y039104D01*
X029191Y039262D02*
X027129Y039262D01*
X027129Y039421D02*
X029191Y039421D01*
X029191Y039579D02*
X027129Y039579D01*
X027129Y039738D02*
X029191Y039738D01*
X029191Y039896D02*
X027129Y039896D01*
X027129Y040055D02*
X029191Y040055D01*
X029191Y040213D02*
X027129Y040213D01*
X027129Y040372D02*
X029191Y040372D01*
X029191Y040530D02*
X027129Y040530D01*
X027129Y040689D02*
X029191Y040689D01*
X029191Y040847D02*
X027129Y040847D01*
X027129Y041006D02*
X029191Y041006D01*
X029191Y041164D02*
X027129Y041164D01*
X027129Y041323D02*
X029191Y041323D01*
X029191Y041481D02*
X027129Y041481D01*
X027129Y041640D02*
X029191Y041640D01*
X029191Y041798D02*
X027129Y041798D01*
X027129Y041957D02*
X029123Y041957D01*
X028965Y042115D02*
X027129Y042115D01*
X027129Y042274D02*
X028806Y042274D01*
X028648Y042432D02*
X027129Y042432D01*
X027129Y042591D02*
X028489Y042591D01*
X028331Y042749D02*
X027129Y042749D01*
X027129Y042908D02*
X028172Y042908D01*
X028014Y043066D02*
X027129Y043066D01*
X027086Y043225D02*
X027855Y043225D01*
X027697Y043383D02*
X026927Y043383D01*
X026769Y043542D02*
X027535Y043542D01*
X027377Y043700D02*
X026610Y043700D01*
X026498Y043859D02*
X027218Y043859D01*
X027060Y044017D02*
X026520Y044017D01*
X026416Y044176D02*
X026901Y044176D01*
X028110Y043700D02*
X036671Y043700D01*
X036671Y043542D02*
X028268Y043542D01*
X028427Y043383D02*
X036671Y043383D01*
X036671Y043225D02*
X028585Y043225D01*
X028744Y043066D02*
X036671Y043066D01*
X036671Y042908D02*
X028902Y042908D01*
X029061Y042749D02*
X036671Y042749D01*
X036671Y042591D02*
X029219Y042591D01*
X029378Y042432D02*
X036671Y042432D01*
X036671Y042274D02*
X029536Y042274D01*
X029679Y042115D02*
X036671Y042115D01*
X036671Y041957D02*
X029707Y041957D01*
X029707Y041798D02*
X036671Y041798D01*
X036671Y041640D02*
X029707Y041640D01*
X029707Y041481D02*
X036671Y041481D01*
X036671Y041323D02*
X029707Y041323D01*
X029707Y041164D02*
X036671Y041164D01*
X036671Y041006D02*
X029707Y041006D01*
X029707Y040847D02*
X036671Y040847D01*
X036671Y040689D02*
X029707Y040689D01*
X029707Y040530D02*
X036671Y040530D01*
X036671Y040372D02*
X029707Y040372D01*
X029707Y040213D02*
X036671Y040213D01*
X036671Y040055D02*
X029707Y040055D01*
X029707Y039896D02*
X036671Y039896D01*
X036671Y039738D02*
X029707Y039738D01*
X029707Y039579D02*
X036671Y039579D01*
X036671Y039421D02*
X029707Y039421D01*
X029707Y039262D02*
X036671Y039262D01*
X036671Y039104D02*
X029707Y039104D01*
X029707Y038945D02*
X036671Y038945D01*
X036671Y038787D02*
X029707Y038787D01*
X029707Y038628D02*
X036671Y038628D01*
X036671Y038470D02*
X029707Y038470D01*
X029707Y038311D02*
X036671Y038311D01*
X036671Y038153D02*
X029707Y038153D01*
X029707Y037994D02*
X036671Y037994D01*
X036671Y037836D02*
X029707Y037836D01*
X029707Y037677D02*
X036671Y037677D01*
X036671Y037519D02*
X029707Y037519D01*
X029707Y037360D02*
X036671Y037360D01*
X036671Y037202D02*
X029707Y037202D01*
X029707Y037043D02*
X036671Y037043D01*
X036671Y036885D02*
X029707Y036885D01*
X029707Y036726D02*
X036671Y036726D01*
X036671Y036568D02*
X029707Y036568D01*
X029707Y036409D02*
X036671Y036409D01*
X036671Y036251D02*
X029707Y036251D01*
X029707Y036092D02*
X036671Y036092D01*
X036671Y035934D02*
X029707Y035934D01*
X029707Y035458D02*
X030420Y035458D01*
X030367Y035300D02*
X029707Y035300D01*
X029707Y035141D02*
X030374Y035141D01*
X030446Y034983D02*
X029707Y034983D01*
X030558Y035617D02*
X030720Y035684D01*
X030895Y035684D01*
X031057Y035617D01*
X033705Y033556D02*
X033743Y033556D01*
X033705Y033398D02*
X036671Y033398D01*
X036671Y033556D02*
X034250Y033556D01*
X034386Y033715D02*
X036671Y033715D01*
X036671Y033873D02*
X034436Y033873D01*
X034428Y034032D02*
X036671Y034032D01*
X036671Y034190D02*
X034353Y034190D01*
X033705Y033239D02*
X036671Y033239D01*
X036671Y033081D02*
X033705Y033081D01*
X033751Y032922D02*
X036671Y032922D01*
X036671Y032764D02*
X033856Y032764D01*
X033885Y032605D02*
X036671Y032605D01*
X036671Y032447D02*
X033855Y032447D01*
X033750Y032288D02*
X036671Y032288D01*
X036671Y032130D02*
X033645Y032130D01*
X033645Y031971D02*
X036671Y031971D01*
X036671Y031813D02*
X033645Y031813D01*
X033645Y031654D02*
X036671Y031654D01*
X036671Y031496D02*
X033645Y031496D01*
X033645Y031337D02*
X036671Y031337D01*
X036671Y031179D02*
X033645Y031179D01*
X033645Y031020D02*
X036671Y031020D01*
X036671Y030862D02*
X033645Y030862D01*
X033645Y030703D02*
X036671Y030703D01*
X036671Y030545D02*
X033645Y030545D01*
X033645Y030386D02*
X036671Y030386D01*
X036671Y030228D02*
X033645Y030228D01*
X033645Y030069D02*
X036671Y030069D01*
X036671Y029911D02*
X033645Y029911D01*
X033645Y029752D02*
X036671Y029752D01*
X036671Y029594D02*
X033645Y029594D01*
X033645Y029435D02*
X036671Y029435D01*
X036671Y029277D02*
X033645Y029277D01*
X033645Y029118D02*
X036671Y029118D01*
X036671Y028960D02*
X033645Y028960D01*
X033645Y028801D02*
X036671Y028801D01*
X036671Y028643D02*
X033645Y028643D01*
X033645Y028484D02*
X036671Y028484D01*
X036671Y028326D02*
X033645Y028326D01*
X033645Y028167D02*
X036671Y028167D01*
X036671Y028009D02*
X033645Y028009D01*
X033539Y027850D02*
X036671Y027850D01*
X036671Y027692D02*
X033381Y027692D01*
X033222Y027533D02*
X036671Y027533D01*
X036671Y027375D02*
X033064Y027375D01*
X032905Y027216D02*
X036671Y027216D01*
X036671Y027058D02*
X032747Y027058D01*
X032588Y026899D02*
X036671Y026899D01*
X036671Y026741D02*
X032430Y026741D01*
X032271Y026582D02*
X036671Y026582D01*
X036671Y026424D02*
X032147Y026424D01*
X032039Y026265D02*
X036671Y026265D01*
X036671Y026107D02*
X029747Y026107D01*
X029747Y025948D02*
X036671Y025948D01*
X036671Y025790D02*
X029747Y025790D01*
X029747Y025631D02*
X036671Y025631D01*
X036671Y025473D02*
X030079Y025473D01*
X029921Y025473D02*
X029747Y025473D01*
X029747Y025314D02*
X029756Y025314D01*
X029387Y025314D02*
X028746Y025314D01*
X028851Y025156D02*
X029387Y025156D01*
X029387Y024997D02*
X028859Y024997D01*
X028766Y024839D02*
X029282Y024839D01*
X029387Y025473D02*
X023207Y025473D01*
X023196Y025631D02*
X029387Y025631D01*
X030244Y025314D02*
X036671Y025314D01*
X036671Y025156D02*
X030253Y025156D01*
X030180Y024997D02*
X036671Y024997D01*
X036671Y024839D02*
X030180Y024839D01*
X030180Y024680D02*
X036671Y024680D01*
X036671Y024522D02*
X030064Y024522D01*
X030173Y024046D02*
X030569Y024046D01*
X030728Y023888D02*
X030331Y023888D01*
X030490Y023729D02*
X030886Y023729D01*
X030923Y023571D02*
X030495Y023571D01*
X030495Y023412D02*
X030923Y023412D01*
X030923Y023254D02*
X030495Y023254D01*
X030495Y023095D02*
X030923Y023095D01*
X030923Y022937D02*
X030495Y022937D01*
X030495Y022778D02*
X030923Y022778D01*
X030923Y022620D02*
X030495Y022620D01*
X030495Y022461D02*
X030923Y022461D01*
X031053Y022303D02*
X030495Y022303D01*
X030495Y022144D02*
X031211Y022144D01*
X031370Y021986D02*
X030495Y021986D01*
X030495Y021827D02*
X031528Y021827D01*
X031687Y021669D02*
X030495Y021669D01*
X030360Y021510D02*
X031845Y021510D01*
X032004Y021352D02*
X030695Y021352D01*
X030699Y021350D02*
X030603Y021390D01*
X030500Y021390D01*
X030404Y021350D01*
X030331Y021277D01*
X030291Y021181D01*
X030291Y021078D01*
X030331Y020982D01*
X030351Y020962D01*
X030351Y020181D01*
X030785Y019747D01*
X030902Y019630D01*
X033481Y019630D01*
X033531Y019610D01*
X033635Y019610D01*
X033730Y019649D01*
X033803Y019722D01*
X033843Y019818D01*
X033843Y019921D01*
X033803Y020017D01*
X033730Y020090D01*
X033635Y020130D01*
X033531Y020130D01*
X033436Y020090D01*
X033376Y020030D01*
X031067Y020030D01*
X030751Y020346D01*
X030751Y020962D01*
X030772Y020982D01*
X030811Y021078D01*
X030811Y021181D01*
X030772Y021277D01*
X030699Y021350D01*
X030807Y021193D02*
X032057Y021193D01*
X032510Y021193D02*
X034879Y021193D01*
X034879Y021035D02*
X030794Y021035D01*
X030751Y020876D02*
X034879Y020876D01*
X034879Y020718D02*
X030751Y020718D01*
X030751Y020559D02*
X034879Y020559D01*
X034879Y020401D02*
X030751Y020401D01*
X030856Y020242D02*
X034879Y020242D01*
X034879Y020195D02*
X034859Y020174D01*
X034819Y020079D01*
X034819Y019975D01*
X034859Y019880D01*
X034932Y019807D01*
X035027Y019767D01*
X035131Y019767D01*
X035226Y019807D01*
X035299Y019880D01*
X035339Y019975D01*
X035339Y020079D01*
X035299Y020174D01*
X035279Y020195D01*
X035279Y022930D01*
X035299Y022951D01*
X035339Y023046D01*
X035339Y023150D01*
X035299Y023245D01*
X035226Y023318D01*
X035131Y023358D01*
X035027Y023358D01*
X034932Y023318D01*
X034859Y023245D01*
X034819Y023150D01*
X034819Y023046D01*
X034859Y022951D01*
X034879Y022930D01*
X034879Y022790D01*
X034784Y022785D01*
X034800Y022800D01*
X034800Y023166D01*
X034718Y023248D01*
X034590Y023248D01*
X034590Y023417D01*
X034640Y023468D01*
X034698Y023468D01*
X034793Y023508D01*
X034866Y023581D01*
X034906Y023676D01*
X034906Y023780D01*
X034866Y023875D01*
X034793Y023948D01*
X034698Y023988D01*
X034594Y023988D01*
X034499Y023948D01*
X034426Y023875D01*
X034386Y023780D01*
X034386Y023723D01*
X034230Y023566D01*
X034230Y023248D01*
X034102Y023248D01*
X034020Y023166D01*
X034020Y022800D01*
X034037Y022783D01*
X034020Y022766D01*
X034020Y022400D01*
X034102Y022318D01*
X034718Y022318D01*
X034800Y022400D01*
X034800Y022425D01*
X034879Y022429D01*
X034879Y020195D01*
X034821Y020084D02*
X033737Y020084D01*
X033841Y019925D02*
X034840Y019925D01*
X035318Y019925D02*
X036671Y019925D01*
X036671Y019767D02*
X033822Y019767D01*
X033429Y020084D02*
X031014Y020084D01*
X030765Y019767D02*
X028252Y019767D01*
X028252Y019803D02*
X028252Y019700D01*
X028213Y019604D01*
X028140Y019531D01*
X028044Y019492D01*
X027941Y019492D01*
X027845Y019531D01*
X027805Y019572D01*
X027091Y019572D01*
X026894Y019768D01*
X026764Y019768D01*
X026764Y019640D01*
X026682Y019558D01*
X026316Y019558D01*
X026299Y019575D01*
X026282Y019558D01*
X025916Y019558D01*
X025834Y019640D01*
X025834Y020256D01*
X025916Y020338D01*
X025931Y020338D01*
X025359Y020910D01*
X025359Y020910D01*
X025253Y021016D01*
X025253Y022202D01*
X025213Y022242D01*
X025173Y022338D01*
X025173Y022441D01*
X025213Y022537D01*
X025286Y022610D01*
X025382Y022649D01*
X025485Y022649D01*
X025581Y022610D01*
X025654Y022537D01*
X025693Y022441D01*
X025693Y022338D01*
X025654Y022242D01*
X025613Y022202D01*
X025613Y021165D01*
X026218Y020560D01*
X026227Y020559D01*
X026270Y020508D01*
X026317Y020461D01*
X026317Y020452D01*
X026323Y020445D01*
X026317Y020378D01*
X026317Y020338D01*
X026682Y020338D01*
X026764Y020256D01*
X026764Y020128D01*
X027043Y020128D01*
X027149Y020023D01*
X027240Y019932D01*
X027805Y019932D01*
X027845Y019972D01*
X027941Y020012D01*
X028044Y020012D01*
X028140Y019972D01*
X028213Y019899D01*
X028252Y019803D01*
X028186Y019925D02*
X030607Y019925D01*
X030448Y020084D02*
X027088Y020084D01*
X026764Y020242D02*
X030351Y020242D01*
X030351Y020401D02*
X026319Y020401D01*
X026226Y020559D02*
X030351Y020559D01*
X030351Y020718D02*
X026060Y020718D01*
X025902Y020876D02*
X030351Y020876D01*
X030309Y021035D02*
X029517Y021035D01*
X029552Y021193D02*
X030296Y021193D01*
X030408Y021352D02*
X029477Y021352D01*
X029107Y021352D02*
X025613Y021352D01*
X025613Y021510D02*
X029112Y021510D01*
X029261Y021669D02*
X025613Y021669D01*
X025613Y021827D02*
X030135Y021827D01*
X030135Y021986D02*
X030061Y021986D01*
X029764Y021986D02*
X029764Y021986D01*
X029764Y021871D02*
X029764Y022311D01*
X029764Y022311D01*
X029764Y021871D01*
X029764Y022144D02*
X029764Y022144D01*
X029764Y022303D02*
X029764Y022303D01*
X029467Y021986D02*
X025613Y021986D01*
X025613Y022144D02*
X029355Y022144D01*
X029324Y022303D02*
X025679Y022303D01*
X025685Y022461D02*
X029350Y022461D01*
X029451Y022620D02*
X025557Y022620D01*
X025310Y022620D02*
X023595Y022620D01*
X023754Y022778D02*
X029366Y022778D01*
X029364Y022937D02*
X023912Y022937D01*
X023960Y023095D02*
X029364Y023095D01*
X029364Y023254D02*
X023960Y023254D01*
X023960Y023412D02*
X029364Y023412D01*
X029822Y023888D02*
X025103Y023888D01*
X025015Y023729D02*
X029981Y023729D01*
X030135Y023571D02*
X023960Y023571D01*
X023855Y023729D02*
X024671Y023729D01*
X024583Y023888D02*
X023882Y023888D01*
X023790Y024046D02*
X024612Y024046D01*
X025260Y024839D02*
X025684Y024839D01*
X025590Y024997D02*
X025201Y024997D01*
X025598Y025156D02*
X020835Y025156D01*
X020692Y025314D02*
X022816Y025314D01*
X023090Y025314D02*
X025704Y025314D01*
X023455Y024046D02*
X023290Y024046D01*
X023362Y023888D02*
X023131Y023888D01*
X023045Y023729D02*
X023389Y023729D01*
X023294Y023571D02*
X022905Y023571D01*
X022686Y023571D02*
X017346Y023571D01*
X017389Y023625D02*
X017493Y023625D01*
X017588Y023665D01*
X017662Y023738D01*
X017701Y023834D01*
X017701Y023937D01*
X017679Y023990D01*
X017704Y023980D01*
X017808Y023980D01*
X017903Y024019D01*
X017977Y024092D01*
X018016Y024188D01*
X018016Y024291D01*
X017977Y024387D01*
X017936Y024427D01*
X017936Y024905D01*
X017228Y025614D01*
X017228Y030386D01*
X017458Y030386D01*
X017458Y030228D02*
X017228Y030228D01*
X017228Y030386D02*
X017240Y030398D01*
X017346Y030504D01*
X017346Y031047D01*
X017188Y031204D01*
X017083Y031310D01*
X016763Y031310D01*
X016722Y031350D01*
X016627Y031390D01*
X016523Y031390D01*
X016428Y031350D01*
X016355Y031277D01*
X016315Y031181D01*
X016315Y031078D01*
X016355Y030982D01*
X016428Y030909D01*
X016523Y030870D01*
X016627Y030870D01*
X016652Y030880D01*
X016630Y030827D01*
X016630Y030723D01*
X016670Y030628D01*
X016710Y030588D01*
X016710Y027182D01*
X016677Y027261D01*
X016604Y027334D01*
X016509Y027374D01*
X016405Y027374D01*
X016310Y027334D01*
X016237Y027261D01*
X016197Y027165D01*
X016197Y027062D01*
X016237Y026967D01*
X016277Y026926D01*
X016277Y024674D01*
X015889Y025062D01*
X015889Y027910D01*
X015929Y027951D01*
X015969Y028046D01*
X015969Y028150D01*
X015929Y028245D01*
X015856Y028318D01*
X015761Y028358D01*
X015657Y028358D01*
X015617Y028341D01*
X015617Y028624D01*
X015328Y028913D01*
X015617Y029202D01*
X015617Y029624D01*
X015356Y029885D01*
X015657Y030185D01*
X015657Y030393D01*
X015127Y030393D01*
X015127Y030433D01*
X015657Y030433D01*
X015657Y030641D01*
X015334Y030963D01*
X015127Y030963D01*
X015127Y030433D01*
X015087Y030433D01*
X015087Y030963D01*
X014879Y030963D01*
X014578Y030663D01*
X014318Y030923D01*
X013895Y030923D01*
X013597Y030624D01*
X013597Y030202D01*
X013885Y029913D01*
X013597Y029624D01*
X013597Y029202D01*
X013885Y028913D01*
X013597Y028624D01*
X013597Y028202D01*
X013885Y027913D01*
X013597Y027624D01*
X013597Y027202D01*
X013885Y026913D01*
X013597Y026624D01*
X013597Y026202D01*
X013895Y025903D01*
X014318Y025903D01*
X014607Y026192D01*
X014895Y025903D01*
X014927Y025903D01*
X014927Y024295D01*
X015686Y023535D01*
X015792Y023430D01*
X016427Y023430D01*
X016467Y023389D01*
X016563Y023350D01*
X016666Y023350D01*
X016762Y023389D01*
X016789Y023416D01*
X016789Y022118D01*
X016866Y022040D01*
X016866Y021983D01*
X016906Y021888D01*
X016979Y021815D01*
X017075Y021775D01*
X017178Y021775D01*
X017274Y021815D01*
X017347Y021888D01*
X017386Y021983D01*
X017386Y022087D01*
X017352Y022169D01*
X017352Y022169D01*
X017425Y022242D01*
X017465Y022338D01*
X017465Y022441D01*
X017425Y022537D01*
X017352Y022610D01*
X017346Y022613D01*
X017346Y023644D01*
X017389Y023625D01*
X017346Y023412D02*
X023244Y023412D01*
X022972Y023254D02*
X017346Y023254D01*
X017346Y023095D02*
X022814Y023095D01*
X022655Y022937D02*
X017346Y022937D01*
X017346Y022778D02*
X022497Y022778D01*
X022338Y022620D02*
X017346Y022620D01*
X017457Y022461D02*
X022180Y022461D01*
X022021Y022303D02*
X017450Y022303D01*
X017362Y022144D02*
X021863Y022144D01*
X021704Y021986D02*
X017386Y021986D01*
X017286Y021827D02*
X021546Y021827D01*
X021387Y021669D02*
X016458Y021669D01*
X016441Y021710D02*
X016368Y021783D01*
X016272Y021823D01*
X016169Y021823D01*
X016073Y021783D01*
X016000Y021710D01*
X015961Y021614D01*
X015961Y021511D01*
X016000Y021415D01*
X016073Y021342D01*
X016169Y021303D01*
X016226Y021303D01*
X017406Y020123D01*
X020364Y020123D01*
X020404Y020082D01*
X020500Y020043D01*
X020603Y020043D01*
X020699Y020082D01*
X020772Y020155D01*
X020811Y020251D01*
X020811Y020354D01*
X020772Y020450D01*
X020699Y020523D01*
X020603Y020563D01*
X020500Y020563D01*
X020404Y020523D01*
X020364Y020483D01*
X017555Y020483D01*
X016481Y021557D01*
X016481Y021614D01*
X016441Y021710D01*
X016528Y021510D02*
X021229Y021510D01*
X021070Y021352D02*
X016686Y021352D01*
X016845Y021193D02*
X021001Y021193D01*
X021001Y021035D02*
X017003Y021035D01*
X017162Y020876D02*
X021001Y020876D01*
X020925Y020718D02*
X017320Y020718D01*
X017479Y020559D02*
X020491Y020559D01*
X020612Y020559D02*
X020941Y020559D01*
X021001Y020401D02*
X020792Y020401D01*
X020808Y020242D02*
X021001Y020242D01*
X021001Y020084D02*
X020700Y020084D01*
X020904Y019925D02*
X018089Y019925D01*
X018033Y019981D02*
X017917Y019981D01*
X017468Y019531D01*
X017468Y019415D01*
X017917Y018966D01*
X018033Y018966D01*
X018483Y019415D01*
X018483Y019531D01*
X018033Y019981D01*
X017861Y019925D02*
X016013Y019925D01*
X016008Y019938D02*
X015935Y020011D01*
X015839Y020051D01*
X015736Y020051D01*
X015693Y020033D01*
X015693Y020118D01*
X015654Y020214D01*
X015581Y020287D01*
X015485Y020327D01*
X015382Y020327D01*
X015286Y020287D01*
X015246Y020247D01*
X015232Y020247D01*
X013369Y022110D01*
X013369Y057000D01*
X014562Y058192D01*
X014619Y058192D01*
X014714Y058232D01*
X014788Y058305D01*
X014827Y058401D01*
X014827Y058504D01*
X014788Y058600D01*
X014714Y058673D01*
X014619Y058712D01*
X014515Y058712D01*
X014420Y058673D01*
X014347Y058600D01*
X014307Y058504D01*
X014307Y058447D01*
X013212Y057351D01*
X013212Y057551D01*
X013459Y057799D01*
X013517Y057799D01*
X013612Y057838D01*
X013685Y057911D01*
X013725Y058007D01*
X013725Y058110D01*
X013685Y058206D01*
X013612Y058279D01*
X013517Y058319D01*
X013413Y058319D01*
X013318Y058279D01*
X013248Y058210D01*
X013179Y058279D01*
X013132Y058298D01*
X016020Y061186D01*
X022083Y061186D01*
X026991Y066094D01*
X026991Y066341D01*
X027019Y066341D01*
X027126Y066449D01*
X027126Y066864D01*
X027034Y066956D01*
X027126Y067049D01*
X027126Y067464D01*
X027031Y067559D01*
X027031Y068155D01*
X027105Y068155D01*
X027188Y068237D01*
X027188Y068882D01*
X027580Y068882D01*
X027576Y068870D01*
X027576Y068609D01*
X027954Y068609D01*
X027954Y068532D01*
X028030Y068532D01*
X028030Y068115D01*
X028252Y068115D01*
X028298Y068127D01*
X028339Y068151D01*
X028373Y068184D01*
X028396Y068225D01*
X028409Y068271D01*
X028409Y068532D01*
X028031Y068532D01*
X028031Y068609D01*
X028409Y068609D01*
X028409Y068870D01*
X028405Y068882D01*
X033915Y068882D01*
X033915Y062843D01*
X034048Y062433D01*
X034301Y062084D01*
X034301Y062084D01*
X034301Y062084D01*
X034650Y061831D01*
X035060Y061698D01*
X036063Y061698D01*
X036158Y061690D01*
X036339Y061631D01*
X036493Y061520D01*
X036604Y061366D01*
X036663Y061185D01*
X036671Y061090D01*
X036671Y019358D01*
X036663Y019263D01*
X036604Y019082D01*
X036493Y018928D01*
X036339Y018817D01*
X036158Y018758D01*
X036063Y018750D01*
X035060Y018750D01*
X034650Y018617D01*
X034301Y018364D01*
X034048Y018015D01*
X033915Y017605D01*
X033915Y007153D01*
X033904Y006953D01*
X033814Y006562D01*
X033641Y006202D01*
X033391Y005888D01*
X033078Y005639D01*
X032717Y005465D01*
X032326Y005376D01*
X032126Y005365D01*
X031725Y005365D01*
X031823Y005405D01*
X031945Y005528D01*
X032012Y005688D01*
X032012Y005862D01*
X031945Y006023D01*
X031823Y006146D01*
X031662Y006212D01*
X031488Y006212D01*
X031328Y006146D01*
X031205Y006023D01*
X031138Y005862D01*
X031138Y005688D01*
X031205Y005528D01*
X031328Y005405D01*
X031425Y005365D01*
X028891Y005365D01*
X028988Y005405D01*
X029111Y005528D01*
X029177Y005688D01*
X029177Y005862D01*
X029111Y006023D01*
X028988Y006146D01*
X028827Y006212D01*
X028654Y006212D01*
X028493Y006146D01*
X028468Y006121D01*
X028468Y008762D01*
X028420Y008810D01*
X026384Y008810D01*
X026336Y008762D01*
X026336Y005365D01*
X022169Y005365D01*
X022169Y008762D01*
X022121Y008810D01*
X020084Y008810D01*
X020036Y008762D01*
X020036Y005365D01*
X016378Y005365D01*
X016178Y005376D01*
X015788Y005465D01*
X015427Y005639D01*
X015114Y005888D01*
X014864Y006202D01*
X014690Y006562D01*
X014601Y006953D01*
X014590Y007153D01*
X014590Y007819D01*
X017318Y007819D01*
X017366Y007867D01*
X017366Y009589D01*
X017318Y009637D01*
X014590Y009637D01*
X014590Y017605D01*
X014456Y018015D01*
X014203Y018364D01*
X013854Y018617D01*
X013444Y018750D01*
X012441Y018750D01*
X012346Y018758D01*
X012165Y018817D01*
X012012Y018928D01*
X011900Y019082D01*
X011841Y019263D01*
X011834Y019358D01*
X011834Y061090D01*
X011841Y061185D01*
X011900Y061366D01*
X012012Y061520D01*
X012165Y061631D01*
X012346Y061690D01*
X012441Y061698D01*
X013444Y061698D01*
X013854Y061831D01*
X014203Y062084D01*
X014456Y062433D01*
X014590Y062843D01*
X014590Y068882D01*
X020136Y068882D01*
X020136Y068515D01*
X019540Y068515D01*
X019445Y068610D01*
X019030Y068610D01*
X018937Y068517D01*
X018845Y068610D01*
X018430Y068610D01*
X018322Y068502D01*
X018322Y068088D01*
X018430Y067980D01*
X018482Y067980D01*
X018482Y066795D01*
X016119Y064432D01*
X016119Y063094D01*
X013285Y060259D01*
X013285Y060057D01*
X013244Y060017D01*
X013205Y059921D01*
X013205Y059818D01*
X013244Y059722D01*
X013318Y059649D01*
X013413Y059610D01*
X013423Y059610D01*
X013037Y059224D01*
X012980Y059224D01*
X012884Y059185D01*
X012811Y059111D01*
X012772Y059016D01*
X012772Y058912D01*
X012811Y058817D01*
X012884Y058744D01*
X012980Y058704D01*
X013029Y058704D01*
X012537Y058212D01*
X012537Y021724D01*
X015096Y019165D01*
X015201Y019060D01*
X015600Y019060D01*
X015640Y019019D01*
X015736Y018980D01*
X015839Y018980D01*
X015935Y019019D01*
X016008Y019092D01*
X016048Y019188D01*
X016048Y019291D01*
X017592Y019291D01*
X017468Y019450D02*
X015945Y019450D01*
X015935Y019460D02*
X015839Y019500D01*
X015736Y019500D01*
X015693Y019482D01*
X015693Y019549D01*
X015736Y019531D01*
X015839Y019531D01*
X015935Y019571D01*
X016008Y019644D01*
X016048Y019739D01*
X016048Y019843D01*
X016008Y019938D01*
X016048Y019767D02*
X017703Y019767D01*
X017544Y019608D02*
X015973Y019608D01*
X015935Y019460D02*
X016008Y019387D01*
X016048Y019291D01*
X016025Y019133D02*
X017750Y019133D01*
X017909Y018974D02*
X011978Y018974D01*
X011884Y019133D02*
X015128Y019133D01*
X014970Y019291D02*
X011839Y019291D01*
X011834Y019450D02*
X014811Y019450D01*
X014653Y019608D02*
X011834Y019608D01*
X011834Y019767D02*
X014494Y019767D01*
X014336Y019925D02*
X011834Y019925D01*
X011834Y020084D02*
X014177Y020084D01*
X014019Y020242D02*
X011834Y020242D01*
X011834Y020401D02*
X013860Y020401D01*
X013702Y020559D02*
X011834Y020559D01*
X011834Y020718D02*
X013543Y020718D01*
X013385Y020876D02*
X011834Y020876D01*
X011834Y021035D02*
X013226Y021035D01*
X013068Y021193D02*
X011834Y021193D01*
X011834Y021352D02*
X012909Y021352D01*
X012751Y021510D02*
X011834Y021510D01*
X011834Y021669D02*
X012592Y021669D01*
X012537Y021827D02*
X011834Y021827D01*
X011834Y021986D02*
X012537Y021986D01*
X012537Y022144D02*
X011834Y022144D01*
X011834Y022303D02*
X012537Y022303D01*
X012537Y022461D02*
X011834Y022461D01*
X011834Y022620D02*
X012537Y022620D01*
X012537Y022778D02*
X011834Y022778D01*
X011834Y022937D02*
X012537Y022937D01*
X012537Y023095D02*
X011834Y023095D01*
X011834Y023254D02*
X012537Y023254D01*
X012537Y023412D02*
X011834Y023412D01*
X011834Y023571D02*
X012537Y023571D01*
X012537Y023729D02*
X011834Y023729D01*
X011834Y023888D02*
X012537Y023888D01*
X012537Y024046D02*
X011834Y024046D01*
X011834Y024205D02*
X012537Y024205D01*
X012537Y024363D02*
X011834Y024363D01*
X011834Y024522D02*
X012537Y024522D01*
X012537Y024680D02*
X011834Y024680D01*
X011834Y024839D02*
X012537Y024839D01*
X012537Y024997D02*
X011834Y024997D01*
X011834Y025156D02*
X012537Y025156D01*
X012537Y025314D02*
X011834Y025314D01*
X011834Y025473D02*
X012537Y025473D01*
X012537Y025631D02*
X011834Y025631D01*
X011834Y025790D02*
X012537Y025790D01*
X012537Y025948D02*
X011834Y025948D01*
X011834Y026107D02*
X012537Y026107D01*
X012537Y026265D02*
X011834Y026265D01*
X011834Y026424D02*
X012537Y026424D01*
X012537Y026582D02*
X011834Y026582D01*
X011834Y026741D02*
X012537Y026741D01*
X012537Y026899D02*
X011834Y026899D01*
X011834Y027058D02*
X012537Y027058D01*
X012537Y027216D02*
X011834Y027216D01*
X011834Y027375D02*
X012537Y027375D01*
X012537Y027533D02*
X011834Y027533D01*
X011834Y027692D02*
X012537Y027692D01*
X012537Y027850D02*
X011834Y027850D01*
X011834Y028009D02*
X012537Y028009D01*
X012537Y028167D02*
X011834Y028167D01*
X011834Y028326D02*
X012537Y028326D01*
X012537Y028484D02*
X011834Y028484D01*
X011834Y028643D02*
X012537Y028643D01*
X012537Y028801D02*
X011834Y028801D01*
X011834Y028960D02*
X012537Y028960D01*
X012537Y029118D02*
X011834Y029118D01*
X011834Y029277D02*
X012537Y029277D01*
X012537Y029435D02*
X011834Y029435D01*
X011834Y029594D02*
X012537Y029594D01*
X012537Y029752D02*
X011834Y029752D01*
X011834Y029911D02*
X012537Y029911D01*
X012537Y030069D02*
X011834Y030069D01*
X011834Y030228D02*
X012537Y030228D01*
X012537Y030386D02*
X011834Y030386D01*
X011834Y030545D02*
X012537Y030545D01*
X012537Y030703D02*
X011834Y030703D01*
X011834Y030862D02*
X012537Y030862D01*
X012537Y031020D02*
X011834Y031020D01*
X011834Y031179D02*
X012537Y031179D01*
X012537Y031337D02*
X011834Y031337D01*
X011834Y031496D02*
X012537Y031496D01*
X012537Y031654D02*
X011834Y031654D01*
X011834Y031813D02*
X012537Y031813D01*
X012537Y031971D02*
X011834Y031971D01*
X011834Y032130D02*
X012537Y032130D01*
X012537Y032288D02*
X011834Y032288D01*
X011834Y032447D02*
X012537Y032447D01*
X012537Y032605D02*
X011834Y032605D01*
X011834Y032764D02*
X012537Y032764D01*
X012537Y032922D02*
X011834Y032922D01*
X011834Y033081D02*
X012537Y033081D01*
X012537Y033239D02*
X011834Y033239D01*
X011834Y033398D02*
X012537Y033398D01*
X012537Y033556D02*
X011834Y033556D01*
X011834Y033715D02*
X012537Y033715D01*
X012537Y033873D02*
X011834Y033873D01*
X011834Y034032D02*
X012537Y034032D01*
X012537Y034190D02*
X011834Y034190D01*
X011834Y034349D02*
X012537Y034349D01*
X012537Y034507D02*
X011834Y034507D01*
X011834Y034666D02*
X012537Y034666D01*
X012537Y034824D02*
X011834Y034824D01*
X011834Y034983D02*
X012537Y034983D01*
X012537Y035141D02*
X011834Y035141D01*
X011834Y035300D02*
X012537Y035300D01*
X012537Y035458D02*
X011834Y035458D01*
X011834Y035617D02*
X012537Y035617D01*
X012537Y035775D02*
X011834Y035775D01*
X011834Y035934D02*
X012537Y035934D01*
X012537Y036092D02*
X011834Y036092D01*
X011834Y036251D02*
X012537Y036251D01*
X012537Y036409D02*
X011834Y036409D01*
X011834Y036568D02*
X012537Y036568D01*
X012537Y036726D02*
X011834Y036726D01*
X011834Y036885D02*
X012537Y036885D01*
X012537Y037043D02*
X011834Y037043D01*
X011834Y037202D02*
X012537Y037202D01*
X012537Y037360D02*
X011834Y037360D01*
X011834Y037519D02*
X012537Y037519D01*
X012537Y037677D02*
X011834Y037677D01*
X011834Y037836D02*
X012537Y037836D01*
X012537Y037994D02*
X011834Y037994D01*
X011834Y038153D02*
X012537Y038153D01*
X012537Y038311D02*
X011834Y038311D01*
X011834Y038470D02*
X012537Y038470D01*
X012537Y038628D02*
X011834Y038628D01*
X011834Y038787D02*
X012537Y038787D01*
X012537Y038945D02*
X011834Y038945D01*
X011834Y039104D02*
X012537Y039104D01*
X012537Y039262D02*
X011834Y039262D01*
X011834Y039421D02*
X012537Y039421D01*
X012537Y039579D02*
X011834Y039579D01*
X011834Y039738D02*
X012537Y039738D01*
X012537Y039896D02*
X011834Y039896D01*
X011834Y040055D02*
X012537Y040055D01*
X012537Y040213D02*
X011834Y040213D01*
X011834Y040372D02*
X012537Y040372D01*
X012537Y040530D02*
X011834Y040530D01*
X011834Y040689D02*
X012537Y040689D01*
X012537Y040847D02*
X011834Y040847D01*
X011834Y041006D02*
X012537Y041006D01*
X012537Y041164D02*
X011834Y041164D01*
X011834Y041323D02*
X012537Y041323D01*
X012537Y041481D02*
X011834Y041481D01*
X011834Y041640D02*
X012537Y041640D01*
X012537Y041798D02*
X011834Y041798D01*
X011834Y041957D02*
X012537Y041957D01*
X012537Y042115D02*
X011834Y042115D01*
X011834Y042274D02*
X012537Y042274D01*
X012537Y042432D02*
X011834Y042432D01*
X011834Y042591D02*
X012537Y042591D01*
X012537Y042749D02*
X011834Y042749D01*
X011834Y042908D02*
X012537Y042908D01*
X012537Y043066D02*
X011834Y043066D01*
X011834Y043225D02*
X012537Y043225D01*
X012537Y043383D02*
X011834Y043383D01*
X011834Y043542D02*
X012537Y043542D01*
X012537Y043700D02*
X011834Y043700D01*
X011834Y043859D02*
X012537Y043859D01*
X012537Y044017D02*
X011834Y044017D01*
X011834Y044176D02*
X012537Y044176D01*
X012537Y044334D02*
X011834Y044334D01*
X011834Y044493D02*
X012537Y044493D01*
X012537Y044651D02*
X011834Y044651D01*
X011834Y044810D02*
X012537Y044810D01*
X012537Y044968D02*
X011834Y044968D01*
X011834Y045127D02*
X012537Y045127D01*
X012537Y045285D02*
X011834Y045285D01*
X011834Y045444D02*
X012537Y045444D01*
X012537Y045602D02*
X011834Y045602D01*
X011834Y045761D02*
X012537Y045761D01*
X012537Y045919D02*
X011834Y045919D01*
X011834Y046078D02*
X012537Y046078D01*
X012537Y046236D02*
X011834Y046236D01*
X011834Y046395D02*
X012537Y046395D01*
X012537Y046553D02*
X011834Y046553D01*
X011834Y046712D02*
X012537Y046712D01*
X012537Y046870D02*
X011834Y046870D01*
X011834Y047029D02*
X012537Y047029D01*
X012537Y047187D02*
X011834Y047187D01*
X011834Y047346D02*
X012537Y047346D01*
X012537Y047504D02*
X011834Y047504D01*
X011834Y047663D02*
X012537Y047663D01*
X012537Y047821D02*
X011834Y047821D01*
X011834Y047980D02*
X012537Y047980D01*
X012537Y048138D02*
X011834Y048138D01*
X011834Y048297D02*
X012537Y048297D01*
X012537Y048455D02*
X011834Y048455D01*
X011834Y048614D02*
X012537Y048614D01*
X012537Y048772D02*
X011834Y048772D01*
X011834Y048931D02*
X012537Y048931D01*
X012537Y049089D02*
X011834Y049089D01*
X011834Y049248D02*
X012537Y049248D01*
X012537Y049406D02*
X011834Y049406D01*
X011834Y049565D02*
X012537Y049565D01*
X012537Y049723D02*
X011834Y049723D01*
X011834Y049882D02*
X012537Y049882D01*
X012537Y050040D02*
X011834Y050040D01*
X011834Y050199D02*
X012537Y050199D01*
X012537Y050357D02*
X011834Y050357D01*
X011834Y050516D02*
X012537Y050516D01*
X012537Y050674D02*
X011834Y050674D01*
X011834Y050833D02*
X012537Y050833D01*
X012537Y050991D02*
X011834Y050991D01*
X011834Y051150D02*
X012537Y051150D01*
X012537Y051308D02*
X011834Y051308D01*
X011834Y051467D02*
X012537Y051467D01*
X012537Y051625D02*
X011834Y051625D01*
X011834Y051784D02*
X012537Y051784D01*
X012537Y051942D02*
X011834Y051942D01*
X011834Y052101D02*
X012537Y052101D01*
X012537Y052259D02*
X011834Y052259D01*
X011834Y052418D02*
X012537Y052418D01*
X012537Y052576D02*
X011834Y052576D01*
X011834Y052735D02*
X012537Y052735D01*
X012537Y052893D02*
X011834Y052893D01*
X011834Y053052D02*
X012537Y053052D01*
X012537Y053210D02*
X011834Y053210D01*
X011834Y053369D02*
X012537Y053369D01*
X012537Y053527D02*
X011834Y053527D01*
X011834Y053686D02*
X012537Y053686D01*
X012537Y053844D02*
X011834Y053844D01*
X011834Y054003D02*
X012537Y054003D01*
X012537Y054161D02*
X011834Y054161D01*
X011834Y054320D02*
X012537Y054320D01*
X012537Y054478D02*
X011834Y054478D01*
X011834Y054637D02*
X012537Y054637D01*
X012537Y054795D02*
X011834Y054795D01*
X011834Y054954D02*
X012537Y054954D01*
X012537Y055112D02*
X011834Y055112D01*
X011834Y055271D02*
X012537Y055271D01*
X012537Y055429D02*
X011834Y055429D01*
X011834Y055588D02*
X012537Y055588D01*
X012537Y055746D02*
X011834Y055746D01*
X011834Y055905D02*
X012537Y055905D01*
X012537Y056063D02*
X011834Y056063D01*
X011834Y056222D02*
X012537Y056222D01*
X012537Y056380D02*
X011834Y056380D01*
X011834Y056539D02*
X012537Y056539D01*
X012537Y056697D02*
X011834Y056697D01*
X011834Y056856D02*
X012537Y056856D01*
X012537Y057014D02*
X011834Y057014D01*
X011834Y057173D02*
X012537Y057173D01*
X012537Y057331D02*
X011834Y057331D01*
X011834Y057490D02*
X012537Y057490D01*
X012537Y057648D02*
X011834Y057648D01*
X011834Y057807D02*
X012537Y057807D01*
X012537Y057965D02*
X011834Y057965D01*
X011834Y058124D02*
X012537Y058124D01*
X012607Y058282D02*
X011834Y058282D01*
X011834Y058441D02*
X012766Y058441D01*
X012924Y058599D02*
X011834Y058599D01*
X011834Y058758D02*
X012871Y058758D01*
X012772Y058916D02*
X011834Y058916D01*
X011834Y059075D02*
X012796Y059075D01*
X013046Y059233D02*
X011834Y059233D01*
X011834Y059392D02*
X013205Y059392D01*
X013363Y059550D02*
X011834Y059550D01*
X011834Y059709D02*
X013258Y059709D01*
X013205Y059867D02*
X011834Y059867D01*
X011834Y060026D02*
X013253Y060026D01*
X013285Y060184D02*
X011834Y060184D01*
X011834Y060343D02*
X013368Y060343D01*
X013527Y060501D02*
X011834Y060501D01*
X011834Y060660D02*
X013685Y060660D01*
X013844Y060818D02*
X011834Y060818D01*
X011834Y060977D02*
X014002Y060977D01*
X014161Y061135D02*
X011837Y061135D01*
X011877Y061294D02*
X014319Y061294D01*
X014478Y061452D02*
X011963Y061452D01*
X012137Y061611D02*
X014636Y061611D01*
X014795Y061769D02*
X013665Y061769D01*
X013988Y061928D02*
X014953Y061928D01*
X015112Y062086D02*
X014205Y062086D01*
X014203Y062084D02*
X014203Y062084D01*
X014320Y062245D02*
X015270Y062245D01*
X015429Y062403D02*
X014435Y062403D01*
X014456Y062433D02*
X014456Y062433D01*
X014498Y062562D02*
X015587Y062562D01*
X015746Y062720D02*
X014550Y062720D01*
X014590Y062879D02*
X015904Y062879D01*
X016063Y063037D02*
X014590Y063037D01*
X014590Y063196D02*
X016119Y063196D01*
X016119Y063354D02*
X014590Y063354D01*
X014590Y063513D02*
X016119Y063513D01*
X016119Y063671D02*
X014590Y063671D01*
X014590Y063830D02*
X016119Y063830D01*
X016119Y063988D02*
X014590Y063988D01*
X014590Y064147D02*
X016119Y064147D01*
X016119Y064305D02*
X014590Y064305D01*
X014590Y064464D02*
X016151Y064464D01*
X016309Y064622D02*
X014590Y064622D01*
X014590Y064781D02*
X016468Y064781D01*
X016626Y064939D02*
X014590Y064939D01*
X014590Y065098D02*
X016785Y065098D01*
X016943Y065256D02*
X014590Y065256D01*
X014590Y065415D02*
X017102Y065415D01*
X017260Y065573D02*
X014590Y065573D01*
X014590Y065732D02*
X017419Y065732D01*
X017577Y065890D02*
X014590Y065890D01*
X014590Y066049D02*
X017736Y066049D01*
X017894Y066207D02*
X014590Y066207D01*
X014590Y066366D02*
X018053Y066366D01*
X018211Y066524D02*
X014590Y066524D01*
X014590Y066683D02*
X018370Y066683D01*
X018482Y066841D02*
X014590Y066841D01*
X014590Y067000D02*
X018482Y067000D01*
X018482Y067158D02*
X014590Y067158D01*
X014590Y067317D02*
X018482Y067317D01*
X018482Y067475D02*
X014590Y067475D01*
X014590Y067634D02*
X018482Y067634D01*
X018482Y067792D02*
X014590Y067792D01*
X014590Y067951D02*
X018482Y067951D01*
X018322Y068109D02*
X014590Y068109D01*
X014590Y068268D02*
X018322Y068268D01*
X018322Y068426D02*
X014590Y068426D01*
X014590Y068585D02*
X018405Y068585D01*
X018870Y068585D02*
X019005Y068585D01*
X019237Y068295D02*
X020236Y068295D01*
X020512Y068570D01*
X020136Y068585D02*
X019470Y068585D01*
X019540Y068075D02*
X020328Y068075D01*
X020408Y068155D01*
X020806Y068155D01*
X020888Y068237D01*
X020888Y068882D01*
X021280Y068882D01*
X021277Y068870D01*
X021277Y068609D01*
X021655Y068609D01*
X021655Y068532D01*
X021731Y068532D01*
X021731Y068115D01*
X021953Y068115D01*
X021999Y068127D01*
X022040Y068151D01*
X022073Y068184D01*
X022097Y068225D01*
X022109Y068271D01*
X022109Y068532D01*
X021731Y068532D01*
X021731Y068609D01*
X022109Y068609D01*
X022109Y068870D01*
X022106Y068882D01*
X023285Y068882D01*
X023285Y068237D01*
X023367Y068155D01*
X023442Y068155D01*
X023442Y067559D01*
X023347Y067464D01*
X023347Y067049D01*
X023439Y066956D01*
X023347Y066864D01*
X023347Y066449D01*
X023454Y066341D01*
X023482Y066341D01*
X023482Y065141D01*
X020083Y061743D01*
X015556Y061743D01*
X015450Y061637D01*
X013725Y059912D01*
X013725Y059921D01*
X013685Y060017D01*
X013645Y060057D01*
X013645Y060110D01*
X016374Y062839D01*
X016479Y062945D01*
X016479Y064283D01*
X018736Y066540D01*
X018842Y066646D01*
X018842Y067980D01*
X018845Y067980D01*
X018937Y068073D01*
X019030Y067980D01*
X019445Y067980D01*
X019540Y068075D01*
X018842Y067951D02*
X023442Y067951D01*
X023442Y068109D02*
X020362Y068109D01*
X020429Y067608D02*
X020280Y067608D01*
X020141Y067551D01*
X020036Y067445D01*
X019978Y067307D01*
X019978Y067157D01*
X020036Y067019D01*
X020055Y067000D01*
X020055Y064955D01*
X019522Y064422D01*
X018815Y064422D01*
X018796Y064441D01*
X018658Y064498D01*
X018508Y064498D01*
X018370Y064441D01*
X018264Y064335D01*
X018207Y064196D01*
X018207Y064047D01*
X018264Y063909D01*
X018370Y063803D01*
X018508Y063745D01*
X018658Y063745D01*
X018796Y063803D01*
X018815Y063822D01*
X019706Y063822D01*
X019816Y063867D01*
X019900Y063952D01*
X020609Y064660D01*
X020655Y064771D01*
X020655Y067000D01*
X020674Y067019D01*
X020731Y067157D01*
X020731Y067307D01*
X020674Y067445D01*
X020568Y067551D01*
X020429Y067608D01*
X020643Y067475D02*
X023358Y067475D01*
X023347Y067317D02*
X020727Y067317D01*
X020731Y067158D02*
X023347Y067158D01*
X023396Y067000D02*
X020655Y067000D01*
X020655Y066841D02*
X023347Y066841D01*
X023347Y066683D02*
X020655Y066683D01*
X020655Y066524D02*
X023347Y066524D01*
X023430Y066366D02*
X020655Y066366D01*
X020655Y066207D02*
X023482Y066207D01*
X023482Y066049D02*
X020655Y066049D01*
X020655Y065890D02*
X023482Y065890D01*
X023482Y065732D02*
X020655Y065732D01*
X020655Y065573D02*
X023482Y065573D01*
X023482Y065415D02*
X020655Y065415D01*
X020655Y065256D02*
X023482Y065256D01*
X023438Y065098D02*
X020655Y065098D01*
X020655Y064939D02*
X023280Y064939D01*
X023121Y064781D02*
X020655Y064781D01*
X020571Y064622D02*
X022963Y064622D01*
X022804Y064464D02*
X020412Y064464D01*
X020254Y064305D02*
X022646Y064305D01*
X022487Y064147D02*
X020095Y064147D01*
X019937Y063988D02*
X022329Y063988D01*
X022170Y063830D02*
X019725Y063830D01*
X019564Y064464D02*
X018740Y064464D01*
X018426Y064464D02*
X016660Y064464D01*
X016818Y064622D02*
X019722Y064622D01*
X019881Y064781D02*
X016977Y064781D01*
X017135Y064939D02*
X020039Y064939D01*
X020055Y065098D02*
X017294Y065098D01*
X017452Y065256D02*
X020055Y065256D01*
X020055Y065415D02*
X017611Y065415D01*
X017769Y065573D02*
X020055Y065573D01*
X020055Y065732D02*
X017928Y065732D01*
X018086Y065890D02*
X020055Y065890D01*
X020055Y066049D02*
X018245Y066049D01*
X018403Y066207D02*
X020055Y066207D01*
X020055Y066366D02*
X018562Y066366D01*
X018720Y066524D02*
X020055Y066524D01*
X020055Y066683D02*
X018842Y066683D01*
X018842Y066841D02*
X020055Y066841D01*
X020055Y067000D02*
X018842Y067000D01*
X018842Y067158D02*
X019978Y067158D01*
X019983Y067317D02*
X018842Y067317D01*
X018842Y067475D02*
X020066Y067475D01*
X020888Y068268D02*
X021278Y068268D01*
X021277Y068271D02*
X021289Y068225D01*
X021313Y068184D01*
X021346Y068151D01*
X021387Y068127D01*
X021433Y068115D01*
X021655Y068115D01*
X021655Y068532D01*
X021277Y068532D01*
X021277Y068271D01*
X021277Y068426D02*
X020888Y068426D01*
X020888Y068585D02*
X021655Y068585D01*
X021731Y068585D02*
X023285Y068585D01*
X023285Y068743D02*
X022109Y068743D01*
X022109Y068426D02*
X023285Y068426D01*
X023285Y068268D02*
X022108Y068268D01*
X021731Y068268D02*
X021655Y068268D01*
X021655Y068426D02*
X021731Y068426D01*
X021277Y068743D02*
X020888Y068743D01*
X020136Y068743D02*
X014590Y068743D01*
X016501Y064305D02*
X018252Y064305D01*
X018207Y064147D02*
X016479Y064147D01*
X016479Y063988D02*
X018231Y063988D01*
X018343Y063830D02*
X016479Y063830D01*
X016479Y063671D02*
X022012Y063671D01*
X021853Y063513D02*
X016479Y063513D01*
X016479Y063354D02*
X021695Y063354D01*
X021536Y063196D02*
X016479Y063196D01*
X016479Y063037D02*
X021378Y063037D01*
X021219Y062879D02*
X016413Y062879D01*
X016255Y062720D02*
X021061Y062720D01*
X020902Y062562D02*
X016096Y062562D01*
X015938Y062403D02*
X020744Y062403D01*
X020585Y062245D02*
X015779Y062245D01*
X015621Y062086D02*
X020427Y062086D01*
X020268Y061928D02*
X015462Y061928D01*
X015304Y061769D02*
X020110Y061769D01*
X020395Y061546D02*
X023736Y064887D01*
X023842Y064992D01*
X023842Y066341D01*
X023869Y066341D01*
X023977Y066449D01*
X023977Y066864D01*
X023884Y066956D01*
X023977Y067049D01*
X023977Y067464D01*
X023882Y067559D01*
X023882Y068155D01*
X023956Y068155D01*
X024038Y068237D01*
X024038Y068882D01*
X024430Y068882D01*
X024427Y068870D01*
X024427Y068609D01*
X024805Y068609D01*
X024805Y068532D01*
X024881Y068532D01*
X024881Y068115D01*
X025103Y068115D01*
X025148Y068127D01*
X025190Y068151D01*
X025223Y068184D01*
X025247Y068225D01*
X025259Y068271D01*
X025259Y068532D01*
X024881Y068532D01*
X024881Y068609D01*
X025259Y068609D01*
X025259Y068870D01*
X025256Y068882D01*
X026435Y068882D01*
X026435Y068237D01*
X026517Y068155D01*
X026591Y068155D01*
X026591Y067559D01*
X026496Y067464D01*
X026496Y067049D01*
X026589Y066956D01*
X026496Y066864D01*
X026496Y066449D01*
X026604Y066341D01*
X026631Y066341D01*
X026631Y066243D01*
X021934Y061546D01*
X020395Y061546D01*
X020460Y061611D02*
X021999Y061611D01*
X022157Y061769D02*
X020619Y061769D01*
X020777Y061928D02*
X022316Y061928D01*
X022474Y062086D02*
X020936Y062086D01*
X021094Y062245D02*
X022633Y062245D01*
X022791Y062403D02*
X021253Y062403D01*
X021411Y062562D02*
X022950Y062562D01*
X023108Y062720D02*
X021570Y062720D01*
X021728Y062879D02*
X023267Y062879D01*
X023425Y063037D02*
X021887Y063037D01*
X022045Y063196D02*
X023584Y063196D01*
X023742Y063354D02*
X022204Y063354D01*
X022362Y063513D02*
X023901Y063513D01*
X024059Y063671D02*
X022521Y063671D01*
X022679Y063830D02*
X024218Y063830D01*
X024376Y063988D02*
X022838Y063988D01*
X022996Y064147D02*
X024535Y064147D01*
X024693Y064305D02*
X023155Y064305D01*
X023313Y064464D02*
X024852Y064464D01*
X025010Y064622D02*
X023472Y064622D01*
X023630Y064781D02*
X025169Y064781D01*
X025327Y064939D02*
X023789Y064939D01*
X023842Y065098D02*
X025486Y065098D01*
X025644Y065256D02*
X023842Y065256D01*
X023842Y065415D02*
X025803Y065415D01*
X025961Y065573D02*
X023842Y065573D01*
X023842Y065732D02*
X026120Y065732D01*
X026278Y065890D02*
X023842Y065890D01*
X023842Y066049D02*
X026437Y066049D01*
X026595Y066207D02*
X023842Y066207D01*
X023893Y066366D02*
X026579Y066366D01*
X026496Y066524D02*
X023977Y066524D01*
X023977Y066683D02*
X026496Y066683D01*
X026496Y066841D02*
X023977Y066841D01*
X023927Y067000D02*
X026545Y067000D01*
X026496Y067158D02*
X023977Y067158D01*
X023977Y067317D02*
X026496Y067317D01*
X026508Y067475D02*
X023965Y067475D01*
X023882Y067634D02*
X026591Y067634D01*
X026591Y067792D02*
X023882Y067792D01*
X023882Y067951D02*
X026591Y067951D01*
X026591Y068109D02*
X023882Y068109D01*
X024038Y068268D02*
X024427Y068268D01*
X024427Y068271D02*
X024439Y068225D01*
X024463Y068184D01*
X024496Y068151D01*
X024537Y068127D01*
X024583Y068115D01*
X024805Y068115D01*
X024805Y068532D01*
X024427Y068532D01*
X024427Y068271D01*
X024427Y068426D02*
X024038Y068426D01*
X024038Y068585D02*
X024805Y068585D01*
X024881Y068585D02*
X026435Y068585D01*
X026435Y068743D02*
X025259Y068743D01*
X025259Y068426D02*
X026435Y068426D01*
X026435Y068268D02*
X025258Y068268D01*
X024881Y068268D02*
X024805Y068268D01*
X024805Y068426D02*
X024881Y068426D01*
X024427Y068743D02*
X024038Y068743D01*
X023662Y068570D02*
X023662Y067256D01*
X023442Y067634D02*
X018842Y067634D01*
X018842Y067792D02*
X023442Y067792D01*
X025678Y064781D02*
X033915Y064781D01*
X033915Y064939D02*
X025836Y064939D01*
X025995Y065098D02*
X033915Y065098D01*
X033915Y065256D02*
X026153Y065256D01*
X026312Y065415D02*
X033915Y065415D01*
X033915Y065573D02*
X026470Y065573D01*
X026629Y065732D02*
X033915Y065732D01*
X033915Y065890D02*
X026787Y065890D01*
X026946Y066049D02*
X033915Y066049D01*
X033915Y066207D02*
X026991Y066207D01*
X027043Y066366D02*
X033915Y066366D01*
X033915Y066524D02*
X027126Y066524D01*
X027126Y066683D02*
X033915Y066683D01*
X033915Y066841D02*
X027126Y066841D01*
X027077Y067000D02*
X033915Y067000D01*
X033915Y067158D02*
X027126Y067158D01*
X027126Y067317D02*
X033915Y067317D01*
X033915Y067475D02*
X027115Y067475D01*
X027031Y067634D02*
X033915Y067634D01*
X033915Y067792D02*
X027031Y067792D01*
X027031Y067951D02*
X033915Y067951D01*
X033915Y068109D02*
X027031Y068109D01*
X027188Y068268D02*
X027577Y068268D01*
X027576Y068271D02*
X027588Y068225D01*
X027612Y068184D01*
X027646Y068151D01*
X027687Y068127D01*
X027732Y068115D01*
X027954Y068115D01*
X027954Y068532D01*
X027576Y068532D01*
X027576Y068271D01*
X027576Y068426D02*
X027188Y068426D01*
X027188Y068585D02*
X027954Y068585D01*
X028031Y068585D02*
X033915Y068585D01*
X033915Y068743D02*
X028409Y068743D01*
X028409Y068426D02*
X033915Y068426D01*
X033915Y068268D02*
X028408Y068268D01*
X028030Y068268D02*
X027954Y068268D01*
X027954Y068426D02*
X028030Y068426D01*
X027576Y068743D02*
X027188Y068743D01*
X026811Y068570D02*
X026811Y067256D01*
X025519Y064622D02*
X033915Y064622D01*
X033915Y064464D02*
X025361Y064464D01*
X025202Y064305D02*
X033915Y064305D01*
X033915Y064147D02*
X025044Y064147D01*
X024885Y063988D02*
X033915Y063988D01*
X033915Y063830D02*
X024727Y063830D01*
X024568Y063671D02*
X033915Y063671D01*
X033915Y063513D02*
X024410Y063513D01*
X024251Y063354D02*
X033915Y063354D01*
X033915Y063196D02*
X024093Y063196D01*
X023934Y063037D02*
X033915Y063037D01*
X033915Y062879D02*
X023776Y062879D01*
X023617Y062720D02*
X033955Y062720D01*
X034006Y062562D02*
X023459Y062562D01*
X023300Y062403D02*
X034070Y062403D01*
X034048Y062433D02*
X034048Y062433D01*
X034185Y062245D02*
X023142Y062245D01*
X022983Y062086D02*
X034300Y062086D01*
X034517Y061928D02*
X022825Y061928D01*
X022666Y061769D02*
X034840Y061769D01*
X034650Y061831D02*
X034650Y061831D01*
X033078Y060343D02*
X036671Y060343D01*
X036671Y060501D02*
X032919Y060501D01*
X032761Y060660D02*
X036671Y060660D01*
X036671Y060818D02*
X032602Y060818D01*
X032444Y060977D02*
X036671Y060977D01*
X036667Y061135D02*
X032370Y061135D01*
X032386Y061119D02*
X032313Y061192D01*
X032217Y061232D01*
X032114Y061232D01*
X032018Y061192D01*
X031945Y061119D01*
X031906Y061024D01*
X031906Y060920D01*
X031907Y060917D01*
X031838Y060917D01*
X031743Y060878D01*
X031670Y060804D01*
X031630Y060709D01*
X031630Y060605D01*
X031670Y060510D01*
X031743Y060437D01*
X031838Y060397D01*
X031867Y060397D01*
X032714Y059551D01*
X032714Y057393D01*
X032476Y057156D01*
X031578Y057156D01*
X031578Y057669D01*
X031461Y057786D01*
X031185Y058062D01*
X029538Y058062D01*
X029518Y058082D01*
X029422Y058122D01*
X029319Y058122D01*
X029223Y058082D01*
X029203Y058062D01*
X027555Y058062D01*
X027438Y057945D01*
X026572Y057079D01*
X026572Y050062D01*
X026689Y049945D01*
X026925Y049709D01*
X027682Y049709D01*
X027799Y049826D01*
X028060Y050088D01*
X028060Y050324D01*
X028079Y050343D01*
X028079Y050735D01*
X028021Y050793D01*
X028200Y050793D01*
X028142Y050735D01*
X028142Y050343D01*
X028224Y050261D01*
X028497Y050261D01*
X028579Y050343D01*
X028579Y050735D01*
X028521Y050793D01*
X028643Y050793D01*
X028638Y050787D01*
X028614Y050746D01*
X028602Y050700D01*
X028602Y050539D01*
X028860Y050539D01*
X028602Y050539D01*
X028602Y050377D01*
X028614Y050332D01*
X028638Y050291D01*
X028671Y050257D01*
X028712Y050233D01*
X028758Y050221D01*
X028860Y050221D01*
X028860Y050539D01*
X028860Y050539D01*
X028861Y050539D01*
X029119Y050539D01*
X029119Y050700D01*
X029107Y050746D01*
X029083Y050787D01*
X029050Y050821D01*
X029009Y050845D01*
X028992Y050849D01*
X029018Y050875D01*
X029018Y052329D01*
X028960Y052387D01*
X028997Y052387D01*
X029075Y052465D01*
X030896Y052465D01*
X030916Y052445D01*
X031012Y052405D01*
X031115Y052405D01*
X031211Y052445D01*
X031284Y052518D01*
X031323Y052613D01*
X031323Y052717D01*
X031284Y052812D01*
X031211Y052885D01*
X031115Y052925D01*
X031012Y052925D01*
X030916Y052885D01*
X030896Y052865D01*
X029075Y052865D01*
X028997Y052943D01*
X028724Y052943D01*
X028642Y052861D01*
X028642Y052469D01*
X028700Y052411D01*
X028521Y052411D01*
X028579Y052469D01*
X028579Y052861D01*
X028560Y052879D01*
X028560Y053928D01*
X028581Y053949D01*
X028620Y054044D01*
X028620Y054148D01*
X028581Y054243D01*
X028547Y054278D01*
X028547Y054744D01*
X028573Y054718D01*
X028614Y054694D01*
X028660Y054682D01*
X028910Y054682D01*
X029160Y054682D01*
X029206Y054694D01*
X029247Y054718D01*
X029280Y054751D01*
X029304Y054792D01*
X029316Y054838D01*
X029316Y054990D01*
X029316Y055141D01*
X029304Y055187D01*
X029280Y055228D01*
X029247Y055262D01*
X029239Y055266D01*
X029272Y055300D01*
X030896Y055300D01*
X030916Y055279D01*
X031012Y055240D01*
X031115Y055240D01*
X031211Y055279D01*
X031284Y055352D01*
X031323Y055448D01*
X031323Y055551D01*
X031284Y055647D01*
X031211Y055720D01*
X031115Y055760D01*
X031012Y055760D01*
X030916Y055720D01*
X030896Y055700D01*
X029252Y055700D01*
X029212Y055740D01*
X029276Y055804D01*
X029276Y056176D01*
X029212Y056240D01*
X029256Y056284D01*
X032563Y056284D01*
X032681Y056401D01*
X033310Y057031D01*
X033310Y060110D01*
X033193Y060227D01*
X032426Y060995D01*
X032426Y061024D01*
X032386Y061119D01*
X031961Y061135D02*
X015969Y061135D01*
X015811Y060977D02*
X031906Y060977D01*
X031683Y060818D02*
X015652Y060818D01*
X015494Y060660D02*
X025299Y060660D01*
X025303Y060661D02*
X025207Y060622D01*
X025134Y060548D01*
X025095Y060453D01*
X025095Y060396D01*
X024899Y060200D01*
X024899Y059644D01*
X024859Y059604D01*
X024819Y059508D01*
X024819Y059405D01*
X024859Y059309D01*
X024932Y059236D01*
X025027Y059196D01*
X025131Y059196D01*
X025226Y059236D01*
X025299Y059309D01*
X025339Y059405D01*
X025339Y059508D01*
X025299Y059604D01*
X025259Y059644D01*
X025259Y060051D01*
X025349Y060141D01*
X025406Y060141D01*
X025502Y060181D01*
X025575Y060254D01*
X025615Y060349D01*
X025615Y060453D01*
X025575Y060548D01*
X025502Y060622D01*
X025406Y060661D01*
X025303Y060661D01*
X025410Y060660D02*
X031630Y060660D01*
X031678Y060501D02*
X025595Y060501D01*
X025612Y060343D02*
X031922Y060343D01*
X032080Y060184D02*
X025505Y060184D01*
X025259Y060026D02*
X032239Y060026D01*
X032397Y059867D02*
X030342Y059867D01*
X030344Y059865D02*
X030248Y059961D01*
X030123Y060013D01*
X029988Y060013D01*
X029863Y059961D01*
X029805Y059904D01*
X029748Y059961D01*
X029623Y060013D01*
X029488Y060013D01*
X029363Y059961D01*
X029305Y059904D01*
X029248Y059961D01*
X029123Y060013D01*
X028988Y060013D01*
X028863Y059961D01*
X028767Y059865D01*
X028715Y059740D01*
X028715Y059605D01*
X028767Y059480D01*
X028863Y059385D01*
X028988Y059333D01*
X029123Y059333D01*
X029248Y059385D01*
X029305Y059442D01*
X029363Y059385D01*
X029388Y059374D01*
X029364Y059350D01*
X029340Y059309D01*
X029328Y059263D01*
X029328Y059061D01*
X029746Y059061D01*
X029746Y059024D01*
X029782Y059024D01*
X029782Y058666D01*
X030044Y058666D01*
X030089Y058678D01*
X030130Y058702D01*
X030158Y058729D01*
X030185Y058702D01*
X030226Y058678D01*
X030272Y058666D01*
X030533Y058666D01*
X030533Y059024D01*
X030570Y059024D01*
X030570Y058666D01*
X030831Y058666D01*
X030877Y058678D01*
X030918Y058702D01*
X030951Y058736D01*
X030975Y058777D01*
X030987Y058822D01*
X030987Y059024D01*
X030570Y059024D01*
X030570Y059061D01*
X030987Y059061D01*
X030987Y059263D01*
X030975Y059309D01*
X030951Y059350D01*
X030918Y059384D01*
X030877Y059407D01*
X030831Y059420D01*
X030570Y059420D01*
X030570Y059061D01*
X030533Y059061D01*
X030533Y059024D01*
X030116Y059024D01*
X029782Y059024D01*
X029782Y059061D01*
X030533Y059061D01*
X030533Y059420D01*
X030283Y059420D01*
X030344Y059480D01*
X030395Y059605D01*
X030395Y059740D01*
X030344Y059865D01*
X030395Y059709D02*
X032556Y059709D01*
X032714Y059550D02*
X030373Y059550D01*
X030533Y059392D02*
X030570Y059392D01*
X030570Y059233D02*
X030533Y059233D01*
X030533Y059075D02*
X030570Y059075D01*
X030570Y058916D02*
X030533Y058916D01*
X030533Y058758D02*
X030570Y058758D01*
X030964Y058758D02*
X032714Y058758D01*
X032714Y058916D02*
X030987Y058916D01*
X030987Y059075D02*
X032714Y059075D01*
X032714Y059233D02*
X030987Y059233D01*
X030904Y059392D02*
X032714Y059392D01*
X033310Y059392D02*
X033810Y059392D01*
X033813Y059404D02*
X033801Y059358D01*
X033801Y059097D01*
X034238Y059097D01*
X034238Y059514D01*
X033957Y059514D01*
X033911Y059502D01*
X033870Y059478D01*
X033837Y059445D01*
X033813Y059404D01*
X033801Y059233D02*
X033310Y059233D01*
X033310Y059075D02*
X034238Y059075D01*
X034238Y059097D02*
X034238Y058942D01*
X034393Y058942D01*
X034393Y059097D01*
X034830Y059097D01*
X034830Y059358D01*
X034818Y059404D01*
X034794Y059445D01*
X034760Y059478D01*
X034719Y059502D01*
X034674Y059514D01*
X034393Y059514D01*
X034393Y059097D01*
X034238Y059097D01*
X034238Y059233D02*
X034393Y059233D01*
X034393Y059075D02*
X036671Y059075D01*
X036671Y059233D02*
X034830Y059233D01*
X034821Y059392D02*
X036671Y059392D01*
X036671Y059550D02*
X033310Y059550D01*
X033310Y059709D02*
X036671Y059709D01*
X036671Y059867D02*
X033310Y059867D01*
X033310Y060026D02*
X036671Y060026D01*
X036671Y060184D02*
X033236Y060184D01*
X033310Y058916D02*
X033801Y058916D01*
X033801Y058942D02*
X033801Y058681D01*
X033813Y058635D01*
X033837Y058594D01*
X033870Y058560D01*
X033911Y058537D01*
X033957Y058524D01*
X034238Y058524D01*
X034238Y058942D01*
X033801Y058942D01*
X033801Y058758D02*
X033310Y058758D01*
X033310Y058599D02*
X033833Y058599D01*
X034238Y058599D02*
X034393Y058599D01*
X034393Y058524D02*
X034674Y058524D01*
X034719Y058537D01*
X034760Y058560D01*
X034794Y058594D01*
X034818Y058635D01*
X034830Y058681D01*
X034830Y058942D01*
X034393Y058942D01*
X034393Y058524D01*
X034393Y058758D02*
X034238Y058758D01*
X034238Y058916D02*
X034393Y058916D01*
X034830Y058916D02*
X036671Y058916D01*
X036671Y058758D02*
X034830Y058758D01*
X034797Y058599D02*
X036671Y058599D01*
X036671Y058441D02*
X033310Y058441D01*
X033310Y058282D02*
X036671Y058282D01*
X036671Y058124D02*
X033310Y058124D01*
X033310Y057965D02*
X036671Y057965D01*
X036671Y057807D02*
X034316Y057807D01*
X034302Y057821D02*
X033871Y057821D01*
X033789Y057739D01*
X033789Y057410D01*
X033871Y057328D01*
X034302Y057328D01*
X034384Y057410D01*
X034384Y057739D01*
X034302Y057821D01*
X034384Y057648D02*
X036671Y057648D01*
X036671Y057490D02*
X034384Y057490D01*
X034305Y057331D02*
X036671Y057331D01*
X036671Y057173D02*
X033310Y057173D01*
X033310Y057331D02*
X033868Y057331D01*
X033789Y057490D02*
X033310Y057490D01*
X033310Y057648D02*
X033789Y057648D01*
X033857Y057807D02*
X033310Y057807D01*
X032714Y057807D02*
X031441Y057807D01*
X031578Y057648D02*
X032714Y057648D01*
X032714Y057490D02*
X031578Y057490D01*
X031578Y057331D02*
X032651Y057331D01*
X032493Y057173D02*
X031578Y057173D01*
X031282Y057965D02*
X032714Y057965D01*
X032714Y058124D02*
X016166Y058124D01*
X016166Y058282D02*
X032714Y058282D01*
X032714Y058441D02*
X016166Y058441D01*
X016166Y058599D02*
X020673Y058599D01*
X020706Y058566D02*
X020823Y058449D01*
X026107Y058449D01*
X026480Y058822D01*
X026509Y058822D01*
X026604Y058862D01*
X026677Y058935D01*
X026717Y059031D01*
X026717Y059134D01*
X026677Y059230D01*
X026604Y059303D01*
X026509Y059342D01*
X026405Y059342D01*
X026310Y059303D01*
X026237Y059230D01*
X026197Y059134D01*
X026197Y059105D01*
X025941Y058849D01*
X020989Y058849D01*
X020555Y059283D01*
X020555Y059978D01*
X020575Y059998D01*
X020615Y060094D01*
X020615Y060197D01*
X020575Y060293D01*
X020502Y060366D01*
X020406Y060405D01*
X020303Y060405D01*
X020207Y060366D01*
X020134Y060293D01*
X020095Y060197D01*
X020095Y060094D01*
X020134Y059998D01*
X020155Y059978D01*
X020155Y059078D01*
X020272Y058961D01*
X020311Y058961D01*
X020706Y058566D01*
X020514Y058758D02*
X016166Y058758D01*
X016166Y058916D02*
X020356Y058916D01*
X020158Y059075D02*
X016166Y059075D01*
X016166Y059233D02*
X020155Y059233D01*
X020155Y059392D02*
X016183Y059392D01*
X016224Y059550D02*
X020155Y059550D01*
X020155Y059709D02*
X016186Y059709D01*
X015983Y059867D02*
X020155Y059867D01*
X020123Y060026D02*
X014860Y060026D01*
X015018Y060184D02*
X020095Y060184D01*
X020184Y060343D02*
X015177Y060343D01*
X015335Y060501D02*
X025115Y060501D01*
X025042Y060343D02*
X020525Y060343D01*
X020615Y060184D02*
X024899Y060184D01*
X024899Y060026D02*
X020586Y060026D01*
X020555Y059867D02*
X024899Y059867D01*
X024899Y059709D02*
X020555Y059709D01*
X020555Y059550D02*
X024836Y059550D01*
X024824Y059392D02*
X020555Y059392D01*
X020605Y059233D02*
X024938Y059233D01*
X025220Y059233D02*
X026240Y059233D01*
X026167Y059075D02*
X020763Y059075D01*
X020922Y058916D02*
X026008Y058916D01*
X026257Y058599D02*
X032714Y058599D01*
X033294Y057014D02*
X036671Y057014D01*
X036671Y056856D02*
X033135Y056856D01*
X032977Y056697D02*
X036671Y056697D01*
X036671Y056539D02*
X032818Y056539D01*
X032660Y056380D02*
X036671Y056380D01*
X036671Y056222D02*
X029230Y056222D01*
X029276Y056063D02*
X036671Y056063D01*
X036671Y055905D02*
X029276Y055905D01*
X029218Y055746D02*
X030979Y055746D01*
X031147Y055746D02*
X033789Y055746D01*
X033789Y055802D02*
X033789Y055473D01*
X033871Y055391D01*
X034302Y055391D01*
X034384Y055473D01*
X034384Y055802D01*
X034302Y055884D01*
X033871Y055884D01*
X033789Y055802D01*
X033789Y055588D02*
X031308Y055588D01*
X031316Y055429D02*
X033833Y055429D01*
X034340Y055429D02*
X036671Y055429D01*
X036671Y055271D02*
X031190Y055271D01*
X030936Y055271D02*
X029243Y055271D01*
X029316Y055112D02*
X036671Y055112D01*
X036671Y054954D02*
X029316Y054954D01*
X029316Y054990D02*
X028910Y054990D01*
X029316Y054990D01*
X029305Y054795D02*
X036671Y054795D01*
X036671Y054637D02*
X034779Y054637D01*
X034794Y054622D02*
X034760Y054655D01*
X034719Y054679D01*
X034674Y054691D01*
X034393Y054691D01*
X034393Y054274D01*
X034830Y054274D01*
X034830Y054535D01*
X034818Y054581D01*
X034794Y054622D01*
X034830Y054478D02*
X036671Y054478D01*
X036671Y054320D02*
X034830Y054320D01*
X034830Y054119D02*
X034393Y054119D01*
X034393Y054274D01*
X034238Y054274D01*
X034238Y054691D01*
X033957Y054691D01*
X033911Y054679D01*
X033870Y054655D01*
X033837Y054622D01*
X033813Y054581D01*
X033801Y054535D01*
X033801Y054274D01*
X034238Y054274D01*
X034238Y054119D01*
X034393Y054119D01*
X034393Y053701D01*
X034674Y053701D01*
X034719Y053714D01*
X034760Y053737D01*
X034794Y053771D01*
X034818Y053812D01*
X034830Y053858D01*
X034830Y054119D01*
X034830Y054003D02*
X036671Y054003D01*
X036671Y054161D02*
X034393Y054161D01*
X034238Y054161D02*
X030570Y054161D01*
X030570Y054154D02*
X030570Y054191D01*
X030987Y054191D01*
X030987Y054393D01*
X030975Y054439D01*
X030951Y054480D01*
X030918Y054514D01*
X030877Y054537D01*
X030831Y054550D01*
X030570Y054550D01*
X030570Y054191D01*
X030533Y054191D01*
X030533Y054154D01*
X030570Y054154D01*
X030570Y053796D01*
X030831Y053796D01*
X030877Y053808D01*
X030918Y053832D01*
X030951Y053865D01*
X030975Y053907D01*
X030987Y053952D01*
X030987Y054154D01*
X030570Y054154D01*
X030533Y054154D02*
X030533Y053796D01*
X030272Y053796D01*
X030226Y053808D01*
X030185Y053832D01*
X030158Y053859D01*
X030130Y053832D01*
X030089Y053808D01*
X030044Y053796D01*
X029782Y053796D01*
X029782Y054154D01*
X029746Y054154D01*
X029746Y053796D01*
X029484Y053796D01*
X029439Y053808D01*
X029398Y053832D01*
X029364Y053865D01*
X029340Y053907D01*
X029328Y053952D01*
X029328Y054154D01*
X029746Y054154D01*
X029746Y054191D01*
X029746Y054550D01*
X029484Y054550D01*
X029439Y054537D01*
X029398Y054514D01*
X029364Y054480D01*
X029340Y054439D01*
X029328Y054393D01*
X029328Y054191D01*
X029746Y054191D01*
X029782Y054191D01*
X029782Y054550D01*
X030044Y054550D01*
X030089Y054537D01*
X030130Y054514D01*
X030158Y054486D01*
X030185Y054514D01*
X030226Y054537D01*
X030272Y054550D01*
X030533Y054550D01*
X030533Y054191D01*
X029782Y054191D01*
X029782Y054154D01*
X030116Y054154D01*
X030533Y054154D01*
X030533Y054161D02*
X029782Y054161D01*
X029746Y054161D02*
X028615Y054161D01*
X028603Y054003D02*
X029328Y054003D01*
X029385Y053844D02*
X028560Y053844D01*
X028560Y053686D02*
X036671Y053686D01*
X036671Y053844D02*
X034826Y053844D01*
X034393Y053844D02*
X034238Y053844D01*
X034238Y053701D02*
X034238Y054119D01*
X033801Y054119D01*
X033801Y053858D01*
X033813Y053812D01*
X033837Y053771D01*
X033870Y053737D01*
X033911Y053714D01*
X033957Y053701D01*
X034238Y053701D01*
X034238Y054003D02*
X034393Y054003D01*
X034393Y054320D02*
X034238Y054320D01*
X034238Y054478D02*
X034393Y054478D01*
X034393Y054637D02*
X034238Y054637D01*
X033851Y054637D02*
X028547Y054637D01*
X028547Y054478D02*
X029363Y054478D01*
X029328Y054320D02*
X028547Y054320D01*
X028910Y054682D02*
X028910Y054990D01*
X028910Y054990D01*
X028910Y054682D01*
X028910Y054795D02*
X028910Y054795D01*
X028910Y054954D02*
X028910Y054954D01*
X028910Y054990D02*
X028910Y054990D01*
X029746Y054478D02*
X029782Y054478D01*
X029782Y054320D02*
X029746Y054320D01*
X029746Y054003D02*
X029782Y054003D01*
X029782Y053844D02*
X029746Y053844D01*
X030143Y053844D02*
X030173Y053844D01*
X030533Y053844D02*
X030570Y053844D01*
X030570Y054003D02*
X030533Y054003D01*
X030533Y054320D02*
X030570Y054320D01*
X030570Y054478D02*
X030533Y054478D01*
X030953Y054478D02*
X033801Y054478D01*
X033801Y054320D02*
X030987Y054320D01*
X030987Y054003D02*
X033801Y054003D01*
X033804Y053844D02*
X030930Y053844D01*
X030935Y052893D02*
X029047Y052893D01*
X028674Y052893D02*
X028560Y052893D01*
X028560Y053052D02*
X036671Y053052D01*
X036671Y053210D02*
X028560Y053210D01*
X028560Y053369D02*
X036671Y053369D01*
X036671Y053527D02*
X028560Y053527D01*
X028579Y052735D02*
X028642Y052735D01*
X028642Y052576D02*
X028579Y052576D01*
X028528Y052418D02*
X028693Y052418D01*
X029028Y052418D02*
X030981Y052418D01*
X031146Y052418D02*
X036671Y052418D01*
X036671Y052576D02*
X031308Y052576D01*
X031316Y052735D02*
X036671Y052735D01*
X036671Y052893D02*
X031192Y052893D01*
X029018Y052259D02*
X036671Y052259D01*
X036671Y052101D02*
X029018Y052101D01*
X029018Y051942D02*
X036671Y051942D01*
X036671Y051784D02*
X029018Y051784D01*
X029018Y051625D02*
X036671Y051625D01*
X036671Y051467D02*
X029018Y051467D01*
X029018Y051308D02*
X036671Y051308D01*
X036671Y051150D02*
X029018Y051150D01*
X029018Y050991D02*
X036671Y050991D01*
X036671Y050833D02*
X029029Y050833D01*
X029119Y050674D02*
X036671Y050674D01*
X036671Y050516D02*
X029119Y050516D01*
X029119Y050539D02*
X028861Y050539D01*
X028861Y050539D01*
X028861Y050221D01*
X028963Y050221D01*
X029009Y050233D01*
X029050Y050257D01*
X029083Y050291D01*
X029107Y050332D01*
X029119Y050377D01*
X029119Y050539D01*
X029114Y050357D02*
X036671Y050357D01*
X036671Y050199D02*
X028060Y050199D01*
X028079Y050357D02*
X028142Y050357D01*
X028142Y050516D02*
X028079Y050516D01*
X028079Y050674D02*
X028142Y050674D01*
X028579Y050674D02*
X028602Y050674D01*
X028602Y050516D02*
X028579Y050516D01*
X028579Y050357D02*
X028607Y050357D01*
X028860Y050357D02*
X028861Y050357D01*
X028860Y050516D02*
X028861Y050516D01*
X028013Y050040D02*
X036671Y050040D01*
X036671Y049882D02*
X027854Y049882D01*
X027696Y049723D02*
X036671Y049723D01*
X036671Y049565D02*
X026460Y049565D01*
X026460Y049723D02*
X026911Y049723D01*
X026753Y049882D02*
X026460Y049882D01*
X026460Y050040D02*
X026594Y050040D01*
X026572Y050199D02*
X026460Y050199D01*
X026460Y050357D02*
X026572Y050357D01*
X026572Y050516D02*
X026460Y050516D01*
X026460Y050674D02*
X026572Y050674D01*
X026572Y050833D02*
X026460Y050833D01*
X026460Y050991D02*
X026572Y050991D01*
X026572Y051150D02*
X026460Y051150D01*
X026460Y051308D02*
X026572Y051308D01*
X026572Y051467D02*
X026460Y051467D01*
X026460Y051625D02*
X026572Y051625D01*
X026572Y051784D02*
X026460Y051784D01*
X026460Y051942D02*
X026572Y051942D01*
X026572Y052101D02*
X026460Y052101D01*
X026460Y052259D02*
X026572Y052259D01*
X026572Y052418D02*
X026460Y052418D01*
X026460Y052576D02*
X026572Y052576D01*
X026572Y052735D02*
X026460Y052735D01*
X026460Y052893D02*
X026572Y052893D01*
X026572Y053052D02*
X026460Y053052D01*
X026460Y053210D02*
X026572Y053210D01*
X026572Y053369D02*
X026460Y053369D01*
X026460Y053527D02*
X026572Y053527D01*
X026572Y053686D02*
X026460Y053686D01*
X026460Y053844D02*
X026572Y053844D01*
X026572Y054003D02*
X026460Y054003D01*
X026460Y054161D02*
X026572Y054161D01*
X026572Y054320D02*
X026460Y054320D01*
X026460Y054478D02*
X026572Y054478D01*
X026572Y054637D02*
X026460Y054637D01*
X026460Y054795D02*
X026572Y054795D01*
X026572Y054954D02*
X026460Y054954D01*
X026460Y055112D02*
X026572Y055112D01*
X026572Y055271D02*
X026460Y055271D01*
X026460Y055429D02*
X026572Y055429D01*
X026572Y055588D02*
X026460Y055588D01*
X026460Y055746D02*
X026572Y055746D01*
X026572Y055905D02*
X026460Y055905D01*
X026460Y056063D02*
X026572Y056063D01*
X026572Y056222D02*
X026460Y056222D01*
X026460Y056380D02*
X026572Y056380D01*
X026572Y056539D02*
X026460Y056539D01*
X026460Y056697D02*
X026572Y056697D01*
X026572Y056856D02*
X026460Y056856D01*
X026520Y057014D02*
X026572Y057014D01*
X026484Y057173D02*
X026666Y057173D01*
X026825Y057331D02*
X016166Y057331D01*
X016166Y057173D02*
X026036Y057173D01*
X026000Y057014D02*
X016166Y057014D01*
X016166Y056856D02*
X026060Y056856D01*
X026060Y056697D02*
X016166Y056697D01*
X016166Y056539D02*
X026060Y056539D01*
X026060Y056380D02*
X016166Y056380D01*
X016166Y056222D02*
X026060Y056222D01*
X026060Y056063D02*
X016166Y056063D01*
X016166Y055905D02*
X026060Y055905D01*
X026060Y055746D02*
X016166Y055746D01*
X016225Y055588D02*
X026060Y055588D01*
X026983Y057490D02*
X016166Y057490D01*
X016166Y057648D02*
X027142Y057648D01*
X027300Y057807D02*
X016166Y057807D01*
X016166Y057965D02*
X027459Y057965D01*
X026659Y058916D02*
X029328Y058916D01*
X029328Y058822D02*
X029340Y058777D01*
X029364Y058736D01*
X029398Y058702D01*
X029439Y058678D01*
X029484Y058666D01*
X029746Y058666D01*
X029746Y059024D01*
X029328Y059024D01*
X029328Y058822D01*
X029351Y058758D02*
X026415Y058758D01*
X026717Y059075D02*
X029328Y059075D01*
X029328Y059233D02*
X026674Y059233D01*
X025334Y059392D02*
X028856Y059392D01*
X028738Y059550D02*
X025322Y059550D01*
X025259Y059709D02*
X028715Y059709D01*
X028769Y059867D02*
X025259Y059867D01*
X022508Y061611D02*
X036367Y061611D01*
X036542Y061452D02*
X022349Y061452D01*
X022191Y061294D02*
X036628Y061294D01*
X034393Y059392D02*
X034238Y059392D01*
X034384Y055746D02*
X036671Y055746D01*
X036671Y055588D02*
X034384Y055588D01*
X036671Y049406D02*
X026460Y049406D01*
X026460Y049248D02*
X036671Y049248D01*
X036671Y049089D02*
X026460Y049089D01*
X026460Y048931D02*
X036671Y048931D01*
X036671Y048772D02*
X026460Y048772D01*
X026460Y048614D02*
X036671Y048614D01*
X036671Y048455D02*
X026460Y048455D01*
X026460Y048297D02*
X036671Y048297D01*
X036671Y048138D02*
X026460Y048138D01*
X026460Y047980D02*
X036671Y047980D01*
X036671Y047821D02*
X026460Y047821D01*
X026460Y047663D02*
X036671Y047663D01*
X036671Y047504D02*
X026460Y047504D01*
X026460Y047346D02*
X036671Y047346D01*
X036671Y047187D02*
X026460Y047187D01*
X026460Y047029D02*
X036671Y047029D01*
X036671Y046870D02*
X026460Y046870D01*
X026496Y046712D02*
X036671Y046712D01*
X036671Y046553D02*
X026520Y046553D01*
X026421Y046395D02*
X036671Y046395D01*
X029782Y058758D02*
X029746Y058758D01*
X029746Y058916D02*
X029782Y058916D01*
X029356Y059392D02*
X029255Y059392D01*
X017708Y053369D02*
X013369Y053369D01*
X013369Y053527D02*
X017550Y053527D01*
X017391Y053686D02*
X013369Y053686D01*
X013369Y053844D02*
X017233Y053844D01*
X017074Y054003D02*
X013369Y054003D01*
X013369Y054161D02*
X016916Y054161D01*
X016757Y054320D02*
X013369Y054320D01*
X013369Y054478D02*
X016599Y054478D01*
X016440Y054637D02*
X013369Y054637D01*
X013369Y054795D02*
X016282Y054795D01*
X016123Y054954D02*
X013369Y054954D01*
X013369Y055112D02*
X015965Y055112D01*
X015806Y055271D02*
X013369Y055271D01*
X013369Y055429D02*
X015670Y055429D01*
X015646Y055588D02*
X013369Y055588D01*
X013369Y055746D02*
X015646Y055746D01*
X015646Y055905D02*
X013369Y055905D01*
X013369Y056063D02*
X015646Y056063D01*
X015646Y056222D02*
X013369Y056222D01*
X013369Y056380D02*
X015646Y056380D01*
X015646Y056539D02*
X013369Y056539D01*
X013369Y056697D02*
X015646Y056697D01*
X015646Y056856D02*
X013369Y056856D01*
X013384Y057014D02*
X015646Y057014D01*
X015646Y057173D02*
X013542Y057173D01*
X013701Y057331D02*
X015646Y057331D01*
X015646Y057490D02*
X013859Y057490D01*
X014018Y057648D02*
X015646Y057648D01*
X015646Y057807D02*
X014176Y057807D01*
X014335Y057965D02*
X015646Y057965D01*
X015646Y058124D02*
X014493Y058124D01*
X014765Y058282D02*
X015646Y058282D01*
X015646Y058441D02*
X014827Y058441D01*
X014788Y058599D02*
X015646Y058599D01*
X015646Y058758D02*
X013592Y058758D01*
X013750Y058916D02*
X015646Y058916D01*
X015646Y059075D02*
X013909Y059075D01*
X014067Y059233D02*
X015646Y059233D01*
X015629Y059392D02*
X014226Y059392D01*
X014384Y059550D02*
X015588Y059550D01*
X015625Y059709D02*
X014543Y059709D01*
X014701Y059867D02*
X015829Y059867D01*
X014790Y060977D02*
X014511Y060977D01*
X014631Y060818D02*
X014353Y060818D01*
X014473Y060660D02*
X014194Y060660D01*
X014314Y060501D02*
X014036Y060501D01*
X014156Y060343D02*
X013877Y060343D01*
X013997Y060184D02*
X013719Y060184D01*
X013676Y060026D02*
X013839Y060026D01*
X013433Y058599D02*
X014347Y058599D01*
X014301Y058441D02*
X013275Y058441D01*
X013325Y058282D02*
X013171Y058282D01*
X013605Y058282D02*
X014143Y058282D01*
X013984Y058124D02*
X013719Y058124D01*
X013708Y057965D02*
X013825Y057965D01*
X013667Y057807D02*
X013536Y057807D01*
X013508Y057648D02*
X013309Y057648D01*
X013350Y057490D02*
X013212Y057490D01*
X014670Y061135D02*
X014948Y061135D01*
X014828Y061294D02*
X015107Y061294D01*
X014987Y061452D02*
X015265Y061452D01*
X015145Y061611D02*
X015424Y061611D01*
X015235Y041164D02*
X014978Y041164D01*
X015079Y041006D02*
X015134Y041006D01*
X015172Y040530D02*
X015041Y040530D01*
X014870Y040372D02*
X015343Y040372D01*
X015870Y040372D02*
X016343Y040372D01*
X016172Y040530D02*
X016041Y040530D01*
X016079Y041006D02*
X016134Y041006D01*
X016235Y041164D02*
X015978Y041164D01*
X016978Y041164D02*
X017235Y041164D01*
X017134Y041006D02*
X017079Y041006D01*
X017041Y040530D02*
X017172Y040530D01*
X017343Y040372D02*
X016870Y040372D01*
X017407Y040213D02*
X013369Y040213D01*
X013369Y040055D02*
X017407Y040055D01*
X017407Y039896D02*
X013369Y039896D01*
X013369Y039738D02*
X017407Y039738D01*
X017407Y039579D02*
X013369Y039579D01*
X013369Y039421D02*
X017407Y039421D01*
X017407Y039262D02*
X013369Y039262D01*
X013369Y039104D02*
X017407Y039104D01*
X017407Y038945D02*
X013369Y038945D01*
X013369Y038787D02*
X017407Y038787D01*
X017407Y038628D02*
X013369Y038628D01*
X013369Y038470D02*
X017407Y038470D01*
X017407Y038311D02*
X013369Y038311D01*
X013369Y038153D02*
X017407Y038153D01*
X017407Y037994D02*
X013369Y037994D01*
X013369Y037836D02*
X017407Y037836D01*
X017407Y037677D02*
X013369Y037677D01*
X013369Y037519D02*
X017407Y037519D01*
X017407Y037360D02*
X013369Y037360D01*
X013369Y037202D02*
X017407Y037202D01*
X017407Y037043D02*
X013369Y037043D01*
X013369Y036885D02*
X017407Y036885D01*
X017407Y036726D02*
X013369Y036726D01*
X013369Y036568D02*
X017407Y036568D01*
X017407Y036409D02*
X013369Y036409D01*
X013369Y036251D02*
X013649Y036251D01*
X013649Y035615D01*
X013731Y035533D01*
X014367Y035533D01*
X014449Y035615D01*
X014449Y036251D01*
X014601Y036251D01*
X014449Y036251D02*
X014367Y036333D01*
X013731Y036333D01*
X013649Y036251D01*
X013649Y036092D02*
X013369Y036092D01*
X013369Y035934D02*
X013649Y035934D01*
X013649Y035775D02*
X013369Y035775D01*
X013369Y035617D02*
X013649Y035617D01*
X013369Y035458D02*
X014663Y035458D01*
X014599Y035617D02*
X014449Y035617D01*
X014449Y035775D02*
X014481Y035775D01*
X014449Y035934D02*
X014449Y035934D01*
X014449Y036092D02*
X014482Y036092D01*
X015097Y036251D02*
X017510Y036251D01*
X017654Y036092D02*
X015216Y036092D01*
X015249Y035934D02*
X017742Y035934D01*
X019662Y034190D02*
X014787Y034190D01*
X014789Y034032D02*
X019583Y034032D01*
X019615Y033873D02*
X014867Y033873D01*
X014834Y033715D02*
X019877Y033715D01*
X020036Y033556D02*
X013369Y033556D01*
X013369Y033398D02*
X020194Y033398D01*
X020353Y033239D02*
X013369Y033239D01*
X013369Y033081D02*
X014157Y033081D01*
X014269Y033081D02*
X020490Y033081D01*
X020490Y032922D02*
X014453Y032922D01*
X014526Y032764D02*
X020490Y032764D01*
X019660Y032447D02*
X019660Y032447D01*
X019660Y032288D02*
X019660Y032288D01*
X017458Y031337D02*
X016735Y031337D01*
X016415Y031337D02*
X013369Y031337D01*
X013369Y031179D02*
X016315Y031179D01*
X016339Y031020D02*
X013369Y031020D01*
X013369Y030862D02*
X013834Y030862D01*
X013676Y030703D02*
X013369Y030703D01*
X013369Y030545D02*
X013597Y030545D01*
X013597Y030386D02*
X013369Y030386D01*
X013369Y030228D02*
X013597Y030228D01*
X013729Y030069D02*
X013369Y030069D01*
X013369Y029911D02*
X013883Y029911D01*
X013725Y029752D02*
X013369Y029752D01*
X013369Y029594D02*
X013597Y029594D01*
X013597Y029435D02*
X013369Y029435D01*
X013369Y029277D02*
X013597Y029277D01*
X013680Y029118D02*
X013369Y029118D01*
X013369Y028960D02*
X013839Y028960D01*
X013774Y028801D02*
X013369Y028801D01*
X013369Y028643D02*
X013615Y028643D01*
X013597Y028484D02*
X013369Y028484D01*
X013369Y028326D02*
X013597Y028326D01*
X013631Y028167D02*
X013369Y028167D01*
X013369Y028009D02*
X013790Y028009D01*
X013823Y027850D02*
X013369Y027850D01*
X013369Y027692D02*
X013664Y027692D01*
X013597Y027533D02*
X013369Y027533D01*
X013369Y027375D02*
X013597Y027375D01*
X013597Y027216D02*
X013369Y027216D01*
X013369Y027058D02*
X013741Y027058D01*
X013872Y026899D02*
X013369Y026899D01*
X013369Y026741D02*
X013713Y026741D01*
X013597Y026582D02*
X013369Y026582D01*
X013369Y026424D02*
X013597Y026424D01*
X013597Y026265D02*
X013369Y026265D01*
X013369Y026107D02*
X013692Y026107D01*
X013850Y025948D02*
X013369Y025948D01*
X013369Y025790D02*
X014927Y025790D01*
X014927Y025631D02*
X013369Y025631D01*
X013369Y025473D02*
X014927Y025473D01*
X014927Y025314D02*
X013369Y025314D01*
X013369Y025156D02*
X014927Y025156D01*
X014927Y024997D02*
X013369Y024997D01*
X013369Y024839D02*
X014927Y024839D01*
X014927Y024680D02*
X013369Y024680D01*
X013369Y024522D02*
X014927Y024522D01*
X014927Y024363D02*
X013369Y024363D01*
X013369Y024205D02*
X015017Y024205D01*
X015176Y024046D02*
X013369Y024046D01*
X013369Y023888D02*
X015334Y023888D01*
X015493Y023729D02*
X013369Y023729D01*
X013369Y023571D02*
X015651Y023571D01*
X016444Y023412D02*
X013369Y023412D01*
X013369Y023254D02*
X016789Y023254D01*
X016784Y023412D02*
X016789Y023412D01*
X016789Y023095D02*
X013369Y023095D01*
X013369Y022937D02*
X016789Y022937D01*
X016789Y022778D02*
X013369Y022778D01*
X013369Y022620D02*
X016789Y022620D01*
X016789Y022461D02*
X013369Y022461D01*
X013369Y022303D02*
X016789Y022303D01*
X016789Y022144D02*
X013369Y022144D01*
X013493Y021986D02*
X016866Y021986D01*
X016966Y021827D02*
X013652Y021827D01*
X013810Y021669D02*
X015983Y021669D01*
X015961Y021510D02*
X013969Y021510D01*
X014127Y021352D02*
X016064Y021352D01*
X016336Y021193D02*
X014286Y021193D01*
X014444Y021035D02*
X016494Y021035D01*
X016653Y020876D02*
X014603Y020876D01*
X014761Y020718D02*
X016811Y020718D01*
X016970Y020559D02*
X014920Y020559D01*
X015078Y020401D02*
X017128Y020401D01*
X017287Y020242D02*
X015625Y020242D01*
X015693Y020084D02*
X020403Y020084D01*
X020745Y019767D02*
X018248Y019767D01*
X018406Y019608D02*
X020587Y019608D01*
X020450Y019450D02*
X018483Y019450D01*
X018461Y019308D02*
X018314Y019247D01*
X018202Y019134D01*
X018141Y018987D01*
X018141Y018828D01*
X018202Y018681D01*
X018314Y018569D01*
X018461Y018508D01*
X018621Y018508D01*
X018768Y018569D01*
X018880Y018681D01*
X018941Y018828D01*
X018941Y018987D01*
X018880Y019134D01*
X018768Y019247D01*
X018621Y019308D01*
X018461Y019308D01*
X018421Y019291D02*
X018359Y019291D01*
X018201Y019133D02*
X018200Y019133D01*
X018141Y018974D02*
X018042Y018974D01*
X018146Y018816D02*
X012169Y018816D01*
X013731Y018657D02*
X018226Y018657D01*
X018856Y018657D02*
X020450Y018657D01*
X020450Y018499D02*
X014017Y018499D01*
X013854Y018617D02*
X013854Y018617D01*
X014203Y018364D02*
X014203Y018364D01*
X014203Y018364D01*
X014220Y018340D02*
X020450Y018340D01*
X020450Y018182D02*
X014335Y018182D01*
X014451Y018023D02*
X020450Y018023D01*
X020450Y017865D02*
X014505Y017865D01*
X014456Y018015D02*
X014456Y018015D01*
X014557Y017706D02*
X020450Y017706D01*
X020450Y017548D02*
X014590Y017548D01*
X014590Y017389D02*
X020450Y017389D01*
X020450Y017231D02*
X014590Y017231D01*
X014590Y017072D02*
X020450Y017072D01*
X020450Y016914D02*
X014590Y016914D01*
X014590Y016755D02*
X020450Y016755D01*
X020450Y016597D02*
X014590Y016597D01*
X014590Y016438D02*
X020450Y016438D01*
X020450Y016280D02*
X017265Y016280D01*
X017347Y016121D02*
X020450Y016121D01*
X020450Y015963D02*
X017315Y015963D01*
X017287Y015804D02*
X020450Y015804D01*
X020450Y015646D02*
X017287Y015646D01*
X017287Y015487D02*
X020450Y015487D01*
X020450Y015329D02*
X017287Y015329D01*
X017287Y015170D02*
X020450Y015170D01*
X020450Y015012D02*
X017287Y015012D01*
X017287Y014853D02*
X020450Y014853D01*
X020450Y014695D02*
X017287Y014695D01*
X017287Y014536D02*
X020450Y014536D01*
X020450Y014378D02*
X017287Y014378D01*
X017287Y014219D02*
X020514Y014219D01*
X020673Y014061D02*
X017287Y014061D01*
X017287Y013902D02*
X020786Y013902D01*
X020726Y013744D02*
X017287Y013744D01*
X017287Y013585D02*
X020726Y013585D01*
X020726Y013427D02*
X017287Y013427D01*
X017287Y013268D02*
X020726Y013268D01*
X020726Y013110D02*
X017287Y013110D01*
X017287Y012951D02*
X020726Y012951D01*
X020726Y012793D02*
X017287Y012793D01*
X017287Y012634D02*
X020726Y012634D01*
X020726Y012476D02*
X017402Y012476D01*
X017560Y012317D02*
X020726Y012317D01*
X020659Y012159D02*
X018978Y012159D01*
X019137Y012000D02*
X020306Y012000D01*
X020252Y011842D02*
X019295Y011842D01*
X019295Y011683D02*
X020299Y011683D01*
X019295Y011525D02*
X021513Y011525D01*
X021513Y011683D02*
X021242Y011683D01*
X021361Y011842D02*
X021513Y011842D01*
X021513Y012000D02*
X021361Y012000D01*
X021361Y012159D02*
X021513Y012159D01*
X021513Y012317D02*
X021272Y012317D01*
X021243Y012476D02*
X021513Y012476D01*
X021513Y012634D02*
X021243Y012634D01*
X021243Y012793D02*
X021513Y012793D01*
X021513Y012951D02*
X021243Y012951D01*
X021243Y013110D02*
X021513Y013110D01*
X021513Y013268D02*
X021243Y013268D01*
X021243Y013427D02*
X021513Y013427D01*
X021513Y013585D02*
X021243Y013585D01*
X021373Y013744D02*
X021513Y013744D01*
X022031Y013427D02*
X022237Y013427D01*
X022227Y013268D02*
X022031Y013268D01*
X022031Y013110D02*
X022209Y013110D01*
X022051Y012951D02*
X022031Y012951D01*
X022153Y013585D02*
X022281Y013585D01*
X022263Y013744D02*
X022332Y013744D01*
X022250Y013902D02*
X022490Y013902D01*
X022649Y014061D02*
X022074Y014061D01*
X022170Y014219D02*
X022807Y014219D01*
X022966Y014378D02*
X022186Y014378D01*
X022079Y014536D02*
X023124Y014536D01*
X023186Y014695D02*
X021808Y014695D01*
X021413Y014853D02*
X021283Y014984D01*
X021283Y015170D02*
X024996Y015170D01*
X024838Y015329D02*
X021283Y015329D01*
X021283Y015487D02*
X024679Y015487D01*
X024521Y015646D02*
X021283Y015646D01*
X021283Y015804D02*
X024362Y015804D01*
X024204Y015963D02*
X021283Y015963D01*
X021283Y016121D02*
X024045Y016121D01*
X023887Y016280D02*
X021283Y016280D01*
X021283Y016438D02*
X023728Y016438D01*
X023570Y016597D02*
X021283Y016597D01*
X021283Y016755D02*
X023411Y016755D01*
X023253Y016914D02*
X021283Y016914D01*
X021283Y017072D02*
X023094Y017072D01*
X022936Y017231D02*
X021283Y017231D01*
X021283Y017389D02*
X022777Y017389D01*
X022619Y017548D02*
X021283Y017548D01*
X021283Y017706D02*
X022145Y017706D01*
X022170Y017682D02*
X022485Y017682D01*
X027143Y013023D01*
X027143Y012262D01*
X027103Y012222D01*
X027063Y012126D01*
X027063Y012023D01*
X027103Y011927D01*
X027176Y011854D01*
X027271Y011814D01*
X027375Y011814D01*
X027470Y011854D01*
X027544Y011927D01*
X027583Y012023D01*
X027583Y012126D01*
X027544Y012222D01*
X027503Y012262D01*
X027503Y012927D01*
X028440Y011990D01*
X028440Y011047D01*
X028421Y011028D01*
X028364Y010889D01*
X028364Y010740D01*
X028421Y010601D01*
X028527Y010496D01*
X028666Y010438D01*
X028815Y010438D01*
X028954Y010496D01*
X029059Y010601D01*
X029117Y010740D01*
X029117Y010889D01*
X029059Y011028D01*
X029040Y011047D01*
X029040Y012173D01*
X028995Y012284D01*
X024907Y016372D01*
X024907Y018063D01*
X024926Y018082D01*
X024983Y018220D01*
X024983Y018370D01*
X024926Y018508D01*
X024820Y018614D01*
X024807Y018619D01*
X024807Y018929D01*
X024698Y019038D01*
X024698Y019508D01*
X024616Y019590D01*
X024250Y019590D01*
X024233Y019573D01*
X024216Y019590D01*
X023850Y019590D01*
X023768Y019508D01*
X023768Y019400D01*
X023751Y019400D01*
X023730Y019421D01*
X023635Y019460D01*
X023531Y019460D01*
X023436Y019421D01*
X023363Y019348D01*
X023323Y019252D01*
X023323Y019149D01*
X023363Y019053D01*
X023436Y018980D01*
X023531Y018940D01*
X023635Y018940D01*
X023730Y018980D01*
X023751Y019000D01*
X023768Y019000D01*
X023768Y018892D01*
X023850Y018810D01*
X024216Y018810D01*
X024233Y018827D01*
X024250Y018810D01*
X024359Y018810D01*
X024366Y018804D01*
X024407Y018763D01*
X024407Y018619D01*
X024393Y018614D01*
X024288Y018508D01*
X024230Y018370D01*
X024230Y018220D01*
X024288Y018082D01*
X024307Y018063D01*
X024307Y016369D01*
X022739Y017936D01*
X022634Y018042D01*
X022319Y018042D01*
X021874Y018486D01*
X021874Y018543D01*
X021835Y018639D01*
X021762Y018712D01*
X021666Y018752D01*
X021563Y018752D01*
X021467Y018712D01*
X021394Y018639D01*
X021354Y018543D01*
X021354Y018440D01*
X021394Y018344D01*
X021467Y018271D01*
X021563Y018232D01*
X021620Y018232D01*
X022170Y017682D01*
X021987Y017865D02*
X021283Y017865D01*
X021283Y018023D02*
X021828Y018023D01*
X021670Y018182D02*
X021283Y018182D01*
X021283Y018340D02*
X021398Y018340D01*
X021354Y018499D02*
X021283Y018499D01*
X021283Y018657D02*
X021412Y018657D01*
X021283Y018816D02*
X023844Y018816D01*
X023768Y018974D02*
X023716Y018974D01*
X023450Y018974D02*
X021283Y018974D01*
X021329Y019133D02*
X023330Y019133D01*
X023339Y019291D02*
X021487Y019291D01*
X021646Y019450D02*
X023505Y019450D01*
X023661Y019450D02*
X023768Y019450D01*
X024221Y018816D02*
X024244Y018816D01*
X024407Y018657D02*
X021817Y018657D01*
X021874Y018499D02*
X024284Y018499D01*
X024230Y018340D02*
X022021Y018340D01*
X022179Y018182D02*
X024246Y018182D01*
X024307Y018023D02*
X022653Y018023D01*
X022811Y017865D02*
X024307Y017865D01*
X024307Y017706D02*
X022970Y017706D01*
X023128Y017548D02*
X024307Y017548D01*
X024307Y017389D02*
X023287Y017389D01*
X023445Y017231D02*
X024307Y017231D01*
X024307Y017072D02*
X023604Y017072D01*
X023762Y016914D02*
X024307Y016914D01*
X024307Y016755D02*
X023921Y016755D01*
X024079Y016597D02*
X024307Y016597D01*
X024307Y016438D02*
X024238Y016438D01*
X024907Y016438D02*
X029722Y016438D01*
X029722Y016280D02*
X024999Y016280D01*
X025157Y016121D02*
X029634Y016121D01*
X029505Y015963D02*
X025316Y015963D01*
X025474Y015804D02*
X029451Y015804D01*
X029451Y015646D02*
X025633Y015646D01*
X025791Y015487D02*
X029514Y015487D01*
X029655Y015329D02*
X025950Y015329D01*
X026108Y015170D02*
X033915Y015170D01*
X033915Y015012D02*
X026267Y015012D01*
X026425Y014853D02*
X033915Y014853D01*
X033915Y014695D02*
X026584Y014695D01*
X026742Y014536D02*
X033915Y014536D01*
X033915Y014378D02*
X026901Y014378D01*
X027059Y014219D02*
X033915Y014219D01*
X033915Y014061D02*
X027218Y014061D01*
X027376Y013902D02*
X033915Y013902D01*
X033915Y013744D02*
X027535Y013744D01*
X027693Y013585D02*
X033915Y013585D01*
X033915Y013427D02*
X027852Y013427D01*
X028010Y013268D02*
X033915Y013268D01*
X033915Y013110D02*
X028169Y013110D01*
X028327Y012951D02*
X033915Y012951D01*
X033915Y012793D02*
X028486Y012793D01*
X028644Y012634D02*
X033915Y012634D01*
X033915Y012476D02*
X028803Y012476D01*
X028961Y012317D02*
X033915Y012317D01*
X033915Y012159D02*
X029040Y012159D01*
X029040Y012000D02*
X033915Y012000D01*
X033915Y011842D02*
X029040Y011842D01*
X029040Y011683D02*
X033915Y011683D01*
X033915Y011525D02*
X029040Y011525D01*
X029040Y011366D02*
X033915Y011366D01*
X033915Y011208D02*
X029040Y011208D01*
X029040Y011049D02*
X033915Y011049D01*
X033915Y010891D02*
X029116Y010891D01*
X029114Y010732D02*
X033915Y010732D01*
X033915Y010574D02*
X029032Y010574D01*
X028449Y010574D02*
X022405Y010574D01*
X022405Y010732D02*
X028367Y010732D01*
X028365Y010891D02*
X025907Y010891D01*
X025928Y010903D02*
X025999Y010957D01*
X026062Y011020D01*
X026117Y011091D01*
X026161Y011169D01*
X026196Y011252D01*
X026219Y011338D01*
X026230Y011427D01*
X026230Y011894D01*
X025628Y011894D01*
X025628Y012054D01*
X025468Y012054D01*
X025468Y013154D01*
X025414Y013147D01*
X025328Y013124D01*
X025245Y013090D01*
X025168Y013045D01*
X025097Y012991D01*
X025034Y012927D01*
X024979Y012856D01*
X024934Y012779D01*
X024900Y012696D01*
X024877Y012610D01*
X024865Y012521D01*
X024865Y012054D01*
X025468Y012054D01*
X025468Y011894D01*
X024865Y011894D01*
X024865Y011427D01*
X024877Y011338D01*
X024900Y011252D01*
X024934Y011169D01*
X024979Y011091D01*
X025034Y011020D01*
X025097Y010957D01*
X025168Y010903D01*
X025245Y010858D01*
X025328Y010824D01*
X025414Y010801D01*
X025468Y010794D01*
X025468Y011894D01*
X025628Y011894D01*
X025628Y010794D01*
X025681Y010801D01*
X025768Y010824D01*
X025850Y010858D01*
X025928Y010903D01*
X026084Y011049D02*
X028440Y011049D01*
X028440Y011208D02*
X026177Y011208D01*
X026222Y011366D02*
X028440Y011366D01*
X028440Y011525D02*
X026230Y011525D01*
X026230Y011683D02*
X028440Y011683D01*
X028440Y011842D02*
X027441Y011842D01*
X027574Y012000D02*
X028430Y012000D01*
X028271Y012159D02*
X027570Y012159D01*
X027503Y012317D02*
X028113Y012317D01*
X027954Y012476D02*
X027503Y012476D01*
X027503Y012634D02*
X027796Y012634D01*
X027637Y012793D02*
X027503Y012793D01*
X027143Y012793D02*
X026153Y012793D01*
X026161Y012779D02*
X026117Y012856D01*
X026062Y012927D01*
X025999Y012991D01*
X025928Y013045D01*
X025850Y013090D01*
X025768Y013124D01*
X025681Y013147D01*
X025628Y013154D01*
X025628Y012054D01*
X026230Y012054D01*
X026230Y012521D01*
X026219Y012610D01*
X026196Y012696D01*
X026161Y012779D01*
X026212Y012634D02*
X027143Y012634D01*
X027143Y012476D02*
X026230Y012476D01*
X026230Y012317D02*
X027143Y012317D01*
X027077Y012159D02*
X026230Y012159D01*
X026230Y011842D02*
X027206Y011842D01*
X027072Y012000D02*
X025628Y012000D01*
X025628Y011842D02*
X025468Y011842D01*
X025468Y012000D02*
X023590Y012000D01*
X023590Y011842D02*
X024865Y011842D01*
X024865Y011683D02*
X023590Y011683D01*
X023590Y011525D02*
X024865Y011525D01*
X024873Y011366D02*
X023590Y011366D01*
X023534Y011208D02*
X024918Y011208D01*
X025012Y011049D02*
X023434Y011049D01*
X023225Y010891D02*
X025189Y010891D01*
X025468Y010891D02*
X025628Y010891D01*
X025628Y011049D02*
X025468Y011049D01*
X025468Y011208D02*
X025628Y011208D01*
X025628Y011366D02*
X025468Y011366D01*
X025468Y011525D02*
X025628Y011525D01*
X025628Y011683D02*
X025468Y011683D01*
X025468Y012159D02*
X025628Y012159D01*
X025628Y012317D02*
X025468Y012317D01*
X025468Y012476D02*
X025628Y012476D01*
X025628Y012634D02*
X025468Y012634D01*
X025468Y012793D02*
X025628Y012793D01*
X025628Y012951D02*
X025468Y012951D01*
X025468Y013110D02*
X025628Y013110D01*
X025802Y013110D02*
X027057Y013110D01*
X027143Y012951D02*
X026038Y012951D01*
X025293Y013110D02*
X023248Y013110D01*
X023248Y013268D02*
X026898Y013268D01*
X026740Y013427D02*
X023248Y013427D01*
X023392Y013585D02*
X026581Y013585D01*
X026423Y013744D02*
X023550Y013744D01*
X023709Y013902D02*
X026264Y013902D01*
X026106Y014061D02*
X023867Y014061D01*
X024026Y014219D02*
X025947Y014219D01*
X025789Y014378D02*
X024292Y014378D01*
X024383Y014536D02*
X025630Y014536D01*
X025472Y014695D02*
X024392Y014695D01*
X024328Y014853D02*
X025313Y014853D01*
X025155Y015012D02*
X023625Y015012D01*
X023644Y014853D02*
X023704Y014853D01*
X023640Y014695D02*
X023586Y014695D01*
X023382Y012951D02*
X025057Y012951D01*
X024942Y012793D02*
X023512Y012793D01*
X023578Y012634D02*
X024884Y012634D01*
X024865Y012476D02*
X023590Y012476D01*
X023590Y012317D02*
X024865Y012317D01*
X024865Y012159D02*
X023590Y012159D01*
X022671Y010891D02*
X022405Y010891D01*
X022405Y011049D02*
X022461Y011049D01*
X022405Y010415D02*
X023510Y010415D01*
X023526Y010422D02*
X023443Y010387D01*
X023365Y010343D01*
X023294Y010288D01*
X023231Y010225D01*
X023177Y010154D01*
X023132Y010076D01*
X023098Y009994D01*
X023075Y009907D01*
X023068Y009854D01*
X024168Y009854D01*
X024168Y010456D01*
X023701Y010456D01*
X023612Y010445D01*
X023526Y010422D01*
X023263Y010257D02*
X022405Y010257D01*
X022405Y010098D02*
X023145Y010098D01*
X023083Y009940D02*
X022405Y009940D01*
X022405Y009781D02*
X024168Y009781D01*
X024168Y009854D02*
X024168Y009694D01*
X023068Y009694D01*
X023075Y009640D01*
X023098Y009554D01*
X023132Y009471D01*
X023177Y009394D01*
X023231Y009323D01*
X023294Y009260D01*
X023365Y009205D01*
X023443Y009160D01*
X023526Y009126D01*
X023612Y009103D01*
X023701Y009091D01*
X024168Y009091D01*
X024168Y009694D01*
X024328Y009694D01*
X024328Y009854D01*
X024168Y009854D01*
X024168Y009940D02*
X024328Y009940D01*
X024328Y009854D02*
X024328Y010456D01*
X024795Y010456D01*
X024884Y010445D01*
X024970Y010422D01*
X025053Y010387D01*
X025130Y010343D01*
X025201Y010288D01*
X025265Y010225D01*
X025319Y010154D01*
X025364Y010076D01*
X025398Y009994D01*
X025421Y009907D01*
X025428Y009854D01*
X024328Y009854D01*
X024328Y009781D02*
X033915Y009781D01*
X033915Y009623D02*
X025416Y009623D01*
X025421Y009640D02*
X025428Y009694D01*
X024328Y009694D01*
X024328Y009091D01*
X024795Y009091D01*
X024884Y009103D01*
X024970Y009126D01*
X025053Y009160D01*
X025130Y009205D01*
X025201Y009260D01*
X025265Y009323D01*
X025319Y009394D01*
X025364Y009471D01*
X025398Y009554D01*
X025421Y009640D01*
X025360Y009464D02*
X033915Y009464D01*
X033915Y009306D02*
X025247Y009306D01*
X025021Y009147D02*
X033915Y009147D01*
X033915Y008989D02*
X022079Y008989D01*
X022238Y009147D02*
X023475Y009147D01*
X023248Y009306D02*
X022396Y009306D01*
X022405Y009464D02*
X023136Y009464D01*
X023079Y009623D02*
X022405Y009623D01*
X022005Y009623D02*
X021874Y009623D01*
X021773Y009464D02*
X021989Y009464D01*
X021977Y009781D02*
X022005Y009781D01*
X021378Y009781D02*
X019295Y009781D01*
X019295Y009623D02*
X021354Y009623D01*
X021455Y009464D02*
X019295Y009464D01*
X018895Y009464D02*
X017366Y009464D01*
X017366Y009306D02*
X018895Y009306D01*
X018895Y009147D02*
X017366Y009147D01*
X017366Y008989D02*
X018895Y008989D01*
X018769Y008830D02*
X017366Y008830D01*
X017366Y008672D02*
X018723Y008672D01*
X018723Y008513D02*
X017366Y008513D01*
X017366Y008355D02*
X018723Y008355D01*
X018728Y008196D02*
X017366Y008196D01*
X017366Y008038D02*
X018683Y008038D01*
X018683Y008007D02*
X019081Y008007D01*
X019081Y007507D01*
X018683Y007507D01*
X019081Y007507D01*
X019081Y007507D01*
X019081Y007507D01*
X019081Y007906D01*
X019081Y008007D01*
X019081Y008007D01*
X018683Y008007D01*
X018703Y007879D02*
X017366Y007879D01*
X017332Y009623D02*
X018895Y009623D01*
X018895Y009781D02*
X014590Y009781D01*
X014590Y009940D02*
X018895Y009940D01*
X018895Y010098D02*
X014590Y010098D01*
X014590Y010257D02*
X018849Y010257D01*
X018844Y010415D02*
X014590Y010415D01*
X014590Y010574D02*
X018895Y010574D01*
X018895Y010732D02*
X018482Y010732D01*
X018535Y010785D02*
X018596Y010932D01*
X018596Y011091D01*
X018535Y011238D01*
X018422Y011351D01*
X018275Y011411D01*
X018116Y011411D01*
X017969Y011351D01*
X017856Y011238D01*
X017796Y011091D01*
X017796Y010932D01*
X017856Y010785D01*
X017969Y010672D01*
X018116Y010611D01*
X018275Y010611D01*
X018422Y010672D01*
X018535Y010785D01*
X018578Y010891D02*
X018895Y010891D01*
X018895Y011049D02*
X018596Y011049D01*
X018547Y011208D02*
X018895Y011208D01*
X018895Y011366D02*
X018384Y011366D01*
X018007Y011366D02*
X017759Y011366D01*
X017796Y011329D02*
X017714Y011411D01*
X017078Y011411D01*
X016996Y011329D01*
X016996Y010693D01*
X017078Y010611D01*
X017714Y010611D01*
X017796Y010693D01*
X017796Y011329D01*
X017796Y011208D02*
X017844Y011208D01*
X017796Y011049D02*
X017796Y011049D01*
X017796Y010891D02*
X017813Y010891D01*
X017796Y010732D02*
X017909Y010732D01*
X016996Y010732D02*
X014590Y010732D01*
X014590Y010891D02*
X016996Y010891D01*
X016996Y011049D02*
X014590Y011049D01*
X014590Y011208D02*
X016996Y011208D01*
X017032Y011366D02*
X014590Y011366D01*
X014590Y011525D02*
X018895Y011525D01*
X018888Y011683D02*
X014590Y011683D01*
X014590Y011842D02*
X017470Y011842D01*
X017311Y012000D02*
X014590Y012000D01*
X014590Y012159D02*
X017153Y012159D01*
X016994Y012317D02*
X014590Y012317D01*
X014590Y012476D02*
X016887Y012476D01*
X016887Y012634D02*
X014590Y012634D01*
X014590Y012793D02*
X016887Y012793D01*
X016887Y012951D02*
X014590Y012951D01*
X014590Y013110D02*
X016887Y013110D01*
X016887Y013268D02*
X014590Y013268D01*
X014590Y013427D02*
X016887Y013427D01*
X016887Y013585D02*
X014590Y013585D01*
X014590Y013744D02*
X016887Y013744D01*
X016887Y013902D02*
X014590Y013902D01*
X014590Y014061D02*
X016887Y014061D01*
X016887Y014219D02*
X014590Y014219D01*
X014590Y014378D02*
X016887Y014378D01*
X016887Y014536D02*
X014590Y014536D01*
X014590Y014695D02*
X016887Y014695D01*
X016887Y014853D02*
X014590Y014853D01*
X014590Y015012D02*
X016887Y015012D01*
X016887Y015170D02*
X014590Y015170D01*
X014590Y015329D02*
X016887Y015329D01*
X016887Y015487D02*
X014590Y015487D01*
X014590Y015646D02*
X016887Y015646D01*
X016887Y015804D02*
X014590Y015804D01*
X014590Y015963D02*
X016858Y015963D01*
X016827Y016121D02*
X014590Y016121D01*
X014590Y016280D02*
X016909Y016280D01*
X018936Y018816D02*
X020450Y018816D01*
X020450Y018974D02*
X018941Y018974D01*
X018881Y019133D02*
X020450Y019133D01*
X020450Y019291D02*
X018660Y019291D01*
X021804Y019608D02*
X024810Y019608D01*
X024698Y019450D02*
X024969Y019450D01*
X025127Y019291D02*
X024698Y019291D01*
X024698Y019133D02*
X025286Y019133D01*
X025444Y018974D02*
X024761Y018974D01*
X024807Y018816D02*
X025603Y018816D01*
X025761Y018657D02*
X024807Y018657D01*
X024929Y018499D02*
X025920Y018499D01*
X026078Y018340D02*
X024983Y018340D01*
X024967Y018182D02*
X026237Y018182D01*
X026395Y018023D02*
X024907Y018023D01*
X024907Y017865D02*
X026554Y017865D01*
X026712Y017706D02*
X024907Y017706D01*
X024907Y017548D02*
X026871Y017548D01*
X026904Y018023D02*
X034054Y018023D01*
X034048Y018015D02*
X034048Y018015D01*
X033999Y017865D02*
X030312Y017865D01*
X030312Y017706D02*
X033948Y017706D01*
X033915Y017548D02*
X030295Y017548D01*
X030312Y017389D02*
X033915Y017389D01*
X033915Y017231D02*
X030312Y017231D01*
X030122Y017072D02*
X033915Y017072D01*
X033915Y016914D02*
X030122Y016914D01*
X030122Y016755D02*
X033915Y016755D01*
X033915Y016597D02*
X030122Y016597D01*
X030122Y016438D02*
X033915Y016438D01*
X033915Y016280D02*
X030122Y016280D01*
X030249Y016121D02*
X032193Y016121D01*
X032223Y016151D02*
X032085Y016013D01*
X032010Y015833D01*
X032010Y015638D01*
X032085Y015458D01*
X032223Y015320D01*
X032403Y015246D01*
X032598Y015246D01*
X032778Y015320D01*
X032916Y015458D01*
X032990Y015638D01*
X032990Y015833D01*
X032916Y016013D01*
X032778Y016151D01*
X032598Y016226D01*
X032403Y016226D01*
X032223Y016151D01*
X032064Y015963D02*
X030378Y015963D01*
X030431Y015804D02*
X032010Y015804D01*
X032010Y015646D02*
X030431Y015646D01*
X030369Y015487D02*
X032073Y015487D01*
X032214Y015329D02*
X030227Y015329D01*
X029722Y016597D02*
X024907Y016597D01*
X024907Y016755D02*
X029722Y016755D01*
X029722Y016914D02*
X024907Y016914D01*
X024907Y017072D02*
X029722Y017072D01*
X029532Y017231D02*
X024907Y017231D01*
X024907Y017389D02*
X029532Y017389D01*
X028214Y019608D02*
X036671Y019608D01*
X036671Y019450D02*
X025478Y019450D01*
X025319Y019608D02*
X025867Y019608D01*
X025834Y019767D02*
X025161Y019767D01*
X025002Y019925D02*
X025834Y019925D01*
X025834Y020084D02*
X024844Y020084D01*
X024652Y019767D02*
X022351Y019767D01*
X022059Y019767D02*
X021963Y019767D01*
X021991Y020242D02*
X022140Y020242D01*
X022270Y020242D02*
X025834Y020242D01*
X025868Y020401D02*
X022046Y020401D01*
X022317Y020559D02*
X025710Y020559D01*
X025551Y020718D02*
X022423Y020718D01*
X022405Y020876D02*
X025393Y020876D01*
X025253Y021035D02*
X022219Y021035D01*
X022113Y021035D02*
X021834Y021035D01*
X021834Y020876D02*
X021926Y020876D01*
X021893Y021193D02*
X025253Y021193D01*
X025253Y021352D02*
X022052Y021352D01*
X022210Y021510D02*
X025253Y021510D01*
X025253Y021669D02*
X022369Y021669D01*
X022527Y021827D02*
X025253Y021827D01*
X025253Y021986D02*
X022686Y021986D01*
X022844Y022144D02*
X025253Y022144D01*
X025188Y022303D02*
X023003Y022303D01*
X023161Y022461D02*
X025182Y022461D01*
X025613Y021193D02*
X029032Y021193D01*
X029066Y021035D02*
X025743Y021035D01*
X026764Y019767D02*
X026896Y019767D01*
X027054Y019608D02*
X026732Y019608D01*
X025953Y018974D02*
X036526Y018974D01*
X036604Y019082D02*
X036604Y019082D01*
X036621Y019133D02*
X025795Y019133D01*
X025636Y019291D02*
X036665Y019291D01*
X036336Y018816D02*
X026112Y018816D01*
X026270Y018657D02*
X034773Y018657D01*
X034650Y018617D02*
X034650Y018617D01*
X034487Y018499D02*
X026429Y018499D01*
X026587Y018340D02*
X034284Y018340D01*
X034301Y018364D02*
X034301Y018364D01*
X034301Y018364D01*
X034169Y018182D02*
X026746Y018182D01*
X022546Y023729D02*
X022067Y023729D01*
X022226Y023888D02*
X022548Y023888D01*
X022582Y024046D02*
X022384Y024046D01*
X021956Y024363D02*
X021627Y024363D01*
X021469Y024522D02*
X022114Y024522D01*
X022273Y024680D02*
X021310Y024680D01*
X021152Y024839D02*
X022431Y024839D01*
X022590Y024997D02*
X020993Y024997D01*
X020565Y024680D02*
X017936Y024680D01*
X017936Y024522D02*
X020724Y024522D01*
X020882Y024363D02*
X017986Y024363D01*
X018016Y024205D02*
X021041Y024205D01*
X021199Y024046D02*
X017930Y024046D01*
X017701Y023888D02*
X021358Y023888D01*
X021516Y023729D02*
X017653Y023729D01*
X017936Y024839D02*
X020407Y024839D01*
X020248Y024997D02*
X017844Y024997D01*
X017685Y025156D02*
X020096Y025156D01*
X020096Y025314D02*
X017527Y025314D01*
X017368Y025473D02*
X020096Y025473D01*
X020038Y025631D02*
X017228Y025631D01*
X017228Y025790D02*
X020017Y025790D01*
X019840Y025948D02*
X017986Y025948D01*
X018015Y025960D02*
X017868Y025899D01*
X017709Y025899D01*
X017562Y025960D01*
X017449Y026073D01*
X017388Y026220D01*
X017388Y026379D01*
X017449Y026526D01*
X017562Y026639D01*
X017709Y026699D01*
X017868Y026699D01*
X017918Y026679D01*
X017842Y026755D01*
X017819Y026796D01*
X017806Y026841D01*
X017806Y026889D01*
X017819Y026935D01*
X017842Y026976D01*
X018043Y027176D01*
X018354Y026865D01*
X018354Y026865D01*
X018665Y026554D01*
X018464Y026353D01*
X018423Y026330D01*
X018378Y026317D01*
X018330Y026317D01*
X018284Y026330D01*
X018243Y026353D01*
X018167Y026429D01*
X018188Y026379D01*
X018188Y026220D01*
X018127Y026073D01*
X018015Y025960D01*
X018141Y026107D02*
X019821Y026107D01*
X019926Y026265D02*
X018188Y026265D01*
X018173Y026424D02*
X018170Y026424D01*
X018535Y026424D02*
X020074Y026424D01*
X019923Y026582D02*
X018693Y026582D01*
X018665Y026554D02*
X018866Y026755D01*
X018889Y026796D01*
X018902Y026841D01*
X018902Y026889D01*
X018889Y026935D01*
X018866Y026976D01*
X018665Y027176D01*
X018354Y026865D01*
X018665Y026554D01*
X018637Y026582D02*
X018637Y026582D01*
X018478Y026741D02*
X018478Y026741D01*
X018354Y026865D02*
X018354Y026865D01*
X018354Y026865D01*
X018665Y027176D01*
X018464Y027377D01*
X018423Y027401D01*
X018378Y027413D01*
X018330Y027413D01*
X018284Y027401D01*
X018243Y027377D01*
X018043Y027176D01*
X018354Y026865D01*
X018388Y026899D02*
X018388Y026899D01*
X018320Y026899D02*
X018320Y026899D01*
X018161Y027058D02*
X018161Y027058D01*
X018083Y027216D02*
X017228Y027216D01*
X017228Y027058D02*
X017924Y027058D01*
X017809Y026899D02*
X017228Y026899D01*
X017228Y026741D02*
X017856Y026741D01*
X017505Y026582D02*
X017228Y026582D01*
X017228Y026424D02*
X017407Y026424D01*
X017388Y026265D02*
X017228Y026265D01*
X017228Y026107D02*
X017435Y026107D01*
X017591Y025948D02*
X017228Y025948D01*
X016277Y025948D02*
X015889Y025948D01*
X015889Y025790D02*
X016277Y025790D01*
X016277Y025631D02*
X015889Y025631D01*
X015889Y025473D02*
X016277Y025473D01*
X016277Y025314D02*
X015889Y025314D01*
X015889Y025156D02*
X016277Y025156D01*
X016277Y024997D02*
X015954Y024997D01*
X016113Y024839D02*
X016277Y024839D01*
X016271Y024680D02*
X016277Y024680D01*
X016277Y026107D02*
X015889Y026107D01*
X015889Y026265D02*
X016277Y026265D01*
X016277Y026424D02*
X015889Y026424D01*
X015889Y026582D02*
X016277Y026582D01*
X016277Y026741D02*
X015889Y026741D01*
X015889Y026899D02*
X016277Y026899D01*
X016199Y027058D02*
X015889Y027058D01*
X015889Y027216D02*
X016218Y027216D01*
X015889Y027375D02*
X016710Y027375D01*
X016710Y027533D02*
X015889Y027533D01*
X015889Y027692D02*
X016710Y027692D01*
X016710Y027850D02*
X015889Y027850D01*
X015953Y028009D02*
X016710Y028009D01*
X016710Y028167D02*
X015962Y028167D01*
X015839Y028326D02*
X016710Y028326D01*
X016710Y028484D02*
X015617Y028484D01*
X015598Y028643D02*
X016710Y028643D01*
X016710Y028801D02*
X015440Y028801D01*
X015374Y028960D02*
X016710Y028960D01*
X016710Y029118D02*
X015533Y029118D01*
X015617Y029277D02*
X016710Y029277D01*
X016710Y029435D02*
X015617Y029435D01*
X015617Y029594D02*
X016710Y029594D01*
X016710Y029752D02*
X015489Y029752D01*
X015382Y029911D02*
X016710Y029911D01*
X016710Y030069D02*
X015541Y030069D01*
X015657Y030228D02*
X016710Y030228D01*
X016710Y030386D02*
X015657Y030386D01*
X015657Y030545D02*
X016710Y030545D01*
X016638Y030703D02*
X015594Y030703D01*
X015436Y030862D02*
X016644Y030862D01*
X017214Y031179D02*
X017458Y031179D01*
X017458Y031020D02*
X017346Y031020D01*
X017346Y030862D02*
X017458Y030862D01*
X017458Y030703D02*
X017346Y030703D01*
X017346Y030545D02*
X017458Y030545D01*
X017458Y030069D02*
X017228Y030069D01*
X017228Y029911D02*
X017458Y029911D01*
X017458Y029752D02*
X017228Y029752D01*
X017228Y029594D02*
X017458Y029594D01*
X017458Y029435D02*
X017228Y029435D01*
X017228Y029277D02*
X017458Y029277D01*
X017458Y029118D02*
X017228Y029118D01*
X017228Y028960D02*
X017458Y028960D01*
X017507Y028801D02*
X017228Y028801D01*
X017228Y028643D02*
X017666Y028643D01*
X018021Y028484D02*
X017228Y028484D01*
X017228Y028326D02*
X018179Y028326D01*
X018338Y028167D02*
X017228Y028167D01*
X017228Y028009D02*
X018496Y028009D01*
X018655Y027850D02*
X017228Y027850D01*
X017228Y027692D02*
X018813Y027692D01*
X018972Y027533D02*
X017228Y027533D01*
X017228Y027375D02*
X018241Y027375D01*
X018467Y027375D02*
X019130Y027375D01*
X019289Y027216D02*
X018625Y027216D01*
X018547Y027058D02*
X018547Y027058D01*
X018784Y027058D02*
X019447Y027058D01*
X019606Y026899D02*
X018899Y026899D01*
X018852Y026741D02*
X019764Y026741D01*
X020692Y025790D02*
X020720Y025790D01*
X020692Y025631D02*
X021346Y025631D01*
X021188Y025790D02*
X021091Y025790D01*
X020692Y025473D02*
X021505Y025473D01*
X017332Y031496D02*
X013369Y031496D01*
X013369Y031654D02*
X015802Y031654D01*
X015764Y031813D02*
X013369Y031813D01*
X013369Y031971D02*
X014810Y031971D01*
X014651Y032130D02*
X013369Y032130D01*
X013369Y032288D02*
X014493Y032288D01*
X014334Y032447D02*
X013369Y032447D01*
X013369Y032605D02*
X014062Y032605D01*
X013956Y032764D02*
X013369Y032764D01*
X013369Y032922D02*
X013973Y032922D01*
X014380Y033715D02*
X013369Y033715D01*
X013369Y033873D02*
X014347Y033873D01*
X014424Y034032D02*
X013369Y034032D01*
X013369Y034190D02*
X014427Y034190D01*
X014427Y034349D02*
X013369Y034349D01*
X013369Y034507D02*
X014427Y034507D01*
X014427Y034666D02*
X013369Y034666D01*
X013369Y034824D02*
X014427Y034824D01*
X014427Y034983D02*
X013369Y034983D01*
X013369Y035141D02*
X014427Y035141D01*
X014546Y035300D02*
X013369Y035300D01*
X016245Y031654D02*
X017174Y031654D01*
X015127Y030862D02*
X015087Y030862D01*
X015087Y030703D02*
X015127Y030703D01*
X015127Y030545D02*
X015087Y030545D01*
X014777Y030862D02*
X014379Y030862D01*
X014538Y030703D02*
X014619Y030703D01*
X016696Y027216D02*
X016710Y027216D01*
X014850Y025948D02*
X014363Y025948D01*
X014521Y026107D02*
X014692Y026107D01*
X014343Y040372D02*
X013369Y040372D01*
X013369Y040530D02*
X014172Y040530D01*
X014107Y040689D02*
X013369Y040689D01*
X013369Y040847D02*
X014097Y040847D01*
X014134Y041006D02*
X013369Y041006D01*
X013369Y041164D02*
X014235Y041164D01*
X017870Y040372D02*
X018280Y040372D01*
X018134Y040530D02*
X018041Y040530D01*
X018079Y041006D02*
X018090Y041006D01*
X018181Y041164D02*
X017978Y041164D01*
X018587Y041164D02*
X018627Y041164D01*
X018627Y041006D02*
X018587Y041006D01*
X018587Y040847D02*
X018627Y040847D01*
X018627Y040689D02*
X018587Y040689D01*
X018587Y040530D02*
X018627Y040530D01*
X018627Y040372D02*
X018587Y040372D01*
X030933Y026582D02*
X031649Y026582D01*
X031634Y026424D02*
X030969Y026424D01*
X030897Y026265D02*
X031741Y026265D01*
X030761Y024363D02*
X036671Y024363D01*
X036671Y024205D02*
X030920Y024205D01*
X031078Y024046D02*
X036671Y024046D01*
X036671Y023888D02*
X034854Y023888D01*
X034906Y023729D02*
X036671Y023729D01*
X036671Y023571D02*
X034856Y023571D01*
X034590Y023412D02*
X036671Y023412D01*
X036671Y023254D02*
X035291Y023254D01*
X035339Y023095D02*
X036671Y023095D01*
X036671Y022937D02*
X035285Y022937D01*
X035279Y022778D02*
X036671Y022778D01*
X036671Y022620D02*
X035279Y022620D01*
X035279Y022461D02*
X036671Y022461D01*
X036671Y022303D02*
X035279Y022303D01*
X035279Y022144D02*
X036671Y022144D01*
X036671Y021986D02*
X035279Y021986D01*
X035279Y021827D02*
X036671Y021827D01*
X036671Y021669D02*
X035279Y021669D01*
X035279Y021510D02*
X036671Y021510D01*
X036671Y021352D02*
X035279Y021352D01*
X035279Y021193D02*
X036671Y021193D01*
X036671Y021035D02*
X035279Y021035D01*
X035279Y020876D02*
X036671Y020876D01*
X036671Y020718D02*
X035279Y020718D01*
X035279Y020559D02*
X036671Y020559D01*
X036671Y020401D02*
X035279Y020401D01*
X035279Y020242D02*
X036671Y020242D01*
X036671Y020084D02*
X035337Y020084D01*
X034879Y021352D02*
X032544Y021352D01*
X032468Y021510D02*
X034879Y021510D01*
X034879Y021669D02*
X032196Y021669D01*
X032037Y021827D02*
X034879Y021827D01*
X034879Y021986D02*
X031879Y021986D01*
X031720Y022144D02*
X034879Y022144D01*
X034879Y022303D02*
X031562Y022303D01*
X031403Y022461D02*
X034020Y022461D01*
X034020Y022620D02*
X031283Y022620D01*
X031283Y022778D02*
X034032Y022778D01*
X034020Y022937D02*
X031283Y022937D01*
X031283Y023095D02*
X034020Y023095D01*
X034230Y023254D02*
X031283Y023254D01*
X031283Y023412D02*
X034230Y023412D01*
X034234Y023571D02*
X031283Y023571D01*
X031283Y023729D02*
X034386Y023729D01*
X034438Y023888D02*
X031237Y023888D01*
X034590Y023254D02*
X034867Y023254D01*
X034819Y023095D02*
X034800Y023095D01*
X034800Y022937D02*
X034873Y022937D01*
X033915Y016121D02*
X032808Y016121D01*
X032937Y015963D02*
X033915Y015963D01*
X033915Y015804D02*
X032990Y015804D01*
X032990Y015646D02*
X033915Y015646D01*
X033915Y015487D02*
X032928Y015487D01*
X032786Y015329D02*
X033915Y015329D01*
X033915Y010415D02*
X024986Y010415D01*
X025233Y010257D02*
X033915Y010257D01*
X033915Y010098D02*
X025351Y010098D01*
X025413Y009940D02*
X033915Y009940D01*
X033915Y008830D02*
X019738Y008830D01*
X019901Y008672D02*
X020036Y008672D01*
X020036Y008513D02*
X019939Y008513D01*
X019905Y008355D02*
X020036Y008355D01*
X020036Y008196D02*
X019890Y008196D01*
X019939Y008038D02*
X020036Y008038D01*
X020036Y007879D02*
X019915Y007879D01*
X019874Y007721D02*
X020036Y007721D01*
X020036Y007562D02*
X019939Y007562D01*
X019926Y007404D02*
X020036Y007404D01*
X020036Y007245D02*
X019850Y007245D01*
X019936Y007087D02*
X020036Y007087D01*
X020036Y006928D02*
X019936Y006928D01*
X019850Y006770D02*
X020036Y006770D01*
X020036Y006611D02*
X019926Y006611D01*
X019939Y006453D02*
X020036Y006453D01*
X020036Y006294D02*
X019874Y006294D01*
X020036Y006136D02*
X019224Y006136D01*
X019081Y006136D02*
X019081Y006136D01*
X019081Y006109D02*
X019081Y006507D01*
X019081Y006507D01*
X019081Y006109D01*
X018938Y006136D02*
X014916Y006136D01*
X014819Y006294D02*
X018745Y006294D01*
X018686Y006453D02*
X014743Y006453D01*
X014679Y006611D02*
X018696Y006611D01*
X018683Y006507D02*
X019081Y006507D01*
X018683Y006507D01*
X018780Y006770D02*
X014643Y006770D01*
X014607Y006928D02*
X018726Y006928D01*
X018726Y007087D02*
X014593Y007087D01*
X014590Y007245D02*
X018780Y007245D01*
X018696Y007404D02*
X014590Y007404D01*
X014590Y007562D02*
X018686Y007562D01*
X018745Y007721D02*
X014590Y007721D01*
X015043Y005977D02*
X020036Y005977D01*
X020036Y005819D02*
X015201Y005819D01*
X015400Y005660D02*
X020036Y005660D01*
X020036Y005502D02*
X015711Y005502D01*
X019081Y006294D02*
X019081Y006294D01*
X019081Y006453D02*
X019081Y006453D01*
X019081Y006507D02*
X019081Y006507D01*
X019081Y007562D02*
X019081Y007562D01*
X019081Y007721D02*
X019081Y007721D01*
X019081Y007879D02*
X019081Y007879D01*
X019081Y008007D02*
X019081Y008007D01*
X019393Y008830D02*
X019424Y008830D01*
X019295Y009940D02*
X021334Y009940D01*
X021276Y010098D02*
X019295Y010098D01*
X019341Y010257D02*
X021319Y010257D01*
X021513Y010415D02*
X019346Y010415D01*
X019295Y010574D02*
X021513Y010574D01*
X021513Y010732D02*
X019295Y010732D01*
X019295Y010891D02*
X021513Y010891D01*
X021513Y011049D02*
X019295Y011049D01*
X019295Y011208D02*
X021513Y011208D01*
X021513Y011366D02*
X019295Y011366D01*
X022169Y008672D02*
X026336Y008672D01*
X026336Y008513D02*
X022169Y008513D01*
X022169Y008355D02*
X026336Y008355D01*
X026336Y008196D02*
X022169Y008196D01*
X022169Y008038D02*
X026336Y008038D01*
X026336Y007879D02*
X022169Y007879D01*
X022169Y007721D02*
X026336Y007721D01*
X026336Y007562D02*
X022169Y007562D01*
X022169Y007404D02*
X026336Y007404D01*
X026336Y007245D02*
X022169Y007245D01*
X022169Y007087D02*
X026336Y007087D01*
X026336Y006928D02*
X022169Y006928D01*
X022169Y006770D02*
X026336Y006770D01*
X026336Y006611D02*
X022169Y006611D01*
X022169Y006453D02*
X026336Y006453D01*
X026336Y006294D02*
X022169Y006294D01*
X022169Y006136D02*
X026336Y006136D01*
X026336Y005977D02*
X022169Y005977D01*
X022169Y005819D02*
X026336Y005819D01*
X026336Y005660D02*
X022169Y005660D01*
X022169Y005502D02*
X026336Y005502D01*
X028468Y006136D02*
X028483Y006136D01*
X028468Y006294D02*
X033685Y006294D01*
X033762Y006453D02*
X028468Y006453D01*
X028468Y006611D02*
X028914Y006611D01*
X028927Y006598D02*
X029479Y006598D01*
X029561Y006680D01*
X029561Y007232D01*
X029479Y007314D01*
X028927Y007314D01*
X028845Y007232D01*
X028845Y006680D01*
X028927Y006598D01*
X028845Y006770D02*
X028468Y006770D01*
X028468Y006928D02*
X028845Y006928D01*
X028845Y007087D02*
X028468Y007087D01*
X028468Y007245D02*
X028858Y007245D01*
X028468Y007404D02*
X033915Y007404D01*
X033915Y007562D02*
X028468Y007562D01*
X028468Y007721D02*
X033915Y007721D01*
X033915Y007879D02*
X028468Y007879D01*
X028468Y008038D02*
X033915Y008038D01*
X033915Y008196D02*
X028468Y008196D01*
X028468Y008355D02*
X033915Y008355D01*
X033915Y008513D02*
X028468Y008513D01*
X028468Y008672D02*
X033915Y008672D01*
X033915Y007245D02*
X031330Y007245D01*
X031315Y007260D02*
X031184Y007314D01*
X031041Y007314D01*
X030910Y007260D01*
X030809Y007159D01*
X030754Y007028D01*
X030754Y006885D01*
X030809Y006753D01*
X030910Y006653D01*
X031041Y006598D01*
X031184Y006598D01*
X031315Y006653D01*
X031416Y006753D01*
X031471Y006885D01*
X031471Y007028D01*
X031416Y007159D01*
X031315Y007260D01*
X031446Y007087D02*
X033911Y007087D01*
X033898Y006928D02*
X031471Y006928D01*
X031423Y006770D02*
X033862Y006770D01*
X033826Y006611D02*
X031215Y006611D01*
X031010Y006611D02*
X029492Y006611D01*
X029561Y006770D02*
X030802Y006770D01*
X030754Y006928D02*
X029561Y006928D01*
X029561Y007087D02*
X030779Y007087D01*
X030895Y007245D02*
X029548Y007245D01*
X028998Y006136D02*
X031318Y006136D01*
X031186Y005977D02*
X029130Y005977D01*
X029177Y005819D02*
X031138Y005819D01*
X031150Y005660D02*
X029166Y005660D01*
X029085Y005502D02*
X031231Y005502D01*
X031919Y005502D02*
X032793Y005502D01*
X033105Y005660D02*
X032000Y005660D01*
X032012Y005819D02*
X033303Y005819D01*
X033462Y005977D02*
X031964Y005977D01*
X031832Y006136D02*
X033588Y006136D01*
X024328Y009147D02*
X024168Y009147D01*
X024168Y009306D02*
X024328Y009306D01*
X024328Y009464D02*
X024168Y009464D01*
X024168Y009623D02*
X024328Y009623D01*
X024328Y010098D02*
X024168Y010098D01*
X024168Y010257D02*
X024328Y010257D01*
X024328Y010415D02*
X024168Y010415D01*
X032406Y031179D02*
X033245Y031179D01*
X033245Y031337D02*
X032376Y031337D01*
D38*
X032126Y031208D03*
X027559Y036326D03*
X032284Y058649D03*
X032284Y059043D03*
X032284Y059437D03*
X032284Y059830D03*
X033701Y059830D03*
X028504Y060185D03*
X027992Y060185D03*
D39*
X015906Y059555D03*
X029449Y033610D03*
X028544Y025067D03*
X025906Y025067D03*
D40*
X033445Y032606D02*
X033445Y035244D01*
X027756Y043689D02*
X015906Y055539D01*
X015906Y059555D01*
D41*
X018583Y064122D03*
X020355Y067232D03*
X024607Y018295D03*
X024016Y014633D03*
X028740Y010815D03*
D42*
X028740Y012114D01*
X024607Y016248D01*
X024607Y018295D01*
X024016Y014633D02*
X022948Y013565D01*
X022948Y011974D01*
X019646Y064122D02*
X018583Y064122D01*
X019646Y064122D02*
X020355Y064830D01*
X020355Y067232D01*
M02*
